M48
; DRILL file {KiCad (6.0.0)} date Fri Apr  1 00:43:12 2022
; FORMAT={-:-/ absolute / metric / decimal}
; #@! TF.CreationDate,2022-04-01T00:43:12-07:00
; #@! TF.GenerationSoftware,Kicad,Pcbnew,(6.0.0)
; #@! TF.FileFunction,Plated,1,4,PTH
FMAT,2
METRIC
; #@! TA.AperFunction,Plated,PTH,ViaDrill
T1C0.400
; #@! TA.AperFunction,Plated,PTH,ComponentDrill
T2C1.000
; #@! TA.AperFunction,Plated,PTH,ComponentDrill
T3C1.900
%
G90
G05
T1
X143.51Y-131.572
X143.51Y-132.588
X143.51Y-133.604
X143.51Y-134.62
X143.51Y-135.636
X143.51Y-136.652
X144.526Y-131.572
X144.526Y-132.588
X144.526Y-133.604
X144.526Y-134.62
X144.526Y-135.636
X144.526Y-136.652
X144.526Y-163.068
X145.542Y-131.572
X145.542Y-132.588
X145.542Y-133.604
X145.542Y-134.62
X145.542Y-135.636
X145.542Y-136.652
X145.796Y-145.542
X145.796Y-146.558
X147.574Y-163.068
X148.844Y-163.576
X148.844Y-174.498
X150.368Y-165.354
X151.384Y-162.306
X152.146Y-145.542
X153.162Y-145.542
X153.924Y-156.972
X154.178Y-145.542
X155.194Y-145.542
X155.194Y-156.972
X157.226Y-172.72
X158.496Y-177.8
X159.004Y-161.798
X159.258Y-145.542
X159.703Y-171.474
X160.274Y-145.542
X160.274Y-172.466
X160.782Y-173.99
X161.29Y-145.542
X162.052Y-156.972
X162.306Y-145.542
X162.306Y-174.752
X164.084Y-156.972
X166.878Y-178.562
X167.386Y-162.56
X167.386Y-172.72
X168.402Y-167.64
X168.656Y-131.572
X168.656Y-132.588
X168.656Y-133.604
X168.656Y-134.62
X168.656Y-135.636
X168.656Y-136.652
X169.672Y-131.572
X169.672Y-132.588
X169.672Y-133.604
X169.672Y-134.62
X169.672Y-135.636
X169.672Y-136.652
X170.434Y-149.86
X170.688Y-131.572
X170.688Y-132.588
X170.688Y-133.604
X170.688Y-134.62
X170.688Y-135.636
X170.688Y-136.652
T2
X145.034Y-181.087
X145.034Y-183.627
X145.034Y-186.167
X169.418Y-172.217
X169.418Y-174.757
X169.418Y-177.297
X169.418Y-179.837
X169.418Y-182.377
T3
X149.392Y-180.396
X149.392Y-187.396
X149.646Y-128.062
X149.646Y-135.062
X154.392Y-180.396
X154.392Y-187.396
X154.646Y-128.062
X154.646Y-135.062
X159.298Y-180.396
X159.298Y-187.396
X160.06Y-128.072
X160.06Y-135.072
X164.298Y-180.396
X164.298Y-187.396
X165.06Y-128.072
X165.06Y-135.072
T0
M30
