M48
; DRILL file {KiCad (6.0.0)} date Wed Feb 23 23:53:06 2022
; FORMAT={-:-/ absolute / metric / decimal}
; #@! TF.CreationDate,2022-02-23T23:53:06-08:00
; #@! TF.GenerationSoftware,Kicad,Pcbnew,(6.0.0)
; #@! TF.FileFunction,Plated,1,4,PTH
FMAT,2
METRIC
; #@! TA.AperFunction,Plated,PTH,ViaDrill
T1C0.200
; #@! TA.AperFunction,Plated,PTH,ViaDrill
T2C0.400
; #@! TA.AperFunction,Plated,PTH,ComponentDrill
T3C1.000
; #@! TA.AperFunction,Plated,PTH,ComponentDrill
T4C1.900
%
G90
G05
T1
X147.825Y-151.001
X147.825Y-151.509
X147.828Y-152.019
X147.828Y-153.416
X147.828Y-153.924
X147.828Y-154.432
X147.828Y-155.194
X147.828Y-155.829
X147.828Y-156.464
X147.828Y-157.861
X147.828Y-158.496
X147.828Y-159.131
X149.86Y-151.13
X149.86Y-152.146
X149.86Y-152.908
X149.86Y-153.67
X149.86Y-154.432
X149.86Y-155.277
X149.86Y-156.21
X153.153Y-156.098
X154.079Y-164.04
X154.178Y-163.322
X156.21Y-150.876
X156.21Y-151.638
X156.21Y-152.4
X156.21Y-154.94
X156.21Y-160.02
X156.214Y-155.706
X156.22Y-154.101
X156.23Y-153.289
X156.753Y-157.339
X156.845Y-151.257
X156.845Y-152.019
X156.845Y-152.781
X156.845Y-153.67
X156.845Y-154.432
X156.845Y-155.194
X156.845Y-156.083
X158.496Y-177.8
X159.512Y-174.244
X159.547Y-174.914
X159.766Y-163.83
X159.766Y-171.577
X159.898Y-161.377
X160.274Y-172.466
X160.528Y-161.544
X162.814Y-150.876
X162.814Y-151.638
X162.814Y-152.4
X162.814Y-153.289
X162.814Y-154.051
X162.814Y-154.813
X162.941Y-155.702
X165.858Y-151.509
X165.858Y-153.156
X165.858Y-153.668
X165.862Y-151.003
X165.862Y-152.019
X165.862Y-154.178
X165.862Y-155.448
X165.862Y-155.956
X165.862Y-156.464
X165.862Y-157.734
X165.862Y-158.242
X165.862Y-158.75
X166.813Y-177.865
X167.132Y-172.72
X168.402Y-166.37
T2
X149.86Y-160.283
X157.226Y-172.72
T3
X145.034Y-181.087
X145.034Y-183.627
X145.034Y-186.167
X169.418Y-172.217
X169.418Y-174.757
X169.418Y-177.297
X169.418Y-179.837
X169.418Y-182.377
T4
X149.173Y-140.772
X149.173Y-147.772
X149.392Y-180.396
X149.392Y-187.396
X154.173Y-140.772
X154.173Y-147.772
X154.392Y-180.396
X154.392Y-187.396
X159.044Y-140.772
X159.044Y-147.772
X159.298Y-180.396
X159.298Y-187.396
X164.044Y-140.772
X164.044Y-147.772
X164.298Y-180.396
X164.298Y-187.396
T0
M30
