%TF.GenerationSoftware,KiCad,Pcbnew,(6.0.0)*%
%TF.CreationDate,2022-04-01T00:42:52-07:00*%
%TF.ProjectId,motor-controller,6d6f746f-722d-4636-9f6e-74726f6c6c65,rev?*%
%TF.SameCoordinates,Original*%
%TF.FileFunction,Copper,L1,Top*%
%TF.FilePolarity,Positive*%
%FSLAX46Y46*%
G04 Gerber Fmt 4.6, Leading zero omitted, Abs format (unit mm)*
G04 Created by KiCad (PCBNEW (6.0.0)) date 2022-04-01 00:42:52*
%MOMM*%
%LPD*%
G01*
G04 APERTURE LIST*
G04 Aperture macros list*
%AMRoundRect*
0 Rectangle with rounded corners*
0 $1 Rounding radius*
0 $2 $3 $4 $5 $6 $7 $8 $9 X,Y pos of 4 corners*
0 Add a 4 corners polygon primitive as box body*
4,1,4,$2,$3,$4,$5,$6,$7,$8,$9,$2,$3,0*
0 Add four circle primitives for the rounded corners*
1,1,$1+$1,$2,$3*
1,1,$1+$1,$4,$5*
1,1,$1+$1,$6,$7*
1,1,$1+$1,$8,$9*
0 Add four rect primitives between the rounded corners*
20,1,$1+$1,$2,$3,$4,$5,0*
20,1,$1+$1,$4,$5,$6,$7,0*
20,1,$1+$1,$6,$7,$8,$9,0*
20,1,$1+$1,$8,$9,$2,$3,0*%
G04 Aperture macros list end*
%TA.AperFunction,SMDPad,CuDef*%
%ADD10R,1.000000X0.400000*%
%TD*%
%TA.AperFunction,SMDPad,CuDef*%
%ADD11RoundRect,0.150000X0.150000X-0.825000X0.150000X0.825000X-0.150000X0.825000X-0.150000X-0.825000X0*%
%TD*%
%TA.AperFunction,SMDPad,CuDef*%
%ADD12RoundRect,0.237500X0.250000X0.237500X-0.250000X0.237500X-0.250000X-0.237500X0.250000X-0.237500X0*%
%TD*%
%TA.AperFunction,SMDPad,CuDef*%
%ADD13RoundRect,0.237500X-0.250000X-0.237500X0.250000X-0.237500X0.250000X0.237500X-0.250000X0.237500X0*%
%TD*%
%TA.AperFunction,SMDPad,CuDef*%
%ADD14R,5.800000X6.400000*%
%TD*%
%TA.AperFunction,SMDPad,CuDef*%
%ADD15R,1.200000X2.200000*%
%TD*%
%TA.AperFunction,ComponentPad*%
%ADD16R,2.200000X2.200000*%
%TD*%
%TA.AperFunction,SMDPad,CuDef*%
%ADD17RoundRect,0.237500X-0.237500X0.287500X-0.237500X-0.287500X0.237500X-0.287500X0.237500X0.287500X0*%
%TD*%
%TA.AperFunction,SMDPad,CuDef*%
%ADD18RoundRect,0.250000X-0.412500X-0.650000X0.412500X-0.650000X0.412500X0.650000X-0.412500X0.650000X0*%
%TD*%
%TA.AperFunction,SMDPad,CuDef*%
%ADD19RoundRect,0.237500X-0.300000X-0.237500X0.300000X-0.237500X0.300000X0.237500X-0.300000X0.237500X0*%
%TD*%
%TA.AperFunction,SMDPad,CuDef*%
%ADD20RoundRect,0.250000X0.412500X0.650000X-0.412500X0.650000X-0.412500X-0.650000X0.412500X-0.650000X0*%
%TD*%
%TA.AperFunction,SMDPad,CuDef*%
%ADD21RoundRect,0.237500X-0.237500X0.250000X-0.237500X-0.250000X0.237500X-0.250000X0.237500X0.250000X0*%
%TD*%
%TA.AperFunction,SMDPad,CuDef*%
%ADD22RoundRect,0.237500X0.237500X-0.300000X0.237500X0.300000X-0.237500X0.300000X-0.237500X-0.300000X0*%
%TD*%
%TA.AperFunction,ComponentPad*%
%ADD23R,1.700000X1.700000*%
%TD*%
%TA.AperFunction,ComponentPad*%
%ADD24O,1.700000X1.700000*%
%TD*%
%TA.AperFunction,SMDPad,CuDef*%
%ADD25R,2.200000X1.200000*%
%TD*%
%TA.AperFunction,SMDPad,CuDef*%
%ADD26R,6.400000X5.800000*%
%TD*%
%TA.AperFunction,SMDPad,CuDef*%
%ADD27RoundRect,0.237500X0.237500X-0.250000X0.237500X0.250000X-0.237500X0.250000X-0.237500X-0.250000X0*%
%TD*%
%TA.AperFunction,SMDPad,CuDef*%
%ADD28R,1.500000X2.000000*%
%TD*%
%TA.AperFunction,SMDPad,CuDef*%
%ADD29R,3.800000X2.000000*%
%TD*%
%TA.AperFunction,SMDPad,CuDef*%
%ADD30RoundRect,0.250000X0.475000X-0.337500X0.475000X0.337500X-0.475000X0.337500X-0.475000X-0.337500X0*%
%TD*%
%TA.AperFunction,SMDPad,CuDef*%
%ADD31RoundRect,0.250000X-0.325000X-0.650000X0.325000X-0.650000X0.325000X0.650000X-0.325000X0.650000X0*%
%TD*%
%TA.AperFunction,SMDPad,CuDef*%
%ADD32R,0.800000X1.000000*%
%TD*%
%TA.AperFunction,ViaPad*%
%ADD33C,0.800000*%
%TD*%
%TA.AperFunction,Conductor*%
%ADD34C,0.088900*%
%TD*%
%TA.AperFunction,Conductor*%
%ADD35C,0.203200*%
%TD*%
%TA.AperFunction,Conductor*%
%ADD36C,0.254000*%
%TD*%
%TA.AperFunction,Conductor*%
%ADD37C,0.127000*%
%TD*%
%TA.AperFunction,Conductor*%
%ADD38C,0.250000*%
%TD*%
%TA.AperFunction,Conductor*%
%ADD39C,0.381000*%
%TD*%
G04 APERTURE END LIST*
D10*
%TO.P,U4,1,PB7/PB8*%
%TO.N,unconnected-(U4-Pad1)*%
X164444000Y-176661000D03*
%TO.P,U4,2,PB9/PC14-OSC32_IN*%
%TO.N,unconnected-(U4-Pad2)*%
X164444000Y-176011000D03*
%TO.P,U4,3,PC15-OSC32_OUT*%
%TO.N,unconnected-(U4-Pad3)*%
X164444000Y-175361000D03*
%TO.P,U4,4,VDD/VDDA*%
%TO.N,+3V3*%
X164444000Y-174711000D03*
%TO.P,U4,5,VSS/VSSA*%
%TO.N,GND*%
X164444000Y-174061000D03*
%TO.P,U4,6,~{RST}*%
%TO.N,/controller/NRST*%
X164444000Y-173411000D03*
%TO.P,U4,7,PA0*%
%TO.N,/controller/ANALOG_TEMP*%
X164444000Y-172761000D03*
%TO.P,U4,8,PA1*%
%TO.N,/controller/VBUS_SAMPLE*%
X164444000Y-172111000D03*
%TO.P,U4,9,PA2*%
%TO.N,unconnected-(U4-Pad9)*%
X164444000Y-171461000D03*
%TO.P,U4,10,PA3*%
%TO.N,unconnected-(U4-Pad10)*%
X164444000Y-170811000D03*
%TO.P,U4,11,PA4*%
%TO.N,/controller/PWM_IN*%
X158644000Y-170811000D03*
%TO.P,U4,12,PA5*%
%TO.N,PWM_A_LOW*%
X158644000Y-171461000D03*
%TO.P,U4,13,PA6*%
%TO.N,PWM_B_HIGH*%
X158644000Y-172111000D03*
%TO.P,U4,14,PA7*%
%TO.N,PWM_A_HIGH*%
X158644000Y-172761000D03*
%TO.P,U4,15,PB0/PB1/PB2/PA8*%
%TO.N,/controller/LED_R*%
X158644000Y-173411000D03*
%TO.P,U4,16,PA11[PA9]*%
%TO.N,/controller/LED_G*%
X158644000Y-174061000D03*
%TO.P,U4,17,PA12[PA10]*%
%TO.N,PWM_B_LOW*%
X158644000Y-174711000D03*
%TO.P,U4,18,PA13*%
%TO.N,/controller/SWDIO*%
X158644000Y-175361000D03*
%TO.P,U4,19,PA15/PA14-BOOT0*%
%TO.N,/controller/SWCLK*%
X158644000Y-176011000D03*
%TO.P,U4,20,PB3/PB4/PB5/PB6*%
%TO.N,/controller/LED_B*%
X158644000Y-176661000D03*
%TD*%
D11*
%TO.P,U2,8,VB*%
%TO.N,Net-(C9-Pad1)*%
X160655000Y-153735000D03*
%TO.P,U2,7,HO*%
%TO.N,Net-(R3-Pad1)*%
X161925000Y-153735000D03*
%TO.P,U2,6,VS*%
%TO.N,/SW_B*%
X163195000Y-153735000D03*
%TO.P,U2,5,LO*%
%TO.N,Net-(R4-Pad1)*%
X164465000Y-153735000D03*
%TO.P,U2,4,COM*%
%TO.N,GND*%
X164465000Y-158685000D03*
%TO.P,U2,3,LIN*%
%TO.N,PWM_B_LOW*%
X163195000Y-158685000D03*
%TO.P,U2,2,HIN*%
%TO.N,PWM_B_HIGH*%
X161925000Y-158685000D03*
%TO.P,U2,1,VCC*%
%TO.N,VBUS*%
X160655000Y-158685000D03*
%TD*%
%TO.P,U1,8,VB*%
%TO.N,Net-(C2-Pad1)*%
X151511000Y-153735000D03*
%TO.P,U1,7,HO*%
%TO.N,Net-(R1-Pad1)*%
X152781000Y-153735000D03*
%TO.P,U1,6,VS*%
%TO.N,/SW_A*%
X154051000Y-153735000D03*
%TO.P,U1,5,LO*%
%TO.N,Net-(R2-Pad1)*%
X155321000Y-153735000D03*
%TO.P,U1,4,COM*%
%TO.N,GND*%
X155321000Y-158685000D03*
%TO.P,U1,3,LIN*%
%TO.N,PWM_A_LOW*%
X154051000Y-158685000D03*
%TO.P,U1,2,HIN*%
%TO.N,PWM_A_HIGH*%
X152781000Y-158685000D03*
%TO.P,U1,1,VCC*%
%TO.N,VBUS*%
X151511000Y-158685000D03*
%TD*%
D12*
%TO.P,R4,2*%
%TO.N,Net-(Q4-Pad1)*%
X158599500Y-149342178D03*
%TO.P,R4,1*%
%TO.N,Net-(R4-Pad1)*%
X160424500Y-149342178D03*
%TD*%
D13*
%TO.P,R3,2*%
%TO.N,Net-(Q3-Pad1)*%
X165758500Y-149342178D03*
%TO.P,R3,1*%
%TO.N,Net-(R3-Pad1)*%
X163933500Y-149342178D03*
%TD*%
%TO.P,R2,2*%
%TO.N,Net-(Q2-Pad1)*%
X151485524Y-149342178D03*
%TO.P,R2,1*%
%TO.N,Net-(R2-Pad1)*%
X149660524Y-149342178D03*
%TD*%
D12*
%TO.P,R1,2*%
%TO.N,Net-(Q1-Pad1)*%
X144684024Y-149342178D03*
%TO.P,R1,1*%
%TO.N,Net-(R1-Pad1)*%
X146509024Y-149342178D03*
%TD*%
D14*
%TO.P,Q4,2,D*%
%TO.N,/SW_B*%
X160782000Y-140902000D03*
D15*
%TO.P,Q4,3,S*%
%TO.N,GND*%
X163062000Y-147202000D03*
%TO.P,Q4,1,G*%
%TO.N,Net-(Q4-Pad1)*%
X158502000Y-147202000D03*
%TD*%
D14*
%TO.P,Q3,2,D*%
%TO.N,VBUS*%
X167894000Y-140902000D03*
D15*
%TO.P,Q3,3,S*%
%TO.N,/SW_B*%
X170174000Y-147202000D03*
%TO.P,Q3,1,G*%
%TO.N,Net-(Q3-Pad1)*%
X165614000Y-147202000D03*
%TD*%
D14*
%TO.P,Q2,2,D*%
%TO.N,/SW_A*%
X153670000Y-140902000D03*
D15*
%TO.P,Q2,3,S*%
%TO.N,GND*%
X155950000Y-147202000D03*
%TO.P,Q2,1,G*%
%TO.N,Net-(Q2-Pad1)*%
X151390000Y-147202000D03*
%TD*%
D14*
%TO.P,Q1,2,D*%
%TO.N,VBUS*%
X146558000Y-140902000D03*
D15*
%TO.P,Q1,3,S*%
%TO.N,/SW_A*%
X148838000Y-147202000D03*
%TO.P,Q1,1,G*%
%TO.N,Net-(Q1-Pad1)*%
X144278000Y-147202000D03*
%TD*%
D16*
%TO.P,J4,1,Pin_1*%
%TO.N,/SW_B*%
X165060000Y-128072000D03*
X160060000Y-135072000D03*
X165060000Y-135072000D03*
X160060000Y-128072000D03*
%TD*%
%TO.P,J3,1,Pin_1*%
%TO.N,/SW_A*%
X154646000Y-128062178D03*
X149646000Y-135062178D03*
X154646000Y-135062178D03*
X149646000Y-128062178D03*
%TD*%
D17*
%TO.P,D2,1,K*%
%TO.N,Net-(C9-Pad1)*%
X159004000Y-156859000D03*
%TO.P,D2,2,A*%
%TO.N,VBUS*%
X159004000Y-158609000D03*
%TD*%
%TO.P,D1,2,A*%
%TO.N,VBUS*%
X149860000Y-158863000D03*
%TO.P,D1,1,K*%
%TO.N,Net-(C2-Pad1)*%
X149860000Y-157113000D03*
%TD*%
D18*
%TO.P,C18,2*%
%TO.N,GND*%
X170472500Y-156210000D03*
%TO.P,C18,1*%
%TO.N,VBUS*%
X167347500Y-156210000D03*
%TD*%
D19*
%TO.P,C17,2*%
%TO.N,GND*%
X162406500Y-160782000D03*
%TO.P,C17,1*%
%TO.N,VBUS*%
X160681500Y-160782000D03*
%TD*%
D18*
%TO.P,C16,2*%
%TO.N,GND*%
X170472500Y-158496000D03*
%TO.P,C16,1*%
%TO.N,VBUS*%
X167347500Y-158496000D03*
%TD*%
D20*
%TO.P,C15,2*%
%TO.N,GND*%
X144487500Y-156718000D03*
%TO.P,C15,1*%
%TO.N,VBUS*%
X147612500Y-156718000D03*
%TD*%
%TO.P,C14,2*%
%TO.N,GND*%
X144487500Y-151892000D03*
%TO.P,C14,1*%
%TO.N,VBUS*%
X147612500Y-151892000D03*
%TD*%
D19*
%TO.P,C9,2*%
%TO.N,/SW_B*%
X162406500Y-151638000D03*
%TO.P,C9,1*%
%TO.N,Net-(C9-Pad1)*%
X160681500Y-151638000D03*
%TD*%
D20*
%TO.P,C8,2*%
%TO.N,GND*%
X144487500Y-159004000D03*
%TO.P,C8,1*%
%TO.N,VBUS*%
X147612500Y-159004000D03*
%TD*%
%TO.P,C7,2*%
%TO.N,GND*%
X144487500Y-161290000D03*
%TO.P,C7,1*%
%TO.N,VBUS*%
X147612500Y-161290000D03*
%TD*%
D18*
%TO.P,C6,1*%
%TO.N,VBUS*%
X167347500Y-160782000D03*
%TO.P,C6,2*%
%TO.N,GND*%
X170472500Y-160782000D03*
%TD*%
%TO.P,C5,2*%
%TO.N,GND*%
X170472500Y-153924000D03*
%TO.P,C5,1*%
%TO.N,VBUS*%
X167347500Y-153924000D03*
%TD*%
%TO.P,C4,2*%
%TO.N,GND*%
X170472500Y-151638000D03*
%TO.P,C4,1*%
%TO.N,VBUS*%
X167347500Y-151638000D03*
%TD*%
D20*
%TO.P,C3,2*%
%TO.N,GND*%
X144431500Y-154388000D03*
%TO.P,C3,1*%
%TO.N,VBUS*%
X147556500Y-154388000D03*
%TD*%
D19*
%TO.P,C2,2*%
%TO.N,/SW_A*%
X153262500Y-151638000D03*
%TO.P,C2,1*%
%TO.N,Net-(C2-Pad1)*%
X151537500Y-151638000D03*
%TD*%
%TO.P,C1,2*%
%TO.N,GND*%
X153262500Y-160782000D03*
%TO.P,C1,1*%
%TO.N,VBUS*%
X151537500Y-160782000D03*
%TD*%
D21*
%TO.P,R9,1*%
%TO.N,Net-(D3-Pad1)*%
X155181035Y-171452651D03*
%TO.P,R9,2*%
%TO.N,/controller/LED_R*%
X155181035Y-173277651D03*
%TD*%
D22*
%TO.P,C12,1*%
%TO.N,+3V3*%
X166116000Y-174598500D03*
%TO.P,C12,2*%
%TO.N,GND*%
X166116000Y-172873500D03*
%TD*%
D23*
%TO.P,J5,1,Pin_1*%
%TO.N,+3V3*%
X169418000Y-172217000D03*
D24*
%TO.P,J5,2,Pin_2*%
%TO.N,GND*%
X169418000Y-174757000D03*
%TO.P,J5,3,Pin_3*%
%TO.N,/controller/SWCLK*%
X169418000Y-177297000D03*
%TO.P,J5,4,Pin_4*%
%TO.N,/controller/SWDIO*%
X169418000Y-179837000D03*
%TO.P,J5,5,Pin_5*%
%TO.N,/controller/NRST*%
X169418000Y-182377000D03*
%TD*%
D23*
%TO.P,J6,1,Pin_1*%
%TO.N,GND*%
X145034000Y-186167000D03*
D24*
%TO.P,J6,2,Pin_2*%
%TO.N,+5V*%
X145034000Y-183627000D03*
%TO.P,J6,3,Pin_3*%
%TO.N,/controller/PWM_IN*%
X145034000Y-181087000D03*
%TD*%
D16*
%TO.P,J2,1,Pin_1*%
%TO.N,GND*%
X164298000Y-187396000D03*
X164298000Y-180396000D03*
X159298000Y-180396000D03*
X159298000Y-187396000D03*
%TD*%
D25*
%TO.P,U6,1,VI*%
%TO.N,VBUS*%
X158106000Y-163836000D03*
D26*
%TO.P,U6,2,GND*%
%TO.N,GND*%
X164406000Y-166116000D03*
D25*
%TO.P,U6,3,VO*%
%TO.N,+5V*%
X158106000Y-168396000D03*
%TD*%
D13*
%TO.P,R10,1*%
%TO.N,Net-(D3-Pad3)*%
X151636775Y-177223938D03*
%TO.P,R10,2*%
%TO.N,/controller/LED_B*%
X153461775Y-177223938D03*
%TD*%
D27*
%TO.P,R13,1*%
%TO.N,/controller/VBUS_SAMPLE*%
X171241409Y-168298500D03*
%TO.P,R13,2*%
%TO.N,GND*%
X171241409Y-166473500D03*
%TD*%
D13*
%TO.P,R11,1*%
%TO.N,Net-(D3-Pad4)*%
X153158602Y-175709463D03*
%TO.P,R11,2*%
%TO.N,/controller/LED_G*%
X154983602Y-175709463D03*
%TD*%
D16*
%TO.P,J1,1,Pin_1*%
%TO.N,VBUS*%
X149392000Y-180396000D03*
X149392000Y-187396000D03*
X154392000Y-187396000D03*
X154392000Y-180396000D03*
%TD*%
D28*
%TO.P,U5,1,ADJ/GND*%
%TO.N,GND*%
X148604000Y-170586000D03*
%TO.P,U5,2,OUT*%
%TO.N,+3V3*%
X146304000Y-170586000D03*
%TO.P,U5,3,IN*%
%TO.N,+5V*%
X144004000Y-170586000D03*
D29*
%TO.P,U5,4,OUT*%
%TO.N,+3V3*%
X146304000Y-176886000D03*
%TD*%
D21*
%TO.P,R12,1*%
%TO.N,VBUS*%
X169418000Y-166473500D03*
%TO.P,R12,2*%
%TO.N,/controller/VBUS_SAMPLE*%
X169418000Y-168298500D03*
%TD*%
D30*
%TO.P,C13,1*%
%TO.N,+3V3*%
X146304000Y-168169500D03*
%TO.P,C13,2*%
%TO.N,GND*%
X146304000Y-166094500D03*
%TD*%
D31*
%TO.P,C19,1*%
%TO.N,VBUS*%
X148893000Y-165354000D03*
%TO.P,C19,2*%
%TO.N,GND*%
X151843000Y-165354000D03*
%TD*%
D30*
%TO.P,C10,1*%
%TO.N,+5V*%
X155448000Y-168423500D03*
%TO.P,C10,2*%
%TO.N,GND*%
X155448000Y-166348500D03*
%TD*%
D32*
%TO.P,D3,1,RK*%
%TO.N,Net-(D3-Pad1)*%
X153100000Y-171470000D03*
%TO.P,D3,2,A*%
%TO.N,Net-(D3-Pad2)*%
X151700000Y-171470000D03*
%TO.P,D3,3,BK*%
%TO.N,Net-(D3-Pad3)*%
X151700000Y-173970000D03*
%TO.P,D3,4,GK*%
%TO.N,Net-(D3-Pad4)*%
X153100000Y-173970000D03*
%TD*%
D12*
%TO.P,R14,1*%
%TO.N,+3V3*%
X153312500Y-169672000D03*
%TO.P,R14,2*%
%TO.N,Net-(D3-Pad2)*%
X151487500Y-169672000D03*
%TD*%
D30*
%TO.P,C11,2*%
%TO.N,GND*%
X143764000Y-166094500D03*
%TO.P,C11,1*%
%TO.N,+5V*%
X143764000Y-168169500D03*
%TD*%
D33*
%TO.N,VBUS*%
X168402000Y-167640000D03*
%TO.N,PWM_B_LOW*%
X160782000Y-173990000D03*
%TO.N,/controller/PWM_IN*%
X162306000Y-174752000D03*
%TO.N,GND*%
X167386000Y-172720000D03*
%TO.N,/controller/SWCLK*%
X166878000Y-178562000D03*
%TO.N,/controller/PWM_IN*%
X158496000Y-177800000D03*
%TO.N,PWM_A_LOW*%
X159703050Y-171474000D03*
%TO.N,PWM_B_HIGH*%
X160274000Y-172466000D03*
%TO.N,GND*%
X144526000Y-163068000D03*
X170434000Y-149860000D03*
%TO.N,VBUS*%
X167386000Y-162560000D03*
X147574000Y-163068000D03*
%TO.N,GND*%
X145796000Y-146558000D03*
X145796000Y-145542000D03*
X152146000Y-145542000D03*
X155194000Y-145542000D03*
X154178000Y-145542000D03*
X153162000Y-145542000D03*
X159258000Y-145542000D03*
X162306000Y-145542000D03*
X161290000Y-145542000D03*
X160274000Y-145542000D03*
%TO.N,VBUS*%
X170688000Y-134620000D03*
X169672000Y-134620000D03*
X168656000Y-134620000D03*
X168656000Y-133604000D03*
X169672000Y-133604000D03*
X170688000Y-133604000D03*
X170688000Y-132588000D03*
X170688000Y-131572000D03*
X169672000Y-131572000D03*
X168656000Y-135636000D03*
X168656000Y-136652000D03*
X169672000Y-136652000D03*
X170688000Y-136652000D03*
X169672000Y-135636000D03*
X170688000Y-135636000D03*
X168656000Y-131572000D03*
X169672000Y-132588000D03*
X168656000Y-132588000D03*
X143510000Y-136652000D03*
X144526000Y-136652000D03*
X145542000Y-136652000D03*
X143510000Y-135636000D03*
X144526000Y-135636000D03*
X145542000Y-135636000D03*
X143510000Y-134620000D03*
X144526000Y-134620000D03*
X145542000Y-134620000D03*
X143510000Y-133604000D03*
X144526000Y-133604000D03*
X145542000Y-133604000D03*
X145542000Y-132588000D03*
X144526000Y-132588000D03*
X143510000Y-132588000D03*
X145542000Y-131572000D03*
X144526000Y-131572000D03*
X143510000Y-131572000D03*
X148844000Y-163576000D03*
X151384000Y-162306000D03*
%TO.N,PWM_A_HIGH*%
X153924000Y-156972000D03*
%TO.N,PWM_A_LOW*%
X155194000Y-156972000D03*
%TO.N,VBUS*%
X159004000Y-161798000D03*
%TO.N,PWM_B_HIGH*%
X162052000Y-156972000D03*
%TO.N,PWM_B_LOW*%
X164084000Y-156972000D03*
%TO.N,GND*%
X148844000Y-174498000D03*
X150368000Y-165354000D03*
%TO.N,PWM_A_HIGH*%
X157226000Y-172720000D03*
%TD*%
D34*
%TO.N,VBUS*%
X169418000Y-166473500D02*
X168402000Y-167489500D01*
X168402000Y-167489500D02*
X168402000Y-167640000D01*
%TO.N,PWM_B_LOW*%
X160528000Y-174244000D02*
X160782000Y-173990000D01*
X159512000Y-174244000D02*
X160528000Y-174244000D01*
%TO.N,/controller/PWM_IN*%
X162306000Y-174498000D02*
X162052000Y-174244000D01*
X162306000Y-174752000D02*
X162306000Y-174498000D01*
%TO.N,GND*%
X166269500Y-172720000D02*
X167386000Y-172720000D01*
%TO.N,/controller/SWCLK*%
X166878000Y-177929366D02*
X166878000Y-178562000D01*
X166813317Y-177864683D02*
X166878000Y-177929366D01*
D35*
%TO.N,VBUS*%
X159004000Y-161798000D02*
X158106000Y-162696000D01*
X158106000Y-162696000D02*
X158106000Y-163836000D01*
D36*
%TO.N,PWM_A_LOW*%
X159727050Y-171450000D02*
X159703050Y-171474000D01*
X159766000Y-171450000D02*
X159727050Y-171450000D01*
%TO.N,VBUS*%
X167386000Y-162560000D02*
X167386000Y-160820500D01*
X167386000Y-160820500D02*
X167347500Y-160782000D01*
X147574000Y-161328500D02*
X147612500Y-161290000D01*
X147574000Y-163068000D02*
X147574000Y-161328500D01*
D35*
%TO.N,Net-(Q3-Pad1)*%
X165614000Y-149197678D02*
X165614000Y-147202000D01*
X165758500Y-149342178D02*
X165614000Y-149197678D01*
%TO.N,/SW_B*%
X167008000Y-150368000D02*
X170174000Y-147202000D01*
X165862000Y-150368000D02*
X167008000Y-150368000D01*
X165862000Y-154432000D02*
X165862000Y-150368000D01*
X164592000Y-155702000D02*
X165862000Y-154432000D01*
X162306000Y-155702000D02*
X164592000Y-155702000D01*
X161396880Y-152647620D02*
X161396880Y-154792880D01*
X162406500Y-151638000D02*
X161396880Y-152647620D01*
X161396880Y-154792880D02*
X162306000Y-155702000D01*
%TO.N,Net-(R4-Pad1)*%
X161306664Y-149342178D02*
X160424500Y-149342178D01*
X164465000Y-152500514D02*
X161306664Y-149342178D01*
X164465000Y-153735000D02*
X164465000Y-152500514D01*
%TO.N,Net-(R3-Pad1)*%
X165100000Y-150508678D02*
X163933500Y-149342178D01*
X162888378Y-154938120D02*
X164771622Y-154938120D01*
X165100000Y-154609742D02*
X165100000Y-150508678D01*
X161925000Y-153974742D02*
X162888378Y-154938120D01*
X164771622Y-154938120D02*
X165100000Y-154609742D01*
%TO.N,Net-(C9-Pad1)*%
X160655000Y-151664500D02*
X160681500Y-151638000D01*
X160655000Y-153735000D02*
X160655000Y-151664500D01*
%TO.N,Net-(Q4-Pad1)*%
X158502000Y-149244678D02*
X158502000Y-147202000D01*
X158599500Y-149342178D02*
X158502000Y-149244678D01*
D37*
%TO.N,VBUS*%
X148893000Y-163625000D02*
X148844000Y-163576000D01*
X148893000Y-165354000D02*
X148893000Y-163625000D01*
X151384000Y-160935500D02*
X151384000Y-162306000D01*
X151537500Y-160782000D02*
X151384000Y-160935500D01*
%TO.N,PWM_A_HIGH*%
X153924000Y-156972000D02*
X152781000Y-158115000D01*
X152781000Y-158115000D02*
X152781000Y-158685000D01*
%TO.N,PWM_A_LOW*%
X155194000Y-156972000D02*
X154051000Y-158115000D01*
X154051000Y-158115000D02*
X154051000Y-158685000D01*
%TO.N,VBUS*%
X160020000Y-160782000D02*
X159004000Y-161798000D01*
X160681500Y-160782000D02*
X160020000Y-160782000D01*
D34*
%TO.N,PWM_B_HIGH*%
X162052000Y-156972000D02*
X161925000Y-157099000D01*
X161925000Y-157099000D02*
X161925000Y-158685000D01*
%TO.N,PWM_B_LOW*%
X163195000Y-157861000D02*
X163195000Y-158685000D01*
X164084000Y-156972000D02*
X163195000Y-157861000D01*
D38*
%TO.N,VBUS*%
X159080000Y-158685000D02*
X159004000Y-158609000D01*
X160655000Y-158685000D02*
X159080000Y-158685000D01*
X160681500Y-158711500D02*
X160655000Y-158685000D01*
X160681500Y-160782000D02*
X160681500Y-158711500D01*
X150038000Y-158685000D02*
X149860000Y-158863000D01*
X151511000Y-158685000D02*
X150038000Y-158685000D01*
X151537500Y-160782000D02*
X151537500Y-158711500D01*
X151537500Y-158711500D02*
X151511000Y-158685000D01*
%TO.N,/SW_B*%
X163195000Y-153735000D02*
X163195000Y-152426500D01*
X163195000Y-152426500D02*
X162406500Y-151638000D01*
%TO.N,Net-(C9-Pad1)*%
X159004000Y-155386000D02*
X160655000Y-153735000D01*
X159004000Y-156859000D02*
X159004000Y-155386000D01*
%TO.N,Net-(C2-Pad1)*%
X149860000Y-155386000D02*
X151511000Y-153735000D01*
X149860000Y-157113000D02*
X149860000Y-155386000D01*
X151511000Y-154007835D02*
X151511000Y-153735000D01*
X152697165Y-155194000D02*
X151511000Y-154007835D01*
X153416000Y-152827165D02*
X153416000Y-154642835D01*
X153097315Y-152508480D02*
X153416000Y-152827165D01*
X152864835Y-155194000D02*
X152697165Y-155194000D01*
X152407980Y-152508480D02*
X153097315Y-152508480D01*
X153416000Y-154642835D02*
X152864835Y-155194000D01*
X151537500Y-151638000D02*
X152407980Y-152508480D01*
%TO.N,Net-(R1-Pad1)*%
X152781000Y-153462165D02*
X152781000Y-153735000D01*
X151718835Y-152400000D02*
X152781000Y-153462165D01*
X151006788Y-152400000D02*
X151718835Y-152400000D01*
X148012600Y-149342178D02*
X148012600Y-149405812D01*
X148012600Y-149405812D02*
X151006788Y-152400000D01*
X146509024Y-149342178D02*
X148012600Y-149342178D01*
%TO.N,/SW_A*%
X148838000Y-149698732D02*
X148838000Y-147202000D01*
X150050748Y-150911480D02*
X148838000Y-149698732D01*
X152535980Y-150911480D02*
X150050748Y-150911480D01*
X153262500Y-151638000D02*
X152535980Y-150911480D01*
X154051000Y-152426500D02*
X153262500Y-151638000D01*
X154051000Y-153735000D02*
X154051000Y-152426500D01*
%TO.N,Net-(R2-Pad1)*%
X155321000Y-152273000D02*
X155321000Y-153735000D01*
X153116698Y-150068698D02*
X155321000Y-152273000D01*
X150387044Y-150068698D02*
X153116698Y-150068698D01*
X149660524Y-149342178D02*
X150387044Y-150068698D01*
%TO.N,Net-(Q1-Pad1)*%
X144684024Y-147608024D02*
X144278000Y-147202000D01*
X144684024Y-149342178D02*
X144684024Y-147608024D01*
%TO.N,Net-(Q2-Pad1)*%
X151485524Y-149342178D02*
X151485524Y-147297524D01*
X151485524Y-147297524D02*
X151390000Y-147202000D01*
%TO.N,GND*%
X148604000Y-170586000D02*
X148604000Y-174258000D01*
D34*
X165435099Y-174061000D02*
X166116000Y-173380099D01*
X164444000Y-174061000D02*
X165435099Y-174061000D01*
X151843000Y-165354000D02*
X150368000Y-165354000D01*
X166116000Y-172873500D02*
X166269500Y-172720000D01*
X166116000Y-173380099D02*
X166116000Y-172873500D01*
D38*
X148604000Y-174258000D02*
X148844000Y-174498000D01*
D36*
%TO.N,+5V*%
X154469480Y-167444980D02*
X155448000Y-168423500D01*
D39*
X143764000Y-168169500D02*
X144668520Y-167264980D01*
X154289480Y-167264980D02*
X155448000Y-168423500D01*
X144004000Y-170586000D02*
X144004000Y-168409500D01*
X143793989Y-170796011D02*
X143793989Y-182386989D01*
X143793989Y-182386989D02*
X145034000Y-183627000D01*
X144004000Y-170586000D02*
X143793989Y-170796011D01*
X153929980Y-167264980D02*
X154289480Y-167264980D01*
X158078500Y-168423500D02*
X158106000Y-168396000D01*
X155448000Y-168423500D02*
X158078500Y-168423500D01*
X144004000Y-168409500D02*
X143764000Y-168169500D01*
X144668520Y-167264980D02*
X153929980Y-167264980D01*
D37*
%TO.N,+3V3*%
X153312500Y-169672000D02*
X160735769Y-169672000D01*
D36*
X151810000Y-168169500D02*
X153312500Y-169672000D01*
D37*
X163680989Y-172617220D02*
X163680989Y-174378011D01*
X164013978Y-174711000D02*
X164444000Y-174711000D01*
D34*
X167036500Y-174598500D02*
X169418000Y-172217000D01*
D36*
X146304000Y-176886000D02*
X146304000Y-170586000D01*
D34*
X166116000Y-174598500D02*
X166003500Y-174711000D01*
X166003500Y-174711000D02*
X164444000Y-174711000D01*
D37*
X163680989Y-174378011D02*
X164013978Y-174711000D01*
D36*
X146304000Y-168169500D02*
X151810000Y-168169500D01*
D39*
X146304000Y-170586000D02*
X146304000Y-168169500D01*
D34*
X166116000Y-174598500D02*
X167036500Y-174598500D01*
D37*
X160735769Y-169672000D02*
X163680989Y-172617220D01*
D36*
%TO.N,Net-(D3-Pad1)*%
X153100000Y-171470000D02*
X155163686Y-171470000D01*
X155163686Y-171470000D02*
X155181035Y-171452651D01*
D34*
%TO.N,/controller/SWDIO*%
X162023039Y-175361000D02*
X158644000Y-175361000D01*
X162023039Y-175361000D02*
X163767000Y-177104961D01*
X166685961Y-177104961D02*
X169418000Y-179837000D01*
X163767000Y-177104961D02*
X166685961Y-177104961D01*
%TO.N,/controller/SWCLK*%
X161290000Y-177800000D02*
X159501000Y-176011000D01*
X159501000Y-176011000D02*
X158644000Y-176011000D01*
X161290000Y-177800000D02*
X166748634Y-177800000D01*
X166748634Y-177800000D02*
X166813317Y-177864683D01*
D37*
%TO.N,/controller/PWM_IN*%
X148467011Y-178054000D02*
X158242000Y-178054000D01*
X162052000Y-174244000D02*
X162052000Y-171450000D01*
X162052000Y-171450000D02*
X161413000Y-170811000D01*
X158242000Y-178054000D02*
X158496000Y-177800000D01*
X161413000Y-170811000D02*
X158644000Y-170811000D01*
X145434011Y-181087000D02*
X148467011Y-178054000D01*
X145034000Y-181087000D02*
X145434011Y-181087000D01*
D36*
%TO.N,Net-(D3-Pad4)*%
X153100000Y-173970000D02*
X153100000Y-175650861D01*
X153100000Y-175650861D02*
X153158602Y-175709463D01*
%TO.N,Net-(D3-Pad3)*%
X151636775Y-177223938D02*
X151700000Y-177160713D01*
X151700000Y-177160713D02*
X151700000Y-173970000D01*
D34*
%TO.N,/controller/LED_R*%
X155181035Y-173277651D02*
X155314384Y-173411000D01*
X155314384Y-173411000D02*
X158644000Y-173411000D01*
%TO.N,/controller/LED_B*%
X153461775Y-177223938D02*
X154024713Y-176661000D01*
X154024713Y-176661000D02*
X158644000Y-176661000D01*
%TO.N,/controller/LED_G*%
X154983602Y-175709463D02*
X156632065Y-174061000D01*
X156632065Y-174061000D02*
X158644000Y-174061000D01*
%TO.N,/controller/VBUS_SAMPLE*%
X168845400Y-168298500D02*
X169418000Y-168298500D01*
X164444000Y-172111000D02*
X165032900Y-172111000D01*
X165032900Y-172111000D02*
X168845400Y-168298500D01*
X169418000Y-168298500D02*
X171241409Y-168298500D01*
%TO.N,/controller/NRST*%
X171196000Y-171807078D02*
X171196000Y-180594000D01*
X165358961Y-172412138D02*
X166829099Y-170942000D01*
X166829099Y-170942000D02*
X170330922Y-170942000D01*
X170688000Y-181107000D02*
X169418000Y-182377000D01*
X171196000Y-180594000D02*
X170688000Y-181102000D01*
X170330922Y-170942000D02*
X170688000Y-171299078D01*
X164444000Y-173411000D02*
X165358961Y-173411000D01*
X165358961Y-173411000D02*
X165358961Y-172412138D01*
X170688000Y-171299078D02*
X171196000Y-171807078D01*
D38*
%TO.N,PWM_A_HIGH*%
X158603000Y-172720000D02*
X158644000Y-172761000D01*
X157226000Y-172720000D02*
X158603000Y-172720000D01*
D34*
%TO.N,PWM_A_LOW*%
X159755000Y-171461000D02*
X159766000Y-171450000D01*
X158644000Y-171461000D02*
X159755000Y-171461000D01*
%TO.N,PWM_B_HIGH*%
X159919000Y-172111000D02*
X160274000Y-172466000D01*
X158644000Y-172111000D02*
X159919000Y-172111000D01*
%TO.N,PWM_B_LOW*%
X159512000Y-174244000D02*
X159045000Y-174711000D01*
X159045000Y-174711000D02*
X158644000Y-174711000D01*
D36*
%TO.N,Net-(D3-Pad2)*%
X151487500Y-169672000D02*
X151487500Y-171257500D01*
X151487500Y-171257500D02*
X151700000Y-171470000D01*
%TD*%
%TA.AperFunction,Conductor*%
%TO.N,GND*%
G36*
X142407799Y-145500982D02*
G01*
X142408760Y-145501421D01*
X142413076Y-145502688D01*
X142413078Y-145502689D01*
X142472558Y-145520154D01*
X142472562Y-145520155D01*
X142476881Y-145521423D01*
X142481329Y-145522063D01*
X142481336Y-145522064D01*
X142615552Y-145541361D01*
X142615559Y-145541362D01*
X142620000Y-145542000D01*
X143210296Y-145542000D01*
X143278417Y-145562002D01*
X143324910Y-145615658D01*
X143335014Y-145685932D01*
X143311122Y-145743565D01*
X143227385Y-145855295D01*
X143176255Y-145991684D01*
X143169500Y-146053866D01*
X143169500Y-148350134D01*
X143176255Y-148412316D01*
X143227385Y-148548705D01*
X143314739Y-148665261D01*
X143431295Y-148752615D01*
X143567684Y-148803745D01*
X143575537Y-148804598D01*
X143575541Y-148804599D01*
X143588580Y-148806015D01*
X143654143Y-148833256D01*
X143694570Y-148891619D01*
X143697882Y-148952301D01*
X143698550Y-148952369D01*
X143697849Y-148959207D01*
X143697849Y-148959209D01*
X143693542Y-149001247D01*
X143688024Y-149055106D01*
X143688024Y-149629250D01*
X143698817Y-149733271D01*
X143753870Y-149898285D01*
X143845408Y-150046209D01*
X143850590Y-150051382D01*
X143963340Y-150163936D01*
X143963345Y-150163940D01*
X143968521Y-150169107D01*
X143974751Y-150172947D01*
X143974752Y-150172948D01*
X144100955Y-150250741D01*
X144148448Y-150303514D01*
X144159872Y-150373585D01*
X144131598Y-150438709D01*
X144072604Y-150478208D01*
X144034839Y-150484001D01*
X144027905Y-150484001D01*
X144021386Y-150484338D01*
X143925794Y-150494257D01*
X143912400Y-150497149D01*
X143758216Y-150548588D01*
X143745038Y-150554761D01*
X143607193Y-150640063D01*
X143595792Y-150649099D01*
X143481261Y-150763829D01*
X143472249Y-150775240D01*
X143387184Y-150913243D01*
X143381037Y-150926424D01*
X143329862Y-151080710D01*
X143326995Y-151094086D01*
X143317328Y-151188438D01*
X143317000Y-151194855D01*
X143317000Y-151492885D01*
X143321475Y-151508124D01*
X143322865Y-151509329D01*
X143330548Y-151511000D01*
X145639884Y-151511000D01*
X145655123Y-151506525D01*
X145656328Y-151505135D01*
X145657999Y-151497452D01*
X145657999Y-151194905D01*
X145657662Y-151188386D01*
X145647743Y-151092794D01*
X145644851Y-151079400D01*
X145593412Y-150925216D01*
X145587239Y-150912038D01*
X145501937Y-150774193D01*
X145492901Y-150762792D01*
X145378171Y-150648261D01*
X145366760Y-150639249D01*
X145228757Y-150554184D01*
X145215576Y-150548037D01*
X145160480Y-150529762D01*
X145102120Y-150489331D01*
X145074884Y-150423766D01*
X145087418Y-150353885D01*
X145135743Y-150301873D01*
X145160269Y-150290646D01*
X145252631Y-150259832D01*
X145400555Y-150168294D01*
X145416151Y-150152671D01*
X145507271Y-150061392D01*
X145569554Y-150027313D01*
X145640374Y-150032316D01*
X145685461Y-150061237D01*
X145788336Y-150163932D01*
X145788341Y-150163936D01*
X145793521Y-150169107D01*
X145799751Y-150172947D01*
X145799752Y-150172948D01*
X145925331Y-150250356D01*
X145941604Y-150260387D01*
X146106715Y-150315152D01*
X146113551Y-150315852D01*
X146113554Y-150315853D01*
X146165050Y-150321129D01*
X146209452Y-150325678D01*
X146796222Y-150325678D01*
X146864343Y-150345680D01*
X146910836Y-150399336D01*
X146920940Y-150469610D01*
X146891446Y-150534190D01*
X146862525Y-150558822D01*
X146804403Y-150594789D01*
X146725652Y-150643522D01*
X146720479Y-150648704D01*
X146705531Y-150663678D01*
X146600695Y-150768697D01*
X146596855Y-150774927D01*
X146596854Y-150774928D01*
X146510122Y-150915632D01*
X146498090Y-150932025D01*
X146493260Y-150937600D01*
X146486645Y-150945234D01*
X146426579Y-151076760D01*
X146406577Y-151144881D01*
X146405937Y-151149329D01*
X146405936Y-151149336D01*
X146386639Y-151283552D01*
X146386638Y-151283559D01*
X146386000Y-151288000D01*
X146386000Y-153677811D01*
X146385836Y-153684238D01*
X146385828Y-153684403D01*
X146385500Y-153687600D01*
X146385500Y-155088400D01*
X146385834Y-155091617D01*
X146386000Y-155098060D01*
X146386000Y-157514687D01*
X146391171Y-157586983D01*
X146396275Y-157622482D01*
X146411682Y-157693309D01*
X146414488Y-157699453D01*
X146414489Y-157699456D01*
X146430613Y-157734762D01*
X146442000Y-157787105D01*
X146442000Y-158293811D01*
X146441836Y-158300238D01*
X146441828Y-158300403D01*
X146441500Y-158303600D01*
X146441500Y-159704400D01*
X146441834Y-159707617D01*
X146442000Y-159714060D01*
X146442000Y-160579811D01*
X146441836Y-160586238D01*
X146441828Y-160586403D01*
X146441500Y-160589600D01*
X146441500Y-161990400D01*
X146441834Y-161993617D01*
X146442000Y-162000060D01*
X146442000Y-162104000D01*
X146453609Y-162211980D01*
X146454323Y-162215264D01*
X146454324Y-162215268D01*
X146456963Y-162227400D01*
X146464995Y-162264322D01*
X146499293Y-162367372D01*
X146577465Y-162489010D01*
X146580407Y-162492405D01*
X146580409Y-162492408D01*
X146608161Y-162524435D01*
X146623958Y-162542666D01*
X146676663Y-162588335D01*
X146689948Y-162599847D01*
X146728331Y-162659573D01*
X146727268Y-162734007D01*
X146680458Y-162878072D01*
X146679768Y-162884633D01*
X146679768Y-162884635D01*
X146668768Y-162989295D01*
X146660496Y-163068000D01*
X146661186Y-163074565D01*
X146678455Y-163238866D01*
X146680458Y-163257928D01*
X146739473Y-163439556D01*
X146834960Y-163604944D01*
X146962747Y-163746866D01*
X147117248Y-163859118D01*
X147123276Y-163861802D01*
X147123278Y-163861803D01*
X147285677Y-163934107D01*
X147291712Y-163936794D01*
X147378987Y-163955345D01*
X147472056Y-163975128D01*
X147472061Y-163975128D01*
X147478513Y-163976500D01*
X147669487Y-163976500D01*
X147675939Y-163975128D01*
X147675944Y-163975128D01*
X147835225Y-163941271D01*
X147856288Y-163936794D01*
X147862321Y-163934108D01*
X147862324Y-163934107D01*
X147869562Y-163930884D01*
X147939929Y-163921449D01*
X148004226Y-163951555D01*
X148029930Y-163982988D01*
X148049429Y-164016761D01*
X148049804Y-164017411D01*
X148066541Y-164086406D01*
X148043320Y-164153498D01*
X148029857Y-164169428D01*
X147973866Y-164225516D01*
X147973862Y-164225521D01*
X147968695Y-164230697D01*
X147875885Y-164381262D01*
X147820203Y-164549139D01*
X147809500Y-164653600D01*
X147809500Y-166054400D01*
X147809837Y-166057646D01*
X147809837Y-166057650D01*
X147819752Y-166153206D01*
X147820474Y-166160166D01*
X147876450Y-166327946D01*
X147904751Y-166373679D01*
X147923587Y-166442129D01*
X147902425Y-166509899D01*
X147847984Y-166555470D01*
X147797605Y-166565980D01*
X147652570Y-166565980D01*
X147584449Y-166545978D01*
X147537956Y-166492322D01*
X147532864Y-166478669D01*
X147531135Y-166477171D01*
X147523452Y-166475500D01*
X145089118Y-166475500D01*
X145075008Y-166479643D01*
X145012727Y-166481868D01*
X144983453Y-166475500D01*
X142549116Y-166475500D01*
X142533877Y-166479975D01*
X142532672Y-166481365D01*
X142531471Y-166486889D01*
X142541257Y-166581206D01*
X142544149Y-166594600D01*
X142595588Y-166748784D01*
X142601761Y-166761962D01*
X142687063Y-166899807D01*
X142696099Y-166911208D01*
X142810828Y-167025738D01*
X142819762Y-167032794D01*
X142860823Y-167090712D01*
X142864053Y-167161635D01*
X142828426Y-167223046D01*
X142820593Y-167229846D01*
X142814652Y-167233522D01*
X142689695Y-167358697D01*
X142685855Y-167364927D01*
X142685854Y-167364928D01*
X142601519Y-167501745D01*
X142596885Y-167509262D01*
X142541203Y-167677139D01*
X142540503Y-167683975D01*
X142540502Y-167683978D01*
X142536770Y-167720403D01*
X142530500Y-167781600D01*
X142530500Y-168557400D01*
X142541474Y-168663166D01*
X142543655Y-168669702D01*
X142543655Y-168669704D01*
X142553204Y-168698325D01*
X142597450Y-168830946D01*
X142690522Y-168981348D01*
X142695704Y-168986521D01*
X142708638Y-168999432D01*
X142815697Y-169106305D01*
X142821791Y-169110061D01*
X142862815Y-169167925D01*
X142866046Y-169238848D01*
X142844486Y-169284454D01*
X142803385Y-169339295D01*
X142752255Y-169475684D01*
X142745500Y-169537866D01*
X142745500Y-171634134D01*
X142752255Y-171696316D01*
X142803385Y-171832705D01*
X142890739Y-171949261D01*
X142897919Y-171954642D01*
X143000113Y-172031233D01*
X143000116Y-172031235D01*
X143007295Y-172036615D01*
X143015698Y-172039765D01*
X143023574Y-172044077D01*
X143022589Y-172045876D01*
X143069978Y-172081470D01*
X143094682Y-172148030D01*
X143094989Y-172156817D01*
X143094989Y-182358390D01*
X143094697Y-182366960D01*
X143090819Y-182423841D01*
X143092124Y-182431317D01*
X143092124Y-182431321D01*
X143101652Y-182485913D01*
X143102615Y-182492438D01*
X143110180Y-182554949D01*
X143112864Y-182562051D01*
X143113708Y-182565489D01*
X143117572Y-182579612D01*
X143118602Y-182583023D01*
X143119908Y-182590506D01*
X143122961Y-182597461D01*
X143145228Y-182648187D01*
X143147719Y-182654293D01*
X143149853Y-182659939D01*
X143169983Y-182713211D01*
X143174282Y-182719466D01*
X143175924Y-182722607D01*
X143183022Y-182735361D01*
X143184859Y-182738467D01*
X143187912Y-182745422D01*
X143192537Y-182751449D01*
X143192539Y-182751453D01*
X143226254Y-182795391D01*
X143230118Y-182800709D01*
X143265810Y-182852641D01*
X143271480Y-182857693D01*
X143271481Y-182857694D01*
X143311677Y-182893507D01*
X143316953Y-182898488D01*
X143663666Y-183245201D01*
X143697692Y-183307513D01*
X143696176Y-183361291D01*
X143697339Y-183361513D01*
X143696371Y-183366587D01*
X143694989Y-183371570D01*
X143671251Y-183593695D01*
X143671548Y-183598848D01*
X143671548Y-183598851D01*
X143677978Y-183710368D01*
X143684110Y-183816715D01*
X143685247Y-183821761D01*
X143685248Y-183821767D01*
X143705119Y-183909939D01*
X143733222Y-184034639D01*
X143817266Y-184241616D01*
X143933987Y-184432088D01*
X144080250Y-184600938D01*
X144084225Y-184604238D01*
X144084231Y-184604244D01*
X144089425Y-184608556D01*
X144129059Y-184667460D01*
X144130555Y-184738441D01*
X144093439Y-184798962D01*
X144053168Y-184823480D01*
X143945946Y-184863676D01*
X143930351Y-184872214D01*
X143828276Y-184948715D01*
X143815715Y-184961276D01*
X143739214Y-185063351D01*
X143730676Y-185078946D01*
X143685522Y-185199394D01*
X143681895Y-185214649D01*
X143676369Y-185265514D01*
X143676000Y-185272328D01*
X143676000Y-185767885D01*
X143680475Y-185783124D01*
X143681865Y-185784329D01*
X143689548Y-185786000D01*
X146373884Y-185786000D01*
X146389123Y-185781525D01*
X146390328Y-185780135D01*
X146391999Y-185772452D01*
X146391999Y-185272331D01*
X146391629Y-185265510D01*
X146386105Y-185214648D01*
X146382479Y-185199396D01*
X146337324Y-185078946D01*
X146328786Y-185063351D01*
X146252285Y-184961276D01*
X146239724Y-184948715D01*
X146137649Y-184872214D01*
X146122054Y-184863676D01*
X146011813Y-184822348D01*
X145955049Y-184779706D01*
X145930349Y-184713145D01*
X145945557Y-184643796D01*
X145967104Y-184615115D01*
X146068430Y-184514144D01*
X146068440Y-184514132D01*
X146072096Y-184510489D01*
X146131594Y-184427689D01*
X146199435Y-184333277D01*
X146202453Y-184329077D01*
X146301430Y-184128811D01*
X146366370Y-183915069D01*
X146395529Y-183693590D01*
X146395611Y-183690240D01*
X146397074Y-183630365D01*
X146397074Y-183630361D01*
X146397156Y-183627000D01*
X146378852Y-183404361D01*
X146324431Y-183187702D01*
X146235354Y-182982840D01*
X146164850Y-182873857D01*
X146116822Y-182799617D01*
X146116820Y-182799614D01*
X146114014Y-182795277D01*
X145963670Y-182630051D01*
X145959619Y-182626852D01*
X145959615Y-182626848D01*
X145792414Y-182494800D01*
X145792410Y-182494798D01*
X145788359Y-182491598D01*
X145747053Y-182468796D01*
X145697084Y-182418364D01*
X145682312Y-182348921D01*
X145707428Y-182282516D01*
X145734780Y-182255909D01*
X145778603Y-182224650D01*
X145913860Y-182128173D01*
X146072096Y-181970489D01*
X146202453Y-181789077D01*
X146221940Y-181749649D01*
X146299136Y-181593453D01*
X146299137Y-181593451D01*
X146301430Y-181588811D01*
X146341402Y-181457248D01*
X146364865Y-181380023D01*
X146364865Y-181380021D01*
X146366370Y-181375069D01*
X146395529Y-181153590D01*
X146397156Y-181087000D01*
X146390222Y-181002657D01*
X146404575Y-180933126D01*
X146426703Y-180903238D01*
X147568405Y-179761536D01*
X147630717Y-179727510D01*
X147701532Y-179732575D01*
X147758368Y-179775122D01*
X147783179Y-179841642D01*
X147783500Y-179850631D01*
X147783500Y-181544134D01*
X147790255Y-181606316D01*
X147841385Y-181742705D01*
X147928739Y-181859261D01*
X148045295Y-181946615D01*
X148181684Y-181997745D01*
X148243866Y-182004500D01*
X150540134Y-182004500D01*
X150602316Y-181997745D01*
X150738705Y-181946615D01*
X150855261Y-181859261D01*
X150942615Y-181742705D01*
X150993745Y-181606316D01*
X151000500Y-181544134D01*
X151000500Y-179247866D01*
X150993745Y-179185684D01*
X150942615Y-179049295D01*
X150855261Y-178932739D01*
X150748632Y-178852825D01*
X150706118Y-178795967D01*
X150701092Y-178725149D01*
X150735152Y-178662855D01*
X150797483Y-178628865D01*
X150824198Y-178626000D01*
X152959802Y-178626000D01*
X153027923Y-178646002D01*
X153074416Y-178699658D01*
X153084520Y-178769932D01*
X153055026Y-178834512D01*
X153035369Y-178852824D01*
X152928739Y-178932739D01*
X152841385Y-179049295D01*
X152790255Y-179185684D01*
X152783500Y-179247866D01*
X152783500Y-181544134D01*
X152790255Y-181606316D01*
X152841385Y-181742705D01*
X152928739Y-181859261D01*
X153045295Y-181946615D01*
X153181684Y-181997745D01*
X153243866Y-182004500D01*
X155540134Y-182004500D01*
X155602316Y-181997745D01*
X155738705Y-181946615D01*
X155855261Y-181859261D01*
X155942615Y-181742705D01*
X155993745Y-181606316D01*
X156000500Y-181544134D01*
X156000500Y-179247866D01*
X155993745Y-179185684D01*
X155942615Y-179049295D01*
X155855261Y-178932739D01*
X155748632Y-178852825D01*
X155706118Y-178795967D01*
X155701092Y-178725149D01*
X155735152Y-178662855D01*
X155797483Y-178628865D01*
X155824198Y-178626000D01*
X157353183Y-178626000D01*
X157382710Y-188976627D01*
X158071891Y-188991290D01*
X158080394Y-188994478D01*
X158095649Y-188998105D01*
X158146514Y-189003631D01*
X158153328Y-189004000D01*
X158669241Y-189004000D01*
X163351710Y-189103627D01*
X163703000Y-189103000D01*
X166497000Y-189103000D01*
X166497000Y-187252568D01*
X167855382Y-187252568D01*
X167884208Y-187501699D01*
X167885587Y-187506573D01*
X167885588Y-187506577D01*
X167951116Y-187738148D01*
X167952494Y-187743017D01*
X167954628Y-187747592D01*
X167954630Y-187747599D01*
X168056347Y-187965731D01*
X168058484Y-187970313D01*
X168061326Y-187974494D01*
X168061326Y-187974495D01*
X168196605Y-188173552D01*
X168196608Y-188173556D01*
X168199451Y-188177739D01*
X168202928Y-188181416D01*
X168202929Y-188181417D01*
X168303238Y-188287491D01*
X168371767Y-188359959D01*
X168375793Y-188363037D01*
X168375794Y-188363038D01*
X168566981Y-188509212D01*
X168566985Y-188509215D01*
X168571001Y-188512285D01*
X168792026Y-188630797D01*
X168796807Y-188632443D01*
X168796811Y-188632445D01*
X168993539Y-188700184D01*
X169029156Y-188712448D01*
X169132689Y-188730331D01*
X169272380Y-188754460D01*
X169272386Y-188754461D01*
X169276290Y-188755135D01*
X169280251Y-188755315D01*
X169280252Y-188755315D01*
X169304931Y-188756436D01*
X169304950Y-188756436D01*
X169306350Y-188756500D01*
X169481015Y-188756500D01*
X169483523Y-188756298D01*
X169483528Y-188756298D01*
X169662944Y-188741863D01*
X169662949Y-188741862D01*
X169667985Y-188741457D01*
X169672893Y-188740252D01*
X169672896Y-188740251D01*
X169906625Y-188682841D01*
X169911539Y-188681634D01*
X169916191Y-188679659D01*
X169916195Y-188679658D01*
X170137741Y-188585617D01*
X170137742Y-188585617D01*
X170142396Y-188583641D01*
X170315130Y-188474865D01*
X170350334Y-188452696D01*
X170350335Y-188452695D01*
X170354615Y-188450000D01*
X170542738Y-188284147D01*
X170701924Y-188090351D01*
X170828078Y-187873596D01*
X170859958Y-187790548D01*
X170916143Y-187644181D01*
X170917955Y-187639461D01*
X170941945Y-187524629D01*
X170968206Y-187398921D01*
X170969241Y-187393967D01*
X170969636Y-187385285D01*
X170975662Y-187252568D01*
X170980618Y-187143432D01*
X170951792Y-186894301D01*
X170912810Y-186756539D01*
X170884884Y-186657852D01*
X170884883Y-186657850D01*
X170883506Y-186652983D01*
X170881372Y-186648408D01*
X170881370Y-186648401D01*
X170779653Y-186430269D01*
X170779651Y-186430265D01*
X170777516Y-186425687D01*
X170774674Y-186421505D01*
X170639395Y-186222448D01*
X170639392Y-186222444D01*
X170636549Y-186218261D01*
X170535925Y-186111853D01*
X170467713Y-186039721D01*
X170464233Y-186036041D01*
X170460206Y-186032962D01*
X170269019Y-185886788D01*
X170269015Y-185886785D01*
X170264999Y-185883715D01*
X170203559Y-185850771D01*
X170048435Y-185767595D01*
X170043974Y-185765203D01*
X170039193Y-185763557D01*
X170039189Y-185763555D01*
X169811633Y-185685201D01*
X169806844Y-185683552D01*
X169703311Y-185665669D01*
X169563620Y-185641540D01*
X169563614Y-185641539D01*
X169559710Y-185640865D01*
X169555749Y-185640685D01*
X169555748Y-185640685D01*
X169531069Y-185639564D01*
X169531050Y-185639564D01*
X169529650Y-185639500D01*
X169354985Y-185639500D01*
X169352477Y-185639702D01*
X169352472Y-185639702D01*
X169173056Y-185654137D01*
X169173051Y-185654138D01*
X169168015Y-185654543D01*
X169163107Y-185655748D01*
X169163104Y-185655749D01*
X168931326Y-185712680D01*
X168924461Y-185714366D01*
X168919809Y-185716341D01*
X168919805Y-185716342D01*
X168698259Y-185810383D01*
X168693604Y-185812359D01*
X168632607Y-185850771D01*
X168490475Y-185940276D01*
X168481385Y-185946000D01*
X168293262Y-186111853D01*
X168134076Y-186305649D01*
X168007922Y-186522404D01*
X168006109Y-186527127D01*
X168006108Y-186527129D01*
X167996379Y-186552475D01*
X167918045Y-186756539D01*
X167866759Y-187002033D01*
X167866530Y-187007082D01*
X167866529Y-187007088D01*
X167866246Y-187013329D01*
X167855382Y-187252568D01*
X166497000Y-187252568D01*
X166497000Y-179386845D01*
X166589681Y-179428109D01*
X166595712Y-179430794D01*
X166689113Y-179450647D01*
X166776056Y-179469128D01*
X166776061Y-179469128D01*
X166782513Y-179470500D01*
X166973487Y-179470500D01*
X166979939Y-179469128D01*
X166979944Y-179469128D01*
X167066887Y-179450647D01*
X167160288Y-179430794D01*
X167166319Y-179428109D01*
X167328722Y-179355803D01*
X167328724Y-179355802D01*
X167334752Y-179353118D01*
X167489253Y-179240866D01*
X167531768Y-179193648D01*
X167612621Y-179103852D01*
X167612622Y-179103851D01*
X167617040Y-179098944D01*
X167620340Y-179093229D01*
X167620342Y-179093226D01*
X167637759Y-179063058D01*
X167689142Y-179014064D01*
X167758856Y-179000629D01*
X167824766Y-179027016D01*
X167835973Y-179036963D01*
X168092510Y-179293500D01*
X168126536Y-179355812D01*
X168124832Y-179416267D01*
X168078989Y-179581570D01*
X168055251Y-179803695D01*
X168055548Y-179808848D01*
X168055548Y-179808851D01*
X168067269Y-180012124D01*
X168068110Y-180026715D01*
X168069247Y-180031761D01*
X168069248Y-180031767D01*
X168093304Y-180138508D01*
X168117222Y-180244639D01*
X168201266Y-180451616D01*
X168317987Y-180642088D01*
X168464250Y-180810938D01*
X168636126Y-180953632D01*
X168704835Y-180993782D01*
X168709445Y-180996476D01*
X168758169Y-181048114D01*
X168771240Y-181117897D01*
X168744509Y-181183669D01*
X168704055Y-181217027D01*
X168691607Y-181223507D01*
X168687474Y-181226610D01*
X168687471Y-181226612D01*
X168517100Y-181354530D01*
X168512965Y-181357635D01*
X168509393Y-181361373D01*
X168417773Y-181457248D01*
X168358629Y-181519138D01*
X168355715Y-181523410D01*
X168355714Y-181523411D01*
X168304593Y-181598352D01*
X168232743Y-181703680D01*
X168230564Y-181708375D01*
X168150538Y-181880777D01*
X168138688Y-181906305D01*
X168078989Y-182121570D01*
X168055251Y-182343695D01*
X168055548Y-182348848D01*
X168055548Y-182348851D01*
X168063779Y-182491598D01*
X168068110Y-182566715D01*
X168069247Y-182571761D01*
X168069248Y-182571767D01*
X168083244Y-182633870D01*
X168117222Y-182784639D01*
X168201266Y-182991616D01*
X168317987Y-183182088D01*
X168464250Y-183350938D01*
X168636126Y-183493632D01*
X168829000Y-183606338D01*
X169037692Y-183686030D01*
X169042760Y-183687061D01*
X169042763Y-183687062D01*
X169150017Y-183708883D01*
X169256597Y-183730567D01*
X169261772Y-183730757D01*
X169261774Y-183730757D01*
X169474673Y-183738564D01*
X169474677Y-183738564D01*
X169479837Y-183738753D01*
X169484957Y-183738097D01*
X169484959Y-183738097D01*
X169696288Y-183711025D01*
X169696289Y-183711025D01*
X169701416Y-183710368D01*
X169706366Y-183708883D01*
X169910429Y-183647661D01*
X169910434Y-183647659D01*
X169915384Y-183646174D01*
X170115994Y-183547896D01*
X170297860Y-183418173D01*
X170306542Y-183409522D01*
X170452435Y-183264137D01*
X170456096Y-183260489D01*
X170467082Y-183245201D01*
X170583435Y-183083277D01*
X170586453Y-183079077D01*
X170631669Y-182987590D01*
X170683136Y-182883453D01*
X170683137Y-182883451D01*
X170685430Y-182878811D01*
X170750370Y-182665069D01*
X170779529Y-182443590D01*
X170780012Y-182423841D01*
X170781074Y-182380365D01*
X170781074Y-182380361D01*
X170781156Y-182377000D01*
X170762852Y-182154361D01*
X170757028Y-182131171D01*
X170711952Y-181951718D01*
X170714756Y-181880777D01*
X170745061Y-181831928D01*
X171105831Y-181471158D01*
X171116392Y-181457245D01*
X171127657Y-181444332D01*
X171488905Y-181083084D01*
X171551217Y-181049058D01*
X171622032Y-181054123D01*
X171678868Y-181096670D01*
X171703679Y-181163190D01*
X171704000Y-181172179D01*
X171704000Y-187420723D01*
X171702500Y-187440108D01*
X171701059Y-187449365D01*
X171698814Y-187463781D01*
X171700941Y-187480050D01*
X171701734Y-187504618D01*
X171687156Y-187727036D01*
X171685005Y-187743377D01*
X171636371Y-187987875D01*
X171632105Y-188003794D01*
X171551978Y-188239841D01*
X171545671Y-188255068D01*
X171435416Y-188478643D01*
X171427175Y-188492916D01*
X171288684Y-188700184D01*
X171278654Y-188713257D01*
X171240908Y-188756298D01*
X171114286Y-188900683D01*
X171102632Y-188912337D01*
X171059951Y-188949767D01*
X170924353Y-189068684D01*
X170915210Y-189076702D01*
X170902133Y-189086735D01*
X170694865Y-189225226D01*
X170680592Y-189233467D01*
X170457017Y-189343722D01*
X170441790Y-189350029D01*
X170205743Y-189430156D01*
X170189824Y-189434422D01*
X169945327Y-189483056D01*
X169928986Y-189485207D01*
X169713732Y-189499315D01*
X169690696Y-189498290D01*
X169687144Y-189498247D01*
X169678270Y-189496865D01*
X169669368Y-189498029D01*
X169669364Y-189498029D01*
X169646976Y-189500957D01*
X169630549Y-189502021D01*
X155012864Y-189491633D01*
X144321462Y-189484035D01*
X144302168Y-189482535D01*
X144287142Y-189480195D01*
X144287139Y-189480195D01*
X144278270Y-189478814D01*
X144262001Y-189480941D01*
X144237433Y-189481734D01*
X144015015Y-189467156D01*
X143998674Y-189465005D01*
X143754176Y-189416371D01*
X143738257Y-189412105D01*
X143502210Y-189331978D01*
X143486983Y-189325671D01*
X143263408Y-189215416D01*
X143249135Y-189207175D01*
X143041867Y-189068684D01*
X143028790Y-189058651D01*
X142966472Y-189003999D01*
X142841368Y-188894286D01*
X142829714Y-188882632D01*
X142704849Y-188740251D01*
X142665346Y-188695206D01*
X142655316Y-188682133D01*
X142563109Y-188544134D01*
X147783500Y-188544134D01*
X147790255Y-188606316D01*
X147841385Y-188742705D01*
X147928739Y-188859261D01*
X148045295Y-188946615D01*
X148181684Y-188997745D01*
X148243866Y-189004500D01*
X150540134Y-189004500D01*
X150602316Y-188997745D01*
X150738705Y-188946615D01*
X150855261Y-188859261D01*
X150942615Y-188742705D01*
X150993745Y-188606316D01*
X151000500Y-188544134D01*
X152783500Y-188544134D01*
X152790255Y-188606316D01*
X152841385Y-188742705D01*
X152928739Y-188859261D01*
X153045295Y-188946615D01*
X153181684Y-188997745D01*
X153243866Y-189004500D01*
X155540134Y-189004500D01*
X155602316Y-188997745D01*
X155738705Y-188946615D01*
X155855261Y-188859261D01*
X155942615Y-188742705D01*
X155993745Y-188606316D01*
X156000500Y-188544134D01*
X156000500Y-186247866D01*
X155993745Y-186185684D01*
X155942615Y-186049295D01*
X155855261Y-185932739D01*
X155738705Y-185845385D01*
X155602316Y-185794255D01*
X155540134Y-185787500D01*
X153243866Y-185787500D01*
X153181684Y-185794255D01*
X153045295Y-185845385D01*
X152928739Y-185932739D01*
X152841385Y-186049295D01*
X152790255Y-186185684D01*
X152783500Y-186247866D01*
X152783500Y-188544134D01*
X151000500Y-188544134D01*
X151000500Y-186247866D01*
X150993745Y-186185684D01*
X150942615Y-186049295D01*
X150855261Y-185932739D01*
X150738705Y-185845385D01*
X150602316Y-185794255D01*
X150540134Y-185787500D01*
X148243866Y-185787500D01*
X148181684Y-185794255D01*
X148045295Y-185845385D01*
X147928739Y-185932739D01*
X147841385Y-186049295D01*
X147790255Y-186185684D01*
X147783500Y-186247866D01*
X147783500Y-188544134D01*
X142563109Y-188544134D01*
X142516825Y-188474865D01*
X142508584Y-188460592D01*
X142398329Y-188237017D01*
X142392022Y-188221790D01*
X142311895Y-187985743D01*
X142307629Y-187969824D01*
X142258995Y-187725327D01*
X142256844Y-187708986D01*
X142242736Y-187493732D01*
X142243761Y-187470696D01*
X142243804Y-187467146D01*
X142245186Y-187458270D01*
X142241064Y-187426748D01*
X142240000Y-187410411D01*
X142240000Y-187061669D01*
X143676001Y-187061669D01*
X143676371Y-187068490D01*
X143681895Y-187119352D01*
X143685521Y-187134604D01*
X143730676Y-187255054D01*
X143739214Y-187270649D01*
X143815715Y-187372724D01*
X143828276Y-187385285D01*
X143930351Y-187461786D01*
X143945946Y-187470324D01*
X144066394Y-187515478D01*
X144081649Y-187519105D01*
X144132514Y-187524631D01*
X144139328Y-187525000D01*
X144634885Y-187525000D01*
X144650124Y-187520525D01*
X144651329Y-187519135D01*
X144653000Y-187511452D01*
X144653000Y-187506884D01*
X145415000Y-187506884D01*
X145419475Y-187522123D01*
X145420865Y-187523328D01*
X145428548Y-187524999D01*
X145928669Y-187524999D01*
X145935490Y-187524629D01*
X145986352Y-187519105D01*
X146001604Y-187515479D01*
X146122054Y-187470324D01*
X146137649Y-187461786D01*
X146239724Y-187385285D01*
X146252285Y-187372724D01*
X146328786Y-187270649D01*
X146337324Y-187255054D01*
X146382478Y-187134606D01*
X146386105Y-187119351D01*
X146391631Y-187068486D01*
X146392000Y-187061672D01*
X146392000Y-186566115D01*
X146387525Y-186550876D01*
X146386135Y-186549671D01*
X146378452Y-186548000D01*
X145433115Y-186548000D01*
X145417876Y-186552475D01*
X145416671Y-186553865D01*
X145415000Y-186561548D01*
X145415000Y-187506884D01*
X144653000Y-187506884D01*
X144653000Y-186566115D01*
X144648525Y-186550876D01*
X144647135Y-186549671D01*
X144639452Y-186548000D01*
X143694116Y-186548000D01*
X143678877Y-186552475D01*
X143677672Y-186553865D01*
X143676001Y-186561548D01*
X143676001Y-187061669D01*
X142240000Y-187061669D01*
X142240000Y-165698295D01*
X142531855Y-165698295D01*
X142535475Y-165710624D01*
X142536865Y-165711829D01*
X142544548Y-165713500D01*
X143364885Y-165713500D01*
X143380124Y-165709025D01*
X143381329Y-165707635D01*
X143383000Y-165699952D01*
X143383000Y-165695385D01*
X144145000Y-165695385D01*
X144149475Y-165710624D01*
X144150865Y-165711829D01*
X144158548Y-165713500D01*
X144978882Y-165713500D01*
X144992992Y-165709357D01*
X145055273Y-165707132D01*
X145084547Y-165713500D01*
X145904885Y-165713500D01*
X145920124Y-165709025D01*
X145921329Y-165707635D01*
X145923000Y-165699952D01*
X145923000Y-165695385D01*
X146685000Y-165695385D01*
X146689475Y-165710624D01*
X146690865Y-165711829D01*
X146698548Y-165713500D01*
X147518884Y-165713500D01*
X147534123Y-165709025D01*
X147535328Y-165707635D01*
X147536529Y-165702111D01*
X147526743Y-165607794D01*
X147523851Y-165594400D01*
X147472412Y-165440216D01*
X147466239Y-165427038D01*
X147380937Y-165289193D01*
X147371901Y-165277792D01*
X147257171Y-165163261D01*
X147245760Y-165154249D01*
X147107757Y-165069184D01*
X147094576Y-165063037D01*
X146940290Y-165011862D01*
X146926914Y-165008995D01*
X146832562Y-164999328D01*
X146826145Y-164999000D01*
X146703115Y-164999000D01*
X146687876Y-165003475D01*
X146686671Y-165004865D01*
X146685000Y-165012548D01*
X146685000Y-165695385D01*
X145923000Y-165695385D01*
X145923000Y-165017116D01*
X145918525Y-165001877D01*
X145917135Y-165000672D01*
X145909452Y-164999001D01*
X145781905Y-164999001D01*
X145775386Y-164999338D01*
X145679794Y-165009257D01*
X145666400Y-165012149D01*
X145512216Y-165063588D01*
X145499038Y-165069761D01*
X145361193Y-165155063D01*
X145349792Y-165164099D01*
X145235261Y-165278829D01*
X145226249Y-165290240D01*
X145141343Y-165427983D01*
X145088571Y-165475476D01*
X145018499Y-165486900D01*
X144953375Y-165458626D01*
X144926939Y-165428170D01*
X144840937Y-165289193D01*
X144831901Y-165277792D01*
X144717171Y-165163261D01*
X144705760Y-165154249D01*
X144567757Y-165069184D01*
X144554576Y-165063037D01*
X144400290Y-165011862D01*
X144386914Y-165008995D01*
X144292562Y-164999328D01*
X144286145Y-164999000D01*
X144163115Y-164999000D01*
X144147876Y-165003475D01*
X144146671Y-165004865D01*
X144145000Y-165012548D01*
X144145000Y-165695385D01*
X143383000Y-165695385D01*
X143383000Y-165017116D01*
X143378525Y-165001877D01*
X143377135Y-165000672D01*
X143369452Y-164999001D01*
X143241905Y-164999001D01*
X143235386Y-164999338D01*
X143139794Y-165009257D01*
X143126400Y-165012149D01*
X142972216Y-165063588D01*
X142959038Y-165069761D01*
X142821193Y-165155063D01*
X142809792Y-165164099D01*
X142695261Y-165278829D01*
X142686249Y-165290240D01*
X142601184Y-165428243D01*
X142595037Y-165441424D01*
X142543862Y-165595710D01*
X142540995Y-165609086D01*
X142531855Y-165698295D01*
X142240000Y-165698295D01*
X142240000Y-161987095D01*
X143317001Y-161987095D01*
X143317338Y-161993614D01*
X143327257Y-162089206D01*
X143330149Y-162102600D01*
X143381588Y-162256784D01*
X143387761Y-162269962D01*
X143473063Y-162407807D01*
X143482099Y-162419208D01*
X143596829Y-162533739D01*
X143608240Y-162542751D01*
X143746243Y-162627816D01*
X143759424Y-162633963D01*
X143913710Y-162685138D01*
X143927086Y-162688005D01*
X144021438Y-162697672D01*
X144027854Y-162698000D01*
X144088385Y-162698000D01*
X144103624Y-162693525D01*
X144104829Y-162692135D01*
X144106500Y-162684452D01*
X144106500Y-162679884D01*
X144868500Y-162679884D01*
X144872975Y-162695123D01*
X144874365Y-162696328D01*
X144882048Y-162697999D01*
X144947095Y-162697999D01*
X144953614Y-162697662D01*
X145049206Y-162687743D01*
X145062600Y-162684851D01*
X145216784Y-162633412D01*
X145229962Y-162627239D01*
X145367807Y-162541937D01*
X145379208Y-162532901D01*
X145493739Y-162418171D01*
X145502751Y-162406760D01*
X145587816Y-162268757D01*
X145593963Y-162255576D01*
X145645138Y-162101290D01*
X145648005Y-162087914D01*
X145657672Y-161993562D01*
X145658000Y-161987146D01*
X145658000Y-161689115D01*
X145653525Y-161673876D01*
X145652135Y-161672671D01*
X145644452Y-161671000D01*
X144886615Y-161671000D01*
X144871376Y-161675475D01*
X144870171Y-161676865D01*
X144868500Y-161684548D01*
X144868500Y-162679884D01*
X144106500Y-162679884D01*
X144106500Y-161689115D01*
X144102025Y-161673876D01*
X144100635Y-161672671D01*
X144092952Y-161671000D01*
X143335116Y-161671000D01*
X143319877Y-161675475D01*
X143318672Y-161676865D01*
X143317001Y-161684548D01*
X143317001Y-161987095D01*
X142240000Y-161987095D01*
X142240000Y-160890885D01*
X143317000Y-160890885D01*
X143321475Y-160906124D01*
X143322865Y-160907329D01*
X143330548Y-160909000D01*
X144088385Y-160909000D01*
X144103624Y-160904525D01*
X144104829Y-160903135D01*
X144106500Y-160895452D01*
X144106500Y-160890885D01*
X144868500Y-160890885D01*
X144872975Y-160906124D01*
X144874365Y-160907329D01*
X144882048Y-160909000D01*
X145639884Y-160909000D01*
X145655123Y-160904525D01*
X145656328Y-160903135D01*
X145657999Y-160895452D01*
X145657999Y-160592905D01*
X145657662Y-160586386D01*
X145647743Y-160490794D01*
X145644851Y-160477400D01*
X145593412Y-160323216D01*
X145587238Y-160310037D01*
X145527412Y-160213359D01*
X145508574Y-160144907D01*
X145527296Y-160080940D01*
X145587816Y-159982757D01*
X145593963Y-159969576D01*
X145645138Y-159815290D01*
X145648005Y-159801914D01*
X145657672Y-159707562D01*
X145658000Y-159701146D01*
X145658000Y-159403115D01*
X145653525Y-159387876D01*
X145652135Y-159386671D01*
X145644452Y-159385000D01*
X144886615Y-159385000D01*
X144871376Y-159389475D01*
X144870171Y-159390865D01*
X144868500Y-159398548D01*
X144868500Y-160890885D01*
X144106500Y-160890885D01*
X144106500Y-159403115D01*
X144102025Y-159387876D01*
X144100635Y-159386671D01*
X144092952Y-159385000D01*
X143335116Y-159385000D01*
X143319877Y-159389475D01*
X143318672Y-159390865D01*
X143317001Y-159398548D01*
X143317001Y-159701095D01*
X143317338Y-159707614D01*
X143327257Y-159803206D01*
X143330149Y-159816600D01*
X143381588Y-159970784D01*
X143387762Y-159983963D01*
X143447588Y-160080641D01*
X143466426Y-160149093D01*
X143447704Y-160213060D01*
X143387184Y-160311243D01*
X143381037Y-160324424D01*
X143329862Y-160478710D01*
X143326995Y-160492086D01*
X143317328Y-160586438D01*
X143317000Y-160592855D01*
X143317000Y-160890885D01*
X142240000Y-160890885D01*
X142240000Y-158604885D01*
X143317000Y-158604885D01*
X143321475Y-158620124D01*
X143322865Y-158621329D01*
X143330548Y-158623000D01*
X144088385Y-158623000D01*
X144103624Y-158618525D01*
X144104829Y-158617135D01*
X144106500Y-158609452D01*
X144106500Y-158604885D01*
X144868500Y-158604885D01*
X144872975Y-158620124D01*
X144874365Y-158621329D01*
X144882048Y-158623000D01*
X145639884Y-158623000D01*
X145655123Y-158618525D01*
X145656328Y-158617135D01*
X145657999Y-158609452D01*
X145657999Y-158306905D01*
X145657662Y-158300386D01*
X145647743Y-158204794D01*
X145644851Y-158191400D01*
X145593412Y-158037216D01*
X145587238Y-158024037D01*
X145527412Y-157927359D01*
X145508574Y-157858907D01*
X145527296Y-157794940D01*
X145587816Y-157696757D01*
X145593963Y-157683576D01*
X145645138Y-157529290D01*
X145648005Y-157515914D01*
X145657672Y-157421562D01*
X145658000Y-157415146D01*
X145658000Y-157117115D01*
X145653525Y-157101876D01*
X145652135Y-157100671D01*
X145644452Y-157099000D01*
X144886615Y-157099000D01*
X144871376Y-157103475D01*
X144870171Y-157104865D01*
X144868500Y-157112548D01*
X144868500Y-158604885D01*
X144106500Y-158604885D01*
X144106500Y-157117115D01*
X144102025Y-157101876D01*
X144100635Y-157100671D01*
X144092952Y-157099000D01*
X143335116Y-157099000D01*
X143319877Y-157103475D01*
X143318672Y-157104865D01*
X143317001Y-157112548D01*
X143317001Y-157415095D01*
X143317338Y-157421614D01*
X143327257Y-157517206D01*
X143330149Y-157530600D01*
X143381588Y-157684784D01*
X143387762Y-157697963D01*
X143447588Y-157794641D01*
X143466426Y-157863093D01*
X143447704Y-157927060D01*
X143387184Y-158025243D01*
X143381037Y-158038424D01*
X143329862Y-158192710D01*
X143326995Y-158206086D01*
X143317328Y-158300438D01*
X143317000Y-158306855D01*
X143317000Y-158604885D01*
X142240000Y-158604885D01*
X142240000Y-155085095D01*
X143261001Y-155085095D01*
X143261338Y-155091614D01*
X143271257Y-155187206D01*
X143274149Y-155200600D01*
X143325588Y-155354784D01*
X143331761Y-155367962D01*
X143417066Y-155505812D01*
X143426346Y-155517521D01*
X143452982Y-155583332D01*
X143439810Y-155653096D01*
X143434859Y-155661899D01*
X143387184Y-155739243D01*
X143381037Y-155752424D01*
X143329862Y-155906710D01*
X143326995Y-155920086D01*
X143317328Y-156014438D01*
X143317000Y-156020855D01*
X143317000Y-156318885D01*
X143321475Y-156334124D01*
X143322865Y-156335329D01*
X143330548Y-156337000D01*
X144088385Y-156337000D01*
X144103624Y-156332525D01*
X144104829Y-156331135D01*
X144106500Y-156323452D01*
X144106500Y-155854115D01*
X144102026Y-155838876D01*
X144093988Y-155831912D01*
X144055604Y-155772186D01*
X144050500Y-155736687D01*
X144050500Y-155251885D01*
X144812500Y-155251885D01*
X144816974Y-155267124D01*
X144825012Y-155274088D01*
X144863396Y-155333814D01*
X144868500Y-155369313D01*
X144868500Y-156318885D01*
X144872975Y-156334124D01*
X144874365Y-156335329D01*
X144882048Y-156337000D01*
X145639884Y-156337000D01*
X145655123Y-156332525D01*
X145656328Y-156331135D01*
X145657999Y-156323452D01*
X145657999Y-156020905D01*
X145657662Y-156014386D01*
X145647743Y-155918794D01*
X145644851Y-155905400D01*
X145593412Y-155751216D01*
X145587239Y-155738038D01*
X145501934Y-155600188D01*
X145492654Y-155588479D01*
X145466018Y-155522668D01*
X145479190Y-155452904D01*
X145484141Y-155444101D01*
X145531816Y-155366757D01*
X145537963Y-155353576D01*
X145589138Y-155199290D01*
X145592005Y-155185914D01*
X145601672Y-155091562D01*
X145602000Y-155085146D01*
X145602000Y-154787115D01*
X145597525Y-154771876D01*
X145596135Y-154770671D01*
X145588452Y-154769000D01*
X144830615Y-154769000D01*
X144815376Y-154773475D01*
X144814171Y-154774865D01*
X144812500Y-154782548D01*
X144812500Y-155251885D01*
X144050500Y-155251885D01*
X144050500Y-154787115D01*
X144046025Y-154771876D01*
X144044635Y-154770671D01*
X144036952Y-154769000D01*
X143279116Y-154769000D01*
X143263877Y-154773475D01*
X143262672Y-154774865D01*
X143261001Y-154782548D01*
X143261001Y-155085095D01*
X142240000Y-155085095D01*
X142240000Y-153988885D01*
X143261000Y-153988885D01*
X143265475Y-154004124D01*
X143266865Y-154005329D01*
X143274548Y-154007000D01*
X144032385Y-154007000D01*
X144047624Y-154002525D01*
X144048829Y-154001135D01*
X144050500Y-153993452D01*
X144050500Y-153988885D01*
X144812500Y-153988885D01*
X144816975Y-154004124D01*
X144818365Y-154005329D01*
X144826048Y-154007000D01*
X145583884Y-154007000D01*
X145599123Y-154002525D01*
X145600328Y-154001135D01*
X145601999Y-153993452D01*
X145601999Y-153690905D01*
X145601662Y-153684386D01*
X145591743Y-153588794D01*
X145588851Y-153575400D01*
X145537412Y-153421216D01*
X145531239Y-153408038D01*
X145445937Y-153270193D01*
X145436901Y-153258792D01*
X145435233Y-153257127D01*
X145434456Y-153255707D01*
X145432354Y-153253055D01*
X145432808Y-153252695D01*
X145401153Y-153194844D01*
X145406156Y-153124024D01*
X145435077Y-153078935D01*
X145493739Y-153020171D01*
X145502751Y-153008760D01*
X145587816Y-152870757D01*
X145593963Y-152857576D01*
X145645138Y-152703290D01*
X145648005Y-152689914D01*
X145657672Y-152595562D01*
X145658000Y-152589146D01*
X145658000Y-152291115D01*
X145653525Y-152275876D01*
X145652135Y-152274671D01*
X145644452Y-152273000D01*
X144886615Y-152273000D01*
X144871376Y-152277475D01*
X144870171Y-152278865D01*
X144868500Y-152286548D01*
X144868500Y-153236170D01*
X144848498Y-153304291D01*
X144837725Y-153318682D01*
X144814171Y-153345865D01*
X144812500Y-153353548D01*
X144812500Y-153988885D01*
X144050500Y-153988885D01*
X144050500Y-153043830D01*
X144070502Y-152975709D01*
X144081275Y-152961318D01*
X144104829Y-152934135D01*
X144106500Y-152926452D01*
X144106500Y-152291115D01*
X144102025Y-152275876D01*
X144100635Y-152274671D01*
X144092952Y-152273000D01*
X143335116Y-152273000D01*
X143319877Y-152277475D01*
X143318672Y-152278865D01*
X143317001Y-152286548D01*
X143317001Y-152589095D01*
X143317338Y-152595614D01*
X143327257Y-152691206D01*
X143330149Y-152704600D01*
X143381588Y-152858784D01*
X143387761Y-152871962D01*
X143473063Y-153009807D01*
X143482099Y-153021208D01*
X143483767Y-153022873D01*
X143484544Y-153024293D01*
X143486646Y-153026945D01*
X143486192Y-153027305D01*
X143517847Y-153085156D01*
X143512844Y-153155976D01*
X143483923Y-153201065D01*
X143425261Y-153259829D01*
X143416249Y-153271240D01*
X143331184Y-153409243D01*
X143325037Y-153422424D01*
X143273862Y-153576710D01*
X143270995Y-153590086D01*
X143261328Y-153684438D01*
X143261000Y-153690855D01*
X143261000Y-153988885D01*
X142240000Y-153988885D01*
X142240000Y-145619609D01*
X142260002Y-145551488D01*
X142313658Y-145504995D01*
X142383932Y-145494891D01*
X142407799Y-145500982D01*
G37*
%TD.AperFunction*%
%TA.AperFunction,Conductor*%
G36*
X159777313Y-177071086D02*
G01*
X159790781Y-177082770D01*
X160888348Y-178180337D01*
X160892001Y-178184146D01*
X160934222Y-178230061D01*
X160971397Y-178253111D01*
X160981161Y-178259821D01*
X161016002Y-178286267D01*
X161023986Y-178289428D01*
X161023995Y-178289433D01*
X161030098Y-178291849D01*
X161050106Y-178301912D01*
X161062980Y-178309894D01*
X161071228Y-178312290D01*
X161071234Y-178312293D01*
X161104971Y-178322095D01*
X161116198Y-178325939D01*
X161148876Y-178338877D01*
X161148882Y-178338878D01*
X161156862Y-178342038D01*
X161165398Y-178342935D01*
X161165405Y-178342937D01*
X161171940Y-178343624D01*
X161193913Y-178347935D01*
X161202116Y-178350318D01*
X161202127Y-178350320D01*
X161208464Y-178352161D01*
X161216205Y-178352730D01*
X161216902Y-178352781D01*
X161216910Y-178352781D01*
X161219207Y-178352950D01*
X161254085Y-178352950D01*
X161267256Y-178353640D01*
X161307532Y-178357873D01*
X161315997Y-178356441D01*
X161316007Y-178356441D01*
X161326209Y-178354715D01*
X161347222Y-178352950D01*
X165846531Y-178352950D01*
X165914652Y-178372952D01*
X165961145Y-178426608D01*
X165971841Y-178492119D01*
X165964496Y-178562000D01*
X158992830Y-178562000D01*
X159089009Y-178492121D01*
X159107253Y-178478866D01*
X159116895Y-178468158D01*
X159230621Y-178341852D01*
X159230622Y-178341851D01*
X159235040Y-178336944D01*
X159325457Y-178180337D01*
X159327223Y-178177279D01*
X159327224Y-178177278D01*
X159330527Y-178171556D01*
X159389542Y-177989928D01*
X159409504Y-177800000D01*
X159389542Y-177610072D01*
X159339256Y-177455309D01*
X159337228Y-177384342D01*
X159373891Y-177323544D01*
X159390356Y-177311746D01*
X159390705Y-177311615D01*
X159422738Y-177287608D01*
X159500081Y-177229642D01*
X159507261Y-177224261D01*
X159594615Y-177107705D01*
X159594734Y-177107794D01*
X159641431Y-177061207D01*
X159710822Y-177046197D01*
X159777313Y-177071086D01*
G37*
%TD.AperFunction*%
%TA.AperFunction,Conductor*%
G36*
X168118350Y-174376000D02*
G01*
X169673000Y-174376000D01*
X169741121Y-174396002D01*
X169787614Y-174449658D01*
X169799000Y-174502000D01*
X169799000Y-175012000D01*
X169778998Y-175080121D01*
X169725342Y-175126614D01*
X169673000Y-175138000D01*
X168129846Y-175138000D01*
X168116315Y-175141973D01*
X168114879Y-175151966D01*
X168116565Y-175159448D01*
X168119645Y-175169276D01*
X168199770Y-175366603D01*
X168204413Y-175375794D01*
X168315694Y-175557388D01*
X168321777Y-175565699D01*
X168461213Y-175726667D01*
X168468580Y-175733883D01*
X168632434Y-175869916D01*
X168640881Y-175875831D01*
X168709969Y-175916203D01*
X168758693Y-175967842D01*
X168771764Y-176037625D01*
X168745033Y-176103396D01*
X168704584Y-176136752D01*
X168691607Y-176143507D01*
X168687474Y-176146610D01*
X168687471Y-176146612D01*
X168517100Y-176274530D01*
X168512965Y-176277635D01*
X168485408Y-176306472D01*
X168398112Y-176397822D01*
X168358629Y-176439138D01*
X168355715Y-176443410D01*
X168355714Y-176443411D01*
X168274802Y-176562024D01*
X168232743Y-176623680D01*
X168138688Y-176826305D01*
X168078989Y-177041570D01*
X168055251Y-177263695D01*
X168055548Y-177268848D01*
X168055548Y-177268851D01*
X168062430Y-177388206D01*
X168046382Y-177457365D01*
X167995492Y-177506870D01*
X167925916Y-177521002D01*
X167859745Y-177495275D01*
X167847544Y-177484554D01*
X167087602Y-176724612D01*
X167083949Y-176720803D01*
X167047553Y-176681223D01*
X167041739Y-176674900D01*
X167004579Y-176651860D01*
X166994795Y-176645136D01*
X166966797Y-176623884D01*
X166966795Y-176623883D01*
X166959959Y-176618694D01*
X166951980Y-176615535D01*
X166951971Y-176615530D01*
X166945863Y-176613112D01*
X166925855Y-176603049D01*
X166912981Y-176595067D01*
X166904733Y-176592671D01*
X166904727Y-176592668D01*
X166870990Y-176582866D01*
X166859763Y-176579022D01*
X166827085Y-176566084D01*
X166827079Y-176566083D01*
X166819099Y-176562923D01*
X166810563Y-176562026D01*
X166810556Y-176562024D01*
X166804021Y-176561337D01*
X166782048Y-176557026D01*
X166773845Y-176554643D01*
X166773834Y-176554641D01*
X166767497Y-176552800D01*
X166759756Y-176552231D01*
X166759059Y-176552180D01*
X166759051Y-176552180D01*
X166756754Y-176552011D01*
X166721876Y-176552011D01*
X166708706Y-176551321D01*
X166698477Y-176550246D01*
X166668429Y-176547088D01*
X166659964Y-176548520D01*
X166659954Y-176548520D01*
X166649752Y-176550246D01*
X166628739Y-176552011D01*
X165578500Y-176552011D01*
X165510379Y-176532009D01*
X165463886Y-176478353D01*
X165452500Y-176426011D01*
X165452500Y-176412866D01*
X165445745Y-176350684D01*
X165448174Y-176350420D01*
X165448174Y-176321580D01*
X165445745Y-176321316D01*
X165452131Y-176262531D01*
X165452500Y-176259134D01*
X165452500Y-175762866D01*
X165448920Y-175729913D01*
X165461448Y-175660031D01*
X165509768Y-175608015D01*
X165578540Y-175590380D01*
X165613850Y-175596712D01*
X165726191Y-175633974D01*
X165733027Y-175634674D01*
X165733030Y-175634675D01*
X165784526Y-175639951D01*
X165828928Y-175644500D01*
X166403072Y-175644500D01*
X166406318Y-175644163D01*
X166406322Y-175644163D01*
X166500235Y-175634419D01*
X166500239Y-175634418D01*
X166507093Y-175633707D01*
X166513629Y-175631526D01*
X166513631Y-175631526D01*
X166665159Y-175580972D01*
X166672107Y-175578654D01*
X166820031Y-175487116D01*
X166871672Y-175435385D01*
X166937758Y-175369184D01*
X166937762Y-175369179D01*
X166942929Y-175364003D01*
X167034209Y-175215920D01*
X167034574Y-175214820D01*
X167079817Y-175163436D01*
X167118325Y-175147300D01*
X167131607Y-175144185D01*
X167143274Y-175142023D01*
X167153316Y-175140647D01*
X167178088Y-175137254D01*
X167178091Y-175137253D01*
X167186597Y-175136088D01*
X167194477Y-175132678D01*
X167194481Y-175132677D01*
X167200506Y-175130070D01*
X167221766Y-175123039D01*
X167228155Y-175121540D01*
X167228158Y-175121539D01*
X167236522Y-175119577D01*
X167244047Y-175115440D01*
X167244050Y-175115439D01*
X167274841Y-175098511D01*
X167285501Y-175093289D01*
X167317755Y-175079332D01*
X167317758Y-175079330D01*
X167325636Y-175075921D01*
X167337417Y-175066381D01*
X167356009Y-175053888D01*
X167362317Y-175050420D01*
X167369282Y-175046591D01*
X167377436Y-175039553D01*
X167402097Y-175014892D01*
X167411898Y-175006067D01*
X167436696Y-174985986D01*
X167443373Y-174980579D01*
X167454350Y-174965133D01*
X167467961Y-174949028D01*
X168006353Y-174410636D01*
X168068665Y-174376610D01*
X168105993Y-174380339D01*
X168106320Y-174375231D01*
X168118350Y-174376000D01*
G37*
%TD.AperFunction*%
%TA.AperFunction,Conductor*%
G36*
X150591599Y-168825002D02*
G01*
X150638092Y-168878658D01*
X150648196Y-168948932D01*
X150630738Y-168997116D01*
X150560803Y-169110572D01*
X150556791Y-169117080D01*
X150502026Y-169282191D01*
X150491500Y-169384928D01*
X150491500Y-169959072D01*
X150502293Y-170063093D01*
X150504474Y-170069629D01*
X150504474Y-170069631D01*
X150534752Y-170160385D01*
X150557346Y-170228107D01*
X150648884Y-170376031D01*
X150654066Y-170381204D01*
X150766816Y-170493758D01*
X150766821Y-170493762D01*
X150771997Y-170498929D01*
X150778227Y-170502769D01*
X150792118Y-170511332D01*
X150839610Y-170564105D01*
X150852000Y-170618591D01*
X150852000Y-170693477D01*
X150843982Y-170737706D01*
X150801029Y-170852282D01*
X150801027Y-170852288D01*
X150798255Y-170859684D01*
X150791500Y-170921866D01*
X150791500Y-172018134D01*
X150798255Y-172080316D01*
X150849385Y-172216705D01*
X150936739Y-172333261D01*
X151053295Y-172420615D01*
X151189684Y-172471745D01*
X151251866Y-172478500D01*
X152148134Y-172478500D01*
X152210316Y-172471745D01*
X152297570Y-172439035D01*
X152338301Y-172423766D01*
X152338304Y-172423764D01*
X152346705Y-172420615D01*
X152347024Y-172421466D01*
X152408849Y-172407945D01*
X152453166Y-172420958D01*
X152453295Y-172420615D01*
X152457981Y-172422372D01*
X152457985Y-172422373D01*
X152461696Y-172423764D01*
X152461699Y-172423766D01*
X152502430Y-172439035D01*
X152589684Y-172471745D01*
X152651866Y-172478500D01*
X153548134Y-172478500D01*
X153610316Y-172471745D01*
X153746705Y-172420615D01*
X153863261Y-172333261D01*
X153950615Y-172216705D01*
X153961650Y-172187269D01*
X154004292Y-172130505D01*
X154070854Y-172105806D01*
X154079632Y-172105500D01*
X154245309Y-172105500D01*
X154313430Y-172125502D01*
X154345449Y-172158072D01*
X154346522Y-172157222D01*
X154351065Y-172162954D01*
X154354919Y-172169182D01*
X154360101Y-172174355D01*
X154461821Y-172275898D01*
X154495900Y-172338181D01*
X154490897Y-172409001D01*
X154461976Y-172454088D01*
X154359281Y-172556963D01*
X154359277Y-172556968D01*
X154354106Y-172562148D01*
X154350266Y-172568378D01*
X154350265Y-172568379D01*
X154305392Y-172641177D01*
X154262826Y-172710231D01*
X154208061Y-172875342D01*
X154197535Y-172978079D01*
X154197535Y-173186902D01*
X154177533Y-173255023D01*
X154123877Y-173301516D01*
X154053603Y-173311620D01*
X153989023Y-173282126D01*
X153959054Y-173239040D01*
X153958077Y-173239575D01*
X153953767Y-173231703D01*
X153950615Y-173223295D01*
X153863261Y-173106739D01*
X153746705Y-173019385D01*
X153610316Y-172968255D01*
X153548134Y-172961500D01*
X152651866Y-172961500D01*
X152589684Y-172968255D01*
X152572012Y-172974880D01*
X152461699Y-173016234D01*
X152461696Y-173016236D01*
X152453295Y-173019385D01*
X152452976Y-173018534D01*
X152391151Y-173032055D01*
X152346834Y-173019042D01*
X152346705Y-173019385D01*
X152342019Y-173017628D01*
X152342015Y-173017627D01*
X152338304Y-173016236D01*
X152338301Y-173016234D01*
X152227988Y-172974880D01*
X152210316Y-172968255D01*
X152148134Y-172961500D01*
X151251866Y-172961500D01*
X151189684Y-172968255D01*
X151053295Y-173019385D01*
X150936739Y-173106739D01*
X150849385Y-173223295D01*
X150798255Y-173359684D01*
X150791500Y-173421866D01*
X150791500Y-174518134D01*
X150798255Y-174580316D01*
X150849385Y-174716705D01*
X150936739Y-174833261D01*
X150943919Y-174838642D01*
X150943920Y-174838643D01*
X151014065Y-174891214D01*
X151056580Y-174948074D01*
X151064500Y-174992040D01*
X151064500Y-176238351D01*
X151044498Y-176306472D01*
X151004803Y-176345495D01*
X150996418Y-176350684D01*
X150920244Y-176397822D01*
X150915071Y-176403004D01*
X150802517Y-176515754D01*
X150802513Y-176515759D01*
X150797346Y-176520935D01*
X150793506Y-176527165D01*
X150793505Y-176527166D01*
X150718574Y-176648727D01*
X150706066Y-176669018D01*
X150651301Y-176834129D01*
X150640775Y-176936866D01*
X150640775Y-177356000D01*
X150620773Y-177424121D01*
X150567117Y-177470614D01*
X150514775Y-177482000D01*
X148838500Y-177482000D01*
X148770379Y-177461998D01*
X148723886Y-177408342D01*
X148712500Y-177356000D01*
X148712500Y-175837866D01*
X148705745Y-175775684D01*
X148654615Y-175639295D01*
X148567261Y-175522739D01*
X148450705Y-175435385D01*
X148314316Y-175384255D01*
X148252134Y-175377500D01*
X147065500Y-175377500D01*
X146997379Y-175357498D01*
X146950886Y-175303842D01*
X146939500Y-175251500D01*
X146939500Y-172220500D01*
X146959502Y-172152379D01*
X147013158Y-172105886D01*
X147065500Y-172094500D01*
X147102134Y-172094500D01*
X147164316Y-172087745D01*
X147300705Y-172036615D01*
X147378852Y-171978047D01*
X147445358Y-171953199D01*
X147514741Y-171968252D01*
X147529982Y-171978047D01*
X147600352Y-172030786D01*
X147615946Y-172039324D01*
X147736394Y-172084478D01*
X147751649Y-172088105D01*
X147802514Y-172093631D01*
X147809328Y-172094000D01*
X148204885Y-172094000D01*
X148220124Y-172089525D01*
X148221329Y-172088135D01*
X148223000Y-172080452D01*
X148223000Y-172075884D01*
X148985000Y-172075884D01*
X148989475Y-172091123D01*
X148990865Y-172092328D01*
X148998548Y-172093999D01*
X149398669Y-172093999D01*
X149405490Y-172093629D01*
X149456352Y-172088105D01*
X149471604Y-172084479D01*
X149592054Y-172039324D01*
X149607649Y-172030786D01*
X149709724Y-171954285D01*
X149722285Y-171941724D01*
X149798786Y-171839649D01*
X149807324Y-171824054D01*
X149852478Y-171703606D01*
X149856105Y-171688351D01*
X149861631Y-171637486D01*
X149862000Y-171630672D01*
X149862000Y-170985115D01*
X149857525Y-170969876D01*
X149856135Y-170968671D01*
X149848452Y-170967000D01*
X149003115Y-170967000D01*
X148987876Y-170971475D01*
X148986671Y-170972865D01*
X148985000Y-170980548D01*
X148985000Y-172075884D01*
X148223000Y-172075884D01*
X148223000Y-170186885D01*
X148985000Y-170186885D01*
X148989475Y-170202124D01*
X148990865Y-170203329D01*
X148998548Y-170205000D01*
X149843884Y-170205000D01*
X149859123Y-170200525D01*
X149860328Y-170199135D01*
X149861999Y-170191452D01*
X149861999Y-169541331D01*
X149861629Y-169534510D01*
X149856105Y-169483648D01*
X149852479Y-169468396D01*
X149807324Y-169347946D01*
X149798786Y-169332351D01*
X149722285Y-169230276D01*
X149709724Y-169217715D01*
X149607649Y-169141214D01*
X149592054Y-169132676D01*
X149471606Y-169087522D01*
X149456351Y-169083895D01*
X149405486Y-169078369D01*
X149398672Y-169078000D01*
X149003115Y-169078000D01*
X148987876Y-169082475D01*
X148986671Y-169083865D01*
X148985000Y-169091548D01*
X148985000Y-170186885D01*
X148223000Y-170186885D01*
X148223000Y-169096116D01*
X148218525Y-169080877D01*
X148217135Y-169079672D01*
X148209452Y-169078001D01*
X147809331Y-169078001D01*
X147802510Y-169078371D01*
X147751648Y-169083895D01*
X147736396Y-169087521D01*
X147615946Y-169132676D01*
X147600352Y-169141214D01*
X147529982Y-169193953D01*
X147463476Y-169218801D01*
X147394093Y-169203748D01*
X147378858Y-169193957D01*
X147372727Y-169189362D01*
X147330214Y-169132504D01*
X147325189Y-169061685D01*
X147359122Y-168999519D01*
X147373134Y-168985483D01*
X147378305Y-168980303D01*
X147385908Y-168967969D01*
X147449451Y-168864884D01*
X147502224Y-168817390D01*
X147556711Y-168805000D01*
X150523478Y-168805000D01*
X150591599Y-168825002D01*
G37*
%TD.AperFunction*%
%TA.AperFunction,Conductor*%
G36*
X168001621Y-171514952D02*
G01*
X168048114Y-171568608D01*
X168059500Y-171620950D01*
X168059500Y-172741321D01*
X168039498Y-172809442D01*
X168022599Y-172830412D01*
X167246854Y-173606156D01*
X167184544Y-173640180D01*
X167113728Y-173635115D01*
X167056893Y-173592568D01*
X167032082Y-173526048D01*
X167038168Y-173477392D01*
X167086315Y-173332234D01*
X167089181Y-173318867D01*
X167093929Y-173272523D01*
X167091201Y-173257824D01*
X167078966Y-173254500D01*
X166037911Y-173254500D01*
X165969790Y-173234498D01*
X165923297Y-173180842D01*
X165911911Y-173128500D01*
X165911911Y-172693367D01*
X165931913Y-172625246D01*
X165948816Y-172604272D01*
X166023683Y-172529405D01*
X166085995Y-172495379D01*
X166112778Y-172492500D01*
X167077620Y-172492500D01*
X167091937Y-172488296D01*
X167093996Y-172475740D01*
X167088925Y-172426869D01*
X167086031Y-172413470D01*
X167035512Y-172262047D01*
X167029347Y-172248885D01*
X166945574Y-172113508D01*
X166936540Y-172102110D01*
X166823871Y-171989637D01*
X166812454Y-171980621D01*
X166799675Y-171972743D01*
X166752182Y-171919970D01*
X166740761Y-171849898D01*
X166769036Y-171784775D01*
X166776698Y-171776390D01*
X167021233Y-171531855D01*
X167083545Y-171497829D01*
X167110328Y-171494950D01*
X167933500Y-171494950D01*
X168001621Y-171514952D01*
G37*
%TD.AperFunction*%
%TA.AperFunction,Conductor*%
G36*
X155209948Y-145268421D02*
G01*
X155226387Y-145270381D01*
X155242823Y-145272341D01*
X155270171Y-145278756D01*
X155301352Y-145289859D01*
X155326598Y-145302173D01*
X155344281Y-145313394D01*
X155354546Y-145319909D01*
X155376432Y-145337505D01*
X155379208Y-145340300D01*
X155390748Y-145351920D01*
X155392000Y-145353050D01*
X155392005Y-145353055D01*
X155415731Y-145374473D01*
X155452893Y-145434967D01*
X155451450Y-145505949D01*
X155411860Y-145564883D01*
X155346693Y-145593057D01*
X155331300Y-145594001D01*
X155305331Y-145594001D01*
X155298510Y-145594371D01*
X155247648Y-145599895D01*
X155232396Y-145603521D01*
X155111946Y-145648676D01*
X155096351Y-145657214D01*
X154994276Y-145733715D01*
X154981715Y-145746276D01*
X154905214Y-145848351D01*
X154896676Y-145863946D01*
X154851522Y-145984394D01*
X154847895Y-145999649D01*
X154842369Y-146050514D01*
X154842000Y-146057328D01*
X154842000Y-146802885D01*
X154846475Y-146818124D01*
X154847865Y-146819329D01*
X154855548Y-146821000D01*
X157039884Y-146821000D01*
X157055123Y-146816525D01*
X157056328Y-146815135D01*
X157057999Y-146807452D01*
X157057999Y-146057331D01*
X157057629Y-146050510D01*
X157052105Y-145999648D01*
X157048479Y-145984396D01*
X157003324Y-145863946D01*
X156994786Y-145848351D01*
X156918285Y-145746276D01*
X156907801Y-145735792D01*
X156873775Y-145673480D01*
X156878840Y-145602665D01*
X156921387Y-145545829D01*
X156970084Y-145523583D01*
X157006489Y-145515655D01*
X157049237Y-145501421D01*
X157101953Y-145483868D01*
X157101955Y-145483867D01*
X157109427Y-145481379D01*
X157124186Y-145471894D01*
X157181643Y-145434967D01*
X157231064Y-145403205D01*
X157269621Y-145369794D01*
X157334201Y-145340300D01*
X157404475Y-145350402D01*
X157434647Y-145369792D01*
X157517234Y-145441355D01*
X157525431Y-145445099D01*
X157525432Y-145445099D01*
X157584105Y-145471894D01*
X157637761Y-145518387D01*
X157657763Y-145586508D01*
X157637761Y-145654629D01*
X157607328Y-145687334D01*
X157545920Y-145733357D01*
X157538739Y-145738739D01*
X157451385Y-145855295D01*
X157400255Y-145991684D01*
X157393500Y-146053866D01*
X157393500Y-148350134D01*
X157400255Y-148412316D01*
X157451385Y-148548705D01*
X157538739Y-148665261D01*
X157602724Y-148713215D01*
X157645238Y-148770073D01*
X157650264Y-148840891D01*
X157646754Y-148853699D01*
X157614026Y-148952369D01*
X157613326Y-148959205D01*
X157613325Y-148959208D01*
X157608049Y-149010704D01*
X157603500Y-149055106D01*
X157603500Y-149629250D01*
X157614293Y-149733271D01*
X157669346Y-149898285D01*
X157760884Y-150046209D01*
X157766066Y-150051382D01*
X157878816Y-150163936D01*
X157878821Y-150163940D01*
X157883997Y-150169107D01*
X157890227Y-150172947D01*
X157890228Y-150172948D01*
X158015807Y-150250356D01*
X158032080Y-150260387D01*
X158197191Y-150315152D01*
X158204027Y-150315852D01*
X158204030Y-150315853D01*
X158255526Y-150321129D01*
X158299928Y-150325678D01*
X158899072Y-150325678D01*
X158902318Y-150325341D01*
X158902322Y-150325341D01*
X158996235Y-150315597D01*
X158996239Y-150315596D01*
X159003093Y-150314885D01*
X159009629Y-150312704D01*
X159009631Y-150312704D01*
X159142411Y-150268405D01*
X159168107Y-150259832D01*
X159316031Y-150168294D01*
X159331627Y-150152671D01*
X159422747Y-150061392D01*
X159485030Y-150027313D01*
X159555850Y-150032316D01*
X159600937Y-150061237D01*
X159703812Y-150163932D01*
X159703817Y-150163936D01*
X159708997Y-150169107D01*
X159715227Y-150172947D01*
X159715228Y-150172948D01*
X159840807Y-150250356D01*
X159857080Y-150260387D01*
X160022191Y-150315152D01*
X160029027Y-150315852D01*
X160029030Y-150315853D01*
X160080526Y-150321129D01*
X160124928Y-150325678D01*
X160724072Y-150325678D01*
X160727318Y-150325341D01*
X160727322Y-150325341D01*
X160821235Y-150315597D01*
X160821239Y-150315596D01*
X160828093Y-150314885D01*
X160834629Y-150312704D01*
X160834631Y-150312704D01*
X160967411Y-150268405D01*
X160993107Y-150259832D01*
X161135836Y-150171509D01*
X161204287Y-150152671D01*
X161272057Y-150173832D01*
X161291233Y-150189558D01*
X161696464Y-150594789D01*
X161730490Y-150657101D01*
X161725425Y-150727916D01*
X161682878Y-150784752D01*
X161673672Y-150791028D01*
X161647490Y-150807230D01*
X161639969Y-150811884D01*
X161633077Y-150818788D01*
X161631613Y-150819589D01*
X161629062Y-150821611D01*
X161628716Y-150821174D01*
X161570796Y-150852866D01*
X161499976Y-150847863D01*
X161454890Y-150818944D01*
X161452184Y-150816243D01*
X161447003Y-150811071D01*
X161440772Y-150807230D01*
X161305150Y-150723631D01*
X161305148Y-150723630D01*
X161298920Y-150719791D01*
X161133809Y-150665026D01*
X161126973Y-150664326D01*
X161126970Y-150664325D01*
X161075474Y-150659049D01*
X161031072Y-150654500D01*
X160331928Y-150654500D01*
X160328682Y-150654837D01*
X160328678Y-150654837D01*
X160234765Y-150664581D01*
X160234761Y-150664582D01*
X160227907Y-150665293D01*
X160221371Y-150667474D01*
X160221369Y-150667474D01*
X160088605Y-150711768D01*
X160062893Y-150720346D01*
X159914969Y-150811884D01*
X159909796Y-150817066D01*
X159797242Y-150929816D01*
X159797238Y-150929821D01*
X159792071Y-150934997D01*
X159788231Y-150941227D01*
X159788230Y-150941228D01*
X159704687Y-151076760D01*
X159700791Y-151083080D01*
X159646026Y-151248191D01*
X159645326Y-151255027D01*
X159645325Y-151255030D01*
X159642605Y-151281582D01*
X159635500Y-151350928D01*
X159635500Y-151925072D01*
X159635837Y-151928318D01*
X159635837Y-151928322D01*
X159645246Y-152019000D01*
X159646293Y-152029093D01*
X159648474Y-152035629D01*
X159648474Y-152035631D01*
X159681391Y-152134295D01*
X159701346Y-152194107D01*
X159792884Y-152342031D01*
X159798066Y-152347204D01*
X159798070Y-152347209D01*
X159901582Y-152450540D01*
X159935662Y-152512822D01*
X159930659Y-152583642D01*
X159921026Y-152603838D01*
X159895855Y-152646399D01*
X159849438Y-152806169D01*
X159846500Y-152843498D01*
X159846500Y-153595406D01*
X159826498Y-153663527D01*
X159809595Y-153684501D01*
X158611747Y-154882348D01*
X158603461Y-154889888D01*
X158596982Y-154894000D01*
X158591557Y-154899777D01*
X158550357Y-154943651D01*
X158547602Y-154946493D01*
X158527865Y-154966230D01*
X158525385Y-154969427D01*
X158517682Y-154978447D01*
X158487414Y-155010679D01*
X158483595Y-155017625D01*
X158483593Y-155017628D01*
X158477652Y-155028434D01*
X158466801Y-155044953D01*
X158454386Y-155060959D01*
X158451241Y-155068228D01*
X158451238Y-155068232D01*
X158436826Y-155101537D01*
X158431609Y-155112187D01*
X158410305Y-155150940D01*
X158408334Y-155158615D01*
X158408334Y-155158616D01*
X158405267Y-155170562D01*
X158398863Y-155189266D01*
X158390819Y-155207855D01*
X158389580Y-155215678D01*
X158389577Y-155215688D01*
X158383901Y-155251524D01*
X158381495Y-155263144D01*
X158378448Y-155275013D01*
X158370500Y-155305970D01*
X158370500Y-155326224D01*
X158368949Y-155345934D01*
X158365780Y-155365943D01*
X158366526Y-155373835D01*
X158369941Y-155409961D01*
X158370500Y-155421819D01*
X158370500Y-155869036D01*
X158350498Y-155937157D01*
X158310804Y-155976179D01*
X158299969Y-155982884D01*
X158294796Y-155988066D01*
X158182242Y-156100816D01*
X158182238Y-156100821D01*
X158177071Y-156105997D01*
X158173231Y-156112227D01*
X158173230Y-156112228D01*
X158090364Y-156246662D01*
X158085791Y-156254080D01*
X158031026Y-156419191D01*
X158030326Y-156426027D01*
X158030325Y-156426030D01*
X158028814Y-156440776D01*
X158020500Y-156521928D01*
X158020500Y-157196072D01*
X158020837Y-157199318D01*
X158020837Y-157199322D01*
X158030097Y-157288563D01*
X158031293Y-157300093D01*
X158033474Y-157306629D01*
X158033474Y-157306631D01*
X158071818Y-157421562D01*
X158086346Y-157465107D01*
X158177884Y-157613031D01*
X158209787Y-157644879D01*
X158243866Y-157707159D01*
X158238863Y-157777979D01*
X158209943Y-157823067D01*
X158192299Y-157840742D01*
X158177071Y-157855997D01*
X158173231Y-157862227D01*
X158173230Y-157862228D01*
X158133083Y-157927359D01*
X158085791Y-158004080D01*
X158031026Y-158169191D01*
X158030326Y-158176027D01*
X158030325Y-158176030D01*
X158028616Y-158192710D01*
X158020500Y-158271928D01*
X158020500Y-158946072D01*
X158020837Y-158949318D01*
X158020837Y-158949322D01*
X158026419Y-159003115D01*
X158031293Y-159050093D01*
X158086346Y-159215107D01*
X158177884Y-159363031D01*
X158183066Y-159368204D01*
X158295816Y-159480758D01*
X158295821Y-159480762D01*
X158300997Y-159485929D01*
X158307227Y-159489769D01*
X158307228Y-159489770D01*
X158442489Y-159573146D01*
X158449080Y-159577209D01*
X158614191Y-159631974D01*
X158621027Y-159632674D01*
X158621030Y-159632675D01*
X158672526Y-159637951D01*
X158716928Y-159642500D01*
X159291072Y-159642500D01*
X159294318Y-159642163D01*
X159294322Y-159642163D01*
X159388235Y-159632419D01*
X159388239Y-159632418D01*
X159395093Y-159631707D01*
X159401629Y-159629526D01*
X159401631Y-159629526D01*
X159534395Y-159585232D01*
X159560107Y-159576654D01*
X159657510Y-159516380D01*
X159725961Y-159497543D01*
X159793730Y-159518705D01*
X159839301Y-159573146D01*
X159846340Y-159601340D01*
X159847775Y-159601078D01*
X159848933Y-159607419D01*
X159849438Y-159613831D01*
X159877665Y-159710989D01*
X159893586Y-159765790D01*
X159895855Y-159773601D01*
X159920957Y-159816045D01*
X159938416Y-159884859D01*
X159915900Y-159952191D01*
X159901680Y-159969196D01*
X159792071Y-160078997D01*
X159788231Y-160085227D01*
X159788230Y-160085228D01*
X159747725Y-160150940D01*
X159700791Y-160227080D01*
X159696027Y-160241443D01*
X159677885Y-160296139D01*
X159634996Y-160356434D01*
X159612045Y-160374045D01*
X159607019Y-160380595D01*
X159594051Y-160397495D01*
X159583184Y-160409886D01*
X159140475Y-160852595D01*
X159078163Y-160886621D01*
X159051380Y-160889500D01*
X158908513Y-160889500D01*
X158902061Y-160890872D01*
X158902056Y-160890872D01*
X158816773Y-160909000D01*
X158721712Y-160929206D01*
X158715682Y-160931891D01*
X158715681Y-160931891D01*
X158553278Y-161004197D01*
X158553276Y-161004198D01*
X158547248Y-161006882D01*
X158392747Y-161119134D01*
X158388326Y-161124044D01*
X158388325Y-161124045D01*
X158349221Y-161167475D01*
X158264960Y-161261056D01*
X158169473Y-161426444D01*
X158110458Y-161608072D01*
X158109768Y-161614633D01*
X158109768Y-161614635D01*
X158096070Y-161744966D01*
X158090496Y-161798000D01*
X158090509Y-161798119D01*
X158071184Y-161863933D01*
X158054281Y-161884907D01*
X157728108Y-162211080D01*
X157720295Y-162218190D01*
X157714017Y-162222174D01*
X157708591Y-162227953D01*
X157708590Y-162227953D01*
X157669170Y-162269931D01*
X157666415Y-162272773D01*
X157647453Y-162291735D01*
X157645027Y-162294862D01*
X157644462Y-162295503D01*
X157637494Y-162303661D01*
X157608496Y-162334542D01*
X157599272Y-162351319D01*
X157588425Y-162367832D01*
X157581548Y-162376698D01*
X157581545Y-162376703D01*
X157576687Y-162382966D01*
X157561453Y-162418171D01*
X157559862Y-162421847D01*
X157554646Y-162432495D01*
X157534235Y-162469622D01*
X157530228Y-162485228D01*
X157529475Y-162488161D01*
X157523074Y-162506859D01*
X157515468Y-162524435D01*
X157508842Y-162566274D01*
X157506434Y-162577902D01*
X157497872Y-162611244D01*
X157497872Y-162611248D01*
X157495900Y-162618926D01*
X157495900Y-162620061D01*
X157468728Y-162682366D01*
X157409670Y-162721769D01*
X157372102Y-162727500D01*
X156957866Y-162727500D01*
X156895684Y-162734255D01*
X156759295Y-162785385D01*
X156642739Y-162872739D01*
X156555385Y-162989295D01*
X156504255Y-163125684D01*
X156497500Y-163187866D01*
X156497500Y-164484134D01*
X156504255Y-164546316D01*
X156555385Y-164682705D01*
X156642739Y-164799261D01*
X156759295Y-164886615D01*
X156895684Y-164937745D01*
X156957866Y-164944500D01*
X159254134Y-164944500D01*
X159316316Y-164937745D01*
X159452705Y-164886615D01*
X159569261Y-164799261D01*
X159656615Y-164682705D01*
X159707745Y-164546316D01*
X159714500Y-164484134D01*
X159714500Y-163187866D01*
X159707745Y-163125684D01*
X159656615Y-162989295D01*
X159569261Y-162872739D01*
X159460325Y-162791096D01*
X159417811Y-162734238D01*
X159412785Y-162663420D01*
X159446845Y-162601126D01*
X159461830Y-162588335D01*
X159515008Y-162549699D01*
X159615253Y-162476866D01*
X159631352Y-162458986D01*
X159738621Y-162339852D01*
X159738622Y-162339851D01*
X159743040Y-162334944D01*
X159812135Y-162215268D01*
X159835223Y-162175279D01*
X159835224Y-162175278D01*
X159838527Y-162169556D01*
X159897542Y-161987928D01*
X159916008Y-161812238D01*
X159943020Y-161746582D01*
X160001241Y-161705952D01*
X160072187Y-161703249D01*
X160080984Y-161705816D01*
X160084180Y-161706876D01*
X160229191Y-161754974D01*
X160236027Y-161755674D01*
X160236030Y-161755675D01*
X160287526Y-161760951D01*
X160331928Y-161765500D01*
X161031072Y-161765500D01*
X161034318Y-161765163D01*
X161034322Y-161765163D01*
X161128235Y-161755419D01*
X161128239Y-161755418D01*
X161135093Y-161754707D01*
X161141629Y-161752526D01*
X161141631Y-161752526D01*
X161293159Y-161701972D01*
X161300107Y-161699654D01*
X161448031Y-161608116D01*
X161455274Y-161600861D01*
X161457038Y-161599895D01*
X161458941Y-161598387D01*
X161459199Y-161598713D01*
X161517554Y-161566781D01*
X161588375Y-161571782D01*
X161633470Y-161600708D01*
X161636131Y-161603364D01*
X161647540Y-161612375D01*
X161783063Y-161695912D01*
X161796241Y-161702056D01*
X161947766Y-161752315D01*
X161961133Y-161755181D01*
X162007477Y-161759929D01*
X162022176Y-161757201D01*
X162025500Y-161744966D01*
X162025500Y-161743620D01*
X162787500Y-161743620D01*
X162791704Y-161757937D01*
X162804260Y-161759996D01*
X162853131Y-161754925D01*
X162866530Y-161752031D01*
X163017953Y-161701512D01*
X163031115Y-161695347D01*
X163166492Y-161611574D01*
X163177890Y-161602540D01*
X163290363Y-161489871D01*
X163299375Y-161478460D01*
X163382912Y-161342937D01*
X163389056Y-161329759D01*
X163439313Y-161178240D01*
X163439686Y-161176498D01*
X163437798Y-161166324D01*
X163425562Y-161163000D01*
X162805615Y-161163000D01*
X162790376Y-161167475D01*
X162789171Y-161168865D01*
X162787500Y-161176548D01*
X162787500Y-161743620D01*
X162025500Y-161743620D01*
X162025500Y-160527000D01*
X162045502Y-160458879D01*
X162099158Y-160412386D01*
X162151500Y-160401000D01*
X163424135Y-160401000D01*
X163438452Y-160396796D01*
X163439851Y-160388263D01*
X163439033Y-160384475D01*
X163414791Y-160311813D01*
X163412207Y-160240863D01*
X163448391Y-160179780D01*
X163499162Y-160150940D01*
X163600988Y-160121357D01*
X163600990Y-160121356D01*
X163608601Y-160119145D01*
X163751807Y-160034453D01*
X163754747Y-160031513D01*
X163819271Y-160006179D01*
X163888894Y-160020080D01*
X163907640Y-160032129D01*
X163915323Y-160038089D01*
X164044777Y-160114647D01*
X164059213Y-160120894D01*
X164147605Y-160146574D01*
X164161705Y-160146534D01*
X164165000Y-160139264D01*
X164165000Y-160133513D01*
X164765000Y-160133513D01*
X164768973Y-160147044D01*
X164776871Y-160148179D01*
X164870787Y-160120894D01*
X164885223Y-160114647D01*
X165014678Y-160038089D01*
X165027104Y-160028449D01*
X165133449Y-159922104D01*
X165143089Y-159909678D01*
X165219648Y-159780221D01*
X165225893Y-159765790D01*
X165268269Y-159619935D01*
X165270570Y-159607333D01*
X165272807Y-159578916D01*
X165273000Y-159573986D01*
X165273000Y-159003115D01*
X165268525Y-158987876D01*
X165267135Y-158986671D01*
X165259452Y-158985000D01*
X164783115Y-158985000D01*
X164767876Y-158989475D01*
X164766671Y-158990865D01*
X164765000Y-158998548D01*
X164765000Y-160133513D01*
X164165000Y-160133513D01*
X164165000Y-158511000D01*
X164185002Y-158442879D01*
X164238658Y-158396386D01*
X164291000Y-158385000D01*
X165254884Y-158385000D01*
X165270123Y-158380525D01*
X165271328Y-158379135D01*
X165272999Y-158371452D01*
X165272999Y-157796017D01*
X165272805Y-157791080D01*
X165270570Y-157762664D01*
X165268270Y-157750069D01*
X165225893Y-157604210D01*
X165219648Y-157589779D01*
X165143089Y-157460322D01*
X165133449Y-157447896D01*
X165027107Y-157341554D01*
X165010872Y-157328960D01*
X164969308Y-157271402D01*
X164965459Y-157200510D01*
X164968269Y-157190466D01*
X164968433Y-157189963D01*
X164977542Y-157161928D01*
X164983540Y-157104865D01*
X164996814Y-156978565D01*
X164996814Y-156978564D01*
X164997504Y-156972000D01*
X164991383Y-156913762D01*
X164978232Y-156788635D01*
X164978232Y-156788633D01*
X164977542Y-156782072D01*
X164918527Y-156600444D01*
X164913075Y-156591000D01*
X164875081Y-156525194D01*
X164823040Y-156435056D01*
X164822199Y-156434122D01*
X164799008Y-156369123D01*
X164815088Y-156299972D01*
X164866002Y-156250492D01*
X164878414Y-156244780D01*
X164880876Y-156243805D01*
X164888254Y-156240884D01*
X164922532Y-156215980D01*
X164932452Y-156209464D01*
X164962079Y-156191943D01*
X164962082Y-156191941D01*
X164968906Y-156187905D01*
X164982433Y-156174378D01*
X164997467Y-156161537D01*
X165006547Y-156154940D01*
X165006548Y-156154939D01*
X165012962Y-156150279D01*
X165039974Y-156117627D01*
X165047953Y-156108858D01*
X165961907Y-155194905D01*
X166024217Y-155160881D01*
X166095033Y-155165946D01*
X166151868Y-155208493D01*
X166176679Y-155275013D01*
X166177000Y-155284002D01*
X166177000Y-155499811D01*
X166176836Y-155506238D01*
X166176828Y-155506403D01*
X166176500Y-155509600D01*
X166176500Y-156910400D01*
X166176834Y-156913617D01*
X166177000Y-156920060D01*
X166177000Y-157785811D01*
X166176836Y-157792238D01*
X166176828Y-157792403D01*
X166176500Y-157795600D01*
X166176500Y-159196400D01*
X166176834Y-159199617D01*
X166177000Y-159206060D01*
X166177000Y-160071811D01*
X166176836Y-160078238D01*
X166176828Y-160078403D01*
X166176500Y-160081600D01*
X166176500Y-161482400D01*
X166176834Y-161485617D01*
X166177000Y-161492060D01*
X166177000Y-161596000D01*
X166188609Y-161703980D01*
X166189323Y-161707264D01*
X166189324Y-161707268D01*
X166192449Y-161721632D01*
X166199995Y-161756322D01*
X166234293Y-161859372D01*
X166312465Y-161981010D01*
X166315407Y-161984405D01*
X166315409Y-161984408D01*
X166350497Y-162024901D01*
X166358958Y-162034666D01*
X166468234Y-162129355D01*
X166472927Y-162131498D01*
X166518144Y-162183684D01*
X166528246Y-162253958D01*
X166523362Y-162274960D01*
X166492458Y-162370072D01*
X166491768Y-162376633D01*
X166491768Y-162376635D01*
X166476325Y-162523568D01*
X166472496Y-162560000D01*
X166473186Y-162566565D01*
X166473424Y-162568830D01*
X166473186Y-162570131D01*
X166473186Y-162573170D01*
X166472630Y-162573170D01*
X166460651Y-162638669D01*
X166412149Y-162690515D01*
X166348114Y-162708000D01*
X164805115Y-162708000D01*
X164789876Y-162712475D01*
X164788671Y-162713865D01*
X164787000Y-162721548D01*
X164787000Y-165716885D01*
X164791475Y-165732124D01*
X164792865Y-165733329D01*
X164800548Y-165735000D01*
X168095884Y-165735000D01*
X168111123Y-165730525D01*
X168112328Y-165729135D01*
X168113999Y-165721452D01*
X168113999Y-163171330D01*
X168113446Y-163161121D01*
X168114455Y-163161066D01*
X168126227Y-163095351D01*
X168129850Y-163088612D01*
X168137961Y-163074565D01*
X168193744Y-162977946D01*
X168217223Y-162937279D01*
X168217224Y-162937278D01*
X168220527Y-162931556D01*
X168279542Y-162749928D01*
X168281216Y-162734007D01*
X168298814Y-162566565D01*
X168299504Y-162560000D01*
X168295675Y-162523568D01*
X168280232Y-162376635D01*
X168280232Y-162376633D01*
X168279542Y-162370072D01*
X168257964Y-162303663D01*
X168233185Y-162227400D01*
X168231157Y-162156433D01*
X168270505Y-162093240D01*
X168319272Y-162050983D01*
X168319273Y-162050982D01*
X168322666Y-162048042D01*
X168334257Y-162034666D01*
X168368438Y-161995219D01*
X168417355Y-161938766D01*
X168477421Y-161807240D01*
X168493340Y-161753025D01*
X168496154Y-161743442D01*
X168496155Y-161743438D01*
X168497423Y-161739119D01*
X168498064Y-161734664D01*
X168517361Y-161600448D01*
X168517362Y-161600441D01*
X168518000Y-161596000D01*
X168518000Y-161492189D01*
X168518164Y-161485762D01*
X168518172Y-161485597D01*
X168518500Y-161482400D01*
X168518500Y-161479095D01*
X169302001Y-161479095D01*
X169302338Y-161485614D01*
X169312257Y-161581206D01*
X169315149Y-161594600D01*
X169366588Y-161748784D01*
X169372761Y-161761962D01*
X169458063Y-161899807D01*
X169467099Y-161911208D01*
X169581829Y-162025739D01*
X169593240Y-162034751D01*
X169731243Y-162119816D01*
X169744424Y-162125963D01*
X169898710Y-162177138D01*
X169912086Y-162180005D01*
X170006438Y-162189672D01*
X170012854Y-162190000D01*
X170073385Y-162190000D01*
X170088624Y-162185525D01*
X170089829Y-162184135D01*
X170091500Y-162176452D01*
X170091500Y-161181115D01*
X170087025Y-161165876D01*
X170085635Y-161164671D01*
X170077952Y-161163000D01*
X169320116Y-161163000D01*
X169304877Y-161167475D01*
X169303672Y-161168865D01*
X169302001Y-161176548D01*
X169302001Y-161479095D01*
X168518500Y-161479095D01*
X168518500Y-160382885D01*
X169302000Y-160382885D01*
X169306475Y-160398124D01*
X169307865Y-160399329D01*
X169315548Y-160401000D01*
X170073385Y-160401000D01*
X170088624Y-160396525D01*
X170089829Y-160395135D01*
X170091500Y-160387452D01*
X170091500Y-158895115D01*
X170087025Y-158879876D01*
X170085635Y-158878671D01*
X170077952Y-158877000D01*
X169320116Y-158877000D01*
X169304877Y-158881475D01*
X169303672Y-158882865D01*
X169302001Y-158890548D01*
X169302001Y-159193095D01*
X169302338Y-159199614D01*
X169312257Y-159295206D01*
X169315149Y-159308600D01*
X169366588Y-159462784D01*
X169372762Y-159475963D01*
X169432588Y-159572641D01*
X169451426Y-159641093D01*
X169432704Y-159705060D01*
X169372184Y-159803243D01*
X169366037Y-159816424D01*
X169314862Y-159970710D01*
X169311995Y-159984086D01*
X169302328Y-160078438D01*
X169302000Y-160084855D01*
X169302000Y-160382885D01*
X168518500Y-160382885D01*
X168518500Y-160081600D01*
X168518166Y-160078383D01*
X168518000Y-160071940D01*
X168518000Y-159206189D01*
X168518164Y-159199762D01*
X168518172Y-159199597D01*
X168518500Y-159196400D01*
X168518500Y-158096885D01*
X169302000Y-158096885D01*
X169306475Y-158112124D01*
X169307865Y-158113329D01*
X169315548Y-158115000D01*
X170073385Y-158115000D01*
X170088624Y-158110525D01*
X170089829Y-158109135D01*
X170091500Y-158101452D01*
X170091500Y-156609115D01*
X170087025Y-156593876D01*
X170085635Y-156592671D01*
X170077952Y-156591000D01*
X169320116Y-156591000D01*
X169304877Y-156595475D01*
X169303672Y-156596865D01*
X169302001Y-156604548D01*
X169302001Y-156907095D01*
X169302338Y-156913614D01*
X169312257Y-157009206D01*
X169315149Y-157022600D01*
X169366588Y-157176784D01*
X169372762Y-157189963D01*
X169432588Y-157286641D01*
X169451426Y-157355093D01*
X169432704Y-157419060D01*
X169372184Y-157517243D01*
X169366037Y-157530424D01*
X169314862Y-157684710D01*
X169311995Y-157698086D01*
X169302328Y-157792438D01*
X169302000Y-157798855D01*
X169302000Y-158096885D01*
X168518500Y-158096885D01*
X168518500Y-157795600D01*
X168518166Y-157792383D01*
X168518000Y-157785940D01*
X168518000Y-156920189D01*
X168518164Y-156913762D01*
X168518172Y-156913597D01*
X168518500Y-156910400D01*
X168518500Y-155810885D01*
X169302000Y-155810885D01*
X169306475Y-155826124D01*
X169307865Y-155827329D01*
X169315548Y-155829000D01*
X170073385Y-155829000D01*
X170088624Y-155824525D01*
X170089829Y-155823135D01*
X170091500Y-155815452D01*
X170091500Y-154323115D01*
X170087025Y-154307876D01*
X170085635Y-154306671D01*
X170077952Y-154305000D01*
X169320116Y-154305000D01*
X169304877Y-154309475D01*
X169303672Y-154310865D01*
X169302001Y-154318548D01*
X169302001Y-154621095D01*
X169302338Y-154627614D01*
X169312257Y-154723206D01*
X169315149Y-154736600D01*
X169366588Y-154890784D01*
X169372762Y-154903963D01*
X169432588Y-155000641D01*
X169451426Y-155069093D01*
X169432704Y-155133060D01*
X169372184Y-155231243D01*
X169366037Y-155244424D01*
X169314862Y-155398710D01*
X169311995Y-155412086D01*
X169302328Y-155506438D01*
X169302000Y-155512855D01*
X169302000Y-155810885D01*
X168518500Y-155810885D01*
X168518500Y-155509600D01*
X168518166Y-155506383D01*
X168518000Y-155499940D01*
X168518000Y-154634189D01*
X168518164Y-154627762D01*
X168518172Y-154627597D01*
X168518500Y-154624400D01*
X168518500Y-153524885D01*
X169302000Y-153524885D01*
X169306475Y-153540124D01*
X169307865Y-153541329D01*
X169315548Y-153543000D01*
X170073385Y-153543000D01*
X170088624Y-153538525D01*
X170089829Y-153537135D01*
X170091500Y-153529452D01*
X170091500Y-152037115D01*
X170087025Y-152021876D01*
X170085635Y-152020671D01*
X170077952Y-152019000D01*
X169320116Y-152019000D01*
X169304877Y-152023475D01*
X169303672Y-152024865D01*
X169302001Y-152032548D01*
X169302001Y-152335095D01*
X169302338Y-152341614D01*
X169312257Y-152437206D01*
X169315149Y-152450600D01*
X169366588Y-152604784D01*
X169372762Y-152617963D01*
X169432588Y-152714641D01*
X169451426Y-152783093D01*
X169432704Y-152847060D01*
X169372184Y-152945243D01*
X169366037Y-152958424D01*
X169314862Y-153112710D01*
X169311995Y-153126086D01*
X169302328Y-153220438D01*
X169302000Y-153226855D01*
X169302000Y-153524885D01*
X168518500Y-153524885D01*
X168518500Y-153223600D01*
X168518166Y-153220383D01*
X168518000Y-153213940D01*
X168518000Y-152348189D01*
X168518164Y-152341762D01*
X168518172Y-152341597D01*
X168518500Y-152338400D01*
X168518500Y-151238885D01*
X169302000Y-151238885D01*
X169306475Y-151254124D01*
X169307865Y-151255329D01*
X169315548Y-151257000D01*
X170073385Y-151257000D01*
X170088624Y-151252525D01*
X170089829Y-151251135D01*
X170091500Y-151243452D01*
X170091500Y-150248116D01*
X170087025Y-150232877D01*
X170085635Y-150231672D01*
X170077952Y-150230001D01*
X170012905Y-150230001D01*
X170006386Y-150230338D01*
X169910794Y-150240257D01*
X169897400Y-150243149D01*
X169743216Y-150294588D01*
X169730038Y-150300761D01*
X169592193Y-150386063D01*
X169580792Y-150395099D01*
X169466261Y-150509829D01*
X169457249Y-150521240D01*
X169372184Y-150659243D01*
X169366037Y-150672424D01*
X169314862Y-150826710D01*
X169311995Y-150840086D01*
X169302328Y-150934438D01*
X169302000Y-150940855D01*
X169302000Y-151238885D01*
X168518500Y-151238885D01*
X168518500Y-150937600D01*
X168518166Y-150934383D01*
X168518000Y-150927940D01*
X168518000Y-150824000D01*
X168506391Y-150716020D01*
X168495005Y-150663678D01*
X168460707Y-150560628D01*
X168382535Y-150438990D01*
X168369344Y-150423766D01*
X168338982Y-150388727D01*
X168336042Y-150385334D01*
X168226766Y-150290645D01*
X168218570Y-150286902D01*
X168218567Y-150286900D01*
X168200583Y-150278687D01*
X168146928Y-150232193D01*
X168126927Y-150164072D01*
X168146930Y-150095951D01*
X168163827Y-150074984D01*
X169103909Y-149134903D01*
X169166219Y-149100879D01*
X169193002Y-149098000D01*
X171324000Y-149098000D01*
X171431980Y-149086391D01*
X171435264Y-149085677D01*
X171435268Y-149085676D01*
X171460339Y-149080222D01*
X171484322Y-149075005D01*
X171487524Y-149073939D01*
X171487536Y-149073936D01*
X171538211Y-149057070D01*
X171609162Y-149054536D01*
X171670220Y-149090764D01*
X171701998Y-149154252D01*
X171704000Y-149176622D01*
X171704000Y-150432235D01*
X171683998Y-150500356D01*
X171630342Y-150546849D01*
X171560068Y-150556953D01*
X171495488Y-150527459D01*
X171479253Y-150510498D01*
X171477900Y-150508791D01*
X171363171Y-150394261D01*
X171351760Y-150385249D01*
X171213757Y-150300184D01*
X171200576Y-150294037D01*
X171046290Y-150242862D01*
X171032914Y-150239995D01*
X170938562Y-150230328D01*
X170932145Y-150230000D01*
X170871615Y-150230000D01*
X170856376Y-150234475D01*
X170855171Y-150235865D01*
X170853500Y-150243548D01*
X170853500Y-162171884D01*
X170857975Y-162187123D01*
X170859365Y-162188328D01*
X170867048Y-162189999D01*
X170932095Y-162189999D01*
X170938614Y-162189662D01*
X171034206Y-162179743D01*
X171047600Y-162176851D01*
X171201784Y-162125412D01*
X171214962Y-162119239D01*
X171352807Y-162033937D01*
X171364208Y-162024901D01*
X171478739Y-161910171D01*
X171479118Y-161909691D01*
X171479461Y-161909448D01*
X171483910Y-161904991D01*
X171484673Y-161905753D01*
X171537035Y-161868628D01*
X171607958Y-161865396D01*
X171669370Y-161901021D01*
X171701772Y-161964193D01*
X171704000Y-161987783D01*
X171704000Y-165372910D01*
X171683998Y-165441031D01*
X171630342Y-165487524D01*
X171629781Y-165487701D01*
X171625986Y-165491270D01*
X171622409Y-165504438D01*
X171622409Y-166728500D01*
X171602407Y-166796621D01*
X171548751Y-166843114D01*
X171496409Y-166854500D01*
X170986409Y-166854500D01*
X170918288Y-166834498D01*
X170871795Y-166780842D01*
X170860409Y-166728500D01*
X170860409Y-165505865D01*
X170856205Y-165491548D01*
X170847672Y-165490149D01*
X170843884Y-165490967D01*
X170692456Y-165541488D01*
X170679294Y-165547653D01*
X170543917Y-165631426D01*
X170532519Y-165640460D01*
X170419332Y-165753844D01*
X170357049Y-165787923D01*
X170286229Y-165782920D01*
X170241142Y-165753999D01*
X170126188Y-165639246D01*
X170126183Y-165639242D01*
X170121003Y-165634071D01*
X169972920Y-165542791D01*
X169807809Y-165488026D01*
X169800973Y-165487326D01*
X169800970Y-165487325D01*
X169749474Y-165482049D01*
X169705072Y-165477500D01*
X169130928Y-165477500D01*
X169127682Y-165477837D01*
X169127678Y-165477837D01*
X169033765Y-165487581D01*
X169033761Y-165487582D01*
X169026907Y-165488293D01*
X169020371Y-165490474D01*
X169020369Y-165490474D01*
X168974237Y-165505865D01*
X168861893Y-165543346D01*
X168713969Y-165634884D01*
X168708796Y-165640066D01*
X168596242Y-165752816D01*
X168596238Y-165752821D01*
X168591071Y-165757997D01*
X168587231Y-165764227D01*
X168587230Y-165764228D01*
X168535346Y-165848400D01*
X168499791Y-165906080D01*
X168445026Y-166071191D01*
X168434500Y-166173928D01*
X168434500Y-166605500D01*
X168414498Y-166673621D01*
X168360842Y-166720114D01*
X168319503Y-166729107D01*
X168319682Y-166730810D01*
X168313117Y-166731500D01*
X168306513Y-166731500D01*
X168300053Y-166732873D01*
X168300054Y-166732873D01*
X168266196Y-166740069D01*
X168195405Y-166734666D01*
X168138773Y-166691849D01*
X168114280Y-166625211D01*
X168114000Y-166616822D01*
X168114000Y-166515115D01*
X168109525Y-166499876D01*
X168108135Y-166498671D01*
X168100452Y-166497000D01*
X164805115Y-166497000D01*
X164789876Y-166501475D01*
X164788671Y-166502865D01*
X164787000Y-166510548D01*
X164787000Y-169505884D01*
X164791475Y-169521123D01*
X164792865Y-169522328D01*
X164800548Y-169523999D01*
X166533721Y-169523999D01*
X166601842Y-169544001D01*
X166648335Y-169597657D01*
X166658439Y-169667931D01*
X166628945Y-169732511D01*
X166622816Y-169739094D01*
X165667595Y-170694315D01*
X165605283Y-170728341D01*
X165534468Y-170723276D01*
X165477632Y-170680729D01*
X165452821Y-170614209D01*
X165452500Y-170605220D01*
X165452500Y-170562866D01*
X165445745Y-170500684D01*
X165394615Y-170364295D01*
X165307261Y-170247739D01*
X165190705Y-170160385D01*
X165054316Y-170109255D01*
X164992134Y-170102500D01*
X163895866Y-170102500D01*
X163833684Y-170109255D01*
X163697295Y-170160385D01*
X163580739Y-170247739D01*
X163493385Y-170364295D01*
X163442255Y-170500684D01*
X163435500Y-170562866D01*
X163435500Y-171059134D01*
X163435869Y-171062531D01*
X163442255Y-171121316D01*
X163439826Y-171121580D01*
X163439826Y-171150420D01*
X163442255Y-171150684D01*
X163435500Y-171212866D01*
X163435500Y-171258611D01*
X163415498Y-171326732D01*
X163361842Y-171373225D01*
X163291568Y-171383329D01*
X163226988Y-171353835D01*
X163220405Y-171347706D01*
X161611794Y-169739095D01*
X161577768Y-169676783D01*
X161582833Y-169605968D01*
X161625380Y-169549132D01*
X161691900Y-169524321D01*
X161700889Y-169524000D01*
X164006885Y-169524000D01*
X164022124Y-169519525D01*
X164023329Y-169518135D01*
X164025000Y-169510452D01*
X164025000Y-166515115D01*
X164020525Y-166499876D01*
X164019135Y-166498671D01*
X164011452Y-166497000D01*
X160716116Y-166497000D01*
X160700877Y-166501475D01*
X160699672Y-166502865D01*
X160698001Y-166510548D01*
X160698001Y-168974000D01*
X160677999Y-169042121D01*
X160624343Y-169088614D01*
X160572001Y-169100000D01*
X159840500Y-169100000D01*
X159772379Y-169079998D01*
X159725886Y-169026342D01*
X159714500Y-168974000D01*
X159714500Y-167747866D01*
X159707745Y-167685684D01*
X159656615Y-167549295D01*
X159569261Y-167432739D01*
X159452705Y-167345385D01*
X159316316Y-167294255D01*
X159254134Y-167287500D01*
X156957866Y-167287500D01*
X156895684Y-167294255D01*
X156759295Y-167345385D01*
X156642739Y-167432739D01*
X156603898Y-167484565D01*
X156601222Y-167488135D01*
X156544363Y-167530650D01*
X156473544Y-167535676D01*
X156411380Y-167501745D01*
X156401487Y-167491869D01*
X156401482Y-167491865D01*
X156396303Y-167486695D01*
X156391765Y-167483898D01*
X156351176Y-167426647D01*
X156347946Y-167355724D01*
X156383572Y-167294313D01*
X156392068Y-167286938D01*
X156402207Y-167278902D01*
X156516739Y-167164171D01*
X156525751Y-167152760D01*
X156610816Y-167014757D01*
X156616963Y-167001576D01*
X156668138Y-166847290D01*
X156671005Y-166833914D01*
X156680145Y-166744705D01*
X156676525Y-166732376D01*
X156675135Y-166731171D01*
X156667452Y-166729500D01*
X154783119Y-166729500D01*
X154710667Y-166706586D01*
X154709109Y-166705491D01*
X154703814Y-166701559D01*
X154684980Y-166686791D01*
X154654240Y-166662688D01*
X154647315Y-166659561D01*
X154644281Y-166657724D01*
X154631582Y-166650480D01*
X154628434Y-166648792D01*
X154622219Y-166644424D01*
X154563530Y-166621542D01*
X154557485Y-166619002D01*
X154500045Y-166593067D01*
X154492572Y-166591682D01*
X154489154Y-166590611D01*
X154475165Y-166586626D01*
X154471673Y-166585729D01*
X154464591Y-166582968D01*
X154457058Y-166581976D01*
X154457057Y-166581976D01*
X154402150Y-166574747D01*
X154395637Y-166573715D01*
X154341162Y-166563619D01*
X154341160Y-166563619D01*
X154333693Y-166562235D01*
X154326113Y-166562672D01*
X154326112Y-166562672D01*
X154272368Y-166565771D01*
X154265115Y-166565980D01*
X152937738Y-166565980D01*
X152869617Y-166545978D01*
X152823124Y-166492322D01*
X152813020Y-166422048D01*
X152830478Y-166373864D01*
X152855816Y-166332757D01*
X152861963Y-166319576D01*
X152913138Y-166165290D01*
X152916005Y-166151914D01*
X152925672Y-166057562D01*
X152926000Y-166051146D01*
X152926000Y-165952295D01*
X154215855Y-165952295D01*
X154219475Y-165964624D01*
X154220865Y-165965829D01*
X154228548Y-165967500D01*
X155048885Y-165967500D01*
X155064124Y-165963025D01*
X155065329Y-165961635D01*
X155067000Y-165953952D01*
X155067000Y-165949385D01*
X155829000Y-165949385D01*
X155833475Y-165964624D01*
X155834865Y-165965829D01*
X155842548Y-165967500D01*
X156662884Y-165967500D01*
X156678123Y-165963025D01*
X156679328Y-165961635D01*
X156680529Y-165956111D01*
X156670743Y-165861794D01*
X156667851Y-165848400D01*
X156623975Y-165716885D01*
X160698000Y-165716885D01*
X160702475Y-165732124D01*
X160703865Y-165733329D01*
X160711548Y-165735000D01*
X164006885Y-165735000D01*
X164022124Y-165730525D01*
X164023329Y-165729135D01*
X164025000Y-165721452D01*
X164025000Y-162726116D01*
X164020525Y-162710877D01*
X164019135Y-162709672D01*
X164011452Y-162708001D01*
X161161331Y-162708001D01*
X161154510Y-162708371D01*
X161103648Y-162713895D01*
X161088396Y-162717521D01*
X160967946Y-162762676D01*
X160952351Y-162771214D01*
X160850276Y-162847715D01*
X160837715Y-162860276D01*
X160761214Y-162962351D01*
X160752676Y-162977946D01*
X160707522Y-163098394D01*
X160703895Y-163113649D01*
X160698369Y-163164514D01*
X160698000Y-163171328D01*
X160698000Y-165716885D01*
X156623975Y-165716885D01*
X156616412Y-165694216D01*
X156610239Y-165681038D01*
X156524937Y-165543193D01*
X156515901Y-165531792D01*
X156401171Y-165417261D01*
X156389760Y-165408249D01*
X156251757Y-165323184D01*
X156238576Y-165317037D01*
X156084290Y-165265862D01*
X156070914Y-165262995D01*
X155976562Y-165253328D01*
X155970145Y-165253000D01*
X155847115Y-165253000D01*
X155831876Y-165257475D01*
X155830671Y-165258865D01*
X155829000Y-165266548D01*
X155829000Y-165949385D01*
X155067000Y-165949385D01*
X155067000Y-165271116D01*
X155062525Y-165255877D01*
X155061135Y-165254672D01*
X155053452Y-165253001D01*
X154925905Y-165253001D01*
X154919386Y-165253338D01*
X154823794Y-165263257D01*
X154810400Y-165266149D01*
X154656216Y-165317588D01*
X154643038Y-165323761D01*
X154505193Y-165409063D01*
X154493792Y-165418099D01*
X154379261Y-165532829D01*
X154370249Y-165544240D01*
X154285184Y-165682243D01*
X154279037Y-165695424D01*
X154227862Y-165849710D01*
X154224995Y-165863086D01*
X154215855Y-165952295D01*
X152926000Y-165952295D01*
X152926000Y-165753115D01*
X152921525Y-165737876D01*
X152920135Y-165736671D01*
X152912452Y-165735000D01*
X150778116Y-165735000D01*
X150762877Y-165739475D01*
X150761672Y-165740865D01*
X150760001Y-165748548D01*
X150760001Y-166051095D01*
X150760338Y-166057614D01*
X150770257Y-166153206D01*
X150773149Y-166166600D01*
X150824588Y-166320784D01*
X150830759Y-166333958D01*
X150855338Y-166373676D01*
X150874176Y-166442128D01*
X150853015Y-166509898D01*
X150798575Y-166555469D01*
X150748194Y-166565980D01*
X149988326Y-166565980D01*
X149920205Y-166545978D01*
X149873712Y-166492322D01*
X149863608Y-166422048D01*
X149881066Y-166373864D01*
X149906275Y-166332968D01*
X149906276Y-166332966D01*
X149910115Y-166326738D01*
X149965797Y-166158861D01*
X149976500Y-166054400D01*
X149976500Y-164954885D01*
X150760000Y-164954885D01*
X150764475Y-164970124D01*
X150765865Y-164971329D01*
X150773548Y-164973000D01*
X151443885Y-164973000D01*
X151459124Y-164968525D01*
X151460329Y-164967135D01*
X151462000Y-164959452D01*
X151462000Y-164954885D01*
X152224000Y-164954885D01*
X152228475Y-164970124D01*
X152229865Y-164971329D01*
X152237548Y-164973000D01*
X152907884Y-164973000D01*
X152923123Y-164968525D01*
X152924328Y-164967135D01*
X152925999Y-164959452D01*
X152925999Y-164656905D01*
X152925662Y-164650386D01*
X152915743Y-164554794D01*
X152912851Y-164541400D01*
X152861412Y-164387216D01*
X152855239Y-164374038D01*
X152769937Y-164236193D01*
X152760901Y-164224792D01*
X152646171Y-164110261D01*
X152634760Y-164101249D01*
X152496757Y-164016184D01*
X152483576Y-164010037D01*
X152329290Y-163958862D01*
X152315914Y-163955995D01*
X152242023Y-163948424D01*
X152227323Y-163951153D01*
X152224000Y-163963386D01*
X152224000Y-164954885D01*
X151462000Y-164954885D01*
X151462000Y-163964701D01*
X151457796Y-163950384D01*
X151445239Y-163948325D01*
X151368794Y-163956257D01*
X151355400Y-163959149D01*
X151201216Y-164010588D01*
X151188038Y-164016761D01*
X151050193Y-164102063D01*
X151038792Y-164111099D01*
X150924261Y-164225829D01*
X150915249Y-164237240D01*
X150830184Y-164375243D01*
X150824037Y-164388424D01*
X150772862Y-164542710D01*
X150769995Y-164556086D01*
X150760328Y-164650438D01*
X150760000Y-164656855D01*
X150760000Y-164954885D01*
X149976500Y-164954885D01*
X149976500Y-164653600D01*
X149976163Y-164650350D01*
X149966238Y-164554692D01*
X149966237Y-164554688D01*
X149965526Y-164547834D01*
X149909550Y-164380054D01*
X149816478Y-164229652D01*
X149694131Y-164107518D01*
X149660052Y-164045235D01*
X149665055Y-163974415D01*
X149674030Y-163955345D01*
X149675223Y-163953279D01*
X149675224Y-163953278D01*
X149678527Y-163947556D01*
X149737542Y-163765928D01*
X149739138Y-163750749D01*
X149756814Y-163582565D01*
X149757504Y-163576000D01*
X149756814Y-163569435D01*
X149738232Y-163392635D01*
X149738232Y-163392633D01*
X149737542Y-163386072D01*
X149678527Y-163204444D01*
X149670929Y-163191283D01*
X149599751Y-163068000D01*
X149583040Y-163039056D01*
X149537744Y-162988749D01*
X149459675Y-162902045D01*
X149459674Y-162902044D01*
X149455253Y-162897134D01*
X149309306Y-162791097D01*
X149306094Y-162788763D01*
X149306093Y-162788762D01*
X149300752Y-162784882D01*
X149294724Y-162782198D01*
X149294722Y-162782197D01*
X149132319Y-162709891D01*
X149132318Y-162709891D01*
X149126288Y-162707206D01*
X149021117Y-162684851D01*
X148945944Y-162668872D01*
X148945939Y-162668872D01*
X148939487Y-162667500D01*
X148766989Y-162667500D01*
X148698868Y-162647498D01*
X148652375Y-162593842D01*
X148642271Y-162523568D01*
X148671766Y-162458986D01*
X148676453Y-162453577D01*
X148682355Y-162446766D01*
X148742421Y-162315240D01*
X148754248Y-162274960D01*
X148761154Y-162251442D01*
X148761155Y-162251438D01*
X148762423Y-162247119D01*
X148765179Y-162227953D01*
X148782361Y-162108448D01*
X148782362Y-162108441D01*
X148783000Y-162104000D01*
X148783000Y-162000189D01*
X148783164Y-161993762D01*
X148783172Y-161993597D01*
X148783500Y-161990400D01*
X148783500Y-161886637D01*
X148803502Y-161818516D01*
X148857158Y-161772023D01*
X148900511Y-161760958D01*
X148909557Y-161760311D01*
X148916296Y-161759829D01*
X149002001Y-161734664D01*
X149046385Y-161721632D01*
X149046387Y-161721631D01*
X149055031Y-161719093D01*
X149062609Y-161714223D01*
X149062611Y-161714222D01*
X149136875Y-161666495D01*
X149176669Y-161640921D01*
X149271357Y-161531646D01*
X149331422Y-161400120D01*
X149352000Y-161257000D01*
X149352000Y-160307000D01*
X149346829Y-160234704D01*
X149320462Y-160144907D01*
X149308632Y-160104615D01*
X149308631Y-160104613D01*
X149306093Y-160095969D01*
X149282901Y-160059881D01*
X149262899Y-159991762D01*
X149282901Y-159923641D01*
X149336556Y-159877148D01*
X149406830Y-159867043D01*
X149428565Y-159872168D01*
X149463662Y-159883809D01*
X149463667Y-159883810D01*
X149470191Y-159885974D01*
X149477027Y-159886674D01*
X149477030Y-159886675D01*
X149528526Y-159891951D01*
X149572928Y-159896500D01*
X150147072Y-159896500D01*
X150150318Y-159896163D01*
X150150322Y-159896163D01*
X150244235Y-159886419D01*
X150244239Y-159886418D01*
X150251093Y-159885707D01*
X150257629Y-159883526D01*
X150257631Y-159883526D01*
X150409159Y-159832972D01*
X150416107Y-159830654D01*
X150564031Y-159739116D01*
X150566179Y-159736965D01*
X150630358Y-159710989D01*
X150700122Y-159724161D01*
X150751660Y-159772931D01*
X150751855Y-159773601D01*
X150776957Y-159816045D01*
X150794416Y-159884859D01*
X150771900Y-159952191D01*
X150757680Y-159969196D01*
X150648071Y-160078997D01*
X150644231Y-160085227D01*
X150644230Y-160085228D01*
X150603725Y-160150940D01*
X150556791Y-160227080D01*
X150502026Y-160392191D01*
X150501326Y-160399027D01*
X150501325Y-160399030D01*
X150501123Y-160401000D01*
X150491500Y-160494928D01*
X150491500Y-161069072D01*
X150491837Y-161072318D01*
X150491837Y-161072322D01*
X150501246Y-161163000D01*
X150502293Y-161173093D01*
X150504474Y-161179629D01*
X150504474Y-161179631D01*
X150533547Y-161266774D01*
X150557346Y-161338107D01*
X150648884Y-161486031D01*
X150654066Y-161491204D01*
X150654070Y-161491209D01*
X150696328Y-161533393D01*
X150730408Y-161595675D01*
X150725405Y-161666495D01*
X150700947Y-161706876D01*
X150653118Y-161759996D01*
X150644960Y-161769056D01*
X150549473Y-161934444D01*
X150490458Y-162116072D01*
X150470496Y-162306000D01*
X150471186Y-162312565D01*
X150489642Y-162488161D01*
X150490458Y-162495928D01*
X150549473Y-162677556D01*
X150552776Y-162683278D01*
X150552777Y-162683279D01*
X150570436Y-162713865D01*
X150644960Y-162842944D01*
X150649378Y-162847851D01*
X150649379Y-162847852D01*
X150752474Y-162962351D01*
X150772747Y-162984866D01*
X150778843Y-162989295D01*
X150915541Y-163088612D01*
X150927248Y-163097118D01*
X150933276Y-163099802D01*
X150933278Y-163099803D01*
X151095681Y-163172109D01*
X151101712Y-163174794D01*
X151195113Y-163194647D01*
X151282056Y-163213128D01*
X151282061Y-163213128D01*
X151288513Y-163214500D01*
X151479487Y-163214500D01*
X151485939Y-163213128D01*
X151485944Y-163213128D01*
X151572887Y-163194647D01*
X151666288Y-163174794D01*
X151672319Y-163172109D01*
X151834722Y-163099803D01*
X151834724Y-163099802D01*
X151840752Y-163097118D01*
X151852460Y-163088612D01*
X151989157Y-162989295D01*
X151995253Y-162984866D01*
X152015526Y-162962351D01*
X152118621Y-162847852D01*
X152118622Y-162847851D01*
X152123040Y-162842944D01*
X152197564Y-162713865D01*
X152215223Y-162683279D01*
X152215224Y-162683278D01*
X152218527Y-162677556D01*
X152277542Y-162495928D01*
X152278359Y-162488161D01*
X152296814Y-162312565D01*
X152297504Y-162306000D01*
X152277542Y-162116072D01*
X152218527Y-161934444D01*
X152179013Y-161866003D01*
X152163327Y-161838835D01*
X152146589Y-161769840D01*
X152169809Y-161702748D01*
X152206143Y-161668691D01*
X152249718Y-161641726D01*
X152304031Y-161608116D01*
X152311274Y-161600861D01*
X152313038Y-161599895D01*
X152314941Y-161598387D01*
X152315199Y-161598713D01*
X152373554Y-161566781D01*
X152444375Y-161571782D01*
X152489470Y-161600708D01*
X152492131Y-161603364D01*
X152503540Y-161612375D01*
X152639063Y-161695912D01*
X152652241Y-161702056D01*
X152803766Y-161752315D01*
X152817133Y-161755181D01*
X152863477Y-161759929D01*
X152878176Y-161757201D01*
X152881500Y-161744966D01*
X152881500Y-161743620D01*
X153643500Y-161743620D01*
X153647704Y-161757937D01*
X153660260Y-161759996D01*
X153709131Y-161754925D01*
X153722530Y-161752031D01*
X153873953Y-161701512D01*
X153887115Y-161695347D01*
X154022492Y-161611574D01*
X154033890Y-161602540D01*
X154146363Y-161489871D01*
X154155375Y-161478460D01*
X154238912Y-161342937D01*
X154245056Y-161329759D01*
X154295313Y-161178240D01*
X154295686Y-161176498D01*
X154293798Y-161166324D01*
X154281562Y-161163000D01*
X153661615Y-161163000D01*
X153646376Y-161167475D01*
X153645171Y-161168865D01*
X153643500Y-161176548D01*
X153643500Y-161743620D01*
X152881500Y-161743620D01*
X152881500Y-160527000D01*
X152901502Y-160458879D01*
X152955158Y-160412386D01*
X153007500Y-160401000D01*
X154280135Y-160401000D01*
X154294452Y-160396796D01*
X154295851Y-160388263D01*
X154295033Y-160384475D01*
X154270791Y-160311813D01*
X154268207Y-160240863D01*
X154304391Y-160179780D01*
X154355162Y-160150940D01*
X154456988Y-160121357D01*
X154456990Y-160121356D01*
X154464601Y-160119145D01*
X154607807Y-160034453D01*
X154610747Y-160031513D01*
X154675271Y-160006179D01*
X154744894Y-160020080D01*
X154763640Y-160032129D01*
X154771323Y-160038089D01*
X154900777Y-160114647D01*
X154915213Y-160120894D01*
X155003605Y-160146574D01*
X155017705Y-160146534D01*
X155021000Y-160139264D01*
X155021000Y-160133513D01*
X155621000Y-160133513D01*
X155624973Y-160147044D01*
X155632871Y-160148179D01*
X155726787Y-160120894D01*
X155741223Y-160114647D01*
X155870678Y-160038089D01*
X155883104Y-160028449D01*
X155989449Y-159922104D01*
X155999089Y-159909678D01*
X156075648Y-159780221D01*
X156081893Y-159765790D01*
X156124269Y-159619935D01*
X156126570Y-159607333D01*
X156128807Y-159578916D01*
X156129000Y-159573986D01*
X156129000Y-159003115D01*
X156124525Y-158987876D01*
X156123135Y-158986671D01*
X156115452Y-158985000D01*
X155639115Y-158985000D01*
X155623876Y-158989475D01*
X155622671Y-158990865D01*
X155621000Y-158998548D01*
X155621000Y-160133513D01*
X155021000Y-160133513D01*
X155021000Y-158511000D01*
X155041002Y-158442879D01*
X155094658Y-158396386D01*
X155147000Y-158385000D01*
X156110884Y-158385000D01*
X156126123Y-158380525D01*
X156127328Y-158379135D01*
X156128999Y-158371452D01*
X156128999Y-157796017D01*
X156128805Y-157791080D01*
X156126570Y-157762664D01*
X156124270Y-157750069D01*
X156081893Y-157604210D01*
X156075646Y-157589775D01*
X156017352Y-157491203D01*
X155999893Y-157422387D01*
X156016686Y-157364066D01*
X156025227Y-157349271D01*
X156028527Y-157343556D01*
X156087542Y-157161928D01*
X156093540Y-157104865D01*
X156106814Y-156978565D01*
X156106814Y-156978564D01*
X156107504Y-156972000D01*
X156101383Y-156913762D01*
X156088232Y-156788635D01*
X156088232Y-156788633D01*
X156087542Y-156782072D01*
X156028527Y-156600444D01*
X156023075Y-156591000D01*
X155978527Y-156513841D01*
X155933040Y-156435056D01*
X155916873Y-156417100D01*
X155809675Y-156298045D01*
X155809674Y-156298044D01*
X155805253Y-156293134D01*
X155665976Y-156191943D01*
X155656094Y-156184763D01*
X155656093Y-156184762D01*
X155650752Y-156180882D01*
X155644724Y-156178198D01*
X155644722Y-156178197D01*
X155482319Y-156105891D01*
X155482318Y-156105891D01*
X155476288Y-156103206D01*
X155382887Y-156083353D01*
X155295944Y-156064872D01*
X155295939Y-156064872D01*
X155289487Y-156063500D01*
X155098513Y-156063500D01*
X155092061Y-156064872D01*
X155092056Y-156064872D01*
X155005113Y-156083353D01*
X154911712Y-156103206D01*
X154905682Y-156105891D01*
X154905681Y-156105891D01*
X154743278Y-156178197D01*
X154743276Y-156178198D01*
X154737248Y-156180882D01*
X154731907Y-156184762D01*
X154731906Y-156184763D01*
X154723106Y-156191157D01*
X154633060Y-156256579D01*
X154566194Y-156280437D01*
X154497042Y-156264357D01*
X154484944Y-156256582D01*
X154394894Y-156191157D01*
X154386094Y-156184763D01*
X154386093Y-156184762D01*
X154380752Y-156180882D01*
X154374724Y-156178198D01*
X154374722Y-156178197D01*
X154212319Y-156105891D01*
X154212318Y-156105891D01*
X154206288Y-156103206D01*
X154112887Y-156083353D01*
X154025944Y-156064872D01*
X154025939Y-156064872D01*
X154019487Y-156063500D01*
X153828513Y-156063500D01*
X153822061Y-156064872D01*
X153822056Y-156064872D01*
X153735113Y-156083353D01*
X153641712Y-156103206D01*
X153635682Y-156105891D01*
X153635681Y-156105891D01*
X153473278Y-156178197D01*
X153473276Y-156178198D01*
X153467248Y-156180882D01*
X153461907Y-156184762D01*
X153461906Y-156184763D01*
X153452024Y-156191943D01*
X153312747Y-156293134D01*
X153308326Y-156298044D01*
X153308325Y-156298045D01*
X153201128Y-156417100D01*
X153184960Y-156435056D01*
X153139473Y-156513841D01*
X153094926Y-156591000D01*
X153089473Y-156600444D01*
X153030458Y-156782072D01*
X153029768Y-156788633D01*
X153029768Y-156788635D01*
X153016617Y-156913762D01*
X153010496Y-156972000D01*
X153011186Y-156978564D01*
X153011186Y-156978565D01*
X153014160Y-157006859D01*
X153001388Y-157076697D01*
X152977945Y-157109125D01*
X152922475Y-157164595D01*
X152860163Y-157198621D01*
X152833380Y-157201500D01*
X152564498Y-157201500D01*
X152562050Y-157201693D01*
X152562042Y-157201693D01*
X152533579Y-157203933D01*
X152533574Y-157203934D01*
X152527169Y-157204438D01*
X152428227Y-157233183D01*
X152375012Y-157248643D01*
X152375010Y-157248644D01*
X152367399Y-157250855D01*
X152224193Y-157335547D01*
X152221511Y-157338229D01*
X152157139Y-157363502D01*
X152087516Y-157349600D01*
X152071688Y-157339428D01*
X152067807Y-157335547D01*
X151924601Y-157250855D01*
X151916990Y-157248644D01*
X151916988Y-157248643D01*
X151863773Y-157233183D01*
X151764831Y-157204438D01*
X151758426Y-157203934D01*
X151758421Y-157203933D01*
X151729958Y-157201693D01*
X151729950Y-157201693D01*
X151727502Y-157201500D01*
X151294498Y-157201500D01*
X151292050Y-157201693D01*
X151292042Y-157201693D01*
X151263579Y-157203933D01*
X151263574Y-157203934D01*
X151257169Y-157204438D01*
X151158227Y-157233183D01*
X151105012Y-157248643D01*
X151105010Y-157248644D01*
X151097399Y-157250855D01*
X151033637Y-157288564D01*
X150964824Y-157306023D01*
X150897492Y-157283507D01*
X150853023Y-157228162D01*
X150843500Y-157180110D01*
X150843500Y-156775928D01*
X150832707Y-156671907D01*
X150777654Y-156506893D01*
X150686116Y-156358969D01*
X150659202Y-156332102D01*
X150568184Y-156241242D01*
X150568179Y-156241238D01*
X150563003Y-156236071D01*
X150553386Y-156230143D01*
X150551559Y-156228114D01*
X150551027Y-156227693D01*
X150551099Y-156227602D01*
X150505892Y-156177372D01*
X150493500Y-156122882D01*
X150493500Y-155700594D01*
X150513502Y-155632473D01*
X150530405Y-155611499D01*
X150950611Y-155191293D01*
X151012923Y-155157267D01*
X151089747Y-155164751D01*
X151090575Y-155165109D01*
X151097399Y-155169145D01*
X151105010Y-155171356D01*
X151105012Y-155171357D01*
X151135334Y-155180166D01*
X151257169Y-155215562D01*
X151263574Y-155216066D01*
X151263579Y-155216067D01*
X151292042Y-155218307D01*
X151292050Y-155218307D01*
X151294498Y-155218500D01*
X151727502Y-155218500D01*
X151729955Y-155218307D01*
X151729979Y-155218306D01*
X151760683Y-155215889D01*
X151830164Y-155230483D01*
X151859666Y-155252405D01*
X152193508Y-155586247D01*
X152201052Y-155594537D01*
X152205165Y-155601018D01*
X152210942Y-155606443D01*
X152254832Y-155647658D01*
X152257674Y-155650413D01*
X152277396Y-155670135D01*
X152280520Y-155672558D01*
X152280524Y-155672562D01*
X152280589Y-155672612D01*
X152289610Y-155680317D01*
X152321844Y-155710586D01*
X152328792Y-155714405D01*
X152328794Y-155714407D01*
X152339597Y-155720346D01*
X152356124Y-155731202D01*
X152365863Y-155738757D01*
X152365865Y-155738758D01*
X152372125Y-155743614D01*
X152412705Y-155761174D01*
X152423353Y-155766391D01*
X152448141Y-155780018D01*
X152462105Y-155787695D01*
X152469781Y-155789666D01*
X152469784Y-155789667D01*
X152481727Y-155792733D01*
X152500432Y-155799137D01*
X152519020Y-155807181D01*
X152526843Y-155808420D01*
X152526853Y-155808423D01*
X152562689Y-155814099D01*
X152574309Y-155816505D01*
X152606124Y-155824673D01*
X152617135Y-155827500D01*
X152637389Y-155827500D01*
X152657099Y-155829051D01*
X152677108Y-155832220D01*
X152685000Y-155831474D01*
X152703745Y-155829702D01*
X152721127Y-155828059D01*
X152732984Y-155827500D01*
X152786068Y-155827500D01*
X152797251Y-155828027D01*
X152804744Y-155829702D01*
X152812670Y-155829453D01*
X152812671Y-155829453D01*
X152872821Y-155827562D01*
X152876780Y-155827500D01*
X152904691Y-155827500D01*
X152908626Y-155827003D01*
X152908691Y-155826995D01*
X152920528Y-155826062D01*
X152952786Y-155825048D01*
X152956805Y-155824922D01*
X152964724Y-155824673D01*
X152984178Y-155819021D01*
X153003535Y-155815013D01*
X153015765Y-155813468D01*
X153015766Y-155813468D01*
X153023632Y-155812474D01*
X153031003Y-155809555D01*
X153031005Y-155809555D01*
X153064747Y-155796196D01*
X153075977Y-155792351D01*
X153110818Y-155782229D01*
X153110819Y-155782229D01*
X153118428Y-155780018D01*
X153125247Y-155775985D01*
X153125252Y-155775983D01*
X153135863Y-155769707D01*
X153153611Y-155761012D01*
X153172452Y-155753552D01*
X153208222Y-155727564D01*
X153218142Y-155721048D01*
X153249370Y-155702580D01*
X153249373Y-155702578D01*
X153256197Y-155698542D01*
X153270518Y-155684221D01*
X153285552Y-155671380D01*
X153295528Y-155664132D01*
X153301942Y-155659472D01*
X153330123Y-155625407D01*
X153338113Y-155616627D01*
X153702335Y-155252405D01*
X153764647Y-155218379D01*
X153801318Y-155215889D01*
X153832021Y-155218306D01*
X153832045Y-155218307D01*
X153834498Y-155218500D01*
X154267502Y-155218500D01*
X154269950Y-155218307D01*
X154269958Y-155218307D01*
X154298421Y-155216067D01*
X154298426Y-155216066D01*
X154304831Y-155215562D01*
X154426666Y-155180166D01*
X154456988Y-155171357D01*
X154456990Y-155171356D01*
X154464601Y-155169145D01*
X154607807Y-155084453D01*
X154610489Y-155081771D01*
X154674861Y-155056498D01*
X154744484Y-155070400D01*
X154760312Y-155080572D01*
X154764193Y-155084453D01*
X154907399Y-155169145D01*
X154915010Y-155171356D01*
X154915012Y-155171357D01*
X154945334Y-155180166D01*
X155067169Y-155215562D01*
X155073574Y-155216066D01*
X155073579Y-155216067D01*
X155102042Y-155218307D01*
X155102050Y-155218307D01*
X155104498Y-155218500D01*
X155537502Y-155218500D01*
X155539950Y-155218307D01*
X155539958Y-155218307D01*
X155568421Y-155216067D01*
X155568426Y-155216066D01*
X155574831Y-155215562D01*
X155696666Y-155180166D01*
X155726988Y-155171357D01*
X155726990Y-155171356D01*
X155734601Y-155169145D01*
X155765384Y-155150940D01*
X155870980Y-155088491D01*
X155870983Y-155088489D01*
X155877807Y-155084453D01*
X155995453Y-154966807D01*
X155999489Y-154959983D01*
X155999491Y-154959980D01*
X156076108Y-154830427D01*
X156080145Y-154823601D01*
X156126562Y-154663831D01*
X156129282Y-154629280D01*
X156129307Y-154628958D01*
X156129307Y-154628950D01*
X156129500Y-154626502D01*
X156129500Y-152843498D01*
X156126562Y-152806169D01*
X156080145Y-152646399D01*
X156046286Y-152589146D01*
X155999491Y-152510020D01*
X155999489Y-152510017D01*
X155995453Y-152503193D01*
X155989845Y-152497585D01*
X155984989Y-152491325D01*
X155986496Y-152490156D01*
X155957379Y-152436833D01*
X155954500Y-152410050D01*
X155954500Y-152351768D01*
X155955027Y-152340585D01*
X155956702Y-152333092D01*
X155954562Y-152265001D01*
X155954500Y-152261044D01*
X155954500Y-152233144D01*
X155953996Y-152229153D01*
X155953063Y-152217311D01*
X155952116Y-152187159D01*
X155951674Y-152173111D01*
X155949462Y-152165497D01*
X155949461Y-152165492D01*
X155946023Y-152153659D01*
X155942012Y-152134295D01*
X155940467Y-152122064D01*
X155939474Y-152114203D01*
X155936557Y-152106836D01*
X155936556Y-152106831D01*
X155923198Y-152073092D01*
X155919354Y-152061865D01*
X155912163Y-152037115D01*
X155907018Y-152019407D01*
X155896707Y-152001972D01*
X155888012Y-151984224D01*
X155880552Y-151965383D01*
X155854564Y-151929613D01*
X155848048Y-151919693D01*
X155829580Y-151888465D01*
X155829578Y-151888462D01*
X155825542Y-151881638D01*
X155811221Y-151867317D01*
X155798380Y-151852283D01*
X155791131Y-151842306D01*
X155786472Y-151835893D01*
X155752395Y-151807702D01*
X155743616Y-151799712D01*
X153620350Y-149676445D01*
X153612810Y-149668159D01*
X153608698Y-149661680D01*
X153559046Y-149615054D01*
X153556205Y-149612300D01*
X153536468Y-149592563D01*
X153533271Y-149590083D01*
X153524249Y-149582378D01*
X153519181Y-149577619D01*
X153492019Y-149552112D01*
X153485073Y-149548293D01*
X153485070Y-149548291D01*
X153474264Y-149542350D01*
X153457745Y-149531499D01*
X153455821Y-149530007D01*
X153441739Y-149519084D01*
X153434470Y-149515939D01*
X153434466Y-149515936D01*
X153401161Y-149501524D01*
X153390511Y-149496307D01*
X153351758Y-149475003D01*
X153332135Y-149469965D01*
X153313432Y-149463561D01*
X153302118Y-149458665D01*
X153302117Y-149458665D01*
X153294843Y-149455517D01*
X153287020Y-149454278D01*
X153287010Y-149454275D01*
X153251174Y-149448599D01*
X153239554Y-149446193D01*
X153204409Y-149437170D01*
X153204408Y-149437170D01*
X153196728Y-149435198D01*
X153176474Y-149435198D01*
X153156763Y-149433647D01*
X153144584Y-149431718D01*
X153136755Y-149430478D01*
X153128863Y-149431224D01*
X153092737Y-149434639D01*
X153080879Y-149435198D01*
X152607524Y-149435198D01*
X152539403Y-149415196D01*
X152492910Y-149361540D01*
X152481524Y-149309198D01*
X152481524Y-149055106D01*
X152480030Y-149040707D01*
X152471443Y-148957943D01*
X152471442Y-148957939D01*
X152470731Y-148951085D01*
X152438244Y-148853708D01*
X152421695Y-148804105D01*
X152415678Y-148786071D01*
X152391729Y-148747370D01*
X152372892Y-148678918D01*
X152398047Y-148605504D01*
X152435229Y-148555891D01*
X152440615Y-148548705D01*
X152491745Y-148412316D01*
X152498500Y-148350134D01*
X152498500Y-148346669D01*
X154842001Y-148346669D01*
X154842371Y-148353490D01*
X154847895Y-148404352D01*
X154851521Y-148419604D01*
X154896676Y-148540054D01*
X154905214Y-148555649D01*
X154981715Y-148657724D01*
X154994276Y-148670285D01*
X155096351Y-148746786D01*
X155111946Y-148755324D01*
X155232394Y-148800478D01*
X155247649Y-148804105D01*
X155298514Y-148809631D01*
X155305328Y-148810000D01*
X155550885Y-148810000D01*
X155566124Y-148805525D01*
X155567329Y-148804135D01*
X155569000Y-148796452D01*
X155569000Y-148791884D01*
X156331000Y-148791884D01*
X156335475Y-148807123D01*
X156336865Y-148808328D01*
X156344548Y-148809999D01*
X156594669Y-148809999D01*
X156601490Y-148809629D01*
X156652352Y-148804105D01*
X156667604Y-148800479D01*
X156788054Y-148755324D01*
X156803649Y-148746786D01*
X156905724Y-148670285D01*
X156918285Y-148657724D01*
X156994786Y-148555649D01*
X157003324Y-148540054D01*
X157048478Y-148419606D01*
X157052105Y-148404351D01*
X157057631Y-148353486D01*
X157058000Y-148346672D01*
X157058000Y-147601115D01*
X157053525Y-147585876D01*
X157052135Y-147584671D01*
X157044452Y-147583000D01*
X156349115Y-147583000D01*
X156333876Y-147587475D01*
X156332671Y-147588865D01*
X156331000Y-147596548D01*
X156331000Y-148791884D01*
X155569000Y-148791884D01*
X155569000Y-147601115D01*
X155564525Y-147585876D01*
X155563135Y-147584671D01*
X155555452Y-147583000D01*
X154860116Y-147583000D01*
X154844877Y-147587475D01*
X154843672Y-147588865D01*
X154842001Y-147596548D01*
X154842001Y-148346669D01*
X152498500Y-148346669D01*
X152498500Y-146053866D01*
X152491745Y-145991684D01*
X152440615Y-145855295D01*
X152353261Y-145738739D01*
X152236705Y-145651385D01*
X152100316Y-145600255D01*
X152038134Y-145593500D01*
X152007454Y-145593500D01*
X151939333Y-145573498D01*
X151892840Y-145519842D01*
X151882736Y-145449568D01*
X151912230Y-145384988D01*
X151933004Y-145365848D01*
X151940590Y-145360292D01*
X151966438Y-145334980D01*
X151988571Y-145317688D01*
X152016766Y-145300342D01*
X152042175Y-145288385D01*
X152073520Y-145277714D01*
X152100948Y-145271684D01*
X152133863Y-145268225D01*
X152161948Y-145268421D01*
X152189315Y-145271684D01*
X152194825Y-145272341D01*
X152222173Y-145278756D01*
X152249215Y-145288385D01*
X152253354Y-145289859D01*
X152278601Y-145302173D01*
X152313863Y-145324551D01*
X152439542Y-145382044D01*
X152504578Y-145401635D01*
X152641114Y-145423127D01*
X152649857Y-145422045D01*
X152649860Y-145422045D01*
X152780143Y-145405920D01*
X152784611Y-145405367D01*
X152788946Y-145404186D01*
X152788952Y-145404185D01*
X152848773Y-145387890D01*
X152848774Y-145387890D01*
X152853112Y-145386708D01*
X152857236Y-145384922D01*
X152857241Y-145384920D01*
X152945561Y-145346666D01*
X152985787Y-145329243D01*
X152989614Y-145326889D01*
X152989621Y-145326885D01*
X153032762Y-145300344D01*
X153058178Y-145288384D01*
X153089515Y-145277716D01*
X153116950Y-145271684D01*
X153129457Y-145270369D01*
X153149862Y-145268225D01*
X153177948Y-145268421D01*
X153205315Y-145271684D01*
X153210825Y-145272341D01*
X153238173Y-145278756D01*
X153265215Y-145288385D01*
X153269354Y-145289859D01*
X153294601Y-145302173D01*
X153329863Y-145324551D01*
X153455542Y-145382044D01*
X153520578Y-145401635D01*
X153657114Y-145423127D01*
X153665857Y-145422045D01*
X153665860Y-145422045D01*
X153796143Y-145405920D01*
X153800611Y-145405367D01*
X153804946Y-145404186D01*
X153804952Y-145404185D01*
X153864773Y-145387890D01*
X153864774Y-145387890D01*
X153869112Y-145386708D01*
X153873236Y-145384922D01*
X153873241Y-145384920D01*
X153961561Y-145346666D01*
X154001787Y-145329243D01*
X154005614Y-145326889D01*
X154005621Y-145326885D01*
X154048762Y-145300344D01*
X154074178Y-145288384D01*
X154105515Y-145277716D01*
X154132950Y-145271684D01*
X154145457Y-145270369D01*
X154165862Y-145268225D01*
X154193948Y-145268421D01*
X154221315Y-145271684D01*
X154226825Y-145272341D01*
X154254173Y-145278756D01*
X154281215Y-145288385D01*
X154285354Y-145289859D01*
X154310601Y-145302173D01*
X154345863Y-145324551D01*
X154471542Y-145382044D01*
X154536578Y-145401635D01*
X154673114Y-145423127D01*
X154681857Y-145422045D01*
X154681860Y-145422045D01*
X154812143Y-145405920D01*
X154816611Y-145405367D01*
X154820946Y-145404186D01*
X154820952Y-145404185D01*
X154880773Y-145387890D01*
X154880774Y-145387890D01*
X154885112Y-145386708D01*
X154889236Y-145384922D01*
X154889241Y-145384920D01*
X154977561Y-145346666D01*
X155017787Y-145329243D01*
X155021614Y-145326889D01*
X155021621Y-145326885D01*
X155064762Y-145300344D01*
X155090178Y-145288384D01*
X155121515Y-145277716D01*
X155148950Y-145271684D01*
X155161457Y-145270369D01*
X155181862Y-145268225D01*
X155209948Y-145268421D01*
G37*
%TD.AperFunction*%
%TA.AperFunction,Conductor*%
G36*
X159313050Y-145144254D02*
G01*
X159341263Y-145150251D01*
X159341266Y-145150252D01*
X159341268Y-145150252D01*
X159369499Y-145156253D01*
X159394536Y-145164388D01*
X159508131Y-145214963D01*
X159510105Y-145215689D01*
X159510111Y-145215691D01*
X159569667Y-145237582D01*
X159569674Y-145237584D01*
X159571632Y-145238304D01*
X159573629Y-145238890D01*
X159573640Y-145238894D01*
X159601750Y-145247148D01*
X159601764Y-145247151D01*
X159603761Y-145247738D01*
X159605803Y-145248192D01*
X159605813Y-145248195D01*
X159663347Y-145260998D01*
X159669800Y-145262434D01*
X159676410Y-145262497D01*
X159709955Y-145262816D01*
X159814386Y-145263811D01*
X159818837Y-145263214D01*
X159818841Y-145263214D01*
X159859074Y-145257820D01*
X159884752Y-145254377D01*
X160023869Y-145214963D01*
X160137464Y-145164388D01*
X160162501Y-145156253D01*
X160190732Y-145150252D01*
X160190734Y-145150252D01*
X160190737Y-145150251D01*
X160218950Y-145144254D01*
X160245147Y-145141500D01*
X160302853Y-145141500D01*
X160329050Y-145144254D01*
X160357263Y-145150251D01*
X160357266Y-145150252D01*
X160357268Y-145150252D01*
X160385499Y-145156253D01*
X160410536Y-145164388D01*
X160524131Y-145214963D01*
X160526105Y-145215689D01*
X160526111Y-145215691D01*
X160585667Y-145237582D01*
X160585674Y-145237584D01*
X160587632Y-145238304D01*
X160589629Y-145238890D01*
X160589640Y-145238894D01*
X160617750Y-145247148D01*
X160617764Y-145247151D01*
X160619761Y-145247738D01*
X160621803Y-145248192D01*
X160621813Y-145248195D01*
X160679347Y-145260998D01*
X160685800Y-145262434D01*
X160692410Y-145262497D01*
X160725955Y-145262816D01*
X160830386Y-145263811D01*
X160834837Y-145263214D01*
X160834841Y-145263214D01*
X160875074Y-145257820D01*
X160900752Y-145254377D01*
X161039869Y-145214963D01*
X161153464Y-145164388D01*
X161178501Y-145156253D01*
X161206732Y-145150252D01*
X161206734Y-145150252D01*
X161206737Y-145150251D01*
X161234950Y-145144254D01*
X161261147Y-145141500D01*
X161318853Y-145141500D01*
X161345050Y-145144254D01*
X161373263Y-145150251D01*
X161373266Y-145150252D01*
X161373268Y-145150252D01*
X161401499Y-145156253D01*
X161426536Y-145164388D01*
X161540131Y-145214963D01*
X161542105Y-145215689D01*
X161542111Y-145215691D01*
X161601667Y-145237582D01*
X161601674Y-145237584D01*
X161603632Y-145238304D01*
X161605629Y-145238890D01*
X161605640Y-145238894D01*
X161633750Y-145247148D01*
X161633764Y-145247151D01*
X161635761Y-145247738D01*
X161637803Y-145248192D01*
X161637813Y-145248195D01*
X161695347Y-145260998D01*
X161701800Y-145262434D01*
X161708410Y-145262497D01*
X161741955Y-145262816D01*
X161846386Y-145263811D01*
X161850837Y-145263214D01*
X161850841Y-145263214D01*
X161891074Y-145257820D01*
X161916752Y-145254377D01*
X162055869Y-145214963D01*
X162169464Y-145164388D01*
X162194501Y-145156253D01*
X162222732Y-145150252D01*
X162222734Y-145150252D01*
X162222737Y-145150251D01*
X162250950Y-145144254D01*
X162277147Y-145141500D01*
X162334853Y-145141500D01*
X162361050Y-145144254D01*
X162389136Y-145150224D01*
X162389168Y-145150231D01*
X162389264Y-145150251D01*
X162389268Y-145150252D01*
X162417495Y-145156252D01*
X162442533Y-145164387D01*
X162495258Y-145187861D01*
X162518064Y-145201028D01*
X162564752Y-145234950D01*
X162584322Y-145252571D01*
X162656044Y-145332227D01*
X162657536Y-145333677D01*
X162702775Y-145377643D01*
X162737686Y-145439464D01*
X162733632Y-145510344D01*
X162691901Y-145567781D01*
X162625741Y-145593539D01*
X162614960Y-145594001D01*
X162417331Y-145594001D01*
X162410510Y-145594371D01*
X162359648Y-145599895D01*
X162344396Y-145603521D01*
X162223946Y-145648676D01*
X162208351Y-145657214D01*
X162106276Y-145733715D01*
X162093715Y-145746276D01*
X162017214Y-145848351D01*
X162008676Y-145863946D01*
X161963522Y-145984394D01*
X161959895Y-145999649D01*
X161954369Y-146050514D01*
X161954000Y-146057328D01*
X161954000Y-146802885D01*
X161958475Y-146818124D01*
X161959865Y-146819329D01*
X161967548Y-146821000D01*
X164151884Y-146821000D01*
X164167123Y-146816525D01*
X164168328Y-146815135D01*
X164169999Y-146807452D01*
X164169999Y-146517719D01*
X164190001Y-146449598D01*
X164243657Y-146403105D01*
X164313931Y-146393001D01*
X164320916Y-146394264D01*
X164328892Y-146397244D01*
X164337874Y-146397891D01*
X164337877Y-146397892D01*
X164376090Y-146400646D01*
X164388557Y-146401544D01*
X164455064Y-146426391D01*
X164497580Y-146483250D01*
X164505500Y-146527218D01*
X164505500Y-148250946D01*
X164485498Y-148319067D01*
X164431842Y-148365560D01*
X164361568Y-148375664D01*
X164349083Y-148372719D01*
X164349063Y-148372811D01*
X164342334Y-148371368D01*
X164335809Y-148369204D01*
X164328973Y-148368504D01*
X164328970Y-148368503D01*
X164300242Y-148365560D01*
X164283158Y-148363810D01*
X164217431Y-148336970D01*
X164176649Y-148278855D01*
X164170000Y-148238466D01*
X164170000Y-147601115D01*
X164165525Y-147585876D01*
X164164135Y-147584671D01*
X164156452Y-147583000D01*
X161972116Y-147583000D01*
X161956877Y-147587475D01*
X161955672Y-147588865D01*
X161954001Y-147596548D01*
X161954001Y-148346669D01*
X161954371Y-148353490D01*
X161959895Y-148404352D01*
X161963521Y-148419604D01*
X162008676Y-148540054D01*
X162017214Y-148555649D01*
X162093715Y-148657724D01*
X162106276Y-148670285D01*
X162208351Y-148746786D01*
X162223946Y-148755324D01*
X162344394Y-148800478D01*
X162359649Y-148804105D01*
X162410514Y-148809631D01*
X162417328Y-148810000D01*
X162823438Y-148810000D01*
X162891559Y-148830002D01*
X162938052Y-148883658D01*
X162947930Y-148952359D01*
X162948026Y-148952369D01*
X162937500Y-149055106D01*
X162937500Y-149629250D01*
X162948293Y-149733271D01*
X162950474Y-149739807D01*
X162950474Y-149739809D01*
X162973393Y-149808505D01*
X162975977Y-149879454D01*
X162939794Y-149940538D01*
X162876329Y-149972363D01*
X162805734Y-149964824D01*
X162764774Y-149937476D01*
X161791584Y-148964286D01*
X161784474Y-148956473D01*
X161780490Y-148950195D01*
X161732733Y-148905348D01*
X161729891Y-148902593D01*
X161710929Y-148883631D01*
X161707802Y-148881205D01*
X161707161Y-148880640D01*
X161699001Y-148873671D01*
X161673903Y-148850103D01*
X161668122Y-148844674D01*
X161651345Y-148835450D01*
X161634832Y-148824603D01*
X161625966Y-148817726D01*
X161625961Y-148817723D01*
X161619698Y-148812865D01*
X161580814Y-148796039D01*
X161570169Y-148790824D01*
X161533042Y-148770413D01*
X161514502Y-148765653D01*
X161495805Y-148759252D01*
X161478229Y-148751646D01*
X161436386Y-148745019D01*
X161424767Y-148742613D01*
X161383738Y-148732078D01*
X161376162Y-148732078D01*
X161311228Y-148703757D01*
X161284957Y-148673441D01*
X161263116Y-148638147D01*
X161248063Y-148623120D01*
X161145184Y-148520420D01*
X161145179Y-148520416D01*
X161140003Y-148515249D01*
X161092590Y-148486023D01*
X160998150Y-148427809D01*
X160998148Y-148427808D01*
X160991920Y-148423969D01*
X160826809Y-148369204D01*
X160819973Y-148368504D01*
X160819970Y-148368503D01*
X160768474Y-148363227D01*
X160724072Y-148358678D01*
X160124928Y-148358678D01*
X160121682Y-148359015D01*
X160121678Y-148359015D01*
X160027765Y-148368759D01*
X160027761Y-148368760D01*
X160020907Y-148369471D01*
X160014371Y-148371652D01*
X160014369Y-148371652D01*
X160002344Y-148375664D01*
X159855893Y-148424524D01*
X159825703Y-148443206D01*
X159802796Y-148457381D01*
X159734344Y-148476218D01*
X159666574Y-148455056D01*
X159621004Y-148400615D01*
X159612011Y-148350134D01*
X159610500Y-148350134D01*
X159610500Y-146053866D01*
X159603745Y-145991684D01*
X159552615Y-145855295D01*
X159465261Y-145738739D01*
X159348705Y-145651385D01*
X159212316Y-145600255D01*
X159150134Y-145593500D01*
X158942468Y-145593500D01*
X158874347Y-145573498D01*
X158827854Y-145519842D01*
X158817750Y-145449568D01*
X158847244Y-145384988D01*
X158861783Y-145370722D01*
X158871113Y-145362944D01*
X158886156Y-145350402D01*
X158904507Y-145335103D01*
X158904511Y-145335099D01*
X158907956Y-145332227D01*
X158911542Y-145328245D01*
X158979678Y-145252571D01*
X158999248Y-145234950D01*
X159045936Y-145201028D01*
X159068742Y-145187861D01*
X159121467Y-145164387D01*
X159146505Y-145156252D01*
X159174732Y-145150252D01*
X159174736Y-145150251D01*
X159174832Y-145150231D01*
X159174864Y-145150224D01*
X159202950Y-145144254D01*
X159229147Y-145141500D01*
X159286853Y-145141500D01*
X159313050Y-145144254D01*
G37*
%TD.AperFunction*%
%TA.AperFunction,Conductor*%
G36*
X145811948Y-145268421D02*
G01*
X145851639Y-145273154D01*
X145854208Y-145273460D01*
X145875588Y-145277916D01*
X145885277Y-145280831D01*
X145885306Y-145280839D01*
X145886772Y-145281280D01*
X145888247Y-145281645D01*
X145888266Y-145281650D01*
X145909596Y-145286925D01*
X145909604Y-145286927D01*
X145911105Y-145287298D01*
X145912621Y-145287594D01*
X145912627Y-145287595D01*
X145953527Y-145295572D01*
X146016559Y-145328245D01*
X146051920Y-145389809D01*
X146054621Y-145405198D01*
X146055767Y-145415420D01*
X146055769Y-145415430D01*
X146056159Y-145418910D01*
X146056937Y-145422334D01*
X146056938Y-145422341D01*
X146057153Y-145423288D01*
X146059498Y-145437152D01*
X146060461Y-145445733D01*
X146069789Y-145528888D01*
X146069917Y-145530031D01*
X146069476Y-145561610D01*
X146064045Y-145600255D01*
X146057240Y-145648676D01*
X146056170Y-145656286D01*
X146052463Y-145691558D01*
X146051237Y-145709094D01*
X146050000Y-145744523D01*
X146050000Y-146351601D01*
X146050097Y-146353331D01*
X146050097Y-146353341D01*
X146053068Y-146406475D01*
X146053166Y-146408226D01*
X146056159Y-146434910D01*
X146056937Y-146438334D01*
X146056938Y-146438341D01*
X146057153Y-146439288D01*
X146059498Y-146453152D01*
X146067807Y-146527218D01*
X146069917Y-146546031D01*
X146069476Y-146577610D01*
X146056170Y-146672286D01*
X146052463Y-146707558D01*
X146051237Y-146725094D01*
X146050000Y-146760523D01*
X146050000Y-148297174D01*
X146029998Y-148365295D01*
X145976342Y-148411788D01*
X145963874Y-148416698D01*
X145947369Y-148422204D01*
X145947364Y-148422206D01*
X145940417Y-148424524D01*
X145792493Y-148516062D01*
X145787320Y-148521244D01*
X145685777Y-148622964D01*
X145623494Y-148657043D01*
X145552674Y-148652040D01*
X145507587Y-148623120D01*
X145439998Y-148555649D01*
X145412804Y-148528503D01*
X145378724Y-148466220D01*
X145379205Y-148413756D01*
X145379745Y-148412316D01*
X145380599Y-148404460D01*
X145386131Y-148353531D01*
X145386500Y-148350134D01*
X145386500Y-146053866D01*
X145379745Y-145991684D01*
X145328615Y-145855295D01*
X145241261Y-145738739D01*
X145234668Y-145733798D01*
X145200819Y-145671810D01*
X145205884Y-145600995D01*
X145248431Y-145544159D01*
X145281146Y-145526517D01*
X145406348Y-145481306D01*
X145406351Y-145481305D01*
X145410576Y-145479779D01*
X145414533Y-145477672D01*
X145414537Y-145477670D01*
X145469268Y-145448524D01*
X145469271Y-145448522D01*
X145473241Y-145446408D01*
X145589894Y-145360973D01*
X145597980Y-145353055D01*
X145616437Y-145334980D01*
X145638568Y-145317689D01*
X145666765Y-145300342D01*
X145692176Y-145288385D01*
X145723516Y-145277716D01*
X145750950Y-145271684D01*
X145763457Y-145270369D01*
X145783862Y-145268225D01*
X145811948Y-145268421D01*
G37*
%TD.AperFunction*%
%TD*%
%TA.AperFunction,Conductor*%
%TO.N,GND*%
G36*
X166292956Y-178718762D02*
G01*
X166353464Y-178864841D01*
X166449718Y-178990282D01*
X166450324Y-178990747D01*
X166450325Y-178990748D01*
X166497000Y-179026563D01*
X166497000Y-189103000D01*
X163703000Y-189103000D01*
X163351710Y-189103627D01*
X157382710Y-188976627D01*
X157381344Y-188497924D01*
X158172600Y-188497924D01*
X158172713Y-188499074D01*
X158173848Y-188504777D01*
X158174715Y-188506872D01*
X158179047Y-188513355D01*
X158180645Y-188514953D01*
X158187128Y-188519285D01*
X158189223Y-188520152D01*
X158194926Y-188521287D01*
X158196076Y-188521400D01*
X158914673Y-188521400D01*
X158916318Y-188520718D01*
X158917000Y-188519073D01*
X159679000Y-188519073D01*
X159679682Y-188520718D01*
X159681327Y-188521400D01*
X160399924Y-188521400D01*
X160401074Y-188521287D01*
X160406777Y-188520152D01*
X160408872Y-188519285D01*
X160415355Y-188514953D01*
X160416953Y-188513355D01*
X160421285Y-188506872D01*
X160422152Y-188504777D01*
X160423287Y-188499074D01*
X160423400Y-188497924D01*
X163172600Y-188497924D01*
X163172713Y-188499074D01*
X163173848Y-188504777D01*
X163174715Y-188506872D01*
X163179047Y-188513355D01*
X163180645Y-188514953D01*
X163187128Y-188519285D01*
X163189223Y-188520152D01*
X163194926Y-188521287D01*
X163196076Y-188521400D01*
X163914673Y-188521400D01*
X163916318Y-188520718D01*
X163917000Y-188519073D01*
X164679000Y-188519073D01*
X164679682Y-188520718D01*
X164681327Y-188521400D01*
X165399924Y-188521400D01*
X165401074Y-188521287D01*
X165406777Y-188520152D01*
X165408872Y-188519285D01*
X165415355Y-188514953D01*
X165416953Y-188513355D01*
X165421285Y-188506872D01*
X165422152Y-188504777D01*
X165423287Y-188499074D01*
X165423400Y-188497924D01*
X165423400Y-187779327D01*
X165422718Y-187777682D01*
X165421073Y-187777000D01*
X164681327Y-187777000D01*
X164679682Y-187777682D01*
X164679000Y-187779327D01*
X164679000Y-188519073D01*
X163917000Y-188519073D01*
X163917000Y-187779327D01*
X163916318Y-187777682D01*
X163914673Y-187777000D01*
X163174927Y-187777000D01*
X163173282Y-187777682D01*
X163172600Y-187779327D01*
X163172600Y-188497924D01*
X160423400Y-188497924D01*
X160423400Y-187779327D01*
X160422718Y-187777682D01*
X160421073Y-187777000D01*
X159681327Y-187777000D01*
X159679682Y-187777682D01*
X159679000Y-187779327D01*
X159679000Y-188519073D01*
X158917000Y-188519073D01*
X158917000Y-187779327D01*
X158916318Y-187777682D01*
X158914673Y-187777000D01*
X158174927Y-187777000D01*
X158173282Y-187777682D01*
X158172600Y-187779327D01*
X158172600Y-188497924D01*
X157381344Y-188497924D01*
X157377107Y-187012673D01*
X158172600Y-187012673D01*
X158173282Y-187014318D01*
X158174927Y-187015000D01*
X158914673Y-187015000D01*
X158916318Y-187014318D01*
X158917000Y-187012673D01*
X159679000Y-187012673D01*
X159679682Y-187014318D01*
X159681327Y-187015000D01*
X160421073Y-187015000D01*
X160422718Y-187014318D01*
X160423400Y-187012673D01*
X163172600Y-187012673D01*
X163173282Y-187014318D01*
X163174927Y-187015000D01*
X163914673Y-187015000D01*
X163916318Y-187014318D01*
X163917000Y-187012673D01*
X164679000Y-187012673D01*
X164679682Y-187014318D01*
X164681327Y-187015000D01*
X165421073Y-187015000D01*
X165422718Y-187014318D01*
X165423400Y-187012673D01*
X165423400Y-186294076D01*
X165423287Y-186292926D01*
X165422152Y-186287223D01*
X165421285Y-186285128D01*
X165416953Y-186278645D01*
X165415355Y-186277047D01*
X165408872Y-186272715D01*
X165406777Y-186271848D01*
X165401074Y-186270713D01*
X165399924Y-186270600D01*
X164681327Y-186270600D01*
X164679682Y-186271282D01*
X164679000Y-186272927D01*
X164679000Y-187012673D01*
X163917000Y-187012673D01*
X163917000Y-186272927D01*
X163916318Y-186271282D01*
X163914673Y-186270600D01*
X163196076Y-186270600D01*
X163194926Y-186270713D01*
X163189223Y-186271848D01*
X163187128Y-186272715D01*
X163180645Y-186277047D01*
X163179047Y-186278645D01*
X163174715Y-186285128D01*
X163173848Y-186287223D01*
X163172713Y-186292926D01*
X163172600Y-186294076D01*
X163172600Y-187012673D01*
X160423400Y-187012673D01*
X160423400Y-186294076D01*
X160423287Y-186292926D01*
X160422152Y-186287223D01*
X160421285Y-186285128D01*
X160416953Y-186278645D01*
X160415355Y-186277047D01*
X160408872Y-186272715D01*
X160406777Y-186271848D01*
X160401074Y-186270713D01*
X160399924Y-186270600D01*
X159681327Y-186270600D01*
X159679682Y-186271282D01*
X159679000Y-186272927D01*
X159679000Y-187012673D01*
X158917000Y-187012673D01*
X158917000Y-186272927D01*
X158916318Y-186271282D01*
X158914673Y-186270600D01*
X158196076Y-186270600D01*
X158194926Y-186270713D01*
X158189223Y-186271848D01*
X158187128Y-186272715D01*
X158180645Y-186277047D01*
X158179047Y-186278645D01*
X158174715Y-186285128D01*
X158173848Y-186287223D01*
X158172713Y-186292926D01*
X158172600Y-186294076D01*
X158172600Y-187012673D01*
X157377107Y-187012673D01*
X157361375Y-181497924D01*
X158172600Y-181497924D01*
X158172713Y-181499074D01*
X158173848Y-181504777D01*
X158174715Y-181506872D01*
X158179047Y-181513355D01*
X158180645Y-181514953D01*
X158187128Y-181519285D01*
X158189223Y-181520152D01*
X158194926Y-181521287D01*
X158196076Y-181521400D01*
X158914673Y-181521400D01*
X158916318Y-181520718D01*
X158917000Y-181519073D01*
X159679000Y-181519073D01*
X159679682Y-181520718D01*
X159681327Y-181521400D01*
X160399924Y-181521400D01*
X160401074Y-181521287D01*
X160406777Y-181520152D01*
X160408872Y-181519285D01*
X160415355Y-181514953D01*
X160416953Y-181513355D01*
X160421285Y-181506872D01*
X160422152Y-181504777D01*
X160423287Y-181499074D01*
X160423400Y-181497924D01*
X163172600Y-181497924D01*
X163172713Y-181499074D01*
X163173848Y-181504777D01*
X163174715Y-181506872D01*
X163179047Y-181513355D01*
X163180645Y-181514953D01*
X163187128Y-181519285D01*
X163189223Y-181520152D01*
X163194926Y-181521287D01*
X163196076Y-181521400D01*
X163914673Y-181521400D01*
X163916318Y-181520718D01*
X163917000Y-181519073D01*
X164679000Y-181519073D01*
X164679682Y-181520718D01*
X164681327Y-181521400D01*
X165399924Y-181521400D01*
X165401074Y-181521287D01*
X165406777Y-181520152D01*
X165408872Y-181519285D01*
X165415355Y-181514953D01*
X165416953Y-181513355D01*
X165421285Y-181506872D01*
X165422152Y-181504777D01*
X165423287Y-181499074D01*
X165423400Y-181497924D01*
X165423400Y-180779327D01*
X165422718Y-180777682D01*
X165421073Y-180777000D01*
X164681327Y-180777000D01*
X164679682Y-180777682D01*
X164679000Y-180779327D01*
X164679000Y-181519073D01*
X163917000Y-181519073D01*
X163917000Y-180779327D01*
X163916318Y-180777682D01*
X163914673Y-180777000D01*
X163174927Y-180777000D01*
X163173282Y-180777682D01*
X163172600Y-180779327D01*
X163172600Y-181497924D01*
X160423400Y-181497924D01*
X160423400Y-180779327D01*
X160422718Y-180777682D01*
X160421073Y-180777000D01*
X159681327Y-180777000D01*
X159679682Y-180777682D01*
X159679000Y-180779327D01*
X159679000Y-181519073D01*
X158917000Y-181519073D01*
X158917000Y-180779327D01*
X158916318Y-180777682D01*
X158914673Y-180777000D01*
X158174927Y-180777000D01*
X158173282Y-180777682D01*
X158172600Y-180779327D01*
X158172600Y-181497924D01*
X157361375Y-181497924D01*
X157357138Y-180012673D01*
X158172600Y-180012673D01*
X158173282Y-180014318D01*
X158174927Y-180015000D01*
X158914673Y-180015000D01*
X158916318Y-180014318D01*
X158917000Y-180012673D01*
X159679000Y-180012673D01*
X159679682Y-180014318D01*
X159681327Y-180015000D01*
X160421073Y-180015000D01*
X160422718Y-180014318D01*
X160423400Y-180012673D01*
X163172600Y-180012673D01*
X163173282Y-180014318D01*
X163174927Y-180015000D01*
X163914673Y-180015000D01*
X163916318Y-180014318D01*
X163917000Y-180012673D01*
X164679000Y-180012673D01*
X164679682Y-180014318D01*
X164681327Y-180015000D01*
X165421073Y-180015000D01*
X165422718Y-180014318D01*
X165423400Y-180012673D01*
X165423400Y-179294076D01*
X165423287Y-179292926D01*
X165422152Y-179287223D01*
X165421285Y-179285128D01*
X165416953Y-179278645D01*
X165415355Y-179277047D01*
X165408872Y-179272715D01*
X165406777Y-179271848D01*
X165401074Y-179270713D01*
X165399924Y-179270600D01*
X164681327Y-179270600D01*
X164679682Y-179271282D01*
X164679000Y-179272927D01*
X164679000Y-180012673D01*
X163917000Y-180012673D01*
X163917000Y-179272927D01*
X163916318Y-179271282D01*
X163914673Y-179270600D01*
X163196076Y-179270600D01*
X163194926Y-179270713D01*
X163189223Y-179271848D01*
X163187128Y-179272715D01*
X163180645Y-179277047D01*
X163179047Y-179278645D01*
X163174715Y-179285128D01*
X163173848Y-179287223D01*
X163172713Y-179292926D01*
X163172600Y-179294076D01*
X163172600Y-180012673D01*
X160423400Y-180012673D01*
X160423400Y-179294076D01*
X160423287Y-179292926D01*
X160422152Y-179287223D01*
X160421285Y-179285128D01*
X160416953Y-179278645D01*
X160415355Y-179277047D01*
X160408872Y-179272715D01*
X160406777Y-179271848D01*
X160401074Y-179270713D01*
X160399924Y-179270600D01*
X159681327Y-179270600D01*
X159679682Y-179271282D01*
X159679000Y-179272927D01*
X159679000Y-180012673D01*
X158917000Y-180012673D01*
X158917000Y-179272927D01*
X158916318Y-179271282D01*
X158914673Y-179270600D01*
X158196076Y-179270600D01*
X158194926Y-179270713D01*
X158189223Y-179271848D01*
X158187128Y-179272715D01*
X158180645Y-179277047D01*
X158179047Y-179278645D01*
X158174715Y-179285128D01*
X158173848Y-179287223D01*
X158172713Y-179292926D01*
X158172600Y-179294076D01*
X158172600Y-180012673D01*
X157357138Y-180012673D01*
X157353000Y-178562000D01*
X166272318Y-178562000D01*
X166292956Y-178718762D01*
G37*
%TD.AperFunction*%
%TD*%
%TA.AperFunction,Conductor*%
%TO.N,/SW_A*%
G36*
X156914123Y-126639002D02*
G01*
X156960616Y-126692658D01*
X156972002Y-126745000D01*
X156972045Y-144778696D01*
X156972045Y-144904676D01*
X156952043Y-144972796D01*
X156898388Y-145019290D01*
X156846107Y-145030676D01*
X156540317Y-145030827D01*
X155840668Y-145031173D01*
X155772539Y-145011205D01*
X155751204Y-144993959D01*
X155725811Y-144968389D01*
X155691753Y-144934092D01*
X155691749Y-144934089D01*
X155686789Y-144929094D01*
X155538755Y-144835148D01*
X155511570Y-144825468D01*
X155380220Y-144778696D01*
X155380215Y-144778695D01*
X155373585Y-144776334D01*
X155366597Y-144775501D01*
X155366594Y-144775500D01*
X155246307Y-144761157D01*
X155199490Y-144755574D01*
X155192487Y-144756310D01*
X155192486Y-144756310D01*
X155032122Y-144773165D01*
X155032120Y-144773166D01*
X155025122Y-144773901D01*
X154859148Y-144830403D01*
X154845296Y-144838925D01*
X154751602Y-144896566D01*
X154683101Y-144915225D01*
X154618065Y-144895634D01*
X154528707Y-144838925D01*
X154528705Y-144838924D01*
X154522755Y-144835148D01*
X154495570Y-144825468D01*
X154364220Y-144778696D01*
X154364215Y-144778695D01*
X154357585Y-144776334D01*
X154350597Y-144775501D01*
X154350594Y-144775500D01*
X154230307Y-144761157D01*
X154183490Y-144755574D01*
X154176487Y-144756310D01*
X154176486Y-144756310D01*
X154016122Y-144773165D01*
X154016120Y-144773166D01*
X154009122Y-144773901D01*
X153843148Y-144830403D01*
X153829296Y-144838925D01*
X153735602Y-144896566D01*
X153667101Y-144915225D01*
X153602065Y-144895634D01*
X153512707Y-144838925D01*
X153512705Y-144838924D01*
X153506755Y-144835148D01*
X153479570Y-144825468D01*
X153348220Y-144778696D01*
X153348215Y-144778695D01*
X153341585Y-144776334D01*
X153334597Y-144775501D01*
X153334594Y-144775500D01*
X153214307Y-144761157D01*
X153167490Y-144755574D01*
X153160487Y-144756310D01*
X153160486Y-144756310D01*
X153000122Y-144773165D01*
X153000120Y-144773166D01*
X152993122Y-144773901D01*
X152827148Y-144830403D01*
X152813296Y-144838925D01*
X152719602Y-144896566D01*
X152651101Y-144915225D01*
X152586065Y-144895634D01*
X152496707Y-144838925D01*
X152496705Y-144838924D01*
X152490755Y-144835148D01*
X152463570Y-144825468D01*
X152332220Y-144778696D01*
X152332215Y-144778695D01*
X152325585Y-144776334D01*
X152318597Y-144775501D01*
X152318594Y-144775500D01*
X152198307Y-144761157D01*
X152151490Y-144755574D01*
X152144487Y-144756310D01*
X152144486Y-144756310D01*
X151984122Y-144773165D01*
X151984120Y-144773166D01*
X151977122Y-144773901D01*
X151811148Y-144830403D01*
X151797296Y-144838925D01*
X151667823Y-144918577D01*
X151667820Y-144918579D01*
X151661816Y-144922273D01*
X151585159Y-144997342D01*
X151522494Y-145030711D01*
X151497064Y-145033317D01*
X150132115Y-145033991D01*
X150114000Y-145034000D01*
X150114000Y-148360465D01*
X150093998Y-148428586D01*
X150040342Y-148475079D01*
X149978118Y-148486077D01*
X149975509Y-148485872D01*
X149975507Y-148485872D01*
X149973043Y-148485678D01*
X149660714Y-148485678D01*
X149348006Y-148485679D01*
X149342947Y-148486077D01*
X149319336Y-148487934D01*
X149319333Y-148487935D01*
X149312921Y-148488439D01*
X149162735Y-148532073D01*
X149155913Y-148536107D01*
X149155914Y-148536107D01*
X149094454Y-148572454D01*
X149030315Y-148590000D01*
X147139233Y-148590000D01*
X147075094Y-148572454D01*
X147013634Y-148536107D01*
X147013635Y-148536107D01*
X147006813Y-148532073D01*
X146987979Y-148526601D01*
X146862810Y-148490235D01*
X146862807Y-148490234D01*
X146856627Y-148488439D01*
X146844149Y-148487457D01*
X146824002Y-148485871D01*
X146823989Y-148485870D01*
X146821543Y-148485678D01*
X146684000Y-148485678D01*
X146615879Y-148465676D01*
X146569386Y-148412020D01*
X146558000Y-148359678D01*
X146558000Y-146760523D01*
X146559226Y-146742987D01*
X146581587Y-146583883D01*
X146581588Y-146583875D01*
X146582138Y-146579959D01*
X146582445Y-146558000D01*
X146562901Y-146383764D01*
X146560993Y-146378285D01*
X146558000Y-146351601D01*
X146558000Y-145744523D01*
X146559226Y-145726987D01*
X146581587Y-145567883D01*
X146581588Y-145567875D01*
X146582138Y-145563959D01*
X146582445Y-145542000D01*
X146562901Y-145367764D01*
X146560993Y-145362285D01*
X146558000Y-145335601D01*
X146558000Y-144609500D01*
X146578002Y-144541379D01*
X146631658Y-144494886D01*
X146684000Y-144483500D01*
X149494158Y-144483500D01*
X149498706Y-144482830D01*
X149498713Y-144482830D01*
X149559459Y-144473888D01*
X149559461Y-144473887D01*
X149569144Y-144472462D01*
X149577933Y-144468147D01*
X149673803Y-144421077D01*
X149673804Y-144421076D01*
X149683151Y-144416487D01*
X149772880Y-144326601D01*
X149828655Y-144212497D01*
X149839500Y-144138158D01*
X149839500Y-137665842D01*
X149828462Y-137590856D01*
X149772487Y-137476849D01*
X149682601Y-137387120D01*
X149568497Y-137331345D01*
X149535716Y-137326563D01*
X149498684Y-137321160D01*
X149498680Y-137321160D01*
X149494158Y-137320500D01*
X146938000Y-137320500D01*
X146869879Y-137300498D01*
X146823386Y-137246842D01*
X146812000Y-137194500D01*
X146812000Y-126745000D01*
X146832002Y-126676879D01*
X146885658Y-126630386D01*
X146938000Y-126619000D01*
X156846002Y-126619000D01*
X156914123Y-126639002D01*
G37*
%TD.AperFunction*%
%TD*%
%TA.AperFunction,Conductor*%
%TO.N,/SW_B*%
G36*
X164338000Y-141224000D02*
G01*
X164359500Y-141224000D01*
X164427621Y-141244002D01*
X164474114Y-141297658D01*
X164485500Y-141350000D01*
X164485500Y-144150134D01*
X164492255Y-144212316D01*
X164543385Y-144348705D01*
X164630739Y-144465261D01*
X164747295Y-144552615D01*
X164883684Y-144603745D01*
X164945866Y-144610500D01*
X170842134Y-144610500D01*
X170904316Y-144603745D01*
X171040705Y-144552615D01*
X171157261Y-144465261D01*
X171223173Y-144377314D01*
X171280033Y-144334799D01*
X171350852Y-144329773D01*
X171413145Y-144363833D01*
X171447135Y-144426165D01*
X171450000Y-144452879D01*
X171450000Y-148464000D01*
X171429998Y-148532121D01*
X171376342Y-148578614D01*
X171324000Y-148590000D01*
X166830933Y-148590000D01*
X166762812Y-148569998D01*
X166716319Y-148516342D01*
X166706215Y-148446068D01*
X166712949Y-148419776D01*
X166712970Y-148419719D01*
X166712970Y-148419717D01*
X166715745Y-148412316D01*
X166722500Y-148350134D01*
X166722500Y-146053866D01*
X166715745Y-145991684D01*
X166664615Y-145855295D01*
X166577261Y-145738739D01*
X166460705Y-145651385D01*
X166324316Y-145600255D01*
X166262134Y-145593500D01*
X164965866Y-145593500D01*
X164903684Y-145600255D01*
X164767295Y-145651385D01*
X164650739Y-145738739D01*
X164645358Y-145745919D01*
X164645357Y-145745920D01*
X164564826Y-145853372D01*
X164507967Y-145895887D01*
X164437148Y-145900913D01*
X164374855Y-145866853D01*
X164340865Y-145804522D01*
X164338000Y-145777807D01*
X164338000Y-145034000D01*
X163127199Y-145034000D01*
X163059078Y-145013998D01*
X163033563Y-144992310D01*
X162921675Y-144868045D01*
X162921674Y-144868044D01*
X162917253Y-144863134D01*
X162762752Y-144750882D01*
X162756724Y-144748198D01*
X162756722Y-144748197D01*
X162594319Y-144675891D01*
X162594318Y-144675891D01*
X162588288Y-144673206D01*
X162494887Y-144653353D01*
X162407944Y-144634872D01*
X162407939Y-144634872D01*
X162401487Y-144633500D01*
X162210513Y-144633500D01*
X162204061Y-144634872D01*
X162204056Y-144634872D01*
X162117113Y-144653353D01*
X162023712Y-144673206D01*
X161849248Y-144750882D01*
X161778882Y-144760316D01*
X161746753Y-144750882D01*
X161746752Y-144750882D01*
X161572288Y-144673206D01*
X161478887Y-144653353D01*
X161391944Y-144634872D01*
X161391939Y-144634872D01*
X161385487Y-144633500D01*
X161194513Y-144633500D01*
X161188061Y-144634872D01*
X161188056Y-144634872D01*
X161101113Y-144653353D01*
X161007712Y-144673206D01*
X160833248Y-144750882D01*
X160762882Y-144760316D01*
X160730753Y-144750882D01*
X160730752Y-144750882D01*
X160556288Y-144673206D01*
X160462887Y-144653353D01*
X160375944Y-144634872D01*
X160375939Y-144634872D01*
X160369487Y-144633500D01*
X160178513Y-144633500D01*
X160172061Y-144634872D01*
X160172056Y-144634872D01*
X160085113Y-144653353D01*
X159991712Y-144673206D01*
X159817248Y-144750882D01*
X159746882Y-144760316D01*
X159714753Y-144750882D01*
X159714752Y-144750882D01*
X159540288Y-144673206D01*
X159446887Y-144653353D01*
X159359944Y-144634872D01*
X159359939Y-144634872D01*
X159353487Y-144633500D01*
X159162513Y-144633500D01*
X159156061Y-144634872D01*
X159156056Y-144634872D01*
X159069113Y-144653353D01*
X158975712Y-144673206D01*
X158969682Y-144675891D01*
X158969681Y-144675891D01*
X158807278Y-144748197D01*
X158807276Y-144748198D01*
X158801248Y-144750882D01*
X158646747Y-144863134D01*
X158642326Y-144868044D01*
X158642325Y-144868045D01*
X158530437Y-144992310D01*
X158469991Y-145029550D01*
X158436801Y-145034000D01*
X157860000Y-145034000D01*
X157791879Y-145013998D01*
X157745386Y-144960342D01*
X157734000Y-144908000D01*
X157734000Y-137414000D01*
X164338000Y-137414000D01*
X164338000Y-141224000D01*
G37*
%TD.AperFunction*%
%TD*%
%TA.AperFunction,Conductor*%
%TO.N,/SW_B*%
G36*
X167328121Y-126639002D02*
G01*
X167374614Y-126692658D01*
X167386000Y-126745000D01*
X167386000Y-137194500D01*
X167365998Y-137262621D01*
X167312342Y-137309114D01*
X167260000Y-137320500D01*
X164957842Y-137320500D01*
X164953294Y-137321170D01*
X164953287Y-137321170D01*
X164892541Y-137330112D01*
X164892539Y-137330113D01*
X164882856Y-137331538D01*
X164768849Y-137387513D01*
X164765082Y-137391286D01*
X164694335Y-137414000D01*
X164338000Y-137414000D01*
X164338000Y-138938000D01*
X157734000Y-138938000D01*
X157734000Y-126745000D01*
X157754002Y-126676879D01*
X157807658Y-126630386D01*
X157860000Y-126619000D01*
X167260000Y-126619000D01*
X167328121Y-126639002D01*
G37*
%TD.AperFunction*%
%TD*%
%TA.AperFunction,Conductor*%
%TO.N,VBUS*%
G36*
X168183696Y-128798002D02*
G01*
X168230189Y-128851658D01*
X168240124Y-128884939D01*
X168274699Y-129110884D01*
X168347830Y-129334630D01*
X168456523Y-129543427D01*
X168459626Y-129547560D01*
X168459628Y-129547563D01*
X168478648Y-129572895D01*
X168597858Y-129731668D01*
X168768040Y-129894297D01*
X168962499Y-130026948D01*
X168999041Y-130043910D01*
X169171317Y-130123878D01*
X169171320Y-130123879D01*
X169176012Y-130126057D01*
X169402844Y-130188963D01*
X169407981Y-130189512D01*
X169591678Y-130209144D01*
X169591686Y-130209144D01*
X169595013Y-130209500D01*
X169731672Y-130209500D01*
X169734245Y-130209288D01*
X169734256Y-130209288D01*
X169901451Y-130195542D01*
X169901457Y-130195541D01*
X169906602Y-130195118D01*
X170020753Y-130166445D01*
X170129893Y-130139032D01*
X170129897Y-130139031D01*
X170134904Y-130137773D01*
X170139637Y-130135715D01*
X170139640Y-130135714D01*
X170346038Y-130045970D01*
X170346041Y-130045968D01*
X170350775Y-130043910D01*
X170548416Y-129916050D01*
X170722521Y-129757627D01*
X170725720Y-129753576D01*
X170725724Y-129753572D01*
X170865208Y-129576953D01*
X170868413Y-129572895D01*
X170982175Y-129366816D01*
X171060751Y-129144924D01*
X171066815Y-129110884D01*
X171101124Y-128918268D01*
X171102031Y-128913178D01*
X171102162Y-128902460D01*
X171122996Y-128834589D01*
X171177215Y-128788755D01*
X171228153Y-128778000D01*
X171705000Y-128778000D01*
X171773121Y-128798002D01*
X171819614Y-128851658D01*
X171831000Y-128904000D01*
X171831000Y-143800829D01*
X171810998Y-143868950D01*
X171757342Y-143915443D01*
X171687068Y-143925547D01*
X171644553Y-143911383D01*
X171598504Y-143886205D01*
X171598505Y-143886205D01*
X171594561Y-143884049D01*
X171590353Y-143882477D01*
X171590349Y-143882475D01*
X171521678Y-143856819D01*
X171459108Y-143833442D01*
X171435519Y-143831742D01*
X171319379Y-143823371D01*
X171319372Y-143823371D01*
X171314890Y-143823048D01*
X171277057Y-143825733D01*
X171248560Y-143827755D01*
X171248554Y-143827756D01*
X171244071Y-143828074D01*
X171102773Y-143858729D01*
X170975829Y-143927953D01*
X170972229Y-143930645D01*
X170972224Y-143930648D01*
X170947834Y-143948885D01*
X170918969Y-143970468D01*
X170915794Y-143973639D01*
X170915791Y-143973642D01*
X170823686Y-144065645D01*
X170761355Y-144099635D01*
X170734640Y-144102500D01*
X165119500Y-144102500D01*
X165051379Y-144082498D01*
X165004886Y-144028842D01*
X164993500Y-143976500D01*
X164993500Y-141350000D01*
X164981891Y-141242020D01*
X164970505Y-141189678D01*
X164936207Y-141086628D01*
X164866002Y-140977387D01*
X164846000Y-140909266D01*
X164846000Y-137853444D01*
X164866002Y-137785323D01*
X164919718Y-137740867D01*
X164919160Y-137739850D01*
X164924466Y-137736938D01*
X164924900Y-137736578D01*
X164932688Y-137733440D01*
X164938789Y-137729076D01*
X164945362Y-137725469D01*
X164945517Y-137725751D01*
X164950586Y-137722729D01*
X164967557Y-137714397D01*
X165023088Y-137701500D01*
X167260000Y-137701500D01*
X167340985Y-137692793D01*
X167344269Y-137692079D01*
X167344273Y-137692078D01*
X167365992Y-137687353D01*
X167393327Y-137681407D01*
X167454830Y-137662467D01*
X167561843Y-137597055D01*
X167615499Y-137550562D01*
X167676905Y-137482844D01*
X167731565Y-137369960D01*
X167751567Y-137301839D01*
X167767000Y-137194500D01*
X167767000Y-128904000D01*
X167787002Y-128835879D01*
X167840658Y-128789386D01*
X167893000Y-128778000D01*
X168115575Y-128778000D01*
X168183696Y-128798002D01*
G37*
%TD.AperFunction*%
%TD*%
%TA.AperFunction,Conductor*%
%TO.N,VBUS*%
G36*
X142825660Y-129052002D02*
G01*
X142872153Y-129105658D01*
X142877304Y-129118855D01*
X142885807Y-129144869D01*
X142947830Y-129334630D01*
X143056523Y-129543427D01*
X143059626Y-129547560D01*
X143059628Y-129547563D01*
X143078648Y-129572895D01*
X143197858Y-129731668D01*
X143368040Y-129894297D01*
X143562499Y-130026948D01*
X143599041Y-130043910D01*
X143771317Y-130123878D01*
X143771320Y-130123879D01*
X143776012Y-130126057D01*
X144002844Y-130188963D01*
X144007981Y-130189512D01*
X144191678Y-130209144D01*
X144191686Y-130209144D01*
X144195013Y-130209500D01*
X144331672Y-130209500D01*
X144334245Y-130209288D01*
X144334256Y-130209288D01*
X144501451Y-130195542D01*
X144501457Y-130195541D01*
X144506602Y-130195118D01*
X144620753Y-130166445D01*
X144729893Y-130139032D01*
X144729897Y-130139031D01*
X144734904Y-130137773D01*
X144739637Y-130135715D01*
X144739640Y-130135714D01*
X144946038Y-130045970D01*
X144946041Y-130045968D01*
X144950775Y-130043910D01*
X145148416Y-129916050D01*
X145322521Y-129757627D01*
X145325720Y-129753576D01*
X145325724Y-129753572D01*
X145465208Y-129576953D01*
X145468413Y-129572895D01*
X145582175Y-129366816D01*
X145660751Y-129144924D01*
X145662359Y-129135899D01*
X145693998Y-129072343D01*
X145754977Y-129035982D01*
X145786405Y-129032000D01*
X146305000Y-129032000D01*
X146373121Y-129052002D01*
X146419614Y-129105658D01*
X146431000Y-129158000D01*
X146431000Y-137194500D01*
X146439707Y-137275485D01*
X146451093Y-137327827D01*
X146470033Y-137389330D01*
X146535445Y-137496343D01*
X146581938Y-137549999D01*
X146649656Y-137611405D01*
X146762540Y-137666065D01*
X146830661Y-137686067D01*
X146835101Y-137686705D01*
X146835104Y-137686706D01*
X146933554Y-137700861D01*
X146933557Y-137700861D01*
X146938000Y-137701500D01*
X149332500Y-137701500D01*
X149400621Y-137721502D01*
X149447114Y-137775158D01*
X149458500Y-137827500D01*
X149458500Y-143976500D01*
X149438498Y-144044621D01*
X149384842Y-144091114D01*
X149332500Y-144102500D01*
X146684000Y-144102500D01*
X146603015Y-144111207D01*
X146599731Y-144111921D01*
X146599727Y-144111922D01*
X146578008Y-144116647D01*
X146550673Y-144122593D01*
X146489170Y-144141533D01*
X146382157Y-144206945D01*
X146328501Y-144253438D01*
X146267095Y-144321156D01*
X146212435Y-144434040D01*
X146192433Y-144502161D01*
X146177000Y-144609500D01*
X146177000Y-144669438D01*
X146156998Y-144737559D01*
X146103342Y-144784052D01*
X146033068Y-144794156D01*
X146008735Y-144788138D01*
X145982218Y-144778696D01*
X145982219Y-144778696D01*
X145975585Y-144776334D01*
X145968597Y-144775501D01*
X145968594Y-144775500D01*
X145848307Y-144761157D01*
X145801490Y-144755574D01*
X145794487Y-144756310D01*
X145794486Y-144756310D01*
X145634122Y-144773165D01*
X145634120Y-144773166D01*
X145627122Y-144773901D01*
X145461148Y-144830403D01*
X145416046Y-144858150D01*
X145317823Y-144918577D01*
X145317820Y-144918579D01*
X145311816Y-144922273D01*
X145306781Y-144927204D01*
X145306778Y-144927206D01*
X145234463Y-144998023D01*
X145171798Y-145031394D01*
X145146305Y-145034000D01*
X142620000Y-145034000D01*
X142551879Y-145013998D01*
X142505386Y-144960342D01*
X142494000Y-144908000D01*
X142494000Y-129158000D01*
X142514002Y-129089879D01*
X142567658Y-129043386D01*
X142620000Y-129032000D01*
X142757539Y-129032000D01*
X142825660Y-129052002D01*
G37*
%TD.AperFunction*%
%TD*%
%TA.AperFunction,Conductor*%
%TO.N,VBUS*%
G36*
X148178298Y-151182002D02*
G01*
X148197342Y-151203980D01*
X148231512Y-151233588D01*
X148269896Y-151293314D01*
X148275000Y-151328813D01*
X148275000Y-158323385D01*
X148279475Y-158338624D01*
X148280865Y-158339829D01*
X148288548Y-158341500D01*
X148844000Y-158341500D01*
X148844000Y-159666500D01*
X148293115Y-159666500D01*
X148277876Y-159670975D01*
X148276671Y-159672365D01*
X148275000Y-159680048D01*
X148275000Y-162104000D01*
X148254998Y-162172121D01*
X148201342Y-162218614D01*
X148149000Y-162230000D01*
X147076000Y-162230000D01*
X147007879Y-162209998D01*
X146961386Y-162156342D01*
X146950000Y-162104000D01*
X146950000Y-157632115D01*
X146945526Y-157616876D01*
X146937488Y-157609912D01*
X146899104Y-157550186D01*
X146894000Y-157514687D01*
X146894000Y-151288000D01*
X146914002Y-151219879D01*
X146967658Y-151173386D01*
X147020000Y-151162000D01*
X148110177Y-151162000D01*
X148178298Y-151182002D01*
G37*
%TD.AperFunction*%
%TD*%
%TA.AperFunction,Conductor*%
%TO.N,VBUS*%
G36*
X167952121Y-150718002D02*
G01*
X167998614Y-150771658D01*
X168010000Y-150824000D01*
X168010000Y-161596000D01*
X167989998Y-161664121D01*
X167936342Y-161710614D01*
X167884000Y-161722000D01*
X166811000Y-161722000D01*
X166742879Y-161701998D01*
X166696386Y-161648342D01*
X166685000Y-161596000D01*
X166685000Y-150977100D01*
X166705002Y-150908979D01*
X166758658Y-150862486D01*
X166811000Y-150851100D01*
X166939773Y-150851100D01*
X166951109Y-150852367D01*
X166951155Y-150851795D01*
X166960103Y-150852515D01*
X166968858Y-150854496D01*
X167019695Y-150851342D01*
X167027496Y-150851100D01*
X167042689Y-150851100D01*
X167052282Y-150849726D01*
X167062330Y-150848697D01*
X167098014Y-150846483D01*
X167098015Y-150846483D01*
X167106974Y-150845927D01*
X167115417Y-150842879D01*
X167120887Y-150841746D01*
X167130726Y-150839293D01*
X167136096Y-150837723D01*
X167144984Y-150836450D01*
X167153158Y-150832734D01*
X167153160Y-150832733D01*
X167185705Y-150817936D01*
X167195065Y-150814126D01*
X167237134Y-150798938D01*
X167244382Y-150793643D01*
X167249310Y-150791023D01*
X167258099Y-150785887D01*
X167262788Y-150782888D01*
X167270957Y-150779174D01*
X167277754Y-150773318D01*
X167277756Y-150773316D01*
X167291025Y-150761882D01*
X167304839Y-150749978D01*
X167312762Y-150743688D01*
X167319056Y-150739091D01*
X167319062Y-150739086D01*
X167322988Y-150736218D01*
X167326432Y-150732774D01*
X167330124Y-150729612D01*
X167331357Y-150731052D01*
X167386613Y-150700879D01*
X167413396Y-150698000D01*
X167884000Y-150698000D01*
X167952121Y-150718002D01*
G37*
%TD.AperFunction*%
%TD*%
M02*
