%TF.GenerationSoftware,KiCad,Pcbnew,(6.0.0)*%
%TF.CreationDate,2022-04-01T00:42:52-07:00*%
%TF.ProjectId,motor-controller,6d6f746f-722d-4636-9f6e-74726f6c6c65,rev?*%
%TF.SameCoordinates,Original*%
%TF.FileFunction,Copper,L2,Inr*%
%TF.FilePolarity,Positive*%
%FSLAX46Y46*%
G04 Gerber Fmt 4.6, Leading zero omitted, Abs format (unit mm)*
G04 Created by KiCad (PCBNEW (6.0.0)) date 2022-04-01 00:42:52*
%MOMM*%
%LPD*%
G01*
G04 APERTURE LIST*
%TA.AperFunction,ComponentPad*%
%ADD10R,2.200000X2.200000*%
%TD*%
%TA.AperFunction,ComponentPad*%
%ADD11R,1.700000X1.700000*%
%TD*%
%TA.AperFunction,ComponentPad*%
%ADD12O,1.700000X1.700000*%
%TD*%
%TA.AperFunction,ViaPad*%
%ADD13C,0.800000*%
%TD*%
G04 APERTURE END LIST*
D10*
%TO.N,/SW_B*%
%TO.C,J4*%
X165060000Y-128072000D03*
X160060000Y-135072000D03*
X165060000Y-135072000D03*
X160060000Y-128072000D03*
%TD*%
%TO.N,/SW_A*%
%TO.C,J3*%
X154646000Y-128062178D03*
X149646000Y-135062178D03*
X154646000Y-135062178D03*
X149646000Y-128062178D03*
%TD*%
D11*
%TO.N,+3V3*%
%TO.C,J5*%
X169418000Y-172217000D03*
D12*
%TO.N,GND*%
X169418000Y-174757000D03*
%TO.N,/controller/SWCLK*%
X169418000Y-177297000D03*
%TO.N,/controller/SWDIO*%
X169418000Y-179837000D03*
%TO.N,/controller/NRST*%
X169418000Y-182377000D03*
%TD*%
D11*
%TO.N,GND*%
%TO.C,J6*%
X145034000Y-186167000D03*
D12*
%TO.N,+5V*%
X145034000Y-183627000D03*
%TO.N,/controller/PWM_IN*%
X145034000Y-181087000D03*
%TD*%
D10*
%TO.N,GND*%
%TO.C,J2*%
X164298000Y-187396000D03*
X164298000Y-180396000D03*
X159298000Y-180396000D03*
X159298000Y-187396000D03*
%TD*%
%TO.N,VBUS*%
%TO.C,J1*%
X149392000Y-180396000D03*
X149392000Y-187396000D03*
X154392000Y-187396000D03*
X154392000Y-180396000D03*
%TD*%
D13*
%TO.N,VBUS*%
X168402000Y-167640000D03*
%TO.N,PWM_B_LOW*%
X160782000Y-173990000D03*
%TO.N,/controller/PWM_IN*%
X162306000Y-174752000D03*
%TO.N,GND*%
X167386000Y-172720000D03*
%TO.N,/controller/SWCLK*%
X166878000Y-178562000D03*
%TO.N,/controller/PWM_IN*%
X158496000Y-177800000D03*
%TO.N,PWM_A_LOW*%
X159703050Y-171474000D03*
%TO.N,PWM_B_HIGH*%
X160274000Y-172466000D03*
%TO.N,GND*%
X144526000Y-163068000D03*
X170434000Y-149860000D03*
%TO.N,VBUS*%
X167386000Y-162560000D03*
X147574000Y-163068000D03*
%TO.N,GND*%
X145796000Y-146558000D03*
X145796000Y-145542000D03*
X152146000Y-145542000D03*
X155194000Y-145542000D03*
X154178000Y-145542000D03*
X153162000Y-145542000D03*
X159258000Y-145542000D03*
X162306000Y-145542000D03*
X161290000Y-145542000D03*
X160274000Y-145542000D03*
%TO.N,VBUS*%
X170688000Y-134620000D03*
X169672000Y-134620000D03*
X168656000Y-134620000D03*
X168656000Y-133604000D03*
X169672000Y-133604000D03*
X170688000Y-133604000D03*
X170688000Y-132588000D03*
X170688000Y-131572000D03*
X169672000Y-131572000D03*
X168656000Y-135636000D03*
X168656000Y-136652000D03*
X169672000Y-136652000D03*
X170688000Y-136652000D03*
X169672000Y-135636000D03*
X170688000Y-135636000D03*
X168656000Y-131572000D03*
X169672000Y-132588000D03*
X168656000Y-132588000D03*
X143510000Y-136652000D03*
X144526000Y-136652000D03*
X145542000Y-136652000D03*
X143510000Y-135636000D03*
X144526000Y-135636000D03*
X145542000Y-135636000D03*
X143510000Y-134620000D03*
X144526000Y-134620000D03*
X145542000Y-134620000D03*
X143510000Y-133604000D03*
X144526000Y-133604000D03*
X145542000Y-133604000D03*
X145542000Y-132588000D03*
X144526000Y-132588000D03*
X143510000Y-132588000D03*
X145542000Y-131572000D03*
X144526000Y-131572000D03*
X143510000Y-131572000D03*
X148844000Y-163576000D03*
X151384000Y-162306000D03*
%TO.N,PWM_A_HIGH*%
X153924000Y-156972000D03*
%TO.N,PWM_A_LOW*%
X155194000Y-156972000D03*
%TO.N,VBUS*%
X159004000Y-161798000D03*
%TO.N,PWM_B_HIGH*%
X162052000Y-156972000D03*
%TO.N,PWM_B_LOW*%
X164084000Y-156972000D03*
%TO.N,GND*%
X148844000Y-174498000D03*
X150368000Y-165354000D03*
%TO.N,PWM_A_HIGH*%
X157226000Y-172720000D03*
%TD*%
%TA.AperFunction,Conductor*%
%TO.N,GND*%
G36*
X147983447Y-126766002D02*
G01*
X148029940Y-126819658D01*
X148040589Y-126885607D01*
X148039241Y-126898022D01*
X148037500Y-126914044D01*
X148037500Y-129210312D01*
X148044255Y-129272494D01*
X148095385Y-129408883D01*
X148182739Y-129525439D01*
X148299295Y-129612793D01*
X148435684Y-129663923D01*
X148497866Y-129670678D01*
X150794134Y-129670678D01*
X150856316Y-129663923D01*
X150992705Y-129612793D01*
X151109261Y-129525439D01*
X151196615Y-129408883D01*
X151247745Y-129272494D01*
X151254500Y-129210312D01*
X151254500Y-126914044D01*
X151252760Y-126898022D01*
X151251411Y-126885607D01*
X151263939Y-126815725D01*
X151312260Y-126763709D01*
X151376674Y-126746000D01*
X152915326Y-126746000D01*
X152983447Y-126766002D01*
X153029940Y-126819658D01*
X153040589Y-126885607D01*
X153039241Y-126898022D01*
X153037500Y-126914044D01*
X153037500Y-129210312D01*
X153044255Y-129272494D01*
X153095385Y-129408883D01*
X153182739Y-129525439D01*
X153299295Y-129612793D01*
X153435684Y-129663923D01*
X153497866Y-129670678D01*
X155794134Y-129670678D01*
X155856316Y-129663923D01*
X155992705Y-129612793D01*
X156109261Y-129525439D01*
X156196615Y-129408883D01*
X156247745Y-129272494D01*
X156254500Y-129210312D01*
X156254500Y-126914044D01*
X156252760Y-126898022D01*
X156251411Y-126885607D01*
X156263939Y-126815725D01*
X156312260Y-126763709D01*
X156376674Y-126746000D01*
X158330393Y-126746000D01*
X158398514Y-126766002D01*
X158445007Y-126819658D01*
X158455656Y-126885607D01*
X158454308Y-126898022D01*
X158451500Y-126923866D01*
X158451500Y-129220134D01*
X158458255Y-129282316D01*
X158509385Y-129418705D01*
X158596739Y-129535261D01*
X158713295Y-129622615D01*
X158849684Y-129673745D01*
X158911866Y-129680500D01*
X161208134Y-129680500D01*
X161270316Y-129673745D01*
X161406705Y-129622615D01*
X161523261Y-129535261D01*
X161610615Y-129418705D01*
X161661745Y-129282316D01*
X161668500Y-129220134D01*
X161668500Y-126923866D01*
X161665693Y-126898022D01*
X161664344Y-126885607D01*
X161676872Y-126815725D01*
X161725193Y-126763709D01*
X161789607Y-126746000D01*
X163330393Y-126746000D01*
X163398514Y-126766002D01*
X163445007Y-126819658D01*
X163455656Y-126885607D01*
X163454308Y-126898022D01*
X163451500Y-126923866D01*
X163451500Y-129220134D01*
X163458255Y-129282316D01*
X163509385Y-129418705D01*
X163596739Y-129535261D01*
X163713295Y-129622615D01*
X163849684Y-129673745D01*
X163911866Y-129680500D01*
X166208134Y-129680500D01*
X166270316Y-129673745D01*
X166406705Y-129622615D01*
X166523261Y-129535261D01*
X166610615Y-129418705D01*
X166661745Y-129282316D01*
X166668500Y-129220134D01*
X166668500Y-128832568D01*
X168109382Y-128832568D01*
X168138208Y-129081699D01*
X168139587Y-129086573D01*
X168139588Y-129086577D01*
X168177381Y-129220134D01*
X168206494Y-129323017D01*
X168208628Y-129327592D01*
X168208630Y-129327599D01*
X168297537Y-129518259D01*
X168312484Y-129550313D01*
X168315326Y-129554494D01*
X168315326Y-129554495D01*
X168450605Y-129753552D01*
X168450608Y-129753556D01*
X168453451Y-129757739D01*
X168456928Y-129761416D01*
X168456929Y-129761417D01*
X168557238Y-129867491D01*
X168625767Y-129939959D01*
X168629793Y-129943037D01*
X168629794Y-129943038D01*
X168820981Y-130089212D01*
X168820985Y-130089215D01*
X168825001Y-130092285D01*
X169046026Y-130210797D01*
X169050807Y-130212443D01*
X169050811Y-130212445D01*
X169276538Y-130290169D01*
X169283156Y-130292448D01*
X169386689Y-130310331D01*
X169526380Y-130334460D01*
X169526386Y-130334461D01*
X169530290Y-130335135D01*
X169534251Y-130335315D01*
X169534252Y-130335315D01*
X169558931Y-130336436D01*
X169558950Y-130336436D01*
X169560350Y-130336500D01*
X169735015Y-130336500D01*
X169737523Y-130336298D01*
X169737528Y-130336298D01*
X169916944Y-130321863D01*
X169916949Y-130321862D01*
X169921985Y-130321457D01*
X169926893Y-130320252D01*
X169926896Y-130320251D01*
X170160625Y-130262841D01*
X170165539Y-130261634D01*
X170170191Y-130259659D01*
X170170195Y-130259658D01*
X170391741Y-130165617D01*
X170391742Y-130165617D01*
X170396396Y-130163641D01*
X170608615Y-130030000D01*
X170796738Y-129864147D01*
X170955924Y-129670351D01*
X171082078Y-129453596D01*
X171096484Y-129416069D01*
X171170143Y-129224181D01*
X171171955Y-129219461D01*
X171173867Y-129210312D01*
X171222206Y-128978921D01*
X171223241Y-128973967D01*
X171234618Y-128723432D01*
X171205792Y-128474301D01*
X171166810Y-128336539D01*
X171138884Y-128237852D01*
X171138883Y-128237850D01*
X171137506Y-128232983D01*
X171135372Y-128228408D01*
X171135370Y-128228401D01*
X171033653Y-128010269D01*
X171033651Y-128010265D01*
X171031516Y-128005687D01*
X171022882Y-127992983D01*
X170893395Y-127802448D01*
X170893392Y-127802444D01*
X170890549Y-127798261D01*
X170789925Y-127691853D01*
X170721713Y-127619721D01*
X170718233Y-127616041D01*
X170714206Y-127612962D01*
X170523019Y-127466788D01*
X170523015Y-127466785D01*
X170518999Y-127463715D01*
X170297974Y-127345203D01*
X170293193Y-127343557D01*
X170293189Y-127343555D01*
X170065633Y-127265201D01*
X170060844Y-127263552D01*
X169957311Y-127245669D01*
X169817620Y-127221540D01*
X169817614Y-127221539D01*
X169813710Y-127220865D01*
X169809749Y-127220685D01*
X169809748Y-127220685D01*
X169785069Y-127219564D01*
X169785050Y-127219564D01*
X169783650Y-127219500D01*
X169608985Y-127219500D01*
X169606477Y-127219702D01*
X169606472Y-127219702D01*
X169427056Y-127234137D01*
X169427051Y-127234138D01*
X169422015Y-127234543D01*
X169417107Y-127235748D01*
X169417104Y-127235749D01*
X169185326Y-127292680D01*
X169178461Y-127294366D01*
X169173809Y-127296341D01*
X169173805Y-127296342D01*
X169053596Y-127347368D01*
X168947604Y-127392359D01*
X168735385Y-127526000D01*
X168547262Y-127691853D01*
X168388076Y-127885649D01*
X168261922Y-128102404D01*
X168172045Y-128336539D01*
X168120759Y-128582033D01*
X168109382Y-128832568D01*
X166668500Y-128832568D01*
X166668500Y-126923866D01*
X166665693Y-126898022D01*
X166664344Y-126885607D01*
X166676872Y-126815725D01*
X166725193Y-126763709D01*
X166789607Y-126746000D01*
X169622672Y-126746000D01*
X169642057Y-126747500D01*
X169656858Y-126749805D01*
X169656861Y-126749805D01*
X169665730Y-126751186D01*
X169681999Y-126749059D01*
X169706567Y-126748266D01*
X169928985Y-126762844D01*
X169945326Y-126764995D01*
X170189824Y-126813629D01*
X170205743Y-126817895D01*
X170441790Y-126898022D01*
X170457017Y-126904329D01*
X170680592Y-127014584D01*
X170694865Y-127022825D01*
X170902133Y-127161316D01*
X170915206Y-127171346D01*
X170986806Y-127234137D01*
X171102632Y-127335714D01*
X171114286Y-127347368D01*
X171273876Y-127529345D01*
X171278651Y-127534790D01*
X171288684Y-127547867D01*
X171427175Y-127755135D01*
X171435416Y-127769408D01*
X171545671Y-127992983D01*
X171551978Y-128008210D01*
X171632105Y-128244257D01*
X171636371Y-128260176D01*
X171685005Y-128504673D01*
X171687156Y-128521014D01*
X171701264Y-128736268D01*
X171700239Y-128759304D01*
X171700196Y-128762854D01*
X171698814Y-128771730D01*
X171700454Y-128784270D01*
X171702936Y-128803251D01*
X171704000Y-128819589D01*
X171704000Y-131044527D01*
X171683998Y-131112648D01*
X171630342Y-131159141D01*
X171560068Y-131169245D01*
X171495488Y-131139751D01*
X171468881Y-131107527D01*
X171430341Y-131040774D01*
X171427040Y-131035056D01*
X171299253Y-130893134D01*
X171144752Y-130780882D01*
X171138724Y-130778198D01*
X171138722Y-130778197D01*
X170976319Y-130705891D01*
X170976318Y-130705891D01*
X170970288Y-130703206D01*
X170876888Y-130683353D01*
X170789944Y-130664872D01*
X170789939Y-130664872D01*
X170783487Y-130663500D01*
X170592513Y-130663500D01*
X170586061Y-130664872D01*
X170586056Y-130664872D01*
X170499112Y-130683353D01*
X170405712Y-130703206D01*
X170231248Y-130780882D01*
X170160882Y-130790316D01*
X170128753Y-130780882D01*
X170128752Y-130780882D01*
X169954288Y-130703206D01*
X169860888Y-130683353D01*
X169773944Y-130664872D01*
X169773939Y-130664872D01*
X169767487Y-130663500D01*
X169576513Y-130663500D01*
X169570061Y-130664872D01*
X169570056Y-130664872D01*
X169483112Y-130683353D01*
X169389712Y-130703206D01*
X169215248Y-130780882D01*
X169144882Y-130790316D01*
X169112753Y-130780882D01*
X169112752Y-130780882D01*
X168938288Y-130703206D01*
X168844888Y-130683353D01*
X168757944Y-130664872D01*
X168757939Y-130664872D01*
X168751487Y-130663500D01*
X168560513Y-130663500D01*
X168554061Y-130664872D01*
X168554056Y-130664872D01*
X168467112Y-130683353D01*
X168373712Y-130703206D01*
X168367682Y-130705891D01*
X168367681Y-130705891D01*
X168205278Y-130778197D01*
X168205276Y-130778198D01*
X168199248Y-130780882D01*
X168044747Y-130893134D01*
X167916960Y-131035056D01*
X167821473Y-131200444D01*
X167762458Y-131382072D01*
X167742496Y-131572000D01*
X167762458Y-131761928D01*
X167821473Y-131943556D01*
X167824776Y-131949278D01*
X167824777Y-131949279D01*
X167863876Y-132017000D01*
X167880614Y-132085995D01*
X167863876Y-132143000D01*
X167821473Y-132216444D01*
X167762458Y-132398072D01*
X167742496Y-132588000D01*
X167762458Y-132777928D01*
X167821473Y-132959556D01*
X167824776Y-132965278D01*
X167824777Y-132965279D01*
X167863876Y-133033000D01*
X167880614Y-133101995D01*
X167863876Y-133159000D01*
X167821473Y-133232444D01*
X167762458Y-133414072D01*
X167761768Y-133420633D01*
X167761768Y-133420635D01*
X167757675Y-133459580D01*
X167742496Y-133604000D01*
X167762458Y-133793928D01*
X167821473Y-133975556D01*
X167824776Y-133981278D01*
X167824777Y-133981279D01*
X167863876Y-134049000D01*
X167880614Y-134117995D01*
X167863876Y-134175000D01*
X167821473Y-134248444D01*
X167762458Y-134430072D01*
X167742496Y-134620000D01*
X167762458Y-134809928D01*
X167821473Y-134991556D01*
X167824776Y-134997278D01*
X167824777Y-134997279D01*
X167863876Y-135065000D01*
X167880614Y-135133995D01*
X167863876Y-135191000D01*
X167821473Y-135264444D01*
X167762458Y-135446072D01*
X167742496Y-135636000D01*
X167762458Y-135825928D01*
X167821473Y-136007556D01*
X167824776Y-136013278D01*
X167824777Y-136013279D01*
X167863876Y-136081000D01*
X167880614Y-136149995D01*
X167863876Y-136207000D01*
X167858266Y-136216717D01*
X167830599Y-136264638D01*
X167821473Y-136280444D01*
X167762458Y-136462072D01*
X167761768Y-136468633D01*
X167761768Y-136468635D01*
X167754200Y-136540642D01*
X167742496Y-136652000D01*
X167762458Y-136841928D01*
X167821473Y-137023556D01*
X167916960Y-137188944D01*
X168044747Y-137330866D01*
X168199248Y-137443118D01*
X168205276Y-137445802D01*
X168205278Y-137445803D01*
X168367681Y-137518109D01*
X168373712Y-137520794D01*
X168467112Y-137540647D01*
X168554056Y-137559128D01*
X168554061Y-137559128D01*
X168560513Y-137560500D01*
X168751487Y-137560500D01*
X168757939Y-137559128D01*
X168757944Y-137559128D01*
X168844888Y-137540647D01*
X168938288Y-137520794D01*
X169112752Y-137443118D01*
X169183118Y-137433684D01*
X169215247Y-137443118D01*
X169215248Y-137443118D01*
X169389712Y-137520794D01*
X169483112Y-137540647D01*
X169570056Y-137559128D01*
X169570061Y-137559128D01*
X169576513Y-137560500D01*
X169767487Y-137560500D01*
X169773939Y-137559128D01*
X169773944Y-137559128D01*
X169860888Y-137540647D01*
X169954288Y-137520794D01*
X170128752Y-137443118D01*
X170199118Y-137433684D01*
X170231247Y-137443118D01*
X170231248Y-137443118D01*
X170405712Y-137520794D01*
X170499112Y-137540647D01*
X170586056Y-137559128D01*
X170586061Y-137559128D01*
X170592513Y-137560500D01*
X170783487Y-137560500D01*
X170789939Y-137559128D01*
X170789944Y-137559128D01*
X170876888Y-137540647D01*
X170970288Y-137520794D01*
X170976319Y-137518109D01*
X171138722Y-137445803D01*
X171138724Y-137445802D01*
X171144752Y-137443118D01*
X171299253Y-137330866D01*
X171427040Y-137188944D01*
X171468882Y-137116472D01*
X171520263Y-137067480D01*
X171589977Y-137054044D01*
X171655888Y-137080430D01*
X171697070Y-137138262D01*
X171704000Y-137179473D01*
X171704000Y-187420723D01*
X171702500Y-187440108D01*
X171701059Y-187449365D01*
X171698814Y-187463781D01*
X171700941Y-187480050D01*
X171701734Y-187504618D01*
X171687156Y-187727036D01*
X171685005Y-187743377D01*
X171636371Y-187987875D01*
X171632105Y-188003794D01*
X171551978Y-188239841D01*
X171545671Y-188255068D01*
X171435416Y-188478643D01*
X171427175Y-188492916D01*
X171288684Y-188700184D01*
X171278654Y-188713257D01*
X171240908Y-188756298D01*
X171114286Y-188900683D01*
X171102632Y-188912337D01*
X171059951Y-188949767D01*
X170924353Y-189068684D01*
X170915210Y-189076702D01*
X170902133Y-189086735D01*
X170694865Y-189225226D01*
X170680592Y-189233467D01*
X170457017Y-189343722D01*
X170441790Y-189350029D01*
X170205743Y-189430156D01*
X170189824Y-189434422D01*
X169945327Y-189483056D01*
X169928986Y-189485207D01*
X169713732Y-189499315D01*
X169690696Y-189498290D01*
X169687144Y-189498247D01*
X169678270Y-189496865D01*
X169669368Y-189498029D01*
X169669364Y-189498029D01*
X169646976Y-189500957D01*
X169630549Y-189502021D01*
X155012864Y-189491633D01*
X144321462Y-189484035D01*
X144302168Y-189482535D01*
X144287142Y-189480195D01*
X144287139Y-189480195D01*
X144278270Y-189478814D01*
X144262001Y-189480941D01*
X144237433Y-189481734D01*
X144015015Y-189467156D01*
X143998674Y-189465005D01*
X143754176Y-189416371D01*
X143738257Y-189412105D01*
X143502210Y-189331978D01*
X143486983Y-189325671D01*
X143263408Y-189215416D01*
X143249135Y-189207175D01*
X143041867Y-189068684D01*
X143028790Y-189058651D01*
X142966472Y-189003999D01*
X142841368Y-188894286D01*
X142829714Y-188882632D01*
X142704849Y-188740251D01*
X142665346Y-188695206D01*
X142655316Y-188682133D01*
X142563109Y-188544134D01*
X147783500Y-188544134D01*
X147790255Y-188606316D01*
X147841385Y-188742705D01*
X147928739Y-188859261D01*
X148045295Y-188946615D01*
X148181684Y-188997745D01*
X148243866Y-189004500D01*
X150540134Y-189004500D01*
X150602316Y-188997745D01*
X150738705Y-188946615D01*
X150855261Y-188859261D01*
X150942615Y-188742705D01*
X150993745Y-188606316D01*
X151000500Y-188544134D01*
X152783500Y-188544134D01*
X152790255Y-188606316D01*
X152841385Y-188742705D01*
X152928739Y-188859261D01*
X153045295Y-188946615D01*
X153181684Y-188997745D01*
X153243866Y-189004500D01*
X155540134Y-189004500D01*
X155602316Y-188997745D01*
X155738705Y-188946615D01*
X155855261Y-188859261D01*
X155942615Y-188742705D01*
X155993745Y-188606316D01*
X156000500Y-188544134D01*
X156000500Y-188540669D01*
X157690001Y-188540669D01*
X157690371Y-188547490D01*
X157695895Y-188598352D01*
X157699521Y-188613604D01*
X157744676Y-188734054D01*
X157753214Y-188749649D01*
X157829715Y-188851724D01*
X157842276Y-188864285D01*
X157944351Y-188940786D01*
X157959946Y-188949324D01*
X158080394Y-188994478D01*
X158095649Y-188998105D01*
X158146514Y-189003631D01*
X158153328Y-189004000D01*
X158898885Y-189004000D01*
X158914124Y-188999525D01*
X158915329Y-188998135D01*
X158917000Y-188990452D01*
X158917000Y-188985884D01*
X159679000Y-188985884D01*
X159683475Y-189001123D01*
X159684865Y-189002328D01*
X159692548Y-189003999D01*
X160442669Y-189003999D01*
X160449490Y-189003629D01*
X160500352Y-188998105D01*
X160515604Y-188994479D01*
X160636054Y-188949324D01*
X160651649Y-188940786D01*
X160753724Y-188864285D01*
X160766285Y-188851724D01*
X160842786Y-188749649D01*
X160851324Y-188734054D01*
X160896478Y-188613606D01*
X160900105Y-188598351D01*
X160905631Y-188547486D01*
X160906000Y-188540672D01*
X160906000Y-188540669D01*
X162690001Y-188540669D01*
X162690371Y-188547490D01*
X162695895Y-188598352D01*
X162699521Y-188613604D01*
X162744676Y-188734054D01*
X162753214Y-188749649D01*
X162829715Y-188851724D01*
X162842276Y-188864285D01*
X162944351Y-188940786D01*
X162959946Y-188949324D01*
X163080394Y-188994478D01*
X163095649Y-188998105D01*
X163146514Y-189003631D01*
X163153328Y-189004000D01*
X163898885Y-189004000D01*
X163914124Y-188999525D01*
X163915329Y-188998135D01*
X163917000Y-188990452D01*
X163917000Y-188985884D01*
X164679000Y-188985884D01*
X164683475Y-189001123D01*
X164684865Y-189002328D01*
X164692548Y-189003999D01*
X165442669Y-189003999D01*
X165449490Y-189003629D01*
X165500352Y-188998105D01*
X165515604Y-188994479D01*
X165636054Y-188949324D01*
X165651649Y-188940786D01*
X165753724Y-188864285D01*
X165766285Y-188851724D01*
X165842786Y-188749649D01*
X165851324Y-188734054D01*
X165896478Y-188613606D01*
X165900105Y-188598351D01*
X165905631Y-188547486D01*
X165906000Y-188540672D01*
X165906000Y-187795115D01*
X165901525Y-187779876D01*
X165900135Y-187778671D01*
X165892452Y-187777000D01*
X164697115Y-187777000D01*
X164681876Y-187781475D01*
X164680671Y-187782865D01*
X164679000Y-187790548D01*
X164679000Y-188985884D01*
X163917000Y-188985884D01*
X163917000Y-187795115D01*
X163912525Y-187779876D01*
X163911135Y-187778671D01*
X163903452Y-187777000D01*
X162708116Y-187777000D01*
X162692877Y-187781475D01*
X162691672Y-187782865D01*
X162690001Y-187790548D01*
X162690001Y-188540669D01*
X160906000Y-188540669D01*
X160906000Y-187795115D01*
X160901525Y-187779876D01*
X160900135Y-187778671D01*
X160892452Y-187777000D01*
X159697115Y-187777000D01*
X159681876Y-187781475D01*
X159680671Y-187782865D01*
X159679000Y-187790548D01*
X159679000Y-188985884D01*
X158917000Y-188985884D01*
X158917000Y-187795115D01*
X158912525Y-187779876D01*
X158911135Y-187778671D01*
X158903452Y-187777000D01*
X157708116Y-187777000D01*
X157692877Y-187781475D01*
X157691672Y-187782865D01*
X157690001Y-187790548D01*
X157690001Y-188540669D01*
X156000500Y-188540669D01*
X156000500Y-187252568D01*
X167855382Y-187252568D01*
X167884208Y-187501699D01*
X167885587Y-187506573D01*
X167885588Y-187506577D01*
X167951116Y-187738148D01*
X167952494Y-187743017D01*
X167954628Y-187747592D01*
X167954630Y-187747599D01*
X168056347Y-187965731D01*
X168058484Y-187970313D01*
X168061326Y-187974494D01*
X168061326Y-187974495D01*
X168196605Y-188173552D01*
X168196608Y-188173556D01*
X168199451Y-188177739D01*
X168202928Y-188181416D01*
X168202929Y-188181417D01*
X168303238Y-188287491D01*
X168371767Y-188359959D01*
X168375793Y-188363037D01*
X168375794Y-188363038D01*
X168566981Y-188509212D01*
X168566985Y-188509215D01*
X168571001Y-188512285D01*
X168792026Y-188630797D01*
X168796807Y-188632443D01*
X168796811Y-188632445D01*
X168993539Y-188700184D01*
X169029156Y-188712448D01*
X169132689Y-188730331D01*
X169272380Y-188754460D01*
X169272386Y-188754461D01*
X169276290Y-188755135D01*
X169280251Y-188755315D01*
X169280252Y-188755315D01*
X169304931Y-188756436D01*
X169304950Y-188756436D01*
X169306350Y-188756500D01*
X169481015Y-188756500D01*
X169483523Y-188756298D01*
X169483528Y-188756298D01*
X169662944Y-188741863D01*
X169662949Y-188741862D01*
X169667985Y-188741457D01*
X169672893Y-188740252D01*
X169672896Y-188740251D01*
X169906625Y-188682841D01*
X169911539Y-188681634D01*
X169916191Y-188679659D01*
X169916195Y-188679658D01*
X170137741Y-188585617D01*
X170137742Y-188585617D01*
X170142396Y-188583641D01*
X170315130Y-188474865D01*
X170350334Y-188452696D01*
X170350335Y-188452695D01*
X170354615Y-188450000D01*
X170542738Y-188284147D01*
X170701924Y-188090351D01*
X170828078Y-187873596D01*
X170859958Y-187790548D01*
X170916143Y-187644181D01*
X170917955Y-187639461D01*
X170941945Y-187524629D01*
X170968206Y-187398921D01*
X170969241Y-187393967D01*
X170969636Y-187385285D01*
X170975662Y-187252568D01*
X170980618Y-187143432D01*
X170951792Y-186894301D01*
X170912810Y-186756539D01*
X170884884Y-186657852D01*
X170884883Y-186657850D01*
X170883506Y-186652983D01*
X170881372Y-186648408D01*
X170881370Y-186648401D01*
X170779653Y-186430269D01*
X170779651Y-186430265D01*
X170777516Y-186425687D01*
X170774674Y-186421505D01*
X170639395Y-186222448D01*
X170639392Y-186222444D01*
X170636549Y-186218261D01*
X170535925Y-186111853D01*
X170467713Y-186039721D01*
X170464233Y-186036041D01*
X170460206Y-186032962D01*
X170269019Y-185886788D01*
X170269015Y-185886785D01*
X170264999Y-185883715D01*
X170203559Y-185850771D01*
X170048435Y-185767595D01*
X170043974Y-185765203D01*
X170039193Y-185763557D01*
X170039189Y-185763555D01*
X169811633Y-185685201D01*
X169806844Y-185683552D01*
X169703311Y-185665669D01*
X169563620Y-185641540D01*
X169563614Y-185641539D01*
X169559710Y-185640865D01*
X169555749Y-185640685D01*
X169555748Y-185640685D01*
X169531069Y-185639564D01*
X169531050Y-185639564D01*
X169529650Y-185639500D01*
X169354985Y-185639500D01*
X169352477Y-185639702D01*
X169352472Y-185639702D01*
X169173056Y-185654137D01*
X169173051Y-185654138D01*
X169168015Y-185654543D01*
X169163107Y-185655748D01*
X169163104Y-185655749D01*
X168931326Y-185712680D01*
X168924461Y-185714366D01*
X168919809Y-185716341D01*
X168919805Y-185716342D01*
X168698259Y-185810383D01*
X168693604Y-185812359D01*
X168632607Y-185850771D01*
X168490475Y-185940276D01*
X168481385Y-185946000D01*
X168293262Y-186111853D01*
X168134076Y-186305649D01*
X168007922Y-186522404D01*
X168006109Y-186527127D01*
X168006108Y-186527129D01*
X167996379Y-186552475D01*
X167918045Y-186756539D01*
X167866759Y-187002033D01*
X167866530Y-187007082D01*
X167866529Y-187007088D01*
X167866246Y-187013329D01*
X167855382Y-187252568D01*
X156000500Y-187252568D01*
X156000500Y-186996885D01*
X157690000Y-186996885D01*
X157694475Y-187012124D01*
X157695865Y-187013329D01*
X157703548Y-187015000D01*
X158898885Y-187015000D01*
X158914124Y-187010525D01*
X158915329Y-187009135D01*
X158917000Y-187001452D01*
X158917000Y-186996885D01*
X159679000Y-186996885D01*
X159683475Y-187012124D01*
X159684865Y-187013329D01*
X159692548Y-187015000D01*
X160887884Y-187015000D01*
X160903123Y-187010525D01*
X160904328Y-187009135D01*
X160905999Y-187001452D01*
X160905999Y-186996885D01*
X162690000Y-186996885D01*
X162694475Y-187012124D01*
X162695865Y-187013329D01*
X162703548Y-187015000D01*
X163898885Y-187015000D01*
X163914124Y-187010525D01*
X163915329Y-187009135D01*
X163917000Y-187001452D01*
X163917000Y-186996885D01*
X164679000Y-186996885D01*
X164683475Y-187012124D01*
X164684865Y-187013329D01*
X164692548Y-187015000D01*
X165887884Y-187015000D01*
X165903123Y-187010525D01*
X165904328Y-187009135D01*
X165905999Y-187001452D01*
X165905999Y-186251331D01*
X165905629Y-186244510D01*
X165900105Y-186193648D01*
X165896479Y-186178396D01*
X165851324Y-186057946D01*
X165842786Y-186042351D01*
X165766285Y-185940276D01*
X165753724Y-185927715D01*
X165651649Y-185851214D01*
X165636054Y-185842676D01*
X165515606Y-185797522D01*
X165500351Y-185793895D01*
X165449486Y-185788369D01*
X165442672Y-185788000D01*
X164697115Y-185788000D01*
X164681876Y-185792475D01*
X164680671Y-185793865D01*
X164679000Y-185801548D01*
X164679000Y-186996885D01*
X163917000Y-186996885D01*
X163917000Y-185806116D01*
X163912525Y-185790877D01*
X163911135Y-185789672D01*
X163903452Y-185788001D01*
X163153331Y-185788001D01*
X163146510Y-185788371D01*
X163095648Y-185793895D01*
X163080396Y-185797521D01*
X162959946Y-185842676D01*
X162944351Y-185851214D01*
X162842276Y-185927715D01*
X162829715Y-185940276D01*
X162753214Y-186042351D01*
X162744676Y-186057946D01*
X162699522Y-186178394D01*
X162695895Y-186193649D01*
X162690369Y-186244514D01*
X162690000Y-186251328D01*
X162690000Y-186996885D01*
X160905999Y-186996885D01*
X160905999Y-186251331D01*
X160905629Y-186244510D01*
X160900105Y-186193648D01*
X160896479Y-186178396D01*
X160851324Y-186057946D01*
X160842786Y-186042351D01*
X160766285Y-185940276D01*
X160753724Y-185927715D01*
X160651649Y-185851214D01*
X160636054Y-185842676D01*
X160515606Y-185797522D01*
X160500351Y-185793895D01*
X160449486Y-185788369D01*
X160442672Y-185788000D01*
X159697115Y-185788000D01*
X159681876Y-185792475D01*
X159680671Y-185793865D01*
X159679000Y-185801548D01*
X159679000Y-186996885D01*
X158917000Y-186996885D01*
X158917000Y-185806116D01*
X158912525Y-185790877D01*
X158911135Y-185789672D01*
X158903452Y-185788001D01*
X158153331Y-185788001D01*
X158146510Y-185788371D01*
X158095648Y-185793895D01*
X158080396Y-185797521D01*
X157959946Y-185842676D01*
X157944351Y-185851214D01*
X157842276Y-185927715D01*
X157829715Y-185940276D01*
X157753214Y-186042351D01*
X157744676Y-186057946D01*
X157699522Y-186178394D01*
X157695895Y-186193649D01*
X157690369Y-186244514D01*
X157690000Y-186251328D01*
X157690000Y-186996885D01*
X156000500Y-186996885D01*
X156000500Y-186247866D01*
X155993745Y-186185684D01*
X155942615Y-186049295D01*
X155855261Y-185932739D01*
X155738705Y-185845385D01*
X155602316Y-185794255D01*
X155540134Y-185787500D01*
X153243866Y-185787500D01*
X153181684Y-185794255D01*
X153045295Y-185845385D01*
X152928739Y-185932739D01*
X152841385Y-186049295D01*
X152790255Y-186185684D01*
X152783500Y-186247866D01*
X152783500Y-188544134D01*
X151000500Y-188544134D01*
X151000500Y-186247866D01*
X150993745Y-186185684D01*
X150942615Y-186049295D01*
X150855261Y-185932739D01*
X150738705Y-185845385D01*
X150602316Y-185794255D01*
X150540134Y-185787500D01*
X148243866Y-185787500D01*
X148181684Y-185794255D01*
X148045295Y-185845385D01*
X147928739Y-185932739D01*
X147841385Y-186049295D01*
X147790255Y-186185684D01*
X147783500Y-186247866D01*
X147783500Y-188544134D01*
X142563109Y-188544134D01*
X142516825Y-188474865D01*
X142508584Y-188460592D01*
X142398329Y-188237017D01*
X142392022Y-188221790D01*
X142311895Y-187985743D01*
X142307629Y-187969824D01*
X142258995Y-187725327D01*
X142256844Y-187708986D01*
X142242736Y-187493732D01*
X142243761Y-187470696D01*
X142243804Y-187467146D01*
X142245186Y-187458270D01*
X142241064Y-187426748D01*
X142240000Y-187410411D01*
X142240000Y-187061669D01*
X143676001Y-187061669D01*
X143676371Y-187068490D01*
X143681895Y-187119352D01*
X143685521Y-187134604D01*
X143730676Y-187255054D01*
X143739214Y-187270649D01*
X143815715Y-187372724D01*
X143828276Y-187385285D01*
X143930351Y-187461786D01*
X143945946Y-187470324D01*
X144066394Y-187515478D01*
X144081649Y-187519105D01*
X144132514Y-187524631D01*
X144139328Y-187525000D01*
X144634885Y-187525000D01*
X144650124Y-187520525D01*
X144651329Y-187519135D01*
X144653000Y-187511452D01*
X144653000Y-187506884D01*
X145415000Y-187506884D01*
X145419475Y-187522123D01*
X145420865Y-187523328D01*
X145428548Y-187524999D01*
X145928669Y-187524999D01*
X145935490Y-187524629D01*
X145986352Y-187519105D01*
X146001604Y-187515479D01*
X146122054Y-187470324D01*
X146137649Y-187461786D01*
X146239724Y-187385285D01*
X146252285Y-187372724D01*
X146328786Y-187270649D01*
X146337324Y-187255054D01*
X146382478Y-187134606D01*
X146386105Y-187119351D01*
X146391631Y-187068486D01*
X146392000Y-187061672D01*
X146392000Y-186566115D01*
X146387525Y-186550876D01*
X146386135Y-186549671D01*
X146378452Y-186548000D01*
X145433115Y-186548000D01*
X145417876Y-186552475D01*
X145416671Y-186553865D01*
X145415000Y-186561548D01*
X145415000Y-187506884D01*
X144653000Y-187506884D01*
X144653000Y-186566115D01*
X144648525Y-186550876D01*
X144647135Y-186549671D01*
X144639452Y-186548000D01*
X143694116Y-186548000D01*
X143678877Y-186552475D01*
X143677672Y-186553865D01*
X143676001Y-186561548D01*
X143676001Y-187061669D01*
X142240000Y-187061669D01*
X142240000Y-183593695D01*
X143671251Y-183593695D01*
X143671548Y-183598848D01*
X143671548Y-183598851D01*
X143677978Y-183710368D01*
X143684110Y-183816715D01*
X143685247Y-183821761D01*
X143685248Y-183821767D01*
X143705119Y-183909939D01*
X143733222Y-184034639D01*
X143817266Y-184241616D01*
X143933987Y-184432088D01*
X144080250Y-184600938D01*
X144084225Y-184604238D01*
X144084231Y-184604244D01*
X144089425Y-184608556D01*
X144129059Y-184667460D01*
X144130555Y-184738441D01*
X144093439Y-184798962D01*
X144053168Y-184823480D01*
X143945946Y-184863676D01*
X143930351Y-184872214D01*
X143828276Y-184948715D01*
X143815715Y-184961276D01*
X143739214Y-185063351D01*
X143730676Y-185078946D01*
X143685522Y-185199394D01*
X143681895Y-185214649D01*
X143676369Y-185265514D01*
X143676000Y-185272328D01*
X143676000Y-185767885D01*
X143680475Y-185783124D01*
X143681865Y-185784329D01*
X143689548Y-185786000D01*
X146373884Y-185786000D01*
X146389123Y-185781525D01*
X146390328Y-185780135D01*
X146391999Y-185772452D01*
X146391999Y-185272331D01*
X146391629Y-185265510D01*
X146386105Y-185214648D01*
X146382479Y-185199396D01*
X146337324Y-185078946D01*
X146328786Y-185063351D01*
X146252285Y-184961276D01*
X146239724Y-184948715D01*
X146137649Y-184872214D01*
X146122054Y-184863676D01*
X146011813Y-184822348D01*
X145955049Y-184779706D01*
X145930349Y-184713145D01*
X145945557Y-184643796D01*
X145967104Y-184615115D01*
X146068430Y-184514144D01*
X146068440Y-184514132D01*
X146072096Y-184510489D01*
X146131594Y-184427689D01*
X146199435Y-184333277D01*
X146202453Y-184329077D01*
X146301430Y-184128811D01*
X146366370Y-183915069D01*
X146395529Y-183693590D01*
X146395611Y-183690240D01*
X146397074Y-183630365D01*
X146397074Y-183630361D01*
X146397156Y-183627000D01*
X146378852Y-183404361D01*
X146324431Y-183187702D01*
X146235354Y-182982840D01*
X146114014Y-182795277D01*
X145963670Y-182630051D01*
X145959619Y-182626852D01*
X145959615Y-182626848D01*
X145792414Y-182494800D01*
X145792410Y-182494798D01*
X145788359Y-182491598D01*
X145747053Y-182468796D01*
X145697084Y-182418364D01*
X145682312Y-182348921D01*
X145684289Y-182343695D01*
X168055251Y-182343695D01*
X168055548Y-182348848D01*
X168055548Y-182348851D01*
X168061011Y-182443590D01*
X168068110Y-182566715D01*
X168069247Y-182571761D01*
X168069248Y-182571767D01*
X168083244Y-182633870D01*
X168117222Y-182784639D01*
X168201266Y-182991616D01*
X168317987Y-183182088D01*
X168464250Y-183350938D01*
X168636126Y-183493632D01*
X168829000Y-183606338D01*
X169037692Y-183686030D01*
X169042760Y-183687061D01*
X169042763Y-183687062D01*
X169150017Y-183708883D01*
X169256597Y-183730567D01*
X169261772Y-183730757D01*
X169261774Y-183730757D01*
X169474673Y-183738564D01*
X169474677Y-183738564D01*
X169479837Y-183738753D01*
X169484957Y-183738097D01*
X169484959Y-183738097D01*
X169696288Y-183711025D01*
X169696289Y-183711025D01*
X169701416Y-183710368D01*
X169706366Y-183708883D01*
X169910429Y-183647661D01*
X169910434Y-183647659D01*
X169915384Y-183646174D01*
X170115994Y-183547896D01*
X170297860Y-183418173D01*
X170306542Y-183409522D01*
X170452435Y-183264137D01*
X170456096Y-183260489D01*
X170508399Y-183187702D01*
X170583435Y-183083277D01*
X170586453Y-183079077D01*
X170631669Y-182987590D01*
X170683136Y-182883453D01*
X170683137Y-182883451D01*
X170685430Y-182878811D01*
X170750370Y-182665069D01*
X170779529Y-182443590D01*
X170779611Y-182440240D01*
X170781074Y-182380365D01*
X170781074Y-182380361D01*
X170781156Y-182377000D01*
X170762852Y-182154361D01*
X170708431Y-181937702D01*
X170619354Y-181732840D01*
X170532349Y-181598351D01*
X170500822Y-181549617D01*
X170500820Y-181549614D01*
X170498014Y-181545277D01*
X170347670Y-181380051D01*
X170343619Y-181376852D01*
X170343615Y-181376848D01*
X170176414Y-181244800D01*
X170176410Y-181244798D01*
X170172359Y-181241598D01*
X170131053Y-181218796D01*
X170081084Y-181168364D01*
X170066312Y-181098921D01*
X170091428Y-181032516D01*
X170118780Y-181005909D01*
X170162603Y-180974650D01*
X170297860Y-180878173D01*
X170306542Y-180869522D01*
X170393502Y-180782865D01*
X170456096Y-180720489D01*
X170508399Y-180647702D01*
X170583435Y-180543277D01*
X170586453Y-180539077D01*
X170631669Y-180447590D01*
X170683136Y-180343453D01*
X170683137Y-180343451D01*
X170685430Y-180338811D01*
X170750370Y-180125069D01*
X170779529Y-179903590D01*
X170781156Y-179837000D01*
X170762852Y-179614361D01*
X170708431Y-179397702D01*
X170619354Y-179192840D01*
X170554911Y-179093226D01*
X170500822Y-179009617D01*
X170500820Y-179009614D01*
X170498014Y-179005277D01*
X170347670Y-178840051D01*
X170343619Y-178836852D01*
X170343615Y-178836848D01*
X170176414Y-178704800D01*
X170176410Y-178704798D01*
X170172359Y-178701598D01*
X170131053Y-178678796D01*
X170081084Y-178628364D01*
X170066312Y-178558921D01*
X170091428Y-178492516D01*
X170118780Y-178465909D01*
X170162603Y-178434650D01*
X170297860Y-178338173D01*
X170304832Y-178331226D01*
X170452435Y-178184137D01*
X170456096Y-178180489D01*
X170515594Y-178097689D01*
X170583435Y-178003277D01*
X170586453Y-177999077D01*
X170594219Y-177983365D01*
X170683136Y-177803453D01*
X170683137Y-177803451D01*
X170685430Y-177798811D01*
X170729579Y-177653500D01*
X170748865Y-177590023D01*
X170748865Y-177590021D01*
X170750370Y-177585069D01*
X170779529Y-177363590D01*
X170781156Y-177297000D01*
X170762852Y-177074361D01*
X170708431Y-176857702D01*
X170619354Y-176652840D01*
X170498014Y-176465277D01*
X170347670Y-176300051D01*
X170343619Y-176296852D01*
X170343615Y-176296848D01*
X170176414Y-176164800D01*
X170176410Y-176164798D01*
X170172359Y-176161598D01*
X170130569Y-176138529D01*
X170080598Y-176088097D01*
X170065826Y-176018654D01*
X170090942Y-175952248D01*
X170118294Y-175925641D01*
X170293328Y-175800792D01*
X170301200Y-175794139D01*
X170452052Y-175643812D01*
X170458730Y-175635965D01*
X170583003Y-175463020D01*
X170588313Y-175454183D01*
X170682670Y-175263268D01*
X170686468Y-175253675D01*
X170716347Y-175155331D01*
X170716479Y-175141233D01*
X170709573Y-175138000D01*
X168129846Y-175138000D01*
X168116315Y-175141973D01*
X168114879Y-175151966D01*
X168116565Y-175159448D01*
X168119645Y-175169276D01*
X168199770Y-175366603D01*
X168204413Y-175375794D01*
X168315694Y-175557388D01*
X168321777Y-175565699D01*
X168461213Y-175726667D01*
X168468580Y-175733883D01*
X168632434Y-175869916D01*
X168640881Y-175875831D01*
X168709969Y-175916203D01*
X168758693Y-175967842D01*
X168771764Y-176037625D01*
X168745033Y-176103396D01*
X168704584Y-176136752D01*
X168691607Y-176143507D01*
X168687474Y-176146610D01*
X168687471Y-176146612D01*
X168663247Y-176164800D01*
X168512965Y-176277635D01*
X168358629Y-176439138D01*
X168232743Y-176623680D01*
X168138688Y-176826305D01*
X168078989Y-177041570D01*
X168055251Y-177263695D01*
X168055548Y-177268848D01*
X168055548Y-177268851D01*
X168067812Y-177481547D01*
X168068110Y-177486715D01*
X168069247Y-177491761D01*
X168069248Y-177491767D01*
X168089119Y-177579939D01*
X168117222Y-177704639D01*
X168201266Y-177911616D01*
X168317987Y-178102088D01*
X168464250Y-178270938D01*
X168636126Y-178413632D01*
X168706595Y-178454811D01*
X168709445Y-178456476D01*
X168758169Y-178508114D01*
X168771240Y-178577897D01*
X168744509Y-178643669D01*
X168704055Y-178677027D01*
X168691607Y-178683507D01*
X168687474Y-178686610D01*
X168687471Y-178686612D01*
X168517100Y-178814530D01*
X168512965Y-178817635D01*
X168480876Y-178851214D01*
X168396108Y-178939919D01*
X168358629Y-178979138D01*
X168355715Y-178983410D01*
X168355714Y-178983411D01*
X168331240Y-179019289D01*
X168232743Y-179163680D01*
X168218832Y-179193649D01*
X168146611Y-179349237D01*
X168138688Y-179366305D01*
X168078989Y-179581570D01*
X168055251Y-179803695D01*
X168055548Y-179808848D01*
X168055548Y-179808851D01*
X168067269Y-180012124D01*
X168068110Y-180026715D01*
X168069247Y-180031761D01*
X168069248Y-180031767D01*
X168083244Y-180093870D01*
X168117222Y-180244639D01*
X168201266Y-180451616D01*
X168317987Y-180642088D01*
X168464250Y-180810938D01*
X168636126Y-180953632D01*
X168706595Y-180994811D01*
X168709445Y-180996476D01*
X168758169Y-181048114D01*
X168771240Y-181117897D01*
X168744509Y-181183669D01*
X168704055Y-181217027D01*
X168691607Y-181223507D01*
X168687474Y-181226610D01*
X168687471Y-181226612D01*
X168517100Y-181354530D01*
X168512965Y-181357635D01*
X168358629Y-181519138D01*
X168355715Y-181523410D01*
X168355714Y-181523411D01*
X168304593Y-181598352D01*
X168232743Y-181703680D01*
X168218644Y-181734054D01*
X168164024Y-181851724D01*
X168138688Y-181906305D01*
X168078989Y-182121570D01*
X168055251Y-182343695D01*
X145684289Y-182343695D01*
X145707428Y-182282516D01*
X145734780Y-182255909D01*
X145778603Y-182224650D01*
X145913860Y-182128173D01*
X146072096Y-181970489D01*
X146099068Y-181932954D01*
X146199435Y-181793277D01*
X146202453Y-181789077D01*
X146221940Y-181749649D01*
X146299136Y-181593453D01*
X146299137Y-181593451D01*
X146301430Y-181588811D01*
X146315004Y-181544134D01*
X147783500Y-181544134D01*
X147790255Y-181606316D01*
X147841385Y-181742705D01*
X147928739Y-181859261D01*
X148045295Y-181946615D01*
X148181684Y-181997745D01*
X148243866Y-182004500D01*
X150540134Y-182004500D01*
X150602316Y-181997745D01*
X150738705Y-181946615D01*
X150855261Y-181859261D01*
X150942615Y-181742705D01*
X150993745Y-181606316D01*
X151000500Y-181544134D01*
X152783500Y-181544134D01*
X152790255Y-181606316D01*
X152841385Y-181742705D01*
X152928739Y-181859261D01*
X153045295Y-181946615D01*
X153181684Y-181997745D01*
X153243866Y-182004500D01*
X155540134Y-182004500D01*
X155602316Y-181997745D01*
X155738705Y-181946615D01*
X155855261Y-181859261D01*
X155942615Y-181742705D01*
X155993745Y-181606316D01*
X156000500Y-181544134D01*
X156000500Y-181540669D01*
X157690001Y-181540669D01*
X157690371Y-181547490D01*
X157695895Y-181598352D01*
X157699521Y-181613604D01*
X157744676Y-181734054D01*
X157753214Y-181749649D01*
X157829715Y-181851724D01*
X157842276Y-181864285D01*
X157944351Y-181940786D01*
X157959946Y-181949324D01*
X158080394Y-181994478D01*
X158095649Y-181998105D01*
X158146514Y-182003631D01*
X158153328Y-182004000D01*
X158898885Y-182004000D01*
X158914124Y-181999525D01*
X158915329Y-181998135D01*
X158917000Y-181990452D01*
X158917000Y-181985884D01*
X159679000Y-181985884D01*
X159683475Y-182001123D01*
X159684865Y-182002328D01*
X159692548Y-182003999D01*
X160442669Y-182003999D01*
X160449490Y-182003629D01*
X160500352Y-181998105D01*
X160515604Y-181994479D01*
X160636054Y-181949324D01*
X160651649Y-181940786D01*
X160753724Y-181864285D01*
X160766285Y-181851724D01*
X160842786Y-181749649D01*
X160851324Y-181734054D01*
X160896478Y-181613606D01*
X160900105Y-181598351D01*
X160905631Y-181547486D01*
X160906000Y-181540672D01*
X160906000Y-181540669D01*
X162690001Y-181540669D01*
X162690371Y-181547490D01*
X162695895Y-181598352D01*
X162699521Y-181613604D01*
X162744676Y-181734054D01*
X162753214Y-181749649D01*
X162829715Y-181851724D01*
X162842276Y-181864285D01*
X162944351Y-181940786D01*
X162959946Y-181949324D01*
X163080394Y-181994478D01*
X163095649Y-181998105D01*
X163146514Y-182003631D01*
X163153328Y-182004000D01*
X163898885Y-182004000D01*
X163914124Y-181999525D01*
X163915329Y-181998135D01*
X163917000Y-181990452D01*
X163917000Y-181985884D01*
X164679000Y-181985884D01*
X164683475Y-182001123D01*
X164684865Y-182002328D01*
X164692548Y-182003999D01*
X165442669Y-182003999D01*
X165449490Y-182003629D01*
X165500352Y-181998105D01*
X165515604Y-181994479D01*
X165636054Y-181949324D01*
X165651649Y-181940786D01*
X165753724Y-181864285D01*
X165766285Y-181851724D01*
X165842786Y-181749649D01*
X165851324Y-181734054D01*
X165896478Y-181613606D01*
X165900105Y-181598351D01*
X165905631Y-181547486D01*
X165906000Y-181540672D01*
X165906000Y-180795115D01*
X165901525Y-180779876D01*
X165900135Y-180778671D01*
X165892452Y-180777000D01*
X164697115Y-180777000D01*
X164681876Y-180781475D01*
X164680671Y-180782865D01*
X164679000Y-180790548D01*
X164679000Y-181985884D01*
X163917000Y-181985884D01*
X163917000Y-180795115D01*
X163912525Y-180779876D01*
X163911135Y-180778671D01*
X163903452Y-180777000D01*
X162708116Y-180777000D01*
X162692877Y-180781475D01*
X162691672Y-180782865D01*
X162690001Y-180790548D01*
X162690001Y-181540669D01*
X160906000Y-181540669D01*
X160906000Y-180795115D01*
X160901525Y-180779876D01*
X160900135Y-180778671D01*
X160892452Y-180777000D01*
X159697115Y-180777000D01*
X159681876Y-180781475D01*
X159680671Y-180782865D01*
X159679000Y-180790548D01*
X159679000Y-181985884D01*
X158917000Y-181985884D01*
X158917000Y-180795115D01*
X158912525Y-180779876D01*
X158911135Y-180778671D01*
X158903452Y-180777000D01*
X157708116Y-180777000D01*
X157692877Y-180781475D01*
X157691672Y-180782865D01*
X157690001Y-180790548D01*
X157690001Y-181540669D01*
X156000500Y-181540669D01*
X156000500Y-179247866D01*
X155993745Y-179185684D01*
X155942615Y-179049295D01*
X155855261Y-178932739D01*
X155738705Y-178845385D01*
X155602316Y-178794255D01*
X155540134Y-178787500D01*
X153243866Y-178787500D01*
X153181684Y-178794255D01*
X153045295Y-178845385D01*
X152928739Y-178932739D01*
X152841385Y-179049295D01*
X152790255Y-179185684D01*
X152783500Y-179247866D01*
X152783500Y-181544134D01*
X151000500Y-181544134D01*
X151000500Y-179247866D01*
X150993745Y-179185684D01*
X150942615Y-179049295D01*
X150855261Y-178932739D01*
X150738705Y-178845385D01*
X150602316Y-178794255D01*
X150540134Y-178787500D01*
X148243866Y-178787500D01*
X148181684Y-178794255D01*
X148045295Y-178845385D01*
X147928739Y-178932739D01*
X147841385Y-179049295D01*
X147790255Y-179185684D01*
X147783500Y-179247866D01*
X147783500Y-181544134D01*
X146315004Y-181544134D01*
X146366370Y-181375069D01*
X146395529Y-181153590D01*
X146395611Y-181150240D01*
X146397074Y-181090365D01*
X146397074Y-181090361D01*
X146397156Y-181087000D01*
X146378852Y-180864361D01*
X146324431Y-180647702D01*
X146235354Y-180442840D01*
X146114014Y-180255277D01*
X145963670Y-180090051D01*
X145959619Y-180086852D01*
X145959615Y-180086848D01*
X145792414Y-179954800D01*
X145792410Y-179954798D01*
X145788359Y-179951598D01*
X145592789Y-179843638D01*
X145587920Y-179841914D01*
X145587916Y-179841912D01*
X145387087Y-179770795D01*
X145387083Y-179770794D01*
X145382212Y-179769069D01*
X145377119Y-179768162D01*
X145377116Y-179768161D01*
X145167373Y-179730800D01*
X145167367Y-179730799D01*
X145162284Y-179729894D01*
X145088452Y-179728992D01*
X144944081Y-179727228D01*
X144944079Y-179727228D01*
X144938911Y-179727165D01*
X144718091Y-179760955D01*
X144505756Y-179830357D01*
X144307607Y-179933507D01*
X144303474Y-179936610D01*
X144303471Y-179936612D01*
X144133100Y-180064530D01*
X144128965Y-180067635D01*
X143974629Y-180229138D01*
X143848743Y-180413680D01*
X143754688Y-180616305D01*
X143694989Y-180831570D01*
X143671251Y-181053695D01*
X143671548Y-181058848D01*
X143671548Y-181058851D01*
X143680904Y-181221118D01*
X143684110Y-181276715D01*
X143685247Y-181281761D01*
X143685248Y-181281767D01*
X143702346Y-181357635D01*
X143733222Y-181494639D01*
X143817266Y-181701616D01*
X143819965Y-181706020D01*
X143913871Y-181859261D01*
X143933987Y-181892088D01*
X144080250Y-182060938D01*
X144252126Y-182203632D01*
X144322595Y-182244811D01*
X144325445Y-182246476D01*
X144374169Y-182298114D01*
X144387240Y-182367897D01*
X144360509Y-182433669D01*
X144320055Y-182467027D01*
X144307607Y-182473507D01*
X144303474Y-182476610D01*
X144303471Y-182476612D01*
X144133100Y-182604530D01*
X144128965Y-182607635D01*
X143974629Y-182769138D01*
X143848743Y-182953680D01*
X143754688Y-183156305D01*
X143694989Y-183371570D01*
X143671251Y-183593695D01*
X142240000Y-183593695D01*
X142240000Y-177800000D01*
X157582496Y-177800000D01*
X157583186Y-177806565D01*
X157590826Y-177879251D01*
X157602458Y-177989928D01*
X157661473Y-178171556D01*
X157664776Y-178177278D01*
X157664777Y-178177279D01*
X157669074Y-178184721D01*
X157756960Y-178336944D01*
X157761378Y-178341851D01*
X157761379Y-178341852D01*
X157880325Y-178473955D01*
X157884747Y-178478866D01*
X157950086Y-178526338D01*
X158033903Y-178587235D01*
X158033906Y-178587236D01*
X158039248Y-178591118D01*
X158042670Y-178592641D01*
X158090931Y-178643256D01*
X158104368Y-178712969D01*
X158077981Y-178778880D01*
X158023168Y-178818975D01*
X157959946Y-178842676D01*
X157944351Y-178851214D01*
X157842276Y-178927715D01*
X157829715Y-178940276D01*
X157753214Y-179042351D01*
X157744676Y-179057946D01*
X157699522Y-179178394D01*
X157695895Y-179193649D01*
X157690369Y-179244514D01*
X157690000Y-179251328D01*
X157690000Y-179996885D01*
X157694475Y-180012124D01*
X157695865Y-180013329D01*
X157703548Y-180015000D01*
X158898885Y-180015000D01*
X158914124Y-180010525D01*
X158915329Y-180009135D01*
X158917000Y-180001452D01*
X158917000Y-179996885D01*
X159679000Y-179996885D01*
X159683475Y-180012124D01*
X159684865Y-180013329D01*
X159692548Y-180015000D01*
X160887884Y-180015000D01*
X160903123Y-180010525D01*
X160904328Y-180009135D01*
X160905999Y-180001452D01*
X160905999Y-179996885D01*
X162690000Y-179996885D01*
X162694475Y-180012124D01*
X162695865Y-180013329D01*
X162703548Y-180015000D01*
X163898885Y-180015000D01*
X163914124Y-180010525D01*
X163915329Y-180009135D01*
X163917000Y-180001452D01*
X163917000Y-179996885D01*
X164679000Y-179996885D01*
X164683475Y-180012124D01*
X164684865Y-180013329D01*
X164692548Y-180015000D01*
X165887884Y-180015000D01*
X165903123Y-180010525D01*
X165904328Y-180009135D01*
X165905999Y-180001452D01*
X165905999Y-179251331D01*
X165905629Y-179244510D01*
X165900105Y-179193648D01*
X165894651Y-179170707D01*
X165896856Y-179170183D01*
X165892516Y-179110826D01*
X165926442Y-179048460D01*
X165988700Y-179014336D01*
X166059524Y-179019289D01*
X166116427Y-179061745D01*
X166124792Y-179074405D01*
X166138960Y-179098944D01*
X166143378Y-179103851D01*
X166143379Y-179103852D01*
X166224232Y-179193648D01*
X166266747Y-179240866D01*
X166421248Y-179353118D01*
X166427276Y-179355802D01*
X166427278Y-179355803D01*
X166532656Y-179402720D01*
X166595712Y-179430794D01*
X166689113Y-179450647D01*
X166776056Y-179469128D01*
X166776061Y-179469128D01*
X166782513Y-179470500D01*
X166973487Y-179470500D01*
X166979939Y-179469128D01*
X166979944Y-179469128D01*
X167066887Y-179450647D01*
X167160288Y-179430794D01*
X167223344Y-179402720D01*
X167328722Y-179355803D01*
X167328724Y-179355802D01*
X167334752Y-179353118D01*
X167489253Y-179240866D01*
X167531768Y-179193648D01*
X167612621Y-179103852D01*
X167612622Y-179103851D01*
X167617040Y-179098944D01*
X167712527Y-178933556D01*
X167771542Y-178751928D01*
X167776107Y-178708500D01*
X167790814Y-178568565D01*
X167791504Y-178562000D01*
X167784201Y-178492516D01*
X167772232Y-178378635D01*
X167772232Y-178378633D01*
X167771542Y-178372072D01*
X167712527Y-178190444D01*
X167706780Y-178180489D01*
X167663767Y-178105990D01*
X167617040Y-178025056D01*
X167593649Y-177999077D01*
X167493675Y-177888045D01*
X167493674Y-177888044D01*
X167489253Y-177883134D01*
X167366374Y-177793857D01*
X167340094Y-177774763D01*
X167340093Y-177774762D01*
X167334752Y-177770882D01*
X167328724Y-177768198D01*
X167328722Y-177768197D01*
X167166319Y-177695891D01*
X167166318Y-177695891D01*
X167160288Y-177693206D01*
X167066888Y-177673353D01*
X166979944Y-177654872D01*
X166979939Y-177654872D01*
X166973487Y-177653500D01*
X166782513Y-177653500D01*
X166776061Y-177654872D01*
X166776056Y-177654872D01*
X166689112Y-177673353D01*
X166595712Y-177693206D01*
X166589682Y-177695891D01*
X166589681Y-177695891D01*
X166427278Y-177768197D01*
X166427276Y-177768198D01*
X166421248Y-177770882D01*
X166415907Y-177774762D01*
X166415906Y-177774763D01*
X166389626Y-177793857D01*
X166266747Y-177883134D01*
X166262326Y-177888044D01*
X166262325Y-177888045D01*
X166162352Y-177999077D01*
X166138960Y-178025056D01*
X166092233Y-178105990D01*
X166049221Y-178180489D01*
X166043473Y-178190444D01*
X165984458Y-178372072D01*
X165983768Y-178378633D01*
X165983768Y-178378635D01*
X165971799Y-178492516D01*
X165964496Y-178562000D01*
X165965186Y-178568565D01*
X165979894Y-178708500D01*
X165984458Y-178751928D01*
X165986498Y-178758206D01*
X166024914Y-178876439D01*
X166026941Y-178947407D01*
X165990279Y-179008204D01*
X165926567Y-179039530D01*
X165856033Y-179031437D01*
X165804254Y-178990939D01*
X165766284Y-178940275D01*
X165753724Y-178927715D01*
X165651649Y-178851214D01*
X165636054Y-178842676D01*
X165515606Y-178797522D01*
X165500351Y-178793895D01*
X165449486Y-178788369D01*
X165442672Y-178788000D01*
X164697115Y-178788000D01*
X164681876Y-178792475D01*
X164680671Y-178793865D01*
X164679000Y-178801548D01*
X164679000Y-179996885D01*
X163917000Y-179996885D01*
X163917000Y-178806116D01*
X163912525Y-178790877D01*
X163911135Y-178789672D01*
X163903452Y-178788001D01*
X163153331Y-178788001D01*
X163146510Y-178788371D01*
X163095648Y-178793895D01*
X163080396Y-178797521D01*
X162959946Y-178842676D01*
X162944351Y-178851214D01*
X162842276Y-178927715D01*
X162829715Y-178940276D01*
X162753214Y-179042351D01*
X162744676Y-179057946D01*
X162699522Y-179178394D01*
X162695895Y-179193649D01*
X162690369Y-179244514D01*
X162690000Y-179251328D01*
X162690000Y-179996885D01*
X160905999Y-179996885D01*
X160905999Y-179251331D01*
X160905629Y-179244510D01*
X160900105Y-179193648D01*
X160896479Y-179178396D01*
X160851324Y-179057946D01*
X160842786Y-179042351D01*
X160766285Y-178940276D01*
X160753724Y-178927715D01*
X160651649Y-178851214D01*
X160636054Y-178842676D01*
X160515606Y-178797522D01*
X160500351Y-178793895D01*
X160449486Y-178788369D01*
X160442672Y-178788000D01*
X159697115Y-178788000D01*
X159681876Y-178792475D01*
X159680671Y-178793865D01*
X159679000Y-178801548D01*
X159679000Y-179996885D01*
X158917000Y-179996885D01*
X158917000Y-178806116D01*
X158908460Y-178777030D01*
X158885048Y-178740603D01*
X158885047Y-178669606D01*
X158923430Y-178609880D01*
X158942943Y-178595984D01*
X158946718Y-178593804D01*
X158952752Y-178591118D01*
X158958094Y-178587236D01*
X158958097Y-178587235D01*
X159041914Y-178526338D01*
X159107253Y-178478866D01*
X159111675Y-178473955D01*
X159230621Y-178341852D01*
X159230622Y-178341851D01*
X159235040Y-178336944D01*
X159322926Y-178184721D01*
X159327223Y-178177279D01*
X159327224Y-178177278D01*
X159330527Y-178171556D01*
X159389542Y-177989928D01*
X159401175Y-177879251D01*
X159408814Y-177806565D01*
X159409504Y-177800000D01*
X159398280Y-177693206D01*
X159390232Y-177616635D01*
X159390232Y-177616633D01*
X159389542Y-177610072D01*
X159330527Y-177428444D01*
X159235040Y-177263056D01*
X159107253Y-177121134D01*
X158952752Y-177008882D01*
X158946724Y-177006198D01*
X158946722Y-177006197D01*
X158784319Y-176933891D01*
X158784318Y-176933891D01*
X158778288Y-176931206D01*
X158684887Y-176911353D01*
X158597944Y-176892872D01*
X158597939Y-176892872D01*
X158591487Y-176891500D01*
X158400513Y-176891500D01*
X158394061Y-176892872D01*
X158394056Y-176892872D01*
X158307113Y-176911353D01*
X158213712Y-176931206D01*
X158207682Y-176933891D01*
X158207681Y-176933891D01*
X158045278Y-177006197D01*
X158045276Y-177006198D01*
X158039248Y-177008882D01*
X157884747Y-177121134D01*
X157756960Y-177263056D01*
X157661473Y-177428444D01*
X157602458Y-177610072D01*
X157601768Y-177616633D01*
X157601768Y-177616635D01*
X157593720Y-177693206D01*
X157582496Y-177800000D01*
X142240000Y-177800000D01*
X142240000Y-172720000D01*
X156312496Y-172720000D01*
X156332458Y-172909928D01*
X156391473Y-173091556D01*
X156486960Y-173256944D01*
X156491378Y-173261851D01*
X156491379Y-173261852D01*
X156585326Y-173366191D01*
X156614747Y-173398866D01*
X156769248Y-173511118D01*
X156775276Y-173513802D01*
X156775278Y-173513803D01*
X156913853Y-173575500D01*
X156943712Y-173588794D01*
X157016977Y-173604367D01*
X157124056Y-173627128D01*
X157124061Y-173627128D01*
X157130513Y-173628500D01*
X157321487Y-173628500D01*
X157327939Y-173627128D01*
X157327944Y-173627128D01*
X157435023Y-173604367D01*
X157508288Y-173588794D01*
X157538147Y-173575500D01*
X157676722Y-173513803D01*
X157676724Y-173513802D01*
X157682752Y-173511118D01*
X157837253Y-173398866D01*
X157866674Y-173366191D01*
X157960621Y-173261852D01*
X157960622Y-173261851D01*
X157965040Y-173256944D01*
X158060527Y-173091556D01*
X158119542Y-172909928D01*
X158139504Y-172720000D01*
X158119542Y-172530072D01*
X158060527Y-172348444D01*
X157965040Y-172183056D01*
X157885254Y-172094444D01*
X157841675Y-172046045D01*
X157841674Y-172046044D01*
X157837253Y-172041134D01*
X157682752Y-171928882D01*
X157676724Y-171926198D01*
X157676722Y-171926197D01*
X157514319Y-171853891D01*
X157514318Y-171853891D01*
X157508288Y-171851206D01*
X157414887Y-171831353D01*
X157327944Y-171812872D01*
X157327939Y-171812872D01*
X157321487Y-171811500D01*
X157130513Y-171811500D01*
X157124061Y-171812872D01*
X157124056Y-171812872D01*
X157037113Y-171831353D01*
X156943712Y-171851206D01*
X156937682Y-171853891D01*
X156937681Y-171853891D01*
X156775278Y-171926197D01*
X156775276Y-171926198D01*
X156769248Y-171928882D01*
X156614747Y-172041134D01*
X156610326Y-172046044D01*
X156610325Y-172046045D01*
X156566747Y-172094444D01*
X156486960Y-172183056D01*
X156391473Y-172348444D01*
X156332458Y-172530072D01*
X156312496Y-172720000D01*
X142240000Y-172720000D01*
X142240000Y-171474000D01*
X158789546Y-171474000D01*
X158790236Y-171480565D01*
X158804611Y-171617331D01*
X158809508Y-171663928D01*
X158868523Y-171845556D01*
X158964010Y-172010944D01*
X159091797Y-172152866D01*
X159246298Y-172265118D01*
X159252332Y-172267805D01*
X159252333Y-172267805D01*
X159291929Y-172285434D01*
X159346026Y-172331413D01*
X159366676Y-172399340D01*
X159365992Y-172413709D01*
X159360496Y-172466000D01*
X159380458Y-172655928D01*
X159439473Y-172837556D01*
X159534960Y-173002944D01*
X159539378Y-173007851D01*
X159539379Y-173007852D01*
X159635976Y-173115134D01*
X159662747Y-173144866D01*
X159817248Y-173257118D01*
X159823276Y-173259802D01*
X159823278Y-173259803D01*
X159958958Y-173320211D01*
X160013053Y-173366191D01*
X160033703Y-173434118D01*
X160016828Y-173498318D01*
X159947473Y-173618444D01*
X159888458Y-173800072D01*
X159887768Y-173806633D01*
X159887768Y-173806635D01*
X159871839Y-173958197D01*
X159868496Y-173990000D01*
X159869186Y-173996565D01*
X159881930Y-174117814D01*
X159888458Y-174179928D01*
X159947473Y-174361556D01*
X160042960Y-174526944D01*
X160047378Y-174531851D01*
X160047379Y-174531852D01*
X160074589Y-174562072D01*
X160170747Y-174668866D01*
X160269843Y-174740864D01*
X160294207Y-174758565D01*
X160325248Y-174781118D01*
X160331276Y-174783802D01*
X160331278Y-174783803D01*
X160380314Y-174805635D01*
X160499712Y-174858794D01*
X160593112Y-174878647D01*
X160680056Y-174897128D01*
X160680061Y-174897128D01*
X160686513Y-174898500D01*
X160877487Y-174898500D01*
X160883939Y-174897128D01*
X160883944Y-174897128D01*
X160970888Y-174878647D01*
X161064288Y-174858794D01*
X161230116Y-174784963D01*
X161300482Y-174775529D01*
X161364779Y-174805635D01*
X161402593Y-174865724D01*
X161406674Y-174886899D01*
X161411768Y-174935365D01*
X161412458Y-174941928D01*
X161471473Y-175123556D01*
X161474776Y-175129278D01*
X161474777Y-175129279D01*
X161508686Y-175188010D01*
X161566960Y-175288944D01*
X161694747Y-175430866D01*
X161849248Y-175543118D01*
X161855276Y-175545802D01*
X161855278Y-175545803D01*
X162017681Y-175618109D01*
X162023712Y-175620794D01*
X162095086Y-175635965D01*
X162204056Y-175659128D01*
X162204061Y-175659128D01*
X162210513Y-175660500D01*
X162401487Y-175660500D01*
X162407939Y-175659128D01*
X162407944Y-175659128D01*
X162516914Y-175635965D01*
X162588288Y-175620794D01*
X162594319Y-175618109D01*
X162756722Y-175545803D01*
X162756724Y-175545802D01*
X162762752Y-175543118D01*
X162917253Y-175430866D01*
X163045040Y-175288944D01*
X163103314Y-175188010D01*
X163137223Y-175129279D01*
X163137224Y-175129278D01*
X163140527Y-175123556D01*
X163199542Y-174941928D01*
X163204107Y-174898500D01*
X163218814Y-174758565D01*
X163219504Y-174752000D01*
X163218814Y-174745435D01*
X163200232Y-174568635D01*
X163200232Y-174568633D01*
X163199542Y-174562072D01*
X163140527Y-174380444D01*
X163135668Y-174372027D01*
X163048341Y-174220774D01*
X163045040Y-174215056D01*
X163019064Y-174186206D01*
X162921675Y-174078045D01*
X162921674Y-174078044D01*
X162917253Y-174073134D01*
X162802829Y-173990000D01*
X162768094Y-173964763D01*
X162768093Y-173964762D01*
X162762752Y-173960882D01*
X162756724Y-173958198D01*
X162756722Y-173958197D01*
X162594319Y-173885891D01*
X162594318Y-173885891D01*
X162588288Y-173883206D01*
X162494887Y-173863353D01*
X162407944Y-173844872D01*
X162407939Y-173844872D01*
X162401487Y-173843500D01*
X162210513Y-173843500D01*
X162204061Y-173844872D01*
X162204056Y-173844872D01*
X162117113Y-173863353D01*
X162023712Y-173883206D01*
X161857884Y-173957037D01*
X161787518Y-173966471D01*
X161723221Y-173936365D01*
X161685407Y-173876276D01*
X161681326Y-173855101D01*
X161676232Y-173806635D01*
X161676232Y-173806633D01*
X161675542Y-173800072D01*
X161616527Y-173618444D01*
X161521040Y-173453056D01*
X161505361Y-173435642D01*
X161397675Y-173316045D01*
X161397674Y-173316044D01*
X161393253Y-173311134D01*
X161238752Y-173198882D01*
X161232724Y-173196198D01*
X161232722Y-173196197D01*
X161097042Y-173135789D01*
X161072742Y-173115134D01*
X168059500Y-173115134D01*
X168066255Y-173177316D01*
X168117385Y-173313705D01*
X168204739Y-173430261D01*
X168321295Y-173517615D01*
X168329704Y-173520767D01*
X168329705Y-173520768D01*
X168438960Y-173561726D01*
X168495725Y-173604367D01*
X168520425Y-173670929D01*
X168505218Y-173740278D01*
X168485825Y-173766759D01*
X168362590Y-173895717D01*
X168356104Y-173903727D01*
X168236098Y-174079649D01*
X168231000Y-174088623D01*
X168141338Y-174281783D01*
X168137775Y-174291470D01*
X168119174Y-174358541D01*
X168119387Y-174372644D01*
X168127038Y-174376000D01*
X170704443Y-174376000D01*
X170717974Y-174372027D01*
X170719279Y-174362947D01*
X170709214Y-174322874D01*
X170705896Y-174313126D01*
X170620972Y-174117814D01*
X170616105Y-174108739D01*
X170500426Y-173929926D01*
X170494136Y-173921757D01*
X170350293Y-173763677D01*
X170319241Y-173699831D01*
X170327635Y-173629333D01*
X170372812Y-173574564D01*
X170399256Y-173560895D01*
X170506297Y-173520767D01*
X170514705Y-173517615D01*
X170631261Y-173430261D01*
X170718615Y-173313705D01*
X170769745Y-173177316D01*
X170776500Y-173115134D01*
X170776500Y-171318866D01*
X170769745Y-171256684D01*
X170718615Y-171120295D01*
X170631261Y-171003739D01*
X170514705Y-170916385D01*
X170378316Y-170865255D01*
X170316134Y-170858500D01*
X168519866Y-170858500D01*
X168457684Y-170865255D01*
X168321295Y-170916385D01*
X168204739Y-171003739D01*
X168117385Y-171120295D01*
X168066255Y-171256684D01*
X168059500Y-171318866D01*
X168059500Y-173115134D01*
X161072742Y-173115134D01*
X161042947Y-173089809D01*
X161022297Y-173021882D01*
X161039172Y-172957682D01*
X161105223Y-172843279D01*
X161105224Y-172843278D01*
X161108527Y-172837556D01*
X161167542Y-172655928D01*
X161187504Y-172466000D01*
X161173359Y-172331413D01*
X161168232Y-172282635D01*
X161168232Y-172282633D01*
X161167542Y-172276072D01*
X161108527Y-172094444D01*
X161013040Y-171929056D01*
X160885253Y-171787134D01*
X160730752Y-171674882D01*
X160720250Y-171670206D01*
X160685121Y-171654566D01*
X160631024Y-171608587D01*
X160610374Y-171540660D01*
X160611058Y-171526288D01*
X160615864Y-171480565D01*
X160616554Y-171474000D01*
X160596592Y-171284072D01*
X160537577Y-171102444D01*
X160442090Y-170937056D01*
X160428328Y-170921771D01*
X160318725Y-170800045D01*
X160318724Y-170800044D01*
X160314303Y-170795134D01*
X160159802Y-170682882D01*
X160153774Y-170680198D01*
X160153772Y-170680197D01*
X159991369Y-170607891D01*
X159991368Y-170607891D01*
X159985338Y-170605206D01*
X159891938Y-170585353D01*
X159804994Y-170566872D01*
X159804989Y-170566872D01*
X159798537Y-170565500D01*
X159607563Y-170565500D01*
X159601111Y-170566872D01*
X159601106Y-170566872D01*
X159514162Y-170585353D01*
X159420762Y-170605206D01*
X159414732Y-170607891D01*
X159414731Y-170607891D01*
X159252328Y-170680197D01*
X159252326Y-170680198D01*
X159246298Y-170682882D01*
X159091797Y-170795134D01*
X159087376Y-170800044D01*
X159087375Y-170800045D01*
X158977773Y-170921771D01*
X158964010Y-170937056D01*
X158868523Y-171102444D01*
X158809508Y-171284072D01*
X158789546Y-171474000D01*
X142240000Y-171474000D01*
X142240000Y-167640000D01*
X167488496Y-167640000D01*
X167508458Y-167829928D01*
X167567473Y-168011556D01*
X167662960Y-168176944D01*
X167790747Y-168318866D01*
X167945248Y-168431118D01*
X167951276Y-168433802D01*
X167951278Y-168433803D01*
X168113681Y-168506109D01*
X168119712Y-168508794D01*
X168213113Y-168528647D01*
X168300056Y-168547128D01*
X168300061Y-168547128D01*
X168306513Y-168548500D01*
X168497487Y-168548500D01*
X168503939Y-168547128D01*
X168503944Y-168547128D01*
X168590887Y-168528647D01*
X168684288Y-168508794D01*
X168690319Y-168506109D01*
X168852722Y-168433803D01*
X168852724Y-168433802D01*
X168858752Y-168431118D01*
X169013253Y-168318866D01*
X169141040Y-168176944D01*
X169236527Y-168011556D01*
X169295542Y-167829928D01*
X169315504Y-167640000D01*
X169295542Y-167450072D01*
X169236527Y-167268444D01*
X169141040Y-167103056D01*
X169013253Y-166961134D01*
X168858752Y-166848882D01*
X168852724Y-166846198D01*
X168852722Y-166846197D01*
X168690319Y-166773891D01*
X168690318Y-166773891D01*
X168684288Y-166771206D01*
X168590888Y-166751353D01*
X168503944Y-166732872D01*
X168503939Y-166732872D01*
X168497487Y-166731500D01*
X168306513Y-166731500D01*
X168300061Y-166732872D01*
X168300056Y-166732872D01*
X168213112Y-166751353D01*
X168119712Y-166771206D01*
X168113682Y-166773891D01*
X168113681Y-166773891D01*
X167951278Y-166846197D01*
X167951276Y-166846198D01*
X167945248Y-166848882D01*
X167790747Y-166961134D01*
X167662960Y-167103056D01*
X167567473Y-167268444D01*
X167508458Y-167450072D01*
X167488496Y-167640000D01*
X142240000Y-167640000D01*
X142240000Y-163068000D01*
X146660496Y-163068000D01*
X146661186Y-163074565D01*
X146678863Y-163242749D01*
X146680458Y-163257928D01*
X146739473Y-163439556D01*
X146834960Y-163604944D01*
X146962747Y-163746866D01*
X147117248Y-163859118D01*
X147123276Y-163861802D01*
X147123278Y-163861803D01*
X147285677Y-163934107D01*
X147291712Y-163936794D01*
X147385112Y-163956647D01*
X147472056Y-163975128D01*
X147472061Y-163975128D01*
X147478513Y-163976500D01*
X147669487Y-163976500D01*
X147675939Y-163975128D01*
X147675944Y-163975128D01*
X147835225Y-163941271D01*
X147856288Y-163936794D01*
X147862321Y-163934108D01*
X147862324Y-163934107D01*
X147869562Y-163930884D01*
X147939929Y-163921449D01*
X148004226Y-163951555D01*
X148029931Y-163982989D01*
X148104960Y-164112944D01*
X148232747Y-164254866D01*
X148387248Y-164367118D01*
X148393276Y-164369802D01*
X148393278Y-164369803D01*
X148555681Y-164442109D01*
X148561712Y-164444794D01*
X148655112Y-164464647D01*
X148742056Y-164483128D01*
X148742061Y-164483128D01*
X148748513Y-164484500D01*
X148939487Y-164484500D01*
X148945939Y-164483128D01*
X148945944Y-164483128D01*
X149032888Y-164464647D01*
X149126288Y-164444794D01*
X149132319Y-164442109D01*
X149294722Y-164369803D01*
X149294724Y-164369802D01*
X149300752Y-164367118D01*
X149455253Y-164254866D01*
X149583040Y-164112944D01*
X149678527Y-163947556D01*
X149737542Y-163765928D01*
X149739138Y-163750749D01*
X149756814Y-163582565D01*
X149757504Y-163576000D01*
X149756814Y-163569435D01*
X149738232Y-163392635D01*
X149738232Y-163392633D01*
X149737542Y-163386072D01*
X149678527Y-163204444D01*
X149583040Y-163039056D01*
X149537744Y-162988749D01*
X149459675Y-162902045D01*
X149459674Y-162902044D01*
X149455253Y-162897134D01*
X149300752Y-162784882D01*
X149294724Y-162782198D01*
X149294722Y-162782197D01*
X149132319Y-162709891D01*
X149132318Y-162709891D01*
X149126288Y-162707206D01*
X149013721Y-162683279D01*
X148945944Y-162668872D01*
X148945939Y-162668872D01*
X148939487Y-162667500D01*
X148748513Y-162667500D01*
X148742061Y-162668872D01*
X148742056Y-162668872D01*
X148612343Y-162696444D01*
X148561712Y-162707206D01*
X148555679Y-162709892D01*
X148555676Y-162709893D01*
X148548438Y-162713116D01*
X148478071Y-162722551D01*
X148413774Y-162692445D01*
X148388069Y-162661010D01*
X148329751Y-162560000D01*
X148313040Y-162531056D01*
X148287064Y-162502206D01*
X148189675Y-162394045D01*
X148189674Y-162394044D01*
X148185253Y-162389134D01*
X148070829Y-162306000D01*
X150470496Y-162306000D01*
X150471186Y-162312565D01*
X150488863Y-162480749D01*
X150490458Y-162495928D01*
X150549473Y-162677556D01*
X150644960Y-162842944D01*
X150649378Y-162847851D01*
X150649379Y-162847852D01*
X150768325Y-162979955D01*
X150772747Y-162984866D01*
X150840578Y-163034148D01*
X150896207Y-163074565D01*
X150927248Y-163097118D01*
X150933276Y-163099802D01*
X150933278Y-163099803D01*
X151095681Y-163172109D01*
X151101712Y-163174794D01*
X151195113Y-163194647D01*
X151282056Y-163213128D01*
X151282061Y-163213128D01*
X151288513Y-163214500D01*
X151479487Y-163214500D01*
X151485939Y-163213128D01*
X151485944Y-163213128D01*
X151572887Y-163194647D01*
X151666288Y-163174794D01*
X151672319Y-163172109D01*
X151834722Y-163099803D01*
X151834724Y-163099802D01*
X151840752Y-163097118D01*
X151871794Y-163074565D01*
X151927422Y-163034148D01*
X151995253Y-162984866D01*
X151999675Y-162979955D01*
X152118621Y-162847852D01*
X152118622Y-162847851D01*
X152123040Y-162842944D01*
X152218527Y-162677556D01*
X152277542Y-162495928D01*
X152279138Y-162480749D01*
X152296814Y-162312565D01*
X152297504Y-162306000D01*
X152286280Y-162199206D01*
X152278232Y-162122635D01*
X152278232Y-162122633D01*
X152277542Y-162116072D01*
X152218527Y-161934444D01*
X152139751Y-161798000D01*
X158090496Y-161798000D01*
X158091186Y-161804565D01*
X158098826Y-161877251D01*
X158110458Y-161987928D01*
X158169473Y-162169556D01*
X158264960Y-162334944D01*
X158269378Y-162339851D01*
X158269379Y-162339852D01*
X158313753Y-162389134D01*
X158392747Y-162476866D01*
X158460578Y-162526148D01*
X158516207Y-162566565D01*
X158547248Y-162589118D01*
X158553276Y-162591802D01*
X158553278Y-162591803D01*
X158715681Y-162664109D01*
X158721712Y-162666794D01*
X158815112Y-162686647D01*
X158902056Y-162705128D01*
X158902061Y-162705128D01*
X158908513Y-162706500D01*
X159099487Y-162706500D01*
X159105939Y-162705128D01*
X159105944Y-162705128D01*
X159192888Y-162686647D01*
X159286288Y-162666794D01*
X159292319Y-162664109D01*
X159454722Y-162591803D01*
X159454724Y-162591802D01*
X159460752Y-162589118D01*
X159491794Y-162566565D01*
X159500830Y-162560000D01*
X166472496Y-162560000D01*
X166473186Y-162566565D01*
X166489581Y-162722551D01*
X166492458Y-162749928D01*
X166551473Y-162931556D01*
X166646960Y-163096944D01*
X166774747Y-163238866D01*
X166929248Y-163351118D01*
X166935276Y-163353802D01*
X166935278Y-163353803D01*
X167007756Y-163386072D01*
X167103712Y-163428794D01*
X167197113Y-163448647D01*
X167284056Y-163467128D01*
X167284061Y-163467128D01*
X167290513Y-163468500D01*
X167481487Y-163468500D01*
X167487939Y-163467128D01*
X167487944Y-163467128D01*
X167574887Y-163448647D01*
X167668288Y-163428794D01*
X167764244Y-163386072D01*
X167836722Y-163353803D01*
X167836724Y-163353802D01*
X167842752Y-163351118D01*
X167997253Y-163238866D01*
X168125040Y-163096944D01*
X168220527Y-162931556D01*
X168279542Y-162749928D01*
X168282420Y-162722551D01*
X168298814Y-162566565D01*
X168299504Y-162560000D01*
X168292080Y-162489365D01*
X168280232Y-162376635D01*
X168280232Y-162376633D01*
X168279542Y-162370072D01*
X168220527Y-162188444D01*
X168125040Y-162023056D01*
X168099064Y-161994206D01*
X168001675Y-161886045D01*
X168001674Y-161886044D01*
X167997253Y-161881134D01*
X167882829Y-161798000D01*
X167848094Y-161772763D01*
X167848093Y-161772762D01*
X167842752Y-161768882D01*
X167836724Y-161766198D01*
X167836722Y-161766197D01*
X167674319Y-161693891D01*
X167674318Y-161693891D01*
X167668288Y-161691206D01*
X167574888Y-161671353D01*
X167487944Y-161652872D01*
X167487939Y-161652872D01*
X167481487Y-161651500D01*
X167290513Y-161651500D01*
X167284061Y-161652872D01*
X167284056Y-161652872D01*
X167197112Y-161671353D01*
X167103712Y-161691206D01*
X167097682Y-161693891D01*
X167097681Y-161693891D01*
X166935278Y-161766197D01*
X166935276Y-161766198D01*
X166929248Y-161768882D01*
X166923907Y-161772762D01*
X166923906Y-161772763D01*
X166889171Y-161798000D01*
X166774747Y-161881134D01*
X166770326Y-161886044D01*
X166770325Y-161886045D01*
X166672937Y-161994206D01*
X166646960Y-162023056D01*
X166551473Y-162188444D01*
X166492458Y-162370072D01*
X166491768Y-162376633D01*
X166491768Y-162376635D01*
X166479920Y-162489365D01*
X166472496Y-162560000D01*
X159500830Y-162560000D01*
X159547422Y-162526148D01*
X159615253Y-162476866D01*
X159694247Y-162389134D01*
X159738621Y-162339852D01*
X159738622Y-162339851D01*
X159743040Y-162334944D01*
X159838527Y-162169556D01*
X159897542Y-161987928D01*
X159909175Y-161877251D01*
X159916814Y-161804565D01*
X159917504Y-161798000D01*
X159906280Y-161691206D01*
X159898232Y-161614635D01*
X159898232Y-161614633D01*
X159897542Y-161608072D01*
X159838527Y-161426444D01*
X159743040Y-161261056D01*
X159615253Y-161119134D01*
X159460752Y-161006882D01*
X159454724Y-161004198D01*
X159454722Y-161004197D01*
X159292319Y-160931891D01*
X159292318Y-160931891D01*
X159286288Y-160929206D01*
X159192887Y-160909353D01*
X159105944Y-160890872D01*
X159105939Y-160890872D01*
X159099487Y-160889500D01*
X158908513Y-160889500D01*
X158902061Y-160890872D01*
X158902056Y-160890872D01*
X158815113Y-160909353D01*
X158721712Y-160929206D01*
X158715682Y-160931891D01*
X158715681Y-160931891D01*
X158553278Y-161004197D01*
X158553276Y-161004198D01*
X158547248Y-161006882D01*
X158392747Y-161119134D01*
X158264960Y-161261056D01*
X158169473Y-161426444D01*
X158110458Y-161608072D01*
X158109768Y-161614633D01*
X158109768Y-161614635D01*
X158101720Y-161691206D01*
X158090496Y-161798000D01*
X152139751Y-161798000D01*
X152123040Y-161769056D01*
X151995253Y-161627134D01*
X151840752Y-161514882D01*
X151834724Y-161512198D01*
X151834722Y-161512197D01*
X151672319Y-161439891D01*
X151672318Y-161439891D01*
X151666288Y-161437206D01*
X151572888Y-161417353D01*
X151485944Y-161398872D01*
X151485939Y-161398872D01*
X151479487Y-161397500D01*
X151288513Y-161397500D01*
X151282061Y-161398872D01*
X151282056Y-161398872D01*
X151195112Y-161417353D01*
X151101712Y-161437206D01*
X151095682Y-161439891D01*
X151095681Y-161439891D01*
X150933278Y-161512197D01*
X150933276Y-161512198D01*
X150927248Y-161514882D01*
X150772747Y-161627134D01*
X150644960Y-161769056D01*
X150549473Y-161934444D01*
X150490458Y-162116072D01*
X150489768Y-162122633D01*
X150489768Y-162122635D01*
X150481720Y-162199206D01*
X150470496Y-162306000D01*
X148070829Y-162306000D01*
X148036094Y-162280763D01*
X148036093Y-162280762D01*
X148030752Y-162276882D01*
X148024724Y-162274198D01*
X148024722Y-162274197D01*
X147862319Y-162201891D01*
X147862318Y-162201891D01*
X147856288Y-162199206D01*
X147743721Y-162175279D01*
X147675944Y-162160872D01*
X147675939Y-162160872D01*
X147669487Y-162159500D01*
X147478513Y-162159500D01*
X147472061Y-162160872D01*
X147472056Y-162160872D01*
X147404279Y-162175279D01*
X147291712Y-162199206D01*
X147285682Y-162201891D01*
X147285681Y-162201891D01*
X147123278Y-162274197D01*
X147123276Y-162274198D01*
X147117248Y-162276882D01*
X147111907Y-162280762D01*
X147111906Y-162280763D01*
X147077171Y-162306000D01*
X146962747Y-162389134D01*
X146958326Y-162394044D01*
X146958325Y-162394045D01*
X146860937Y-162502206D01*
X146834960Y-162531056D01*
X146739473Y-162696444D01*
X146680458Y-162878072D01*
X146679768Y-162884633D01*
X146679768Y-162884635D01*
X146664054Y-163034148D01*
X146660496Y-163068000D01*
X142240000Y-163068000D01*
X142240000Y-156972000D01*
X153010496Y-156972000D01*
X153011186Y-156978565D01*
X153020823Y-157070252D01*
X153030458Y-157161928D01*
X153089473Y-157343556D01*
X153184960Y-157508944D01*
X153312747Y-157650866D01*
X153467248Y-157763118D01*
X153473276Y-157765802D01*
X153473278Y-157765803D01*
X153635681Y-157838109D01*
X153641712Y-157840794D01*
X153735112Y-157860647D01*
X153822056Y-157879128D01*
X153822061Y-157879128D01*
X153828513Y-157880500D01*
X154019487Y-157880500D01*
X154025939Y-157879128D01*
X154025944Y-157879128D01*
X154112888Y-157860647D01*
X154206288Y-157840794D01*
X154212319Y-157838109D01*
X154374722Y-157765803D01*
X154374724Y-157765802D01*
X154380752Y-157763118D01*
X154484940Y-157687421D01*
X154551806Y-157663563D01*
X154620958Y-157679643D01*
X154633056Y-157687418D01*
X154737248Y-157763118D01*
X154743276Y-157765802D01*
X154743278Y-157765803D01*
X154905681Y-157838109D01*
X154911712Y-157840794D01*
X155005112Y-157860647D01*
X155092056Y-157879128D01*
X155092061Y-157879128D01*
X155098513Y-157880500D01*
X155289487Y-157880500D01*
X155295939Y-157879128D01*
X155295944Y-157879128D01*
X155382888Y-157860647D01*
X155476288Y-157840794D01*
X155482319Y-157838109D01*
X155644722Y-157765803D01*
X155644724Y-157765802D01*
X155650752Y-157763118D01*
X155805253Y-157650866D01*
X155933040Y-157508944D01*
X156028527Y-157343556D01*
X156087542Y-157161928D01*
X156097178Y-157070252D01*
X156106814Y-156978565D01*
X156107504Y-156972000D01*
X161138496Y-156972000D01*
X161139186Y-156978565D01*
X161148823Y-157070252D01*
X161158458Y-157161928D01*
X161217473Y-157343556D01*
X161312960Y-157508944D01*
X161440747Y-157650866D01*
X161595248Y-157763118D01*
X161601276Y-157765802D01*
X161601278Y-157765803D01*
X161763681Y-157838109D01*
X161769712Y-157840794D01*
X161863112Y-157860647D01*
X161950056Y-157879128D01*
X161950061Y-157879128D01*
X161956513Y-157880500D01*
X162147487Y-157880500D01*
X162153939Y-157879128D01*
X162153944Y-157879128D01*
X162240888Y-157860647D01*
X162334288Y-157840794D01*
X162340319Y-157838109D01*
X162502722Y-157765803D01*
X162502724Y-157765802D01*
X162508752Y-157763118D01*
X162663253Y-157650866D01*
X162791040Y-157508944D01*
X162886527Y-157343556D01*
X162945542Y-157161928D01*
X162945682Y-157160599D01*
X162978482Y-157099844D01*
X163040632Y-157065523D01*
X163111471Y-157070252D01*
X163168508Y-157112528D01*
X163190276Y-157160192D01*
X163190458Y-157161928D01*
X163249473Y-157343556D01*
X163344960Y-157508944D01*
X163472747Y-157650866D01*
X163627248Y-157763118D01*
X163633276Y-157765802D01*
X163633278Y-157765803D01*
X163795681Y-157838109D01*
X163801712Y-157840794D01*
X163895112Y-157860647D01*
X163982056Y-157879128D01*
X163982061Y-157879128D01*
X163988513Y-157880500D01*
X164179487Y-157880500D01*
X164185939Y-157879128D01*
X164185944Y-157879128D01*
X164272888Y-157860647D01*
X164366288Y-157840794D01*
X164372319Y-157838109D01*
X164534722Y-157765803D01*
X164534724Y-157765802D01*
X164540752Y-157763118D01*
X164695253Y-157650866D01*
X164823040Y-157508944D01*
X164918527Y-157343556D01*
X164977542Y-157161928D01*
X164987178Y-157070252D01*
X164996814Y-156978565D01*
X164997504Y-156972000D01*
X164996814Y-156965435D01*
X164978232Y-156788635D01*
X164978232Y-156788633D01*
X164977542Y-156782072D01*
X164918527Y-156600444D01*
X164823040Y-156435056D01*
X164695253Y-156293134D01*
X164540752Y-156180882D01*
X164534724Y-156178198D01*
X164534722Y-156178197D01*
X164372319Y-156105891D01*
X164372318Y-156105891D01*
X164366288Y-156103206D01*
X164272887Y-156083353D01*
X164185944Y-156064872D01*
X164185939Y-156064872D01*
X164179487Y-156063500D01*
X163988513Y-156063500D01*
X163982061Y-156064872D01*
X163982056Y-156064872D01*
X163895113Y-156083353D01*
X163801712Y-156103206D01*
X163795682Y-156105891D01*
X163795681Y-156105891D01*
X163633278Y-156178197D01*
X163633276Y-156178198D01*
X163627248Y-156180882D01*
X163472747Y-156293134D01*
X163344960Y-156435056D01*
X163249473Y-156600444D01*
X163190458Y-156782072D01*
X163190318Y-156783401D01*
X163157518Y-156844156D01*
X163095368Y-156878477D01*
X163024529Y-156873748D01*
X162967492Y-156831472D01*
X162945724Y-156783808D01*
X162945542Y-156782072D01*
X162886527Y-156600444D01*
X162791040Y-156435056D01*
X162663253Y-156293134D01*
X162508752Y-156180882D01*
X162502724Y-156178198D01*
X162502722Y-156178197D01*
X162340319Y-156105891D01*
X162340318Y-156105891D01*
X162334288Y-156103206D01*
X162240887Y-156083353D01*
X162153944Y-156064872D01*
X162153939Y-156064872D01*
X162147487Y-156063500D01*
X161956513Y-156063500D01*
X161950061Y-156064872D01*
X161950056Y-156064872D01*
X161863113Y-156083353D01*
X161769712Y-156103206D01*
X161763682Y-156105891D01*
X161763681Y-156105891D01*
X161601278Y-156178197D01*
X161601276Y-156178198D01*
X161595248Y-156180882D01*
X161440747Y-156293134D01*
X161312960Y-156435056D01*
X161217473Y-156600444D01*
X161158458Y-156782072D01*
X161157768Y-156788633D01*
X161157768Y-156788635D01*
X161139186Y-156965435D01*
X161138496Y-156972000D01*
X156107504Y-156972000D01*
X156106814Y-156965435D01*
X156088232Y-156788635D01*
X156088232Y-156788633D01*
X156087542Y-156782072D01*
X156028527Y-156600444D01*
X155933040Y-156435056D01*
X155805253Y-156293134D01*
X155650752Y-156180882D01*
X155644724Y-156178198D01*
X155644722Y-156178197D01*
X155482319Y-156105891D01*
X155482318Y-156105891D01*
X155476288Y-156103206D01*
X155382887Y-156083353D01*
X155295944Y-156064872D01*
X155295939Y-156064872D01*
X155289487Y-156063500D01*
X155098513Y-156063500D01*
X155092061Y-156064872D01*
X155092056Y-156064872D01*
X155005113Y-156083353D01*
X154911712Y-156103206D01*
X154905682Y-156105891D01*
X154905681Y-156105891D01*
X154743278Y-156178197D01*
X154743276Y-156178198D01*
X154737248Y-156180882D01*
X154633060Y-156256579D01*
X154566194Y-156280437D01*
X154497042Y-156264357D01*
X154484944Y-156256582D01*
X154380752Y-156180882D01*
X154374724Y-156178198D01*
X154374722Y-156178197D01*
X154212319Y-156105891D01*
X154212318Y-156105891D01*
X154206288Y-156103206D01*
X154112887Y-156083353D01*
X154025944Y-156064872D01*
X154025939Y-156064872D01*
X154019487Y-156063500D01*
X153828513Y-156063500D01*
X153822061Y-156064872D01*
X153822056Y-156064872D01*
X153735113Y-156083353D01*
X153641712Y-156103206D01*
X153635682Y-156105891D01*
X153635681Y-156105891D01*
X153473278Y-156178197D01*
X153473276Y-156178198D01*
X153467248Y-156180882D01*
X153312747Y-156293134D01*
X153184960Y-156435056D01*
X153089473Y-156600444D01*
X153030458Y-156782072D01*
X153029768Y-156788633D01*
X153029768Y-156788635D01*
X153011186Y-156965435D01*
X153010496Y-156972000D01*
X142240000Y-156972000D01*
X142240000Y-136652000D01*
X142596496Y-136652000D01*
X142616458Y-136841928D01*
X142675473Y-137023556D01*
X142770960Y-137188944D01*
X142898747Y-137330866D01*
X143053248Y-137443118D01*
X143059276Y-137445802D01*
X143059278Y-137445803D01*
X143221681Y-137518109D01*
X143227712Y-137520794D01*
X143321112Y-137540647D01*
X143408056Y-137559128D01*
X143408061Y-137559128D01*
X143414513Y-137560500D01*
X143605487Y-137560500D01*
X143611939Y-137559128D01*
X143611944Y-137559128D01*
X143698888Y-137540647D01*
X143792288Y-137520794D01*
X143966752Y-137443118D01*
X144037118Y-137433684D01*
X144069247Y-137443118D01*
X144069248Y-137443118D01*
X144243712Y-137520794D01*
X144337112Y-137540647D01*
X144424056Y-137559128D01*
X144424061Y-137559128D01*
X144430513Y-137560500D01*
X144621487Y-137560500D01*
X144627939Y-137559128D01*
X144627944Y-137559128D01*
X144714888Y-137540647D01*
X144808288Y-137520794D01*
X144982752Y-137443118D01*
X145053118Y-137433684D01*
X145085247Y-137443118D01*
X145085248Y-137443118D01*
X145259712Y-137520794D01*
X145353112Y-137540647D01*
X145440056Y-137559128D01*
X145440061Y-137559128D01*
X145446513Y-137560500D01*
X145637487Y-137560500D01*
X145643939Y-137559128D01*
X145643944Y-137559128D01*
X145730888Y-137540647D01*
X145824288Y-137520794D01*
X145830319Y-137518109D01*
X145992722Y-137445803D01*
X145992724Y-137445802D01*
X145998752Y-137443118D01*
X146153253Y-137330866D01*
X146281040Y-137188944D01*
X146376527Y-137023556D01*
X146435542Y-136841928D01*
X146455504Y-136652000D01*
X146443800Y-136540642D01*
X146436232Y-136468635D01*
X146436232Y-136468633D01*
X146435542Y-136462072D01*
X146376527Y-136280444D01*
X146367402Y-136264638D01*
X146339734Y-136216717D01*
X146336036Y-136210312D01*
X148037500Y-136210312D01*
X148044255Y-136272494D01*
X148095385Y-136408883D01*
X148182739Y-136525439D01*
X148299295Y-136612793D01*
X148435684Y-136663923D01*
X148497866Y-136670678D01*
X150794134Y-136670678D01*
X150856316Y-136663923D01*
X150992705Y-136612793D01*
X151109261Y-136525439D01*
X151196615Y-136408883D01*
X151247745Y-136272494D01*
X151254500Y-136210312D01*
X153037500Y-136210312D01*
X153044255Y-136272494D01*
X153095385Y-136408883D01*
X153182739Y-136525439D01*
X153299295Y-136612793D01*
X153435684Y-136663923D01*
X153497866Y-136670678D01*
X155794134Y-136670678D01*
X155856316Y-136663923D01*
X155992705Y-136612793D01*
X156109261Y-136525439D01*
X156196615Y-136408883D01*
X156247745Y-136272494D01*
X156253433Y-136220134D01*
X158451500Y-136220134D01*
X158458255Y-136282316D01*
X158509385Y-136418705D01*
X158596739Y-136535261D01*
X158713295Y-136622615D01*
X158849684Y-136673745D01*
X158911866Y-136680500D01*
X161208134Y-136680500D01*
X161270316Y-136673745D01*
X161406705Y-136622615D01*
X161523261Y-136535261D01*
X161610615Y-136418705D01*
X161661745Y-136282316D01*
X161668500Y-136220134D01*
X163451500Y-136220134D01*
X163458255Y-136282316D01*
X163509385Y-136418705D01*
X163596739Y-136535261D01*
X163713295Y-136622615D01*
X163849684Y-136673745D01*
X163911866Y-136680500D01*
X166208134Y-136680500D01*
X166270316Y-136673745D01*
X166406705Y-136622615D01*
X166523261Y-136535261D01*
X166610615Y-136418705D01*
X166661745Y-136282316D01*
X166668500Y-136220134D01*
X166668500Y-133923866D01*
X166661745Y-133861684D01*
X166610615Y-133725295D01*
X166523261Y-133608739D01*
X166406705Y-133521385D01*
X166270316Y-133470255D01*
X166208134Y-133463500D01*
X163911866Y-133463500D01*
X163849684Y-133470255D01*
X163713295Y-133521385D01*
X163596739Y-133608739D01*
X163509385Y-133725295D01*
X163458255Y-133861684D01*
X163451500Y-133923866D01*
X163451500Y-136220134D01*
X161668500Y-136220134D01*
X161668500Y-133923866D01*
X161661745Y-133861684D01*
X161610615Y-133725295D01*
X161523261Y-133608739D01*
X161406705Y-133521385D01*
X161270316Y-133470255D01*
X161208134Y-133463500D01*
X158911866Y-133463500D01*
X158849684Y-133470255D01*
X158713295Y-133521385D01*
X158596739Y-133608739D01*
X158509385Y-133725295D01*
X158458255Y-133861684D01*
X158451500Y-133923866D01*
X158451500Y-136220134D01*
X156253433Y-136220134D01*
X156254500Y-136210312D01*
X156254500Y-133914044D01*
X156247745Y-133851862D01*
X156196615Y-133715473D01*
X156109261Y-133598917D01*
X155992705Y-133511563D01*
X155856316Y-133460433D01*
X155794134Y-133453678D01*
X153497866Y-133453678D01*
X153435684Y-133460433D01*
X153299295Y-133511563D01*
X153182739Y-133598917D01*
X153095385Y-133715473D01*
X153044255Y-133851862D01*
X153037500Y-133914044D01*
X153037500Y-136210312D01*
X151254500Y-136210312D01*
X151254500Y-133914044D01*
X151247745Y-133851862D01*
X151196615Y-133715473D01*
X151109261Y-133598917D01*
X150992705Y-133511563D01*
X150856316Y-133460433D01*
X150794134Y-133453678D01*
X148497866Y-133453678D01*
X148435684Y-133460433D01*
X148299295Y-133511563D01*
X148182739Y-133598917D01*
X148095385Y-133715473D01*
X148044255Y-133851862D01*
X148037500Y-133914044D01*
X148037500Y-136210312D01*
X146336036Y-136210312D01*
X146334124Y-136207000D01*
X146317386Y-136138005D01*
X146334124Y-136081000D01*
X146373223Y-136013279D01*
X146373224Y-136013278D01*
X146376527Y-136007556D01*
X146435542Y-135825928D01*
X146455504Y-135636000D01*
X146435542Y-135446072D01*
X146376527Y-135264444D01*
X146334124Y-135191000D01*
X146317386Y-135122005D01*
X146334124Y-135065000D01*
X146373223Y-134997279D01*
X146373224Y-134997278D01*
X146376527Y-134991556D01*
X146435542Y-134809928D01*
X146455504Y-134620000D01*
X146435542Y-134430072D01*
X146376527Y-134248444D01*
X146334124Y-134175000D01*
X146317386Y-134106005D01*
X146334124Y-134049000D01*
X146373223Y-133981279D01*
X146373224Y-133981278D01*
X146376527Y-133975556D01*
X146435542Y-133793928D01*
X146455504Y-133604000D01*
X146440325Y-133459580D01*
X146436232Y-133420635D01*
X146436232Y-133420633D01*
X146435542Y-133414072D01*
X146376527Y-133232444D01*
X146334124Y-133159000D01*
X146317386Y-133090005D01*
X146334124Y-133033000D01*
X146373223Y-132965279D01*
X146373224Y-132965278D01*
X146376527Y-132959556D01*
X146435542Y-132777928D01*
X146455504Y-132588000D01*
X146435542Y-132398072D01*
X146376527Y-132216444D01*
X146334124Y-132143000D01*
X146317386Y-132074005D01*
X146334124Y-132017000D01*
X146373223Y-131949279D01*
X146373224Y-131949278D01*
X146376527Y-131943556D01*
X146435542Y-131761928D01*
X146455504Y-131572000D01*
X146435542Y-131382072D01*
X146376527Y-131200444D01*
X146281040Y-131035056D01*
X146153253Y-130893134D01*
X145998752Y-130780882D01*
X145992724Y-130778198D01*
X145992722Y-130778197D01*
X145830319Y-130705891D01*
X145830318Y-130705891D01*
X145824288Y-130703206D01*
X145730888Y-130683353D01*
X145643944Y-130664872D01*
X145643939Y-130664872D01*
X145637487Y-130663500D01*
X145446513Y-130663500D01*
X145440061Y-130664872D01*
X145440056Y-130664872D01*
X145353112Y-130683353D01*
X145259712Y-130703206D01*
X145085248Y-130780882D01*
X145014882Y-130790316D01*
X144982753Y-130780882D01*
X144982752Y-130780882D01*
X144808288Y-130703206D01*
X144714888Y-130683353D01*
X144627944Y-130664872D01*
X144627939Y-130664872D01*
X144621487Y-130663500D01*
X144430513Y-130663500D01*
X144424061Y-130664872D01*
X144424056Y-130664872D01*
X144337112Y-130683353D01*
X144243712Y-130703206D01*
X144069248Y-130780882D01*
X143998882Y-130790316D01*
X143966753Y-130780882D01*
X143966752Y-130780882D01*
X143792288Y-130703206D01*
X143698888Y-130683353D01*
X143611944Y-130664872D01*
X143611939Y-130664872D01*
X143605487Y-130663500D01*
X143414513Y-130663500D01*
X143408061Y-130664872D01*
X143408056Y-130664872D01*
X143321112Y-130683353D01*
X143227712Y-130703206D01*
X143221682Y-130705891D01*
X143221681Y-130705891D01*
X143059278Y-130778197D01*
X143059276Y-130778198D01*
X143053248Y-130780882D01*
X142898747Y-130893134D01*
X142770960Y-131035056D01*
X142675473Y-131200444D01*
X142616458Y-131382072D01*
X142596496Y-131572000D01*
X142616458Y-131761928D01*
X142675473Y-131943556D01*
X142678776Y-131949278D01*
X142678777Y-131949279D01*
X142717876Y-132017000D01*
X142734614Y-132085995D01*
X142717876Y-132143000D01*
X142675473Y-132216444D01*
X142616458Y-132398072D01*
X142596496Y-132588000D01*
X142616458Y-132777928D01*
X142675473Y-132959556D01*
X142678776Y-132965278D01*
X142678777Y-132965279D01*
X142717876Y-133033000D01*
X142734614Y-133101995D01*
X142717876Y-133159000D01*
X142675473Y-133232444D01*
X142616458Y-133414072D01*
X142615768Y-133420633D01*
X142615768Y-133420635D01*
X142611675Y-133459580D01*
X142596496Y-133604000D01*
X142616458Y-133793928D01*
X142675473Y-133975556D01*
X142678776Y-133981278D01*
X142678777Y-133981279D01*
X142717876Y-134049000D01*
X142734614Y-134117995D01*
X142717876Y-134175000D01*
X142675473Y-134248444D01*
X142616458Y-134430072D01*
X142596496Y-134620000D01*
X142616458Y-134809928D01*
X142675473Y-134991556D01*
X142678776Y-134997278D01*
X142678777Y-134997279D01*
X142717876Y-135065000D01*
X142734614Y-135133995D01*
X142717876Y-135191000D01*
X142675473Y-135264444D01*
X142616458Y-135446072D01*
X142596496Y-135636000D01*
X142616458Y-135825928D01*
X142675473Y-136007556D01*
X142678776Y-136013278D01*
X142678777Y-136013279D01*
X142717876Y-136081000D01*
X142734614Y-136149995D01*
X142717876Y-136207000D01*
X142712266Y-136216717D01*
X142684599Y-136264638D01*
X142675473Y-136280444D01*
X142616458Y-136462072D01*
X142615768Y-136468633D01*
X142615768Y-136468635D01*
X142608200Y-136540642D01*
X142596496Y-136652000D01*
X142240000Y-136652000D01*
X142240000Y-128832568D01*
X142709382Y-128832568D01*
X142738208Y-129081699D01*
X142739587Y-129086573D01*
X142739588Y-129086577D01*
X142777381Y-129220134D01*
X142806494Y-129323017D01*
X142808628Y-129327592D01*
X142808630Y-129327599D01*
X142897537Y-129518259D01*
X142912484Y-129550313D01*
X142915326Y-129554494D01*
X142915326Y-129554495D01*
X143050605Y-129753552D01*
X143050608Y-129753556D01*
X143053451Y-129757739D01*
X143056928Y-129761416D01*
X143056929Y-129761417D01*
X143157238Y-129867491D01*
X143225767Y-129939959D01*
X143229793Y-129943037D01*
X143229794Y-129943038D01*
X143420981Y-130089212D01*
X143420985Y-130089215D01*
X143425001Y-130092285D01*
X143646026Y-130210797D01*
X143650807Y-130212443D01*
X143650811Y-130212445D01*
X143876538Y-130290169D01*
X143883156Y-130292448D01*
X143986689Y-130310331D01*
X144126380Y-130334460D01*
X144126386Y-130334461D01*
X144130290Y-130335135D01*
X144134251Y-130335315D01*
X144134252Y-130335315D01*
X144158931Y-130336436D01*
X144158950Y-130336436D01*
X144160350Y-130336500D01*
X144335015Y-130336500D01*
X144337523Y-130336298D01*
X144337528Y-130336298D01*
X144516944Y-130321863D01*
X144516949Y-130321862D01*
X144521985Y-130321457D01*
X144526893Y-130320252D01*
X144526896Y-130320251D01*
X144760625Y-130262841D01*
X144765539Y-130261634D01*
X144770191Y-130259659D01*
X144770195Y-130259658D01*
X144991741Y-130165617D01*
X144991742Y-130165617D01*
X144996396Y-130163641D01*
X145208615Y-130030000D01*
X145396738Y-129864147D01*
X145555924Y-129670351D01*
X145682078Y-129453596D01*
X145696484Y-129416069D01*
X145770143Y-129224181D01*
X145771955Y-129219461D01*
X145773867Y-129210312D01*
X145822206Y-128978921D01*
X145823241Y-128973967D01*
X145834618Y-128723432D01*
X145805792Y-128474301D01*
X145766810Y-128336539D01*
X145738884Y-128237852D01*
X145738883Y-128237850D01*
X145737506Y-128232983D01*
X145735372Y-128228408D01*
X145735370Y-128228401D01*
X145633653Y-128010269D01*
X145633651Y-128010265D01*
X145631516Y-128005687D01*
X145622882Y-127992983D01*
X145493395Y-127802448D01*
X145493392Y-127802444D01*
X145490549Y-127798261D01*
X145389925Y-127691853D01*
X145321713Y-127619721D01*
X145318233Y-127616041D01*
X145314206Y-127612962D01*
X145123019Y-127466788D01*
X145123015Y-127466785D01*
X145118999Y-127463715D01*
X144897974Y-127345203D01*
X144893193Y-127343557D01*
X144893189Y-127343555D01*
X144665633Y-127265201D01*
X144660844Y-127263552D01*
X144557311Y-127245669D01*
X144417620Y-127221540D01*
X144417614Y-127221539D01*
X144413710Y-127220865D01*
X144409749Y-127220685D01*
X144409748Y-127220685D01*
X144385069Y-127219564D01*
X144385050Y-127219564D01*
X144383650Y-127219500D01*
X144208985Y-127219500D01*
X144206477Y-127219702D01*
X144206472Y-127219702D01*
X144027056Y-127234137D01*
X144027051Y-127234138D01*
X144022015Y-127234543D01*
X144017107Y-127235748D01*
X144017104Y-127235749D01*
X143785326Y-127292680D01*
X143778461Y-127294366D01*
X143773809Y-127296341D01*
X143773805Y-127296342D01*
X143653596Y-127347368D01*
X143547604Y-127392359D01*
X143335385Y-127526000D01*
X143147262Y-127691853D01*
X142988076Y-127885649D01*
X142861922Y-128102404D01*
X142772045Y-128336539D01*
X142720759Y-128582033D01*
X142709382Y-128832568D01*
X142240000Y-128832568D01*
X142240000Y-128827328D01*
X142241500Y-128807943D01*
X142243805Y-128793142D01*
X142243805Y-128793139D01*
X142245186Y-128784270D01*
X142243059Y-128768001D01*
X142242266Y-128743433D01*
X142256844Y-128521015D01*
X142258995Y-128504674D01*
X142307629Y-128260176D01*
X142311895Y-128244257D01*
X142392022Y-128008210D01*
X142398329Y-127992983D01*
X142508584Y-127769408D01*
X142516825Y-127755135D01*
X142655316Y-127547867D01*
X142665349Y-127534790D01*
X142670125Y-127529345D01*
X142829714Y-127347368D01*
X142841368Y-127335714D01*
X142957194Y-127234137D01*
X143028794Y-127171346D01*
X143041867Y-127161316D01*
X143249135Y-127022825D01*
X143263408Y-127014584D01*
X143486983Y-126904329D01*
X143502210Y-126898022D01*
X143738257Y-126817895D01*
X143754176Y-126813629D01*
X143998673Y-126764995D01*
X144015014Y-126762844D01*
X144230268Y-126748736D01*
X144253304Y-126749761D01*
X144256854Y-126749804D01*
X144265730Y-126751186D01*
X144297252Y-126747064D01*
X144313589Y-126746000D01*
X147915326Y-126746000D01*
X147983447Y-126766002D01*
G37*
%TD.AperFunction*%
%TD*%
M02*
