%TF.GenerationSoftware,KiCad,Pcbnew,(6.0.0)*%
%TF.CreationDate,2022-04-01T00:42:52-07:00*%
%TF.ProjectId,motor-controller,6d6f746f-722d-4636-9f6e-74726f6c6c65,rev?*%
%TF.SameCoordinates,Original*%
%TF.FileFunction,Copper,L3,Inr*%
%TF.FilePolarity,Positive*%
%FSLAX46Y46*%
G04 Gerber Fmt 4.6, Leading zero omitted, Abs format (unit mm)*
G04 Created by KiCad (PCBNEW (6.0.0)) date 2022-04-01 00:42:52*
%MOMM*%
%LPD*%
G01*
G04 APERTURE LIST*
%TA.AperFunction,ComponentPad*%
%ADD10R,2.200000X2.200000*%
%TD*%
%TA.AperFunction,ComponentPad*%
%ADD11R,1.700000X1.700000*%
%TD*%
%TA.AperFunction,ComponentPad*%
%ADD12O,1.700000X1.700000*%
%TD*%
%TA.AperFunction,ViaPad*%
%ADD13C,0.800000*%
%TD*%
G04 APERTURE END LIST*
D10*
%TO.N,/SW_B*%
%TO.C,J4*%
X165060000Y-128072000D03*
X160060000Y-135072000D03*
X165060000Y-135072000D03*
X160060000Y-128072000D03*
%TD*%
%TO.N,/SW_A*%
%TO.C,J3*%
X154646000Y-128062178D03*
X149646000Y-135062178D03*
X154646000Y-135062178D03*
X149646000Y-128062178D03*
%TD*%
D11*
%TO.N,+3V3*%
%TO.C,J5*%
X169418000Y-172217000D03*
D12*
%TO.N,GND*%
X169418000Y-174757000D03*
%TO.N,/controller/SWCLK*%
X169418000Y-177297000D03*
%TO.N,/controller/SWDIO*%
X169418000Y-179837000D03*
%TO.N,/controller/NRST*%
X169418000Y-182377000D03*
%TD*%
D11*
%TO.N,GND*%
%TO.C,J6*%
X145034000Y-186167000D03*
D12*
%TO.N,+5V*%
X145034000Y-183627000D03*
%TO.N,/controller/PWM_IN*%
X145034000Y-181087000D03*
%TD*%
D10*
%TO.N,GND*%
%TO.C,J2*%
X164298000Y-187396000D03*
X164298000Y-180396000D03*
X159298000Y-180396000D03*
X159298000Y-187396000D03*
%TD*%
%TO.N,VBUS*%
%TO.C,J1*%
X149392000Y-180396000D03*
X149392000Y-187396000D03*
X154392000Y-187396000D03*
X154392000Y-180396000D03*
%TD*%
D13*
%TO.N,VBUS*%
X168402000Y-167640000D03*
%TO.N,PWM_B_LOW*%
X160782000Y-173990000D03*
%TO.N,/controller/PWM_IN*%
X162306000Y-174752000D03*
%TO.N,GND*%
X167386000Y-172720000D03*
%TO.N,/controller/SWCLK*%
X166878000Y-178562000D03*
%TO.N,/controller/PWM_IN*%
X158496000Y-177800000D03*
%TO.N,PWM_A_LOW*%
X159703050Y-171474000D03*
%TO.N,PWM_B_HIGH*%
X160274000Y-172466000D03*
%TO.N,GND*%
X144526000Y-163068000D03*
X170434000Y-149860000D03*
%TO.N,VBUS*%
X167386000Y-162560000D03*
X147574000Y-163068000D03*
%TO.N,GND*%
X145796000Y-146558000D03*
X145796000Y-145542000D03*
X152146000Y-145542000D03*
X155194000Y-145542000D03*
X154178000Y-145542000D03*
X153162000Y-145542000D03*
X159258000Y-145542000D03*
X162306000Y-145542000D03*
X161290000Y-145542000D03*
X160274000Y-145542000D03*
%TO.N,VBUS*%
X170688000Y-134620000D03*
X169672000Y-134620000D03*
X168656000Y-134620000D03*
X168656000Y-133604000D03*
X169672000Y-133604000D03*
X170688000Y-133604000D03*
X170688000Y-132588000D03*
X170688000Y-131572000D03*
X169672000Y-131572000D03*
X168656000Y-135636000D03*
X168656000Y-136652000D03*
X169672000Y-136652000D03*
X170688000Y-136652000D03*
X169672000Y-135636000D03*
X170688000Y-135636000D03*
X168656000Y-131572000D03*
X169672000Y-132588000D03*
X168656000Y-132588000D03*
X143510000Y-136652000D03*
X144526000Y-136652000D03*
X145542000Y-136652000D03*
X143510000Y-135636000D03*
X144526000Y-135636000D03*
X145542000Y-135636000D03*
X143510000Y-134620000D03*
X144526000Y-134620000D03*
X145542000Y-134620000D03*
X143510000Y-133604000D03*
X144526000Y-133604000D03*
X145542000Y-133604000D03*
X145542000Y-132588000D03*
X144526000Y-132588000D03*
X143510000Y-132588000D03*
X145542000Y-131572000D03*
X144526000Y-131572000D03*
X143510000Y-131572000D03*
X148844000Y-163576000D03*
X151384000Y-162306000D03*
%TO.N,PWM_A_HIGH*%
X153924000Y-156972000D03*
%TO.N,PWM_A_LOW*%
X155194000Y-156972000D03*
%TO.N,VBUS*%
X159004000Y-161798000D03*
%TO.N,PWM_B_HIGH*%
X162052000Y-156972000D03*
%TO.N,PWM_B_LOW*%
X164084000Y-156972000D03*
%TO.N,GND*%
X148844000Y-174498000D03*
X150368000Y-165354000D03*
%TO.N,PWM_A_HIGH*%
X157226000Y-172720000D03*
%TD*%
%TA.AperFunction,Conductor*%
%TO.N,VBUS*%
G36*
X147983447Y-126766002D02*
G01*
X148029940Y-126819658D01*
X148040589Y-126885607D01*
X148039241Y-126898022D01*
X148037500Y-126914044D01*
X148037500Y-129210312D01*
X148044255Y-129272494D01*
X148095385Y-129408883D01*
X148182739Y-129525439D01*
X148299295Y-129612793D01*
X148435684Y-129663923D01*
X148497866Y-129670678D01*
X150794134Y-129670678D01*
X150856316Y-129663923D01*
X150992705Y-129612793D01*
X151109261Y-129525439D01*
X151196615Y-129408883D01*
X151247745Y-129272494D01*
X151254500Y-129210312D01*
X151254500Y-126914044D01*
X151252760Y-126898022D01*
X151251411Y-126885607D01*
X151263939Y-126815725D01*
X151312260Y-126763709D01*
X151376674Y-126746000D01*
X152915326Y-126746000D01*
X152983447Y-126766002D01*
X153029940Y-126819658D01*
X153040589Y-126885607D01*
X153039241Y-126898022D01*
X153037500Y-126914044D01*
X153037500Y-129210312D01*
X153044255Y-129272494D01*
X153095385Y-129408883D01*
X153182739Y-129525439D01*
X153299295Y-129612793D01*
X153435684Y-129663923D01*
X153497866Y-129670678D01*
X155794134Y-129670678D01*
X155856316Y-129663923D01*
X155992705Y-129612793D01*
X156109261Y-129525439D01*
X156196615Y-129408883D01*
X156247745Y-129272494D01*
X156254500Y-129210312D01*
X156254500Y-126914044D01*
X156252760Y-126898022D01*
X156251411Y-126885607D01*
X156263939Y-126815725D01*
X156312260Y-126763709D01*
X156376674Y-126746000D01*
X158330393Y-126746000D01*
X158398514Y-126766002D01*
X158445007Y-126819658D01*
X158455656Y-126885607D01*
X158454308Y-126898022D01*
X158451500Y-126923866D01*
X158451500Y-129220134D01*
X158458255Y-129282316D01*
X158509385Y-129418705D01*
X158596739Y-129535261D01*
X158713295Y-129622615D01*
X158849684Y-129673745D01*
X158911866Y-129680500D01*
X161208134Y-129680500D01*
X161270316Y-129673745D01*
X161406705Y-129622615D01*
X161523261Y-129535261D01*
X161610615Y-129418705D01*
X161661745Y-129282316D01*
X161668500Y-129220134D01*
X161668500Y-126923866D01*
X161665693Y-126898022D01*
X161664344Y-126885607D01*
X161676872Y-126815725D01*
X161725193Y-126763709D01*
X161789607Y-126746000D01*
X163330393Y-126746000D01*
X163398514Y-126766002D01*
X163445007Y-126819658D01*
X163455656Y-126885607D01*
X163454308Y-126898022D01*
X163451500Y-126923866D01*
X163451500Y-129220134D01*
X163458255Y-129282316D01*
X163509385Y-129418705D01*
X163596739Y-129535261D01*
X163713295Y-129622615D01*
X163849684Y-129673745D01*
X163911866Y-129680500D01*
X166208134Y-129680500D01*
X166270316Y-129673745D01*
X166406705Y-129622615D01*
X166523261Y-129535261D01*
X166610615Y-129418705D01*
X166661745Y-129282316D01*
X166668500Y-129220134D01*
X166668500Y-128832568D01*
X168109382Y-128832568D01*
X168138208Y-129081699D01*
X168139587Y-129086573D01*
X168139588Y-129086577D01*
X168177381Y-129220134D01*
X168206494Y-129323017D01*
X168208628Y-129327592D01*
X168208630Y-129327599D01*
X168297537Y-129518259D01*
X168312484Y-129550313D01*
X168315326Y-129554494D01*
X168315326Y-129554495D01*
X168450605Y-129753552D01*
X168450608Y-129753556D01*
X168453451Y-129757739D01*
X168456928Y-129761416D01*
X168456929Y-129761417D01*
X168557238Y-129867491D01*
X168625767Y-129939959D01*
X168629793Y-129943037D01*
X168629794Y-129943038D01*
X168820981Y-130089212D01*
X168820985Y-130089215D01*
X168825001Y-130092285D01*
X169046026Y-130210797D01*
X169050807Y-130212443D01*
X169050811Y-130212445D01*
X169276538Y-130290169D01*
X169283156Y-130292448D01*
X169386689Y-130310331D01*
X169526380Y-130334460D01*
X169526386Y-130334461D01*
X169530290Y-130335135D01*
X169534251Y-130335315D01*
X169534252Y-130335315D01*
X169558931Y-130336436D01*
X169558950Y-130336436D01*
X169560350Y-130336500D01*
X169735015Y-130336500D01*
X169737523Y-130336298D01*
X169737528Y-130336298D01*
X169916944Y-130321863D01*
X169916949Y-130321862D01*
X169921985Y-130321457D01*
X169926893Y-130320252D01*
X169926896Y-130320251D01*
X170160625Y-130262841D01*
X170165539Y-130261634D01*
X170170191Y-130259659D01*
X170170195Y-130259658D01*
X170391741Y-130165617D01*
X170391742Y-130165617D01*
X170396396Y-130163641D01*
X170608615Y-130030000D01*
X170796738Y-129864147D01*
X170955924Y-129670351D01*
X171082078Y-129453596D01*
X171096484Y-129416069D01*
X171170143Y-129224181D01*
X171171955Y-129219461D01*
X171173867Y-129210312D01*
X171222206Y-128978921D01*
X171223241Y-128973967D01*
X171234618Y-128723432D01*
X171205792Y-128474301D01*
X171166810Y-128336539D01*
X171138884Y-128237852D01*
X171138883Y-128237850D01*
X171137506Y-128232983D01*
X171135372Y-128228408D01*
X171135370Y-128228401D01*
X171033653Y-128010269D01*
X171033651Y-128010265D01*
X171031516Y-128005687D01*
X171022882Y-127992983D01*
X170893395Y-127802448D01*
X170893392Y-127802444D01*
X170890549Y-127798261D01*
X170789925Y-127691853D01*
X170721713Y-127619721D01*
X170718233Y-127616041D01*
X170714206Y-127612962D01*
X170523019Y-127466788D01*
X170523015Y-127466785D01*
X170518999Y-127463715D01*
X170297974Y-127345203D01*
X170293193Y-127343557D01*
X170293189Y-127343555D01*
X170065633Y-127265201D01*
X170060844Y-127263552D01*
X169957311Y-127245669D01*
X169817620Y-127221540D01*
X169817614Y-127221539D01*
X169813710Y-127220865D01*
X169809749Y-127220685D01*
X169809748Y-127220685D01*
X169785069Y-127219564D01*
X169785050Y-127219564D01*
X169783650Y-127219500D01*
X169608985Y-127219500D01*
X169606477Y-127219702D01*
X169606472Y-127219702D01*
X169427056Y-127234137D01*
X169427051Y-127234138D01*
X169422015Y-127234543D01*
X169417107Y-127235748D01*
X169417104Y-127235749D01*
X169185326Y-127292680D01*
X169178461Y-127294366D01*
X169173809Y-127296341D01*
X169173805Y-127296342D01*
X169053596Y-127347368D01*
X168947604Y-127392359D01*
X168735385Y-127526000D01*
X168547262Y-127691853D01*
X168388076Y-127885649D01*
X168261922Y-128102404D01*
X168172045Y-128336539D01*
X168120759Y-128582033D01*
X168109382Y-128832568D01*
X166668500Y-128832568D01*
X166668500Y-126923866D01*
X166665693Y-126898022D01*
X166664344Y-126885607D01*
X166676872Y-126815725D01*
X166725193Y-126763709D01*
X166789607Y-126746000D01*
X169622672Y-126746000D01*
X169642057Y-126747500D01*
X169656858Y-126749805D01*
X169656861Y-126749805D01*
X169665730Y-126751186D01*
X169681999Y-126749059D01*
X169706567Y-126748266D01*
X169928985Y-126762844D01*
X169945326Y-126764995D01*
X170189824Y-126813629D01*
X170205743Y-126817895D01*
X170441790Y-126898022D01*
X170457017Y-126904329D01*
X170680592Y-127014584D01*
X170694865Y-127022825D01*
X170902133Y-127161316D01*
X170915206Y-127171346D01*
X170986806Y-127234137D01*
X171102632Y-127335714D01*
X171114286Y-127347368D01*
X171273876Y-127529345D01*
X171278651Y-127534790D01*
X171288684Y-127547867D01*
X171427175Y-127755135D01*
X171435416Y-127769408D01*
X171545671Y-127992983D01*
X171551978Y-128008210D01*
X171632105Y-128244257D01*
X171636371Y-128260176D01*
X171685005Y-128504673D01*
X171687156Y-128521014D01*
X171701264Y-128736268D01*
X171700239Y-128759304D01*
X171700196Y-128762854D01*
X171698814Y-128771730D01*
X171700454Y-128784270D01*
X171702936Y-128803251D01*
X171704000Y-128819589D01*
X171704000Y-187420723D01*
X171702500Y-187440108D01*
X171701059Y-187449365D01*
X171698814Y-187463781D01*
X171700941Y-187480050D01*
X171701734Y-187504618D01*
X171687156Y-187727036D01*
X171685005Y-187743377D01*
X171636371Y-187987875D01*
X171632105Y-188003794D01*
X171551978Y-188239841D01*
X171545671Y-188255068D01*
X171435416Y-188478643D01*
X171427175Y-188492916D01*
X171288684Y-188700184D01*
X171278654Y-188713257D01*
X171240908Y-188756298D01*
X171114286Y-188900683D01*
X171102632Y-188912337D01*
X171059951Y-188949767D01*
X170924353Y-189068684D01*
X170915210Y-189076702D01*
X170902133Y-189086735D01*
X170694865Y-189225226D01*
X170680592Y-189233467D01*
X170457017Y-189343722D01*
X170441790Y-189350029D01*
X170205743Y-189430156D01*
X170189824Y-189434422D01*
X169945327Y-189483056D01*
X169928986Y-189485207D01*
X169713732Y-189499315D01*
X169690696Y-189498290D01*
X169687144Y-189498247D01*
X169678270Y-189496865D01*
X169669368Y-189498029D01*
X169669364Y-189498029D01*
X169646976Y-189500957D01*
X169630549Y-189502021D01*
X155012864Y-189491633D01*
X144321462Y-189484035D01*
X144302168Y-189482535D01*
X144287142Y-189480195D01*
X144287139Y-189480195D01*
X144278270Y-189478814D01*
X144262001Y-189480941D01*
X144237433Y-189481734D01*
X144015015Y-189467156D01*
X143998674Y-189465005D01*
X143754176Y-189416371D01*
X143738257Y-189412105D01*
X143502210Y-189331978D01*
X143486983Y-189325671D01*
X143263408Y-189215416D01*
X143249135Y-189207175D01*
X143041867Y-189068684D01*
X143028790Y-189058651D01*
X142966472Y-189003999D01*
X142841368Y-188894286D01*
X142829714Y-188882632D01*
X142704849Y-188740251D01*
X142665346Y-188695206D01*
X142655316Y-188682133D01*
X142560793Y-188540669D01*
X147784001Y-188540669D01*
X147784371Y-188547490D01*
X147789895Y-188598352D01*
X147793521Y-188613604D01*
X147838676Y-188734054D01*
X147847214Y-188749649D01*
X147923715Y-188851724D01*
X147936276Y-188864285D01*
X148038351Y-188940786D01*
X148053946Y-188949324D01*
X148174394Y-188994478D01*
X148189649Y-188998105D01*
X148240514Y-189003631D01*
X148247328Y-189004000D01*
X148273885Y-189004000D01*
X148289124Y-188999525D01*
X148290329Y-188998135D01*
X148292000Y-188990452D01*
X148292000Y-188985884D01*
X150492000Y-188985884D01*
X150496475Y-189001123D01*
X150497865Y-189002328D01*
X150505548Y-189003999D01*
X150536669Y-189003999D01*
X150543490Y-189003629D01*
X150594352Y-188998105D01*
X150609604Y-188994479D01*
X150730054Y-188949324D01*
X150745649Y-188940786D01*
X150847724Y-188864285D01*
X150860285Y-188851724D01*
X150936786Y-188749649D01*
X150945324Y-188734054D01*
X150990478Y-188613606D01*
X150994105Y-188598351D01*
X150999631Y-188547486D01*
X151000000Y-188540672D01*
X151000000Y-188540669D01*
X152784001Y-188540669D01*
X152784371Y-188547490D01*
X152789895Y-188598352D01*
X152793521Y-188613604D01*
X152838676Y-188734054D01*
X152847214Y-188749649D01*
X152923715Y-188851724D01*
X152936276Y-188864285D01*
X153038351Y-188940786D01*
X153053946Y-188949324D01*
X153174394Y-188994478D01*
X153189649Y-188998105D01*
X153240514Y-189003631D01*
X153247328Y-189004000D01*
X153273885Y-189004000D01*
X153289124Y-188999525D01*
X153290329Y-188998135D01*
X153292000Y-188990452D01*
X153292000Y-188985884D01*
X155492000Y-188985884D01*
X155496475Y-189001123D01*
X155497865Y-189002328D01*
X155505548Y-189003999D01*
X155536669Y-189003999D01*
X155543490Y-189003629D01*
X155594352Y-188998105D01*
X155609604Y-188994479D01*
X155730054Y-188949324D01*
X155745649Y-188940786D01*
X155847724Y-188864285D01*
X155860285Y-188851724D01*
X155936786Y-188749649D01*
X155945324Y-188734054D01*
X155990478Y-188613606D01*
X155994105Y-188598351D01*
X155999631Y-188547486D01*
X155999813Y-188544134D01*
X157689500Y-188544134D01*
X157696255Y-188606316D01*
X157747385Y-188742705D01*
X157834739Y-188859261D01*
X157951295Y-188946615D01*
X158087684Y-188997745D01*
X158149866Y-189004500D01*
X160446134Y-189004500D01*
X160508316Y-188997745D01*
X160644705Y-188946615D01*
X160761261Y-188859261D01*
X160848615Y-188742705D01*
X160899745Y-188606316D01*
X160906500Y-188544134D01*
X162689500Y-188544134D01*
X162696255Y-188606316D01*
X162747385Y-188742705D01*
X162834739Y-188859261D01*
X162951295Y-188946615D01*
X163087684Y-188997745D01*
X163149866Y-189004500D01*
X165446134Y-189004500D01*
X165508316Y-188997745D01*
X165644705Y-188946615D01*
X165761261Y-188859261D01*
X165848615Y-188742705D01*
X165899745Y-188606316D01*
X165906500Y-188544134D01*
X165906500Y-187252568D01*
X167855382Y-187252568D01*
X167855963Y-187257588D01*
X167855963Y-187257592D01*
X167857502Y-187270891D01*
X167884208Y-187501699D01*
X167885587Y-187506573D01*
X167885588Y-187506577D01*
X167951116Y-187738148D01*
X167952494Y-187743017D01*
X167954628Y-187747592D01*
X167954630Y-187747599D01*
X168056347Y-187965731D01*
X168058484Y-187970313D01*
X168061326Y-187974494D01*
X168061326Y-187974495D01*
X168196605Y-188173552D01*
X168196608Y-188173556D01*
X168199451Y-188177739D01*
X168202928Y-188181416D01*
X168202929Y-188181417D01*
X168303238Y-188287491D01*
X168371767Y-188359959D01*
X168375793Y-188363037D01*
X168375794Y-188363038D01*
X168566981Y-188509212D01*
X168566985Y-188509215D01*
X168571001Y-188512285D01*
X168792026Y-188630797D01*
X168796807Y-188632443D01*
X168796811Y-188632445D01*
X168993539Y-188700184D01*
X169029156Y-188712448D01*
X169132689Y-188730331D01*
X169272380Y-188754460D01*
X169272386Y-188754461D01*
X169276290Y-188755135D01*
X169280251Y-188755315D01*
X169280252Y-188755315D01*
X169304931Y-188756436D01*
X169304950Y-188756436D01*
X169306350Y-188756500D01*
X169481015Y-188756500D01*
X169483523Y-188756298D01*
X169483528Y-188756298D01*
X169662944Y-188741863D01*
X169662949Y-188741862D01*
X169667985Y-188741457D01*
X169672893Y-188740252D01*
X169672896Y-188740251D01*
X169906625Y-188682841D01*
X169911539Y-188681634D01*
X169916191Y-188679659D01*
X169916195Y-188679658D01*
X170137741Y-188585617D01*
X170137742Y-188585617D01*
X170142396Y-188583641D01*
X170315130Y-188474865D01*
X170350334Y-188452696D01*
X170350335Y-188452695D01*
X170354615Y-188450000D01*
X170542738Y-188284147D01*
X170701924Y-188090351D01*
X170828078Y-187873596D01*
X170917955Y-187639461D01*
X170954723Y-187463464D01*
X170968206Y-187398921D01*
X170969241Y-187393967D01*
X170969864Y-187380261D01*
X170975662Y-187252568D01*
X170980618Y-187143432D01*
X170979610Y-187134715D01*
X170952374Y-186899334D01*
X170951792Y-186894301D01*
X170912810Y-186756539D01*
X170884884Y-186657852D01*
X170884883Y-186657850D01*
X170883506Y-186652983D01*
X170881372Y-186648408D01*
X170881370Y-186648401D01*
X170779653Y-186430269D01*
X170779651Y-186430265D01*
X170777516Y-186425687D01*
X170774674Y-186421505D01*
X170639395Y-186222448D01*
X170639392Y-186222444D01*
X170636549Y-186218261D01*
X170535925Y-186111853D01*
X170467713Y-186039721D01*
X170464233Y-186036041D01*
X170460206Y-186032962D01*
X170269019Y-185886788D01*
X170269015Y-185886785D01*
X170264999Y-185883715D01*
X170203559Y-185850771D01*
X170048435Y-185767595D01*
X170043974Y-185765203D01*
X170039193Y-185763557D01*
X170039189Y-185763555D01*
X169811633Y-185685201D01*
X169806844Y-185683552D01*
X169703311Y-185665669D01*
X169563620Y-185641540D01*
X169563614Y-185641539D01*
X169559710Y-185640865D01*
X169555749Y-185640685D01*
X169555748Y-185640685D01*
X169531069Y-185639564D01*
X169531050Y-185639564D01*
X169529650Y-185639500D01*
X169354985Y-185639500D01*
X169352477Y-185639702D01*
X169352472Y-185639702D01*
X169173056Y-185654137D01*
X169173051Y-185654138D01*
X169168015Y-185654543D01*
X169163107Y-185655748D01*
X169163104Y-185655749D01*
X168931326Y-185712680D01*
X168924461Y-185714366D01*
X168919809Y-185716341D01*
X168919805Y-185716342D01*
X168698259Y-185810383D01*
X168693604Y-185812359D01*
X168632607Y-185850771D01*
X168490475Y-185940276D01*
X168481385Y-185946000D01*
X168293262Y-186111853D01*
X168134076Y-186305649D01*
X168007922Y-186522404D01*
X167918045Y-186756539D01*
X167866759Y-187002033D01*
X167866530Y-187007082D01*
X167866529Y-187007088D01*
X167863739Y-187068531D01*
X167855382Y-187252568D01*
X165906500Y-187252568D01*
X165906500Y-186247866D01*
X165899745Y-186185684D01*
X165848615Y-186049295D01*
X165761261Y-185932739D01*
X165644705Y-185845385D01*
X165508316Y-185794255D01*
X165446134Y-185787500D01*
X163149866Y-185787500D01*
X163087684Y-185794255D01*
X162951295Y-185845385D01*
X162834739Y-185932739D01*
X162747385Y-186049295D01*
X162696255Y-186185684D01*
X162689500Y-186247866D01*
X162689500Y-188544134D01*
X160906500Y-188544134D01*
X160906500Y-186247866D01*
X160899745Y-186185684D01*
X160848615Y-186049295D01*
X160761261Y-185932739D01*
X160644705Y-185845385D01*
X160508316Y-185794255D01*
X160446134Y-185787500D01*
X158149866Y-185787500D01*
X158087684Y-185794255D01*
X157951295Y-185845385D01*
X157834739Y-185932739D01*
X157747385Y-186049295D01*
X157696255Y-186185684D01*
X157689500Y-186247866D01*
X157689500Y-188544134D01*
X155999813Y-188544134D01*
X156000000Y-188540672D01*
X156000000Y-188514115D01*
X155995525Y-188498876D01*
X155994135Y-188497671D01*
X155986452Y-188496000D01*
X155510115Y-188496000D01*
X155494876Y-188500475D01*
X155493671Y-188501865D01*
X155492000Y-188509548D01*
X155492000Y-188985884D01*
X153292000Y-188985884D01*
X153292000Y-188514115D01*
X153287525Y-188498876D01*
X153286135Y-188497671D01*
X153278452Y-188496000D01*
X152802116Y-188496000D01*
X152786877Y-188500475D01*
X152785672Y-188501865D01*
X152784001Y-188509548D01*
X152784001Y-188540669D01*
X151000000Y-188540669D01*
X151000000Y-188514115D01*
X150995525Y-188498876D01*
X150994135Y-188497671D01*
X150986452Y-188496000D01*
X150510115Y-188496000D01*
X150494876Y-188500475D01*
X150493671Y-188501865D01*
X150492000Y-188509548D01*
X150492000Y-188985884D01*
X148292000Y-188985884D01*
X148292000Y-188514115D01*
X148287525Y-188498876D01*
X148286135Y-188497671D01*
X148278452Y-188496000D01*
X147802116Y-188496000D01*
X147786877Y-188500475D01*
X147785672Y-188501865D01*
X147784001Y-188509548D01*
X147784001Y-188540669D01*
X142560793Y-188540669D01*
X142516825Y-188474865D01*
X142508584Y-188460592D01*
X142398329Y-188237017D01*
X142392022Y-188221790D01*
X142311895Y-187985743D01*
X142307629Y-187969824D01*
X142258995Y-187725327D01*
X142256844Y-187708986D01*
X142242736Y-187493732D01*
X142243761Y-187470696D01*
X142243804Y-187467146D01*
X142245186Y-187458270D01*
X142241064Y-187426748D01*
X142240000Y-187410411D01*
X142240000Y-183593695D01*
X143671251Y-183593695D01*
X143671548Y-183598848D01*
X143671548Y-183598851D01*
X143677978Y-183710368D01*
X143684110Y-183816715D01*
X143685247Y-183821761D01*
X143685248Y-183821767D01*
X143705119Y-183909939D01*
X143733222Y-184034639D01*
X143817266Y-184241616D01*
X143933987Y-184432088D01*
X144080250Y-184600938D01*
X144084230Y-184604242D01*
X144088981Y-184608187D01*
X144128616Y-184667090D01*
X144130113Y-184738071D01*
X144092997Y-184798593D01*
X144052724Y-184823112D01*
X143937295Y-184866385D01*
X143820739Y-184953739D01*
X143733385Y-185070295D01*
X143682255Y-185206684D01*
X143675500Y-185268866D01*
X143675500Y-187065134D01*
X143682255Y-187127316D01*
X143733385Y-187263705D01*
X143820739Y-187380261D01*
X143937295Y-187467615D01*
X144073684Y-187518745D01*
X144135866Y-187525500D01*
X145932134Y-187525500D01*
X145994316Y-187518745D01*
X146130705Y-187467615D01*
X146247261Y-187380261D01*
X146334615Y-187263705D01*
X146385745Y-187127316D01*
X146392500Y-187065134D01*
X146392500Y-186277885D01*
X147784000Y-186277885D01*
X147788475Y-186293124D01*
X147789865Y-186294329D01*
X147797548Y-186296000D01*
X148273885Y-186296000D01*
X148289124Y-186291525D01*
X148290329Y-186290135D01*
X148292000Y-186282452D01*
X148292000Y-186277885D01*
X150492000Y-186277885D01*
X150496475Y-186293124D01*
X150497865Y-186294329D01*
X150505548Y-186296000D01*
X150981884Y-186296000D01*
X150997123Y-186291525D01*
X150998328Y-186290135D01*
X150999999Y-186282452D01*
X150999999Y-186277885D01*
X152784000Y-186277885D01*
X152788475Y-186293124D01*
X152789865Y-186294329D01*
X152797548Y-186296000D01*
X153273885Y-186296000D01*
X153289124Y-186291525D01*
X153290329Y-186290135D01*
X153292000Y-186282452D01*
X153292000Y-186277885D01*
X155492000Y-186277885D01*
X155496475Y-186293124D01*
X155497865Y-186294329D01*
X155505548Y-186296000D01*
X155981884Y-186296000D01*
X155997123Y-186291525D01*
X155998328Y-186290135D01*
X155999999Y-186282452D01*
X155999999Y-186251331D01*
X155999629Y-186244510D01*
X155994105Y-186193648D01*
X155990479Y-186178396D01*
X155945324Y-186057946D01*
X155936786Y-186042351D01*
X155860285Y-185940276D01*
X155847724Y-185927715D01*
X155745649Y-185851214D01*
X155730054Y-185842676D01*
X155609606Y-185797522D01*
X155594351Y-185793895D01*
X155543486Y-185788369D01*
X155536672Y-185788000D01*
X155510115Y-185788000D01*
X155494876Y-185792475D01*
X155493671Y-185793865D01*
X155492000Y-185801548D01*
X155492000Y-186277885D01*
X153292000Y-186277885D01*
X153292000Y-185806116D01*
X153287525Y-185790877D01*
X153286135Y-185789672D01*
X153278452Y-185788001D01*
X153247331Y-185788001D01*
X153240510Y-185788371D01*
X153189648Y-185793895D01*
X153174396Y-185797521D01*
X153053946Y-185842676D01*
X153038351Y-185851214D01*
X152936276Y-185927715D01*
X152923715Y-185940276D01*
X152847214Y-186042351D01*
X152838676Y-186057946D01*
X152793522Y-186178394D01*
X152789895Y-186193649D01*
X152784369Y-186244514D01*
X152784000Y-186251328D01*
X152784000Y-186277885D01*
X150999999Y-186277885D01*
X150999999Y-186251331D01*
X150999629Y-186244510D01*
X150994105Y-186193648D01*
X150990479Y-186178396D01*
X150945324Y-186057946D01*
X150936786Y-186042351D01*
X150860285Y-185940276D01*
X150847724Y-185927715D01*
X150745649Y-185851214D01*
X150730054Y-185842676D01*
X150609606Y-185797522D01*
X150594351Y-185793895D01*
X150543486Y-185788369D01*
X150536672Y-185788000D01*
X150510115Y-185788000D01*
X150494876Y-185792475D01*
X150493671Y-185793865D01*
X150492000Y-185801548D01*
X150492000Y-186277885D01*
X148292000Y-186277885D01*
X148292000Y-185806116D01*
X148287525Y-185790877D01*
X148286135Y-185789672D01*
X148278452Y-185788001D01*
X148247331Y-185788001D01*
X148240510Y-185788371D01*
X148189648Y-185793895D01*
X148174396Y-185797521D01*
X148053946Y-185842676D01*
X148038351Y-185851214D01*
X147936276Y-185927715D01*
X147923715Y-185940276D01*
X147847214Y-186042351D01*
X147838676Y-186057946D01*
X147793522Y-186178394D01*
X147789895Y-186193649D01*
X147784369Y-186244514D01*
X147784000Y-186251328D01*
X147784000Y-186277885D01*
X146392500Y-186277885D01*
X146392500Y-185268866D01*
X146385745Y-185206684D01*
X146334615Y-185070295D01*
X146247261Y-184953739D01*
X146130705Y-184866385D01*
X146118132Y-184861672D01*
X146012203Y-184821960D01*
X145955439Y-184779318D01*
X145930739Y-184712756D01*
X145945947Y-184643408D01*
X145967493Y-184614727D01*
X146068435Y-184514137D01*
X146072096Y-184510489D01*
X146131594Y-184427689D01*
X146199435Y-184333277D01*
X146202453Y-184329077D01*
X146301430Y-184128811D01*
X146366370Y-183915069D01*
X146395529Y-183693590D01*
X146395611Y-183690240D01*
X146397074Y-183630365D01*
X146397074Y-183630361D01*
X146397156Y-183627000D01*
X146378852Y-183404361D01*
X146324431Y-183187702D01*
X146235354Y-182982840D01*
X146114014Y-182795277D01*
X145963670Y-182630051D01*
X145959619Y-182626852D01*
X145959615Y-182626848D01*
X145792414Y-182494800D01*
X145792410Y-182494798D01*
X145788359Y-182491598D01*
X145747053Y-182468796D01*
X145697084Y-182418364D01*
X145682312Y-182348921D01*
X145707428Y-182282516D01*
X145734780Y-182255909D01*
X145778603Y-182224650D01*
X145913860Y-182128173D01*
X146072096Y-181970489D01*
X146099068Y-181932954D01*
X146199435Y-181793277D01*
X146202453Y-181789077D01*
X146221940Y-181749649D01*
X146299136Y-181593453D01*
X146299137Y-181593451D01*
X146301430Y-181588811D01*
X146316057Y-181540669D01*
X147784001Y-181540669D01*
X147784371Y-181547490D01*
X147789895Y-181598352D01*
X147793521Y-181613604D01*
X147838676Y-181734054D01*
X147847214Y-181749649D01*
X147923715Y-181851724D01*
X147936276Y-181864285D01*
X148038351Y-181940786D01*
X148053946Y-181949324D01*
X148174394Y-181994478D01*
X148189649Y-181998105D01*
X148240514Y-182003631D01*
X148247328Y-182004000D01*
X148273885Y-182004000D01*
X148289124Y-181999525D01*
X148290329Y-181998135D01*
X148292000Y-181990452D01*
X148292000Y-181985884D01*
X150492000Y-181985884D01*
X150496475Y-182001123D01*
X150497865Y-182002328D01*
X150505548Y-182003999D01*
X150536669Y-182003999D01*
X150543490Y-182003629D01*
X150594352Y-181998105D01*
X150609604Y-181994479D01*
X150730054Y-181949324D01*
X150745649Y-181940786D01*
X150847724Y-181864285D01*
X150860285Y-181851724D01*
X150936786Y-181749649D01*
X150945324Y-181734054D01*
X150990478Y-181613606D01*
X150994105Y-181598351D01*
X150999631Y-181547486D01*
X151000000Y-181540672D01*
X151000000Y-181540669D01*
X152784001Y-181540669D01*
X152784371Y-181547490D01*
X152789895Y-181598352D01*
X152793521Y-181613604D01*
X152838676Y-181734054D01*
X152847214Y-181749649D01*
X152923715Y-181851724D01*
X152936276Y-181864285D01*
X153038351Y-181940786D01*
X153053946Y-181949324D01*
X153174394Y-181994478D01*
X153189649Y-181998105D01*
X153240514Y-182003631D01*
X153247328Y-182004000D01*
X153273885Y-182004000D01*
X153289124Y-181999525D01*
X153290329Y-181998135D01*
X153292000Y-181990452D01*
X153292000Y-181985884D01*
X155492000Y-181985884D01*
X155496475Y-182001123D01*
X155497865Y-182002328D01*
X155505548Y-182003999D01*
X155536669Y-182003999D01*
X155543490Y-182003629D01*
X155594352Y-181998105D01*
X155609604Y-181994479D01*
X155730054Y-181949324D01*
X155745649Y-181940786D01*
X155847724Y-181864285D01*
X155860285Y-181851724D01*
X155936786Y-181749649D01*
X155945324Y-181734054D01*
X155990478Y-181613606D01*
X155994105Y-181598351D01*
X155999631Y-181547486D01*
X156000000Y-181540672D01*
X156000000Y-181514115D01*
X155995525Y-181498876D01*
X155994135Y-181497671D01*
X155986452Y-181496000D01*
X155510115Y-181496000D01*
X155494876Y-181500475D01*
X155493671Y-181501865D01*
X155492000Y-181509548D01*
X155492000Y-181985884D01*
X153292000Y-181985884D01*
X153292000Y-181514115D01*
X153287525Y-181498876D01*
X153286135Y-181497671D01*
X153278452Y-181496000D01*
X152802116Y-181496000D01*
X152786877Y-181500475D01*
X152785672Y-181501865D01*
X152784001Y-181509548D01*
X152784001Y-181540669D01*
X151000000Y-181540669D01*
X151000000Y-181514115D01*
X150995525Y-181498876D01*
X150994135Y-181497671D01*
X150986452Y-181496000D01*
X150510115Y-181496000D01*
X150494876Y-181500475D01*
X150493671Y-181501865D01*
X150492000Y-181509548D01*
X150492000Y-181985884D01*
X148292000Y-181985884D01*
X148292000Y-181514115D01*
X148287525Y-181498876D01*
X148286135Y-181497671D01*
X148278452Y-181496000D01*
X147802116Y-181496000D01*
X147786877Y-181500475D01*
X147785672Y-181501865D01*
X147784001Y-181509548D01*
X147784001Y-181540669D01*
X146316057Y-181540669D01*
X146366370Y-181375069D01*
X146395529Y-181153590D01*
X146395611Y-181150240D01*
X146397074Y-181090365D01*
X146397074Y-181090361D01*
X146397156Y-181087000D01*
X146378852Y-180864361D01*
X146324431Y-180647702D01*
X146235354Y-180442840D01*
X146114014Y-180255277D01*
X145963670Y-180090051D01*
X145959619Y-180086852D01*
X145959615Y-180086848D01*
X145792414Y-179954800D01*
X145792410Y-179954798D01*
X145788359Y-179951598D01*
X145592789Y-179843638D01*
X145587920Y-179841914D01*
X145587916Y-179841912D01*
X145387087Y-179770795D01*
X145387083Y-179770794D01*
X145382212Y-179769069D01*
X145377119Y-179768162D01*
X145377116Y-179768161D01*
X145167373Y-179730800D01*
X145167367Y-179730799D01*
X145162284Y-179729894D01*
X145088452Y-179728992D01*
X144944081Y-179727228D01*
X144944079Y-179727228D01*
X144938911Y-179727165D01*
X144718091Y-179760955D01*
X144505756Y-179830357D01*
X144307607Y-179933507D01*
X144303474Y-179936610D01*
X144303471Y-179936612D01*
X144133100Y-180064530D01*
X144128965Y-180067635D01*
X143974629Y-180229138D01*
X143848743Y-180413680D01*
X143754688Y-180616305D01*
X143694989Y-180831570D01*
X143671251Y-181053695D01*
X143671548Y-181058848D01*
X143671548Y-181058851D01*
X143680904Y-181221118D01*
X143684110Y-181276715D01*
X143685247Y-181281761D01*
X143685248Y-181281767D01*
X143702346Y-181357635D01*
X143733222Y-181494639D01*
X143817266Y-181701616D01*
X143819965Y-181706020D01*
X143913871Y-181859261D01*
X143933987Y-181892088D01*
X144080250Y-182060938D01*
X144252126Y-182203632D01*
X144322595Y-182244811D01*
X144325445Y-182246476D01*
X144374169Y-182298114D01*
X144387240Y-182367897D01*
X144360509Y-182433669D01*
X144320055Y-182467027D01*
X144307607Y-182473507D01*
X144303474Y-182476610D01*
X144303471Y-182476612D01*
X144133100Y-182604530D01*
X144128965Y-182607635D01*
X143974629Y-182769138D01*
X143848743Y-182953680D01*
X143754688Y-183156305D01*
X143694989Y-183371570D01*
X143671251Y-183593695D01*
X142240000Y-183593695D01*
X142240000Y-179277885D01*
X147784000Y-179277885D01*
X147788475Y-179293124D01*
X147789865Y-179294329D01*
X147797548Y-179296000D01*
X148273885Y-179296000D01*
X148289124Y-179291525D01*
X148290329Y-179290135D01*
X148292000Y-179282452D01*
X148292000Y-179277885D01*
X150492000Y-179277885D01*
X150496475Y-179293124D01*
X150497865Y-179294329D01*
X150505548Y-179296000D01*
X150981884Y-179296000D01*
X150997123Y-179291525D01*
X150998328Y-179290135D01*
X150999999Y-179282452D01*
X150999999Y-179277885D01*
X152784000Y-179277885D01*
X152788475Y-179293124D01*
X152789865Y-179294329D01*
X152797548Y-179296000D01*
X153273885Y-179296000D01*
X153289124Y-179291525D01*
X153290329Y-179290135D01*
X153292000Y-179282452D01*
X153292000Y-179277885D01*
X155492000Y-179277885D01*
X155496475Y-179293124D01*
X155497865Y-179294329D01*
X155505548Y-179296000D01*
X155981884Y-179296000D01*
X155997123Y-179291525D01*
X155998328Y-179290135D01*
X155999999Y-179282452D01*
X155999999Y-179251331D01*
X155999629Y-179244510D01*
X155994105Y-179193648D01*
X155990479Y-179178396D01*
X155945324Y-179057946D01*
X155936786Y-179042351D01*
X155860285Y-178940276D01*
X155847724Y-178927715D01*
X155745649Y-178851214D01*
X155730054Y-178842676D01*
X155609606Y-178797522D01*
X155594351Y-178793895D01*
X155543486Y-178788369D01*
X155536672Y-178788000D01*
X155510115Y-178788000D01*
X155494876Y-178792475D01*
X155493671Y-178793865D01*
X155492000Y-178801548D01*
X155492000Y-179277885D01*
X153292000Y-179277885D01*
X153292000Y-178806116D01*
X153287525Y-178790877D01*
X153286135Y-178789672D01*
X153278452Y-178788001D01*
X153247331Y-178788001D01*
X153240510Y-178788371D01*
X153189648Y-178793895D01*
X153174396Y-178797521D01*
X153053946Y-178842676D01*
X153038351Y-178851214D01*
X152936276Y-178927715D01*
X152923715Y-178940276D01*
X152847214Y-179042351D01*
X152838676Y-179057946D01*
X152793522Y-179178394D01*
X152789895Y-179193649D01*
X152784369Y-179244514D01*
X152784000Y-179251328D01*
X152784000Y-179277885D01*
X150999999Y-179277885D01*
X150999999Y-179251331D01*
X150999629Y-179244510D01*
X150994105Y-179193648D01*
X150990479Y-179178396D01*
X150945324Y-179057946D01*
X150936786Y-179042351D01*
X150860285Y-178940276D01*
X150847724Y-178927715D01*
X150745649Y-178851214D01*
X150730054Y-178842676D01*
X150609606Y-178797522D01*
X150594351Y-178793895D01*
X150543486Y-178788369D01*
X150536672Y-178788000D01*
X150510115Y-178788000D01*
X150494876Y-178792475D01*
X150493671Y-178793865D01*
X150492000Y-178801548D01*
X150492000Y-179277885D01*
X148292000Y-179277885D01*
X148292000Y-178806116D01*
X148287525Y-178790877D01*
X148286135Y-178789672D01*
X148278452Y-178788001D01*
X148247331Y-178788001D01*
X148240510Y-178788371D01*
X148189648Y-178793895D01*
X148174396Y-178797521D01*
X148053946Y-178842676D01*
X148038351Y-178851214D01*
X147936276Y-178927715D01*
X147923715Y-178940276D01*
X147847214Y-179042351D01*
X147838676Y-179057946D01*
X147793522Y-179178394D01*
X147789895Y-179193649D01*
X147784369Y-179244514D01*
X147784000Y-179251328D01*
X147784000Y-179277885D01*
X142240000Y-179277885D01*
X142240000Y-177800000D01*
X157582496Y-177800000D01*
X157583186Y-177806565D01*
X157590826Y-177879251D01*
X157602458Y-177989928D01*
X157661473Y-178171556D01*
X157664776Y-178177278D01*
X157664777Y-178177279D01*
X157669074Y-178184721D01*
X157756960Y-178336944D01*
X157761378Y-178341851D01*
X157761379Y-178341852D01*
X157880325Y-178473955D01*
X157884747Y-178478866D01*
X158039248Y-178591118D01*
X158042230Y-178592446D01*
X158090369Y-178642931D01*
X158103807Y-178712644D01*
X158077421Y-178778556D01*
X158022607Y-178818651D01*
X157974067Y-178836848D01*
X157951295Y-178845385D01*
X157834739Y-178932739D01*
X157747385Y-179049295D01*
X157696255Y-179185684D01*
X157689500Y-179247866D01*
X157689500Y-181544134D01*
X157696255Y-181606316D01*
X157747385Y-181742705D01*
X157834739Y-181859261D01*
X157951295Y-181946615D01*
X158087684Y-181997745D01*
X158149866Y-182004500D01*
X160446134Y-182004500D01*
X160508316Y-181997745D01*
X160644705Y-181946615D01*
X160761261Y-181859261D01*
X160848615Y-181742705D01*
X160899745Y-181606316D01*
X160906500Y-181544134D01*
X162689500Y-181544134D01*
X162696255Y-181606316D01*
X162747385Y-181742705D01*
X162834739Y-181859261D01*
X162951295Y-181946615D01*
X163087684Y-181997745D01*
X163149866Y-182004500D01*
X165446134Y-182004500D01*
X165508316Y-181997745D01*
X165644705Y-181946615D01*
X165761261Y-181859261D01*
X165848615Y-181742705D01*
X165899745Y-181606316D01*
X165906500Y-181544134D01*
X165906500Y-179247866D01*
X165899745Y-179185684D01*
X165896971Y-179178284D01*
X165895144Y-179170600D01*
X165898165Y-179169882D01*
X165894035Y-179113476D01*
X165927955Y-179051107D01*
X165990209Y-179016976D01*
X166061034Y-179021921D01*
X166117941Y-179064371D01*
X166126320Y-179077051D01*
X166138960Y-179098944D01*
X166143378Y-179103851D01*
X166143379Y-179103852D01*
X166224232Y-179193648D01*
X166266747Y-179240866D01*
X166421248Y-179353118D01*
X166427276Y-179355802D01*
X166427278Y-179355803D01*
X166532656Y-179402720D01*
X166595712Y-179430794D01*
X166689113Y-179450647D01*
X166776056Y-179469128D01*
X166776061Y-179469128D01*
X166782513Y-179470500D01*
X166973487Y-179470500D01*
X166979939Y-179469128D01*
X166979944Y-179469128D01*
X167066887Y-179450647D01*
X167160288Y-179430794D01*
X167223344Y-179402720D01*
X167328722Y-179355803D01*
X167328724Y-179355802D01*
X167334752Y-179353118D01*
X167489253Y-179240866D01*
X167531768Y-179193648D01*
X167612621Y-179103852D01*
X167612622Y-179103851D01*
X167617040Y-179098944D01*
X167712527Y-178933556D01*
X167771542Y-178751928D01*
X167776107Y-178708500D01*
X167790814Y-178568565D01*
X167791504Y-178562000D01*
X167784201Y-178492516D01*
X167772232Y-178378635D01*
X167772232Y-178378633D01*
X167771542Y-178372072D01*
X167712527Y-178190444D01*
X167706780Y-178180489D01*
X167663767Y-178105990D01*
X167617040Y-178025056D01*
X167593649Y-177999077D01*
X167493675Y-177888045D01*
X167493674Y-177888044D01*
X167489253Y-177883134D01*
X167366374Y-177793857D01*
X167340094Y-177774763D01*
X167340093Y-177774762D01*
X167334752Y-177770882D01*
X167328724Y-177768198D01*
X167328722Y-177768197D01*
X167166319Y-177695891D01*
X167166318Y-177695891D01*
X167160288Y-177693206D01*
X167066888Y-177673353D01*
X166979944Y-177654872D01*
X166979939Y-177654872D01*
X166973487Y-177653500D01*
X166782513Y-177653500D01*
X166776061Y-177654872D01*
X166776056Y-177654872D01*
X166689112Y-177673353D01*
X166595712Y-177693206D01*
X166589682Y-177695891D01*
X166589681Y-177695891D01*
X166427278Y-177768197D01*
X166427276Y-177768198D01*
X166421248Y-177770882D01*
X166415907Y-177774762D01*
X166415906Y-177774763D01*
X166389626Y-177793857D01*
X166266747Y-177883134D01*
X166262326Y-177888044D01*
X166262325Y-177888045D01*
X166162352Y-177999077D01*
X166138960Y-178025056D01*
X166092233Y-178105990D01*
X166049221Y-178180489D01*
X166043473Y-178190444D01*
X165984458Y-178372072D01*
X165983768Y-178378633D01*
X165983768Y-178378635D01*
X165971799Y-178492516D01*
X165964496Y-178562000D01*
X165965186Y-178568565D01*
X165979894Y-178708500D01*
X165984458Y-178751928D01*
X165996299Y-178788371D01*
X166024436Y-178874967D01*
X166026464Y-178945934D01*
X165989801Y-179006732D01*
X165926089Y-179038058D01*
X165855555Y-179029965D01*
X165803777Y-178989468D01*
X165766642Y-178939919D01*
X165761261Y-178932739D01*
X165644705Y-178845385D01*
X165508316Y-178794255D01*
X165446134Y-178787500D01*
X163149866Y-178787500D01*
X163087684Y-178794255D01*
X162951295Y-178845385D01*
X162834739Y-178932739D01*
X162747385Y-179049295D01*
X162696255Y-179185684D01*
X162689500Y-179247866D01*
X162689500Y-181544134D01*
X160906500Y-181544134D01*
X160906500Y-179247866D01*
X160899745Y-179185684D01*
X160848615Y-179049295D01*
X160761261Y-178932739D01*
X160644705Y-178845385D01*
X160508316Y-178794255D01*
X160446134Y-178787500D01*
X159070243Y-178787500D01*
X159002122Y-178767498D01*
X158955629Y-178713842D01*
X158945525Y-178643568D01*
X158975019Y-178578988D01*
X158996182Y-178559564D01*
X159101909Y-178482749D01*
X159101911Y-178482747D01*
X159107253Y-178478866D01*
X159111675Y-178473955D01*
X159230621Y-178341852D01*
X159230622Y-178341851D01*
X159235040Y-178336944D01*
X159322926Y-178184721D01*
X159327223Y-178177279D01*
X159327224Y-178177278D01*
X159330527Y-178171556D01*
X159389542Y-177989928D01*
X159401175Y-177879251D01*
X159408814Y-177806565D01*
X159409504Y-177800000D01*
X159398280Y-177693206D01*
X159390232Y-177616635D01*
X159390232Y-177616633D01*
X159389542Y-177610072D01*
X159330527Y-177428444D01*
X159235040Y-177263056D01*
X159107253Y-177121134D01*
X158952752Y-177008882D01*
X158946724Y-177006198D01*
X158946722Y-177006197D01*
X158784319Y-176933891D01*
X158784318Y-176933891D01*
X158778288Y-176931206D01*
X158684887Y-176911353D01*
X158597944Y-176892872D01*
X158597939Y-176892872D01*
X158591487Y-176891500D01*
X158400513Y-176891500D01*
X158394061Y-176892872D01*
X158394056Y-176892872D01*
X158307113Y-176911353D01*
X158213712Y-176931206D01*
X158207682Y-176933891D01*
X158207681Y-176933891D01*
X158045278Y-177006197D01*
X158045276Y-177006198D01*
X158039248Y-177008882D01*
X157884747Y-177121134D01*
X157756960Y-177263056D01*
X157661473Y-177428444D01*
X157602458Y-177610072D01*
X157601768Y-177616633D01*
X157601768Y-177616635D01*
X157593720Y-177693206D01*
X157582496Y-177800000D01*
X142240000Y-177800000D01*
X142240000Y-174498000D01*
X147930496Y-174498000D01*
X147931186Y-174504565D01*
X147948863Y-174672749D01*
X147950458Y-174687928D01*
X148009473Y-174869556D01*
X148104960Y-175034944D01*
X148109378Y-175039851D01*
X148109379Y-175039852D01*
X148217197Y-175159596D01*
X148232747Y-175176866D01*
X148387248Y-175289118D01*
X148393276Y-175291802D01*
X148393278Y-175291803D01*
X148555681Y-175364109D01*
X148561712Y-175366794D01*
X148655113Y-175386647D01*
X148742056Y-175405128D01*
X148742061Y-175405128D01*
X148748513Y-175406500D01*
X148939487Y-175406500D01*
X148945939Y-175405128D01*
X148945944Y-175405128D01*
X149032887Y-175386647D01*
X149126288Y-175366794D01*
X149132319Y-175364109D01*
X149294722Y-175291803D01*
X149294724Y-175291802D01*
X149300752Y-175289118D01*
X149455253Y-175176866D01*
X149470803Y-175159596D01*
X149578621Y-175039852D01*
X149578622Y-175039851D01*
X149583040Y-175034944D01*
X149678527Y-174869556D01*
X149737542Y-174687928D01*
X149739138Y-174672749D01*
X149756814Y-174504565D01*
X149757504Y-174498000D01*
X149737542Y-174308072D01*
X149678527Y-174126444D01*
X149668163Y-174108492D01*
X149599751Y-173990000D01*
X149583040Y-173961056D01*
X149550825Y-173925277D01*
X149459675Y-173824045D01*
X149459674Y-173824044D01*
X149455253Y-173819134D01*
X149300752Y-173706882D01*
X149294724Y-173704198D01*
X149294722Y-173704197D01*
X149132319Y-173631891D01*
X149132318Y-173631891D01*
X149126288Y-173629206D01*
X149008532Y-173604176D01*
X148945944Y-173590872D01*
X148945939Y-173590872D01*
X148939487Y-173589500D01*
X148748513Y-173589500D01*
X148742061Y-173590872D01*
X148742056Y-173590872D01*
X148679468Y-173604176D01*
X148561712Y-173629206D01*
X148555682Y-173631891D01*
X148555681Y-173631891D01*
X148393278Y-173704197D01*
X148393276Y-173704198D01*
X148387248Y-173706882D01*
X148232747Y-173819134D01*
X148228326Y-173824044D01*
X148228325Y-173824045D01*
X148137176Y-173925277D01*
X148104960Y-173961056D01*
X148088249Y-173990000D01*
X148019838Y-174108492D01*
X148009473Y-174126444D01*
X147950458Y-174308072D01*
X147930496Y-174498000D01*
X142240000Y-174498000D01*
X142240000Y-172720000D01*
X156312496Y-172720000D01*
X156332458Y-172909928D01*
X156391473Y-173091556D01*
X156486960Y-173256944D01*
X156491378Y-173261851D01*
X156491379Y-173261852D01*
X156585326Y-173366191D01*
X156614747Y-173398866D01*
X156769248Y-173511118D01*
X156775276Y-173513802D01*
X156775278Y-173513803D01*
X156790920Y-173520767D01*
X156943712Y-173588794D01*
X157037113Y-173608647D01*
X157124056Y-173627128D01*
X157124061Y-173627128D01*
X157130513Y-173628500D01*
X157321487Y-173628500D01*
X157327939Y-173627128D01*
X157327944Y-173627128D01*
X157414887Y-173608647D01*
X157508288Y-173588794D01*
X157661080Y-173520767D01*
X157676722Y-173513803D01*
X157676724Y-173513802D01*
X157682752Y-173511118D01*
X157837253Y-173398866D01*
X157866674Y-173366191D01*
X157960621Y-173261852D01*
X157960622Y-173261851D01*
X157965040Y-173256944D01*
X158060527Y-173091556D01*
X158119542Y-172909928D01*
X158139504Y-172720000D01*
X158119542Y-172530072D01*
X158060527Y-172348444D01*
X157965040Y-172183056D01*
X157885254Y-172094444D01*
X157841675Y-172046045D01*
X157841674Y-172046044D01*
X157837253Y-172041134D01*
X157682752Y-171928882D01*
X157676724Y-171926198D01*
X157676722Y-171926197D01*
X157514319Y-171853891D01*
X157514318Y-171853891D01*
X157508288Y-171851206D01*
X157414887Y-171831353D01*
X157327944Y-171812872D01*
X157327939Y-171812872D01*
X157321487Y-171811500D01*
X157130513Y-171811500D01*
X157124061Y-171812872D01*
X157124056Y-171812872D01*
X157037113Y-171831353D01*
X156943712Y-171851206D01*
X156937682Y-171853891D01*
X156937681Y-171853891D01*
X156775278Y-171926197D01*
X156775276Y-171926198D01*
X156769248Y-171928882D01*
X156614747Y-172041134D01*
X156610326Y-172046044D01*
X156610325Y-172046045D01*
X156566747Y-172094444D01*
X156486960Y-172183056D01*
X156391473Y-172348444D01*
X156332458Y-172530072D01*
X156312496Y-172720000D01*
X142240000Y-172720000D01*
X142240000Y-171474000D01*
X158789546Y-171474000D01*
X158790236Y-171480565D01*
X158804611Y-171617331D01*
X158809508Y-171663928D01*
X158868523Y-171845556D01*
X158964010Y-172010944D01*
X159091797Y-172152866D01*
X159246298Y-172265118D01*
X159252332Y-172267805D01*
X159252333Y-172267805D01*
X159291929Y-172285434D01*
X159346026Y-172331413D01*
X159366676Y-172399340D01*
X159365992Y-172413709D01*
X159360496Y-172466000D01*
X159380458Y-172655928D01*
X159439473Y-172837556D01*
X159534960Y-173002944D01*
X159539378Y-173007851D01*
X159539379Y-173007852D01*
X159635976Y-173115134D01*
X159662747Y-173144866D01*
X159817248Y-173257118D01*
X159823276Y-173259802D01*
X159823278Y-173259803D01*
X159958958Y-173320211D01*
X160013053Y-173366191D01*
X160033703Y-173434118D01*
X160016828Y-173498318D01*
X159955711Y-173604176D01*
X159947473Y-173618444D01*
X159888458Y-173800072D01*
X159887768Y-173806633D01*
X159887768Y-173806635D01*
X159871839Y-173958197D01*
X159868496Y-173990000D01*
X159869186Y-173996565D01*
X159878836Y-174088375D01*
X159888458Y-174179928D01*
X159947473Y-174361556D01*
X160042960Y-174526944D01*
X160047378Y-174531851D01*
X160047379Y-174531852D01*
X160074589Y-174562072D01*
X160170747Y-174668866D01*
X160246212Y-174723695D01*
X160294207Y-174758565D01*
X160325248Y-174781118D01*
X160331276Y-174783802D01*
X160331278Y-174783803D01*
X160493681Y-174856109D01*
X160499712Y-174858794D01*
X160593112Y-174878647D01*
X160680056Y-174897128D01*
X160680061Y-174897128D01*
X160686513Y-174898500D01*
X160877487Y-174898500D01*
X160883939Y-174897128D01*
X160883944Y-174897128D01*
X160970888Y-174878647D01*
X161064288Y-174858794D01*
X161230116Y-174784963D01*
X161300482Y-174775529D01*
X161364779Y-174805635D01*
X161402593Y-174865724D01*
X161406674Y-174886899D01*
X161411768Y-174935365D01*
X161412458Y-174941928D01*
X161471473Y-175123556D01*
X161474776Y-175129278D01*
X161474777Y-175129279D01*
X161499416Y-175171955D01*
X161566960Y-175288944D01*
X161694747Y-175430866D01*
X161849248Y-175543118D01*
X161855276Y-175545802D01*
X161855278Y-175545803D01*
X162017681Y-175618109D01*
X162023712Y-175620794D01*
X162096624Y-175636292D01*
X162204056Y-175659128D01*
X162204061Y-175659128D01*
X162210513Y-175660500D01*
X162401487Y-175660500D01*
X162407939Y-175659128D01*
X162407944Y-175659128D01*
X162515376Y-175636292D01*
X162588288Y-175620794D01*
X162594319Y-175618109D01*
X162756722Y-175545803D01*
X162756724Y-175545802D01*
X162762752Y-175543118D01*
X162917253Y-175430866D01*
X163045040Y-175288944D01*
X163112584Y-175171955D01*
X163137223Y-175129279D01*
X163137224Y-175129278D01*
X163140527Y-175123556D01*
X163199542Y-174941928D01*
X163204107Y-174898500D01*
X163218814Y-174758565D01*
X163219504Y-174752000D01*
X163212080Y-174681365D01*
X163200232Y-174568635D01*
X163200232Y-174568633D01*
X163199542Y-174562072D01*
X163140527Y-174380444D01*
X163045040Y-174215056D01*
X163019064Y-174186206D01*
X162921675Y-174078045D01*
X162921674Y-174078044D01*
X162917253Y-174073134D01*
X162802829Y-173990000D01*
X162768094Y-173964763D01*
X162768093Y-173964762D01*
X162762752Y-173960882D01*
X162756724Y-173958198D01*
X162756722Y-173958197D01*
X162594319Y-173885891D01*
X162594318Y-173885891D01*
X162588288Y-173883206D01*
X162494887Y-173863353D01*
X162407944Y-173844872D01*
X162407939Y-173844872D01*
X162401487Y-173843500D01*
X162210513Y-173843500D01*
X162204061Y-173844872D01*
X162204056Y-173844872D01*
X162117113Y-173863353D01*
X162023712Y-173883206D01*
X161857884Y-173957037D01*
X161787518Y-173966471D01*
X161723221Y-173936365D01*
X161685407Y-173876276D01*
X161681326Y-173855101D01*
X161676232Y-173806635D01*
X161676232Y-173806633D01*
X161675542Y-173800072D01*
X161616527Y-173618444D01*
X161608290Y-173604176D01*
X161556112Y-173513803D01*
X161521040Y-173453056D01*
X161505361Y-173435642D01*
X161397675Y-173316045D01*
X161397674Y-173316044D01*
X161393253Y-173311134D01*
X161238752Y-173198882D01*
X161232724Y-173196198D01*
X161232722Y-173196197D01*
X161097042Y-173135789D01*
X161042947Y-173089809D01*
X161022297Y-173021882D01*
X161039172Y-172957682D01*
X161105223Y-172843279D01*
X161105224Y-172843278D01*
X161108527Y-172837556D01*
X161146724Y-172720000D01*
X166472496Y-172720000D01*
X166492458Y-172909928D01*
X166551473Y-173091556D01*
X166646960Y-173256944D01*
X166651378Y-173261851D01*
X166651379Y-173261852D01*
X166745326Y-173366191D01*
X166774747Y-173398866D01*
X166929248Y-173511118D01*
X166935276Y-173513802D01*
X166935278Y-173513803D01*
X166950920Y-173520767D01*
X167103712Y-173588794D01*
X167197113Y-173608647D01*
X167284056Y-173627128D01*
X167284061Y-173627128D01*
X167290513Y-173628500D01*
X167481487Y-173628500D01*
X167487939Y-173627128D01*
X167487944Y-173627128D01*
X167574887Y-173608647D01*
X167668288Y-173588794D01*
X167821080Y-173520767D01*
X167836722Y-173513803D01*
X167836724Y-173513802D01*
X167842752Y-173511118D01*
X167929423Y-173448148D01*
X167982293Y-173409735D01*
X167997253Y-173398866D01*
X168001668Y-173393963D01*
X168004221Y-173391664D01*
X168068229Y-173360947D01*
X168138682Y-173369712D01*
X168189355Y-173409735D01*
X168199356Y-173423079D01*
X168204739Y-173430261D01*
X168321295Y-173517615D01*
X168329704Y-173520767D01*
X168329705Y-173520768D01*
X168438451Y-173561535D01*
X168495216Y-173604176D01*
X168519916Y-173670738D01*
X168504709Y-173740087D01*
X168485316Y-173766568D01*
X168358629Y-173899138D01*
X168355715Y-173903410D01*
X168355714Y-173903411D01*
X168312491Y-173966774D01*
X168232743Y-174083680D01*
X168217003Y-174117590D01*
X168171761Y-174215056D01*
X168138688Y-174286305D01*
X168078989Y-174501570D01*
X168055251Y-174723695D01*
X168055548Y-174728848D01*
X168055548Y-174728851D01*
X168063120Y-174860166D01*
X168068110Y-174946715D01*
X168069247Y-174951761D01*
X168069248Y-174951767D01*
X168089100Y-175039852D01*
X168117222Y-175164639D01*
X168201266Y-175371616D01*
X168203965Y-175376020D01*
X168308008Y-175545803D01*
X168317987Y-175562088D01*
X168464250Y-175730938D01*
X168636126Y-175873632D01*
X168706595Y-175914811D01*
X168709445Y-175916476D01*
X168758169Y-175968114D01*
X168771240Y-176037897D01*
X168744509Y-176103669D01*
X168704055Y-176137027D01*
X168691607Y-176143507D01*
X168687474Y-176146610D01*
X168687471Y-176146612D01*
X168663247Y-176164800D01*
X168512965Y-176277635D01*
X168358629Y-176439138D01*
X168232743Y-176623680D01*
X168138688Y-176826305D01*
X168078989Y-177041570D01*
X168055251Y-177263695D01*
X168055548Y-177268848D01*
X168055548Y-177268851D01*
X168067812Y-177481547D01*
X168068110Y-177486715D01*
X168069247Y-177491761D01*
X168069248Y-177491767D01*
X168089119Y-177579939D01*
X168117222Y-177704639D01*
X168201266Y-177911616D01*
X168317987Y-178102088D01*
X168464250Y-178270938D01*
X168636126Y-178413632D01*
X168706595Y-178454811D01*
X168709445Y-178456476D01*
X168758169Y-178508114D01*
X168771240Y-178577897D01*
X168744509Y-178643669D01*
X168704055Y-178677027D01*
X168691607Y-178683507D01*
X168687474Y-178686610D01*
X168687471Y-178686612D01*
X168517100Y-178814530D01*
X168512965Y-178817635D01*
X168480876Y-178851214D01*
X168390360Y-178945934D01*
X168358629Y-178979138D01*
X168355715Y-178983410D01*
X168355714Y-178983411D01*
X168315673Y-179042109D01*
X168232743Y-179163680D01*
X168218832Y-179193649D01*
X168146611Y-179349237D01*
X168138688Y-179366305D01*
X168078989Y-179581570D01*
X168055251Y-179803695D01*
X168055548Y-179808848D01*
X168055548Y-179808851D01*
X168061011Y-179903590D01*
X168068110Y-180026715D01*
X168069247Y-180031761D01*
X168069248Y-180031767D01*
X168083244Y-180093870D01*
X168117222Y-180244639D01*
X168201266Y-180451616D01*
X168317987Y-180642088D01*
X168464250Y-180810938D01*
X168636126Y-180953632D01*
X168706595Y-180994811D01*
X168709445Y-180996476D01*
X168758169Y-181048114D01*
X168771240Y-181117897D01*
X168744509Y-181183669D01*
X168704055Y-181217027D01*
X168691607Y-181223507D01*
X168687474Y-181226610D01*
X168687471Y-181226612D01*
X168517100Y-181354530D01*
X168512965Y-181357635D01*
X168358629Y-181519138D01*
X168355715Y-181523410D01*
X168355714Y-181523411D01*
X168304593Y-181598352D01*
X168232743Y-181703680D01*
X168218644Y-181734054D01*
X168164024Y-181851724D01*
X168138688Y-181906305D01*
X168078989Y-182121570D01*
X168055251Y-182343695D01*
X168055548Y-182348848D01*
X168055548Y-182348851D01*
X168061011Y-182443590D01*
X168068110Y-182566715D01*
X168069247Y-182571761D01*
X168069248Y-182571767D01*
X168083244Y-182633870D01*
X168117222Y-182784639D01*
X168201266Y-182991616D01*
X168317987Y-183182088D01*
X168464250Y-183350938D01*
X168636126Y-183493632D01*
X168829000Y-183606338D01*
X169037692Y-183686030D01*
X169042760Y-183687061D01*
X169042763Y-183687062D01*
X169150017Y-183708883D01*
X169256597Y-183730567D01*
X169261772Y-183730757D01*
X169261774Y-183730757D01*
X169474673Y-183738564D01*
X169474677Y-183738564D01*
X169479837Y-183738753D01*
X169484957Y-183738097D01*
X169484959Y-183738097D01*
X169696288Y-183711025D01*
X169696289Y-183711025D01*
X169701416Y-183710368D01*
X169706366Y-183708883D01*
X169910429Y-183647661D01*
X169910434Y-183647659D01*
X169915384Y-183646174D01*
X170115994Y-183547896D01*
X170297860Y-183418173D01*
X170306542Y-183409522D01*
X170452435Y-183264137D01*
X170456096Y-183260489D01*
X170508399Y-183187702D01*
X170583435Y-183083277D01*
X170586453Y-183079077D01*
X170631669Y-182987590D01*
X170683136Y-182883453D01*
X170683137Y-182883451D01*
X170685430Y-182878811D01*
X170750370Y-182665069D01*
X170779529Y-182443590D01*
X170779611Y-182440240D01*
X170781074Y-182380365D01*
X170781074Y-182380361D01*
X170781156Y-182377000D01*
X170762852Y-182154361D01*
X170708431Y-181937702D01*
X170619354Y-181732840D01*
X170532349Y-181598351D01*
X170500822Y-181549617D01*
X170500820Y-181549614D01*
X170498014Y-181545277D01*
X170347670Y-181380051D01*
X170343619Y-181376852D01*
X170343615Y-181376848D01*
X170176414Y-181244800D01*
X170176410Y-181244798D01*
X170172359Y-181241598D01*
X170131053Y-181218796D01*
X170081084Y-181168364D01*
X170066312Y-181098921D01*
X170091428Y-181032516D01*
X170118780Y-181005909D01*
X170162603Y-180974650D01*
X170297860Y-180878173D01*
X170306542Y-180869522D01*
X170452435Y-180724137D01*
X170456096Y-180720489D01*
X170508399Y-180647702D01*
X170583435Y-180543277D01*
X170586453Y-180539077D01*
X170631669Y-180447590D01*
X170683136Y-180343453D01*
X170683137Y-180343451D01*
X170685430Y-180338811D01*
X170750370Y-180125069D01*
X170779529Y-179903590D01*
X170781156Y-179837000D01*
X170762852Y-179614361D01*
X170708431Y-179397702D01*
X170619354Y-179192840D01*
X170519221Y-179038058D01*
X170500822Y-179009617D01*
X170500820Y-179009614D01*
X170498014Y-179005277D01*
X170347670Y-178840051D01*
X170343619Y-178836852D01*
X170343615Y-178836848D01*
X170176414Y-178704800D01*
X170176410Y-178704798D01*
X170172359Y-178701598D01*
X170131053Y-178678796D01*
X170081084Y-178628364D01*
X170066312Y-178558921D01*
X170091428Y-178492516D01*
X170118780Y-178465909D01*
X170162603Y-178434650D01*
X170297860Y-178338173D01*
X170304832Y-178331226D01*
X170452435Y-178184137D01*
X170456096Y-178180489D01*
X170515594Y-178097689D01*
X170583435Y-178003277D01*
X170586453Y-177999077D01*
X170594219Y-177983365D01*
X170683136Y-177803453D01*
X170683137Y-177803451D01*
X170685430Y-177798811D01*
X170729579Y-177653500D01*
X170748865Y-177590023D01*
X170748865Y-177590021D01*
X170750370Y-177585069D01*
X170779529Y-177363590D01*
X170781156Y-177297000D01*
X170762852Y-177074361D01*
X170708431Y-176857702D01*
X170619354Y-176652840D01*
X170498014Y-176465277D01*
X170347670Y-176300051D01*
X170343619Y-176296852D01*
X170343615Y-176296848D01*
X170176414Y-176164800D01*
X170176410Y-176164798D01*
X170172359Y-176161598D01*
X170131053Y-176138796D01*
X170081084Y-176088364D01*
X170066312Y-176018921D01*
X170091428Y-175952516D01*
X170118780Y-175925909D01*
X170162603Y-175894650D01*
X170297860Y-175798173D01*
X170456096Y-175640489D01*
X170515594Y-175557689D01*
X170583435Y-175463277D01*
X170586453Y-175459077D01*
X170669125Y-175291803D01*
X170683136Y-175263453D01*
X170683137Y-175263451D01*
X170685430Y-175258811D01*
X170750370Y-175045069D01*
X170779529Y-174823590D01*
X170781156Y-174757000D01*
X170762852Y-174534361D01*
X170708431Y-174317702D01*
X170619354Y-174112840D01*
X170523559Y-173964763D01*
X170500822Y-173929617D01*
X170500820Y-173929614D01*
X170498014Y-173925277D01*
X170494532Y-173921450D01*
X170350798Y-173763488D01*
X170319746Y-173699642D01*
X170328141Y-173629143D01*
X170373317Y-173574375D01*
X170399761Y-173560706D01*
X170506297Y-173520767D01*
X170514705Y-173517615D01*
X170631261Y-173430261D01*
X170718615Y-173313705D01*
X170769745Y-173177316D01*
X170776500Y-173115134D01*
X170776500Y-171318866D01*
X170769745Y-171256684D01*
X170718615Y-171120295D01*
X170631261Y-171003739D01*
X170514705Y-170916385D01*
X170378316Y-170865255D01*
X170316134Y-170858500D01*
X168519866Y-170858500D01*
X168457684Y-170865255D01*
X168321295Y-170916385D01*
X168204739Y-171003739D01*
X168117385Y-171120295D01*
X168066255Y-171256684D01*
X168059500Y-171318866D01*
X168059500Y-171839070D01*
X168039498Y-171907191D01*
X167985842Y-171953684D01*
X167915568Y-171963788D01*
X167859441Y-171941007D01*
X167842752Y-171928882D01*
X167836724Y-171926198D01*
X167836722Y-171926197D01*
X167674319Y-171853891D01*
X167674318Y-171853891D01*
X167668288Y-171851206D01*
X167574887Y-171831353D01*
X167487944Y-171812872D01*
X167487939Y-171812872D01*
X167481487Y-171811500D01*
X167290513Y-171811500D01*
X167284061Y-171812872D01*
X167284056Y-171812872D01*
X167197113Y-171831353D01*
X167103712Y-171851206D01*
X167097682Y-171853891D01*
X167097681Y-171853891D01*
X166935278Y-171926197D01*
X166935276Y-171926198D01*
X166929248Y-171928882D01*
X166774747Y-172041134D01*
X166770326Y-172046044D01*
X166770325Y-172046045D01*
X166726747Y-172094444D01*
X166646960Y-172183056D01*
X166551473Y-172348444D01*
X166492458Y-172530072D01*
X166472496Y-172720000D01*
X161146724Y-172720000D01*
X161167542Y-172655928D01*
X161187504Y-172466000D01*
X161173359Y-172331413D01*
X161168232Y-172282635D01*
X161168232Y-172282633D01*
X161167542Y-172276072D01*
X161108527Y-172094444D01*
X161013040Y-171929056D01*
X160885253Y-171787134D01*
X160730752Y-171674882D01*
X160720250Y-171670206D01*
X160685121Y-171654566D01*
X160631024Y-171608587D01*
X160610374Y-171540660D01*
X160611058Y-171526288D01*
X160615864Y-171480565D01*
X160616554Y-171474000D01*
X160596592Y-171284072D01*
X160537577Y-171102444D01*
X160442090Y-170937056D01*
X160428328Y-170921771D01*
X160318725Y-170800045D01*
X160318724Y-170800044D01*
X160314303Y-170795134D01*
X160159802Y-170682882D01*
X160153774Y-170680198D01*
X160153772Y-170680197D01*
X159991369Y-170607891D01*
X159991368Y-170607891D01*
X159985338Y-170605206D01*
X159891938Y-170585353D01*
X159804994Y-170566872D01*
X159804989Y-170566872D01*
X159798537Y-170565500D01*
X159607563Y-170565500D01*
X159601111Y-170566872D01*
X159601106Y-170566872D01*
X159514162Y-170585353D01*
X159420762Y-170605206D01*
X159414732Y-170607891D01*
X159414731Y-170607891D01*
X159252328Y-170680197D01*
X159252326Y-170680198D01*
X159246298Y-170682882D01*
X159091797Y-170795134D01*
X159087376Y-170800044D01*
X159087375Y-170800045D01*
X158977773Y-170921771D01*
X158964010Y-170937056D01*
X158868523Y-171102444D01*
X158809508Y-171284072D01*
X158789546Y-171474000D01*
X142240000Y-171474000D01*
X142240000Y-165354000D01*
X149454496Y-165354000D01*
X149474458Y-165543928D01*
X149533473Y-165725556D01*
X149628960Y-165890944D01*
X149756747Y-166032866D01*
X149911248Y-166145118D01*
X149917276Y-166147802D01*
X149917278Y-166147803D01*
X150079681Y-166220109D01*
X150085712Y-166222794D01*
X150179112Y-166242647D01*
X150266056Y-166261128D01*
X150266061Y-166261128D01*
X150272513Y-166262500D01*
X150463487Y-166262500D01*
X150469939Y-166261128D01*
X150469944Y-166261128D01*
X150556888Y-166242647D01*
X150650288Y-166222794D01*
X150656319Y-166220109D01*
X150818722Y-166147803D01*
X150818724Y-166147802D01*
X150824752Y-166145118D01*
X150979253Y-166032866D01*
X151107040Y-165890944D01*
X151202527Y-165725556D01*
X151261542Y-165543928D01*
X151281504Y-165354000D01*
X151261542Y-165164072D01*
X151202527Y-164982444D01*
X151107040Y-164817056D01*
X150979253Y-164675134D01*
X150824752Y-164562882D01*
X150818724Y-164560198D01*
X150818722Y-164560197D01*
X150656319Y-164487891D01*
X150656318Y-164487891D01*
X150650288Y-164485206D01*
X150556888Y-164465353D01*
X150469944Y-164446872D01*
X150469939Y-164446872D01*
X150463487Y-164445500D01*
X150272513Y-164445500D01*
X150266061Y-164446872D01*
X150266056Y-164446872D01*
X150179112Y-164465353D01*
X150085712Y-164485206D01*
X150079682Y-164487891D01*
X150079681Y-164487891D01*
X149917278Y-164560197D01*
X149917276Y-164560198D01*
X149911248Y-164562882D01*
X149756747Y-164675134D01*
X149628960Y-164817056D01*
X149533473Y-164982444D01*
X149474458Y-165164072D01*
X149454496Y-165354000D01*
X142240000Y-165354000D01*
X142240000Y-163068000D01*
X143612496Y-163068000D01*
X143632458Y-163257928D01*
X143691473Y-163439556D01*
X143786960Y-163604944D01*
X143914747Y-163746866D01*
X144069248Y-163859118D01*
X144075276Y-163861802D01*
X144075278Y-163861803D01*
X144237681Y-163934109D01*
X144243712Y-163936794D01*
X144337112Y-163956647D01*
X144424056Y-163975128D01*
X144424061Y-163975128D01*
X144430513Y-163976500D01*
X144621487Y-163976500D01*
X144627939Y-163975128D01*
X144627944Y-163975128D01*
X144714888Y-163956647D01*
X144808288Y-163936794D01*
X144814319Y-163934109D01*
X144976722Y-163861803D01*
X144976724Y-163861802D01*
X144982752Y-163859118D01*
X145137253Y-163746866D01*
X145265040Y-163604944D01*
X145360527Y-163439556D01*
X145419542Y-163257928D01*
X145439504Y-163068000D01*
X145419542Y-162878072D01*
X145360527Y-162696444D01*
X145265040Y-162531056D01*
X145137253Y-162389134D01*
X144982752Y-162276882D01*
X144976724Y-162274198D01*
X144976722Y-162274197D01*
X144814319Y-162201891D01*
X144814318Y-162201891D01*
X144808288Y-162199206D01*
X144714888Y-162179353D01*
X144627944Y-162160872D01*
X144627939Y-162160872D01*
X144621487Y-162159500D01*
X144430513Y-162159500D01*
X144424061Y-162160872D01*
X144424056Y-162160872D01*
X144337112Y-162179353D01*
X144243712Y-162199206D01*
X144237682Y-162201891D01*
X144237681Y-162201891D01*
X144075278Y-162274197D01*
X144075276Y-162274198D01*
X144069248Y-162276882D01*
X143914747Y-162389134D01*
X143786960Y-162531056D01*
X143691473Y-162696444D01*
X143632458Y-162878072D01*
X143612496Y-163068000D01*
X142240000Y-163068000D01*
X142240000Y-156972000D01*
X153010496Y-156972000D01*
X153011186Y-156978565D01*
X153020823Y-157070252D01*
X153030458Y-157161928D01*
X153089473Y-157343556D01*
X153184960Y-157508944D01*
X153312747Y-157650866D01*
X153467248Y-157763118D01*
X153473276Y-157765802D01*
X153473278Y-157765803D01*
X153635681Y-157838109D01*
X153641712Y-157840794D01*
X153735112Y-157860647D01*
X153822056Y-157879128D01*
X153822061Y-157879128D01*
X153828513Y-157880500D01*
X154019487Y-157880500D01*
X154025939Y-157879128D01*
X154025944Y-157879128D01*
X154112888Y-157860647D01*
X154206288Y-157840794D01*
X154212319Y-157838109D01*
X154374722Y-157765803D01*
X154374724Y-157765802D01*
X154380752Y-157763118D01*
X154484940Y-157687421D01*
X154551806Y-157663563D01*
X154620958Y-157679643D01*
X154633056Y-157687418D01*
X154737248Y-157763118D01*
X154743276Y-157765802D01*
X154743278Y-157765803D01*
X154905681Y-157838109D01*
X154911712Y-157840794D01*
X155005112Y-157860647D01*
X155092056Y-157879128D01*
X155092061Y-157879128D01*
X155098513Y-157880500D01*
X155289487Y-157880500D01*
X155295939Y-157879128D01*
X155295944Y-157879128D01*
X155382888Y-157860647D01*
X155476288Y-157840794D01*
X155482319Y-157838109D01*
X155644722Y-157765803D01*
X155644724Y-157765802D01*
X155650752Y-157763118D01*
X155805253Y-157650866D01*
X155933040Y-157508944D01*
X156028527Y-157343556D01*
X156087542Y-157161928D01*
X156097178Y-157070252D01*
X156106814Y-156978565D01*
X156107504Y-156972000D01*
X161138496Y-156972000D01*
X161139186Y-156978565D01*
X161148823Y-157070252D01*
X161158458Y-157161928D01*
X161217473Y-157343556D01*
X161312960Y-157508944D01*
X161440747Y-157650866D01*
X161595248Y-157763118D01*
X161601276Y-157765802D01*
X161601278Y-157765803D01*
X161763681Y-157838109D01*
X161769712Y-157840794D01*
X161863112Y-157860647D01*
X161950056Y-157879128D01*
X161950061Y-157879128D01*
X161956513Y-157880500D01*
X162147487Y-157880500D01*
X162153939Y-157879128D01*
X162153944Y-157879128D01*
X162240888Y-157860647D01*
X162334288Y-157840794D01*
X162340319Y-157838109D01*
X162502722Y-157765803D01*
X162502724Y-157765802D01*
X162508752Y-157763118D01*
X162663253Y-157650866D01*
X162791040Y-157508944D01*
X162886527Y-157343556D01*
X162945542Y-157161928D01*
X162945682Y-157160599D01*
X162978482Y-157099844D01*
X163040632Y-157065523D01*
X163111471Y-157070252D01*
X163168508Y-157112528D01*
X163190276Y-157160192D01*
X163190458Y-157161928D01*
X163249473Y-157343556D01*
X163344960Y-157508944D01*
X163472747Y-157650866D01*
X163627248Y-157763118D01*
X163633276Y-157765802D01*
X163633278Y-157765803D01*
X163795681Y-157838109D01*
X163801712Y-157840794D01*
X163895112Y-157860647D01*
X163982056Y-157879128D01*
X163982061Y-157879128D01*
X163988513Y-157880500D01*
X164179487Y-157880500D01*
X164185939Y-157879128D01*
X164185944Y-157879128D01*
X164272888Y-157860647D01*
X164366288Y-157840794D01*
X164372319Y-157838109D01*
X164534722Y-157765803D01*
X164534724Y-157765802D01*
X164540752Y-157763118D01*
X164695253Y-157650866D01*
X164823040Y-157508944D01*
X164918527Y-157343556D01*
X164977542Y-157161928D01*
X164987178Y-157070252D01*
X164996814Y-156978565D01*
X164997504Y-156972000D01*
X164996814Y-156965435D01*
X164978232Y-156788635D01*
X164978232Y-156788633D01*
X164977542Y-156782072D01*
X164918527Y-156600444D01*
X164823040Y-156435056D01*
X164695253Y-156293134D01*
X164540752Y-156180882D01*
X164534724Y-156178198D01*
X164534722Y-156178197D01*
X164372319Y-156105891D01*
X164372318Y-156105891D01*
X164366288Y-156103206D01*
X164272887Y-156083353D01*
X164185944Y-156064872D01*
X164185939Y-156064872D01*
X164179487Y-156063500D01*
X163988513Y-156063500D01*
X163982061Y-156064872D01*
X163982056Y-156064872D01*
X163895113Y-156083353D01*
X163801712Y-156103206D01*
X163795682Y-156105891D01*
X163795681Y-156105891D01*
X163633278Y-156178197D01*
X163633276Y-156178198D01*
X163627248Y-156180882D01*
X163472747Y-156293134D01*
X163344960Y-156435056D01*
X163249473Y-156600444D01*
X163190458Y-156782072D01*
X163190318Y-156783401D01*
X163157518Y-156844156D01*
X163095368Y-156878477D01*
X163024529Y-156873748D01*
X162967492Y-156831472D01*
X162945724Y-156783808D01*
X162945542Y-156782072D01*
X162886527Y-156600444D01*
X162791040Y-156435056D01*
X162663253Y-156293134D01*
X162508752Y-156180882D01*
X162502724Y-156178198D01*
X162502722Y-156178197D01*
X162340319Y-156105891D01*
X162340318Y-156105891D01*
X162334288Y-156103206D01*
X162240887Y-156083353D01*
X162153944Y-156064872D01*
X162153939Y-156064872D01*
X162147487Y-156063500D01*
X161956513Y-156063500D01*
X161950061Y-156064872D01*
X161950056Y-156064872D01*
X161863113Y-156083353D01*
X161769712Y-156103206D01*
X161763682Y-156105891D01*
X161763681Y-156105891D01*
X161601278Y-156178197D01*
X161601276Y-156178198D01*
X161595248Y-156180882D01*
X161440747Y-156293134D01*
X161312960Y-156435056D01*
X161217473Y-156600444D01*
X161158458Y-156782072D01*
X161157768Y-156788633D01*
X161157768Y-156788635D01*
X161139186Y-156965435D01*
X161138496Y-156972000D01*
X156107504Y-156972000D01*
X156106814Y-156965435D01*
X156088232Y-156788635D01*
X156088232Y-156788633D01*
X156087542Y-156782072D01*
X156028527Y-156600444D01*
X155933040Y-156435056D01*
X155805253Y-156293134D01*
X155650752Y-156180882D01*
X155644724Y-156178198D01*
X155644722Y-156178197D01*
X155482319Y-156105891D01*
X155482318Y-156105891D01*
X155476288Y-156103206D01*
X155382887Y-156083353D01*
X155295944Y-156064872D01*
X155295939Y-156064872D01*
X155289487Y-156063500D01*
X155098513Y-156063500D01*
X155092061Y-156064872D01*
X155092056Y-156064872D01*
X155005113Y-156083353D01*
X154911712Y-156103206D01*
X154905682Y-156105891D01*
X154905681Y-156105891D01*
X154743278Y-156178197D01*
X154743276Y-156178198D01*
X154737248Y-156180882D01*
X154633060Y-156256579D01*
X154566194Y-156280437D01*
X154497042Y-156264357D01*
X154484944Y-156256582D01*
X154380752Y-156180882D01*
X154374724Y-156178198D01*
X154374722Y-156178197D01*
X154212319Y-156105891D01*
X154212318Y-156105891D01*
X154206288Y-156103206D01*
X154112887Y-156083353D01*
X154025944Y-156064872D01*
X154025939Y-156064872D01*
X154019487Y-156063500D01*
X153828513Y-156063500D01*
X153822061Y-156064872D01*
X153822056Y-156064872D01*
X153735113Y-156083353D01*
X153641712Y-156103206D01*
X153635682Y-156105891D01*
X153635681Y-156105891D01*
X153473278Y-156178197D01*
X153473276Y-156178198D01*
X153467248Y-156180882D01*
X153312747Y-156293134D01*
X153184960Y-156435056D01*
X153089473Y-156600444D01*
X153030458Y-156782072D01*
X153029768Y-156788633D01*
X153029768Y-156788635D01*
X153011186Y-156965435D01*
X153010496Y-156972000D01*
X142240000Y-156972000D01*
X142240000Y-149860000D01*
X169520496Y-149860000D01*
X169540458Y-150049928D01*
X169599473Y-150231556D01*
X169694960Y-150396944D01*
X169822747Y-150538866D01*
X169977248Y-150651118D01*
X169983276Y-150653802D01*
X169983278Y-150653803D01*
X170145681Y-150726109D01*
X170151712Y-150728794D01*
X170245112Y-150748647D01*
X170332056Y-150767128D01*
X170332061Y-150767128D01*
X170338513Y-150768500D01*
X170529487Y-150768500D01*
X170535939Y-150767128D01*
X170535944Y-150767128D01*
X170622888Y-150748647D01*
X170716288Y-150728794D01*
X170722319Y-150726109D01*
X170884722Y-150653803D01*
X170884724Y-150653802D01*
X170890752Y-150651118D01*
X171045253Y-150538866D01*
X171173040Y-150396944D01*
X171268527Y-150231556D01*
X171327542Y-150049928D01*
X171347504Y-149860000D01*
X171327542Y-149670072D01*
X171268527Y-149488444D01*
X171173040Y-149323056D01*
X171045253Y-149181134D01*
X170890752Y-149068882D01*
X170884724Y-149066198D01*
X170884722Y-149066197D01*
X170722319Y-148993891D01*
X170722318Y-148993891D01*
X170716288Y-148991206D01*
X170622887Y-148971353D01*
X170535944Y-148952872D01*
X170535939Y-148952872D01*
X170529487Y-148951500D01*
X170338513Y-148951500D01*
X170332061Y-148952872D01*
X170332056Y-148952872D01*
X170245113Y-148971353D01*
X170151712Y-148991206D01*
X170145682Y-148993891D01*
X170145681Y-148993891D01*
X169983278Y-149066197D01*
X169983276Y-149066198D01*
X169977248Y-149068882D01*
X169822747Y-149181134D01*
X169694960Y-149323056D01*
X169599473Y-149488444D01*
X169540458Y-149670072D01*
X169520496Y-149860000D01*
X142240000Y-149860000D01*
X142240000Y-146558000D01*
X144882496Y-146558000D01*
X144902458Y-146747928D01*
X144961473Y-146929556D01*
X145056960Y-147094944D01*
X145184747Y-147236866D01*
X145339248Y-147349118D01*
X145345276Y-147351802D01*
X145345278Y-147351803D01*
X145507681Y-147424109D01*
X145513712Y-147426794D01*
X145607113Y-147446647D01*
X145694056Y-147465128D01*
X145694061Y-147465128D01*
X145700513Y-147466500D01*
X145891487Y-147466500D01*
X145897939Y-147465128D01*
X145897944Y-147465128D01*
X145984887Y-147446647D01*
X146078288Y-147426794D01*
X146084319Y-147424109D01*
X146246722Y-147351803D01*
X146246724Y-147351802D01*
X146252752Y-147349118D01*
X146407253Y-147236866D01*
X146535040Y-147094944D01*
X146630527Y-146929556D01*
X146689542Y-146747928D01*
X146709504Y-146558000D01*
X146708814Y-146551435D01*
X146690232Y-146374635D01*
X146690232Y-146374633D01*
X146689542Y-146368072D01*
X146630527Y-146186444D01*
X146588124Y-146113000D01*
X146571386Y-146044005D01*
X146588124Y-145987000D01*
X146627223Y-145919279D01*
X146627224Y-145919278D01*
X146630527Y-145913556D01*
X146689542Y-145731928D01*
X146709504Y-145542000D01*
X151232496Y-145542000D01*
X151252458Y-145731928D01*
X151311473Y-145913556D01*
X151406960Y-146078944D01*
X151534747Y-146220866D01*
X151689248Y-146333118D01*
X151695276Y-146335802D01*
X151695278Y-146335803D01*
X151767756Y-146368072D01*
X151863712Y-146410794D01*
X151957113Y-146430647D01*
X152044056Y-146449128D01*
X152044061Y-146449128D01*
X152050513Y-146450500D01*
X152241487Y-146450500D01*
X152247939Y-146449128D01*
X152247944Y-146449128D01*
X152334887Y-146430647D01*
X152428288Y-146410794D01*
X152602752Y-146333118D01*
X152673118Y-146323684D01*
X152705247Y-146333118D01*
X152705248Y-146333118D01*
X152879712Y-146410794D01*
X152973113Y-146430647D01*
X153060056Y-146449128D01*
X153060061Y-146449128D01*
X153066513Y-146450500D01*
X153257487Y-146450500D01*
X153263939Y-146449128D01*
X153263944Y-146449128D01*
X153350887Y-146430647D01*
X153444288Y-146410794D01*
X153618752Y-146333118D01*
X153689118Y-146323684D01*
X153721247Y-146333118D01*
X153721248Y-146333118D01*
X153895712Y-146410794D01*
X153989113Y-146430647D01*
X154076056Y-146449128D01*
X154076061Y-146449128D01*
X154082513Y-146450500D01*
X154273487Y-146450500D01*
X154279939Y-146449128D01*
X154279944Y-146449128D01*
X154366887Y-146430647D01*
X154460288Y-146410794D01*
X154634752Y-146333118D01*
X154705118Y-146323684D01*
X154737247Y-146333118D01*
X154737248Y-146333118D01*
X154911712Y-146410794D01*
X155005113Y-146430647D01*
X155092056Y-146449128D01*
X155092061Y-146449128D01*
X155098513Y-146450500D01*
X155289487Y-146450500D01*
X155295939Y-146449128D01*
X155295944Y-146449128D01*
X155382887Y-146430647D01*
X155476288Y-146410794D01*
X155572244Y-146368072D01*
X155644722Y-146335803D01*
X155644724Y-146335802D01*
X155650752Y-146333118D01*
X155805253Y-146220866D01*
X155933040Y-146078944D01*
X156028527Y-145913556D01*
X156087542Y-145731928D01*
X156107504Y-145542000D01*
X158344496Y-145542000D01*
X158364458Y-145731928D01*
X158423473Y-145913556D01*
X158518960Y-146078944D01*
X158646747Y-146220866D01*
X158801248Y-146333118D01*
X158807276Y-146335802D01*
X158807278Y-146335803D01*
X158879756Y-146368072D01*
X158975712Y-146410794D01*
X159069113Y-146430647D01*
X159156056Y-146449128D01*
X159156061Y-146449128D01*
X159162513Y-146450500D01*
X159353487Y-146450500D01*
X159359939Y-146449128D01*
X159359944Y-146449128D01*
X159446887Y-146430647D01*
X159540288Y-146410794D01*
X159714752Y-146333118D01*
X159785118Y-146323684D01*
X159817247Y-146333118D01*
X159817248Y-146333118D01*
X159991712Y-146410794D01*
X160085113Y-146430647D01*
X160172056Y-146449128D01*
X160172061Y-146449128D01*
X160178513Y-146450500D01*
X160369487Y-146450500D01*
X160375939Y-146449128D01*
X160375944Y-146449128D01*
X160462887Y-146430647D01*
X160556288Y-146410794D01*
X160730752Y-146333118D01*
X160801118Y-146323684D01*
X160833247Y-146333118D01*
X160833248Y-146333118D01*
X161007712Y-146410794D01*
X161101113Y-146430647D01*
X161188056Y-146449128D01*
X161188061Y-146449128D01*
X161194513Y-146450500D01*
X161385487Y-146450500D01*
X161391939Y-146449128D01*
X161391944Y-146449128D01*
X161478887Y-146430647D01*
X161572288Y-146410794D01*
X161746752Y-146333118D01*
X161817118Y-146323684D01*
X161849247Y-146333118D01*
X161849248Y-146333118D01*
X162023712Y-146410794D01*
X162117113Y-146430647D01*
X162204056Y-146449128D01*
X162204061Y-146449128D01*
X162210513Y-146450500D01*
X162401487Y-146450500D01*
X162407939Y-146449128D01*
X162407944Y-146449128D01*
X162494887Y-146430647D01*
X162588288Y-146410794D01*
X162684244Y-146368072D01*
X162756722Y-146335803D01*
X162756724Y-146335802D01*
X162762752Y-146333118D01*
X162917253Y-146220866D01*
X163045040Y-146078944D01*
X163140527Y-145913556D01*
X163199542Y-145731928D01*
X163219504Y-145542000D01*
X163199542Y-145352072D01*
X163140527Y-145170444D01*
X163045040Y-145005056D01*
X162917253Y-144863134D01*
X162762752Y-144750882D01*
X162756724Y-144748198D01*
X162756722Y-144748197D01*
X162594319Y-144675891D01*
X162594318Y-144675891D01*
X162588288Y-144673206D01*
X162494887Y-144653353D01*
X162407944Y-144634872D01*
X162407939Y-144634872D01*
X162401487Y-144633500D01*
X162210513Y-144633500D01*
X162204061Y-144634872D01*
X162204056Y-144634872D01*
X162117113Y-144653353D01*
X162023712Y-144673206D01*
X161849248Y-144750882D01*
X161778882Y-144760316D01*
X161746753Y-144750882D01*
X161746752Y-144750882D01*
X161572288Y-144673206D01*
X161478887Y-144653353D01*
X161391944Y-144634872D01*
X161391939Y-144634872D01*
X161385487Y-144633500D01*
X161194513Y-144633500D01*
X161188061Y-144634872D01*
X161188056Y-144634872D01*
X161101113Y-144653353D01*
X161007712Y-144673206D01*
X160833248Y-144750882D01*
X160762882Y-144760316D01*
X160730753Y-144750882D01*
X160730752Y-144750882D01*
X160556288Y-144673206D01*
X160462887Y-144653353D01*
X160375944Y-144634872D01*
X160375939Y-144634872D01*
X160369487Y-144633500D01*
X160178513Y-144633500D01*
X160172061Y-144634872D01*
X160172056Y-144634872D01*
X160085113Y-144653353D01*
X159991712Y-144673206D01*
X159817248Y-144750882D01*
X159746882Y-144760316D01*
X159714753Y-144750882D01*
X159714752Y-144750882D01*
X159540288Y-144673206D01*
X159446887Y-144653353D01*
X159359944Y-144634872D01*
X159359939Y-144634872D01*
X159353487Y-144633500D01*
X159162513Y-144633500D01*
X159156061Y-144634872D01*
X159156056Y-144634872D01*
X159069113Y-144653353D01*
X158975712Y-144673206D01*
X158969682Y-144675891D01*
X158969681Y-144675891D01*
X158807278Y-144748197D01*
X158807276Y-144748198D01*
X158801248Y-144750882D01*
X158646747Y-144863134D01*
X158518960Y-145005056D01*
X158423473Y-145170444D01*
X158364458Y-145352072D01*
X158344496Y-145542000D01*
X156107504Y-145542000D01*
X156087542Y-145352072D01*
X156028527Y-145170444D01*
X155933040Y-145005056D01*
X155805253Y-144863134D01*
X155650752Y-144750882D01*
X155644724Y-144748198D01*
X155644722Y-144748197D01*
X155482319Y-144675891D01*
X155482318Y-144675891D01*
X155476288Y-144673206D01*
X155382887Y-144653353D01*
X155295944Y-144634872D01*
X155295939Y-144634872D01*
X155289487Y-144633500D01*
X155098513Y-144633500D01*
X155092061Y-144634872D01*
X155092056Y-144634872D01*
X155005113Y-144653353D01*
X154911712Y-144673206D01*
X154737248Y-144750882D01*
X154666882Y-144760316D01*
X154634753Y-144750882D01*
X154634752Y-144750882D01*
X154460288Y-144673206D01*
X154366887Y-144653353D01*
X154279944Y-144634872D01*
X154279939Y-144634872D01*
X154273487Y-144633500D01*
X154082513Y-144633500D01*
X154076061Y-144634872D01*
X154076056Y-144634872D01*
X153989113Y-144653353D01*
X153895712Y-144673206D01*
X153721248Y-144750882D01*
X153650882Y-144760316D01*
X153618753Y-144750882D01*
X153618752Y-144750882D01*
X153444288Y-144673206D01*
X153350887Y-144653353D01*
X153263944Y-144634872D01*
X153263939Y-144634872D01*
X153257487Y-144633500D01*
X153066513Y-144633500D01*
X153060061Y-144634872D01*
X153060056Y-144634872D01*
X152973113Y-144653353D01*
X152879712Y-144673206D01*
X152705248Y-144750882D01*
X152634882Y-144760316D01*
X152602753Y-144750882D01*
X152602752Y-144750882D01*
X152428288Y-144673206D01*
X152334887Y-144653353D01*
X152247944Y-144634872D01*
X152247939Y-144634872D01*
X152241487Y-144633500D01*
X152050513Y-144633500D01*
X152044061Y-144634872D01*
X152044056Y-144634872D01*
X151957113Y-144653353D01*
X151863712Y-144673206D01*
X151857682Y-144675891D01*
X151857681Y-144675891D01*
X151695278Y-144748197D01*
X151695276Y-144748198D01*
X151689248Y-144750882D01*
X151534747Y-144863134D01*
X151406960Y-145005056D01*
X151311473Y-145170444D01*
X151252458Y-145352072D01*
X151232496Y-145542000D01*
X146709504Y-145542000D01*
X146689542Y-145352072D01*
X146630527Y-145170444D01*
X146535040Y-145005056D01*
X146407253Y-144863134D01*
X146252752Y-144750882D01*
X146246724Y-144748198D01*
X146246722Y-144748197D01*
X146084319Y-144675891D01*
X146084318Y-144675891D01*
X146078288Y-144673206D01*
X145984887Y-144653353D01*
X145897944Y-144634872D01*
X145897939Y-144634872D01*
X145891487Y-144633500D01*
X145700513Y-144633500D01*
X145694061Y-144634872D01*
X145694056Y-144634872D01*
X145607113Y-144653353D01*
X145513712Y-144673206D01*
X145507682Y-144675891D01*
X145507681Y-144675891D01*
X145345278Y-144748197D01*
X145345276Y-144748198D01*
X145339248Y-144750882D01*
X145184747Y-144863134D01*
X145056960Y-145005056D01*
X144961473Y-145170444D01*
X144902458Y-145352072D01*
X144882496Y-145542000D01*
X144902458Y-145731928D01*
X144961473Y-145913556D01*
X144964776Y-145919278D01*
X144964777Y-145919279D01*
X145003876Y-145987000D01*
X145020614Y-146055995D01*
X145003876Y-146113000D01*
X144961473Y-146186444D01*
X144902458Y-146368072D01*
X144901768Y-146374633D01*
X144901768Y-146374635D01*
X144883186Y-146551435D01*
X144882496Y-146558000D01*
X142240000Y-146558000D01*
X142240000Y-136210312D01*
X148037500Y-136210312D01*
X148044255Y-136272494D01*
X148095385Y-136408883D01*
X148182739Y-136525439D01*
X148299295Y-136612793D01*
X148435684Y-136663923D01*
X148497866Y-136670678D01*
X150794134Y-136670678D01*
X150856316Y-136663923D01*
X150992705Y-136612793D01*
X151109261Y-136525439D01*
X151196615Y-136408883D01*
X151247745Y-136272494D01*
X151254500Y-136210312D01*
X153037500Y-136210312D01*
X153044255Y-136272494D01*
X153095385Y-136408883D01*
X153182739Y-136525439D01*
X153299295Y-136612793D01*
X153435684Y-136663923D01*
X153497866Y-136670678D01*
X155794134Y-136670678D01*
X155856316Y-136663923D01*
X155992705Y-136612793D01*
X156109261Y-136525439D01*
X156196615Y-136408883D01*
X156247745Y-136272494D01*
X156253433Y-136220134D01*
X158451500Y-136220134D01*
X158458255Y-136282316D01*
X158509385Y-136418705D01*
X158596739Y-136535261D01*
X158713295Y-136622615D01*
X158849684Y-136673745D01*
X158911866Y-136680500D01*
X161208134Y-136680500D01*
X161270316Y-136673745D01*
X161406705Y-136622615D01*
X161523261Y-136535261D01*
X161610615Y-136418705D01*
X161661745Y-136282316D01*
X161668500Y-136220134D01*
X163451500Y-136220134D01*
X163458255Y-136282316D01*
X163509385Y-136418705D01*
X163596739Y-136535261D01*
X163713295Y-136622615D01*
X163849684Y-136673745D01*
X163911866Y-136680500D01*
X166208134Y-136680500D01*
X166270316Y-136673745D01*
X166406705Y-136622615D01*
X166523261Y-136535261D01*
X166610615Y-136418705D01*
X166661745Y-136282316D01*
X166668500Y-136220134D01*
X166668500Y-133923866D01*
X166661745Y-133861684D01*
X166610615Y-133725295D01*
X166523261Y-133608739D01*
X166406705Y-133521385D01*
X166270316Y-133470255D01*
X166208134Y-133463500D01*
X163911866Y-133463500D01*
X163849684Y-133470255D01*
X163713295Y-133521385D01*
X163596739Y-133608739D01*
X163509385Y-133725295D01*
X163458255Y-133861684D01*
X163451500Y-133923866D01*
X163451500Y-136220134D01*
X161668500Y-136220134D01*
X161668500Y-133923866D01*
X161661745Y-133861684D01*
X161610615Y-133725295D01*
X161523261Y-133608739D01*
X161406705Y-133521385D01*
X161270316Y-133470255D01*
X161208134Y-133463500D01*
X158911866Y-133463500D01*
X158849684Y-133470255D01*
X158713295Y-133521385D01*
X158596739Y-133608739D01*
X158509385Y-133725295D01*
X158458255Y-133861684D01*
X158451500Y-133923866D01*
X158451500Y-136220134D01*
X156253433Y-136220134D01*
X156254500Y-136210312D01*
X156254500Y-133914044D01*
X156247745Y-133851862D01*
X156196615Y-133715473D01*
X156109261Y-133598917D01*
X155992705Y-133511563D01*
X155856316Y-133460433D01*
X155794134Y-133453678D01*
X153497866Y-133453678D01*
X153435684Y-133460433D01*
X153299295Y-133511563D01*
X153182739Y-133598917D01*
X153095385Y-133715473D01*
X153044255Y-133851862D01*
X153037500Y-133914044D01*
X153037500Y-136210312D01*
X151254500Y-136210312D01*
X151254500Y-133914044D01*
X151247745Y-133851862D01*
X151196615Y-133715473D01*
X151109261Y-133598917D01*
X150992705Y-133511563D01*
X150856316Y-133460433D01*
X150794134Y-133453678D01*
X148497866Y-133453678D01*
X148435684Y-133460433D01*
X148299295Y-133511563D01*
X148182739Y-133598917D01*
X148095385Y-133715473D01*
X148044255Y-133851862D01*
X148037500Y-133914044D01*
X148037500Y-136210312D01*
X142240000Y-136210312D01*
X142240000Y-128832568D01*
X142709382Y-128832568D01*
X142738208Y-129081699D01*
X142739587Y-129086573D01*
X142739588Y-129086577D01*
X142777381Y-129220134D01*
X142806494Y-129323017D01*
X142808628Y-129327592D01*
X142808630Y-129327599D01*
X142897537Y-129518259D01*
X142912484Y-129550313D01*
X142915326Y-129554494D01*
X142915326Y-129554495D01*
X143050605Y-129753552D01*
X143050608Y-129753556D01*
X143053451Y-129757739D01*
X143056928Y-129761416D01*
X143056929Y-129761417D01*
X143157238Y-129867491D01*
X143225767Y-129939959D01*
X143229793Y-129943037D01*
X143229794Y-129943038D01*
X143420981Y-130089212D01*
X143420985Y-130089215D01*
X143425001Y-130092285D01*
X143646026Y-130210797D01*
X143650807Y-130212443D01*
X143650811Y-130212445D01*
X143876538Y-130290169D01*
X143883156Y-130292448D01*
X143986689Y-130310331D01*
X144126380Y-130334460D01*
X144126386Y-130334461D01*
X144130290Y-130335135D01*
X144134251Y-130335315D01*
X144134252Y-130335315D01*
X144158931Y-130336436D01*
X144158950Y-130336436D01*
X144160350Y-130336500D01*
X144335015Y-130336500D01*
X144337523Y-130336298D01*
X144337528Y-130336298D01*
X144516944Y-130321863D01*
X144516949Y-130321862D01*
X144521985Y-130321457D01*
X144526893Y-130320252D01*
X144526896Y-130320251D01*
X144760625Y-130262841D01*
X144765539Y-130261634D01*
X144770191Y-130259659D01*
X144770195Y-130259658D01*
X144991741Y-130165617D01*
X144991742Y-130165617D01*
X144996396Y-130163641D01*
X145208615Y-130030000D01*
X145396738Y-129864147D01*
X145555924Y-129670351D01*
X145682078Y-129453596D01*
X145696484Y-129416069D01*
X145770143Y-129224181D01*
X145771955Y-129219461D01*
X145773867Y-129210312D01*
X145822206Y-128978921D01*
X145823241Y-128973967D01*
X145834618Y-128723432D01*
X145805792Y-128474301D01*
X145766810Y-128336539D01*
X145738884Y-128237852D01*
X145738883Y-128237850D01*
X145737506Y-128232983D01*
X145735372Y-128228408D01*
X145735370Y-128228401D01*
X145633653Y-128010269D01*
X145633651Y-128010265D01*
X145631516Y-128005687D01*
X145622882Y-127992983D01*
X145493395Y-127802448D01*
X145493392Y-127802444D01*
X145490549Y-127798261D01*
X145389925Y-127691853D01*
X145321713Y-127619721D01*
X145318233Y-127616041D01*
X145314206Y-127612962D01*
X145123019Y-127466788D01*
X145123015Y-127466785D01*
X145118999Y-127463715D01*
X144897974Y-127345203D01*
X144893193Y-127343557D01*
X144893189Y-127343555D01*
X144665633Y-127265201D01*
X144660844Y-127263552D01*
X144557311Y-127245669D01*
X144417620Y-127221540D01*
X144417614Y-127221539D01*
X144413710Y-127220865D01*
X144409749Y-127220685D01*
X144409748Y-127220685D01*
X144385069Y-127219564D01*
X144385050Y-127219564D01*
X144383650Y-127219500D01*
X144208985Y-127219500D01*
X144206477Y-127219702D01*
X144206472Y-127219702D01*
X144027056Y-127234137D01*
X144027051Y-127234138D01*
X144022015Y-127234543D01*
X144017107Y-127235748D01*
X144017104Y-127235749D01*
X143785326Y-127292680D01*
X143778461Y-127294366D01*
X143773809Y-127296341D01*
X143773805Y-127296342D01*
X143653596Y-127347368D01*
X143547604Y-127392359D01*
X143335385Y-127526000D01*
X143147262Y-127691853D01*
X142988076Y-127885649D01*
X142861922Y-128102404D01*
X142772045Y-128336539D01*
X142720759Y-128582033D01*
X142709382Y-128832568D01*
X142240000Y-128832568D01*
X142240000Y-128827328D01*
X142241500Y-128807943D01*
X142243805Y-128793142D01*
X142243805Y-128793139D01*
X142245186Y-128784270D01*
X142243059Y-128768001D01*
X142242266Y-128743433D01*
X142256844Y-128521015D01*
X142258995Y-128504674D01*
X142307629Y-128260176D01*
X142311895Y-128244257D01*
X142392022Y-128008210D01*
X142398329Y-127992983D01*
X142508584Y-127769408D01*
X142516825Y-127755135D01*
X142655316Y-127547867D01*
X142665349Y-127534790D01*
X142670125Y-127529345D01*
X142829714Y-127347368D01*
X142841368Y-127335714D01*
X142957194Y-127234137D01*
X143028794Y-127171346D01*
X143041867Y-127161316D01*
X143249135Y-127022825D01*
X143263408Y-127014584D01*
X143486983Y-126904329D01*
X143502210Y-126898022D01*
X143738257Y-126817895D01*
X143754176Y-126813629D01*
X143998673Y-126764995D01*
X144015014Y-126762844D01*
X144230268Y-126748736D01*
X144253304Y-126749761D01*
X144256854Y-126749804D01*
X144265730Y-126751186D01*
X144297252Y-126747064D01*
X144313589Y-126746000D01*
X147915326Y-126746000D01*
X147983447Y-126766002D01*
G37*
%TD.AperFunction*%
%TD*%
M02*
