%FSLAX45Y45*%
G04 Gerber Fmt 4.5, Leading zero omitted, Abs format (unit mm)*
G04 Created by KiCad (PCBNEW (6.0.0)) date 2022-02-23 23:53:31*
%MOMM*%
%LPD*%
G01*
G04 APERTURE LIST*
%TA.AperFunction,Profile*%
%ADD10C,0.100000*%
%TD*%
%ADD11C,0.200000*%
%ADD12C,0.020040*%
%ADD13C,0.040000*%
%ADD14C,0.100000*%
%ADD15C,0.190000*%
G04 APERTURE END LIST*
D10*
X17221200Y-14122400D02*
G75*
G03*
X16967200Y-13868400I-254000J0D01*
G01*
X14427200Y-18999200D02*
X16967200Y-19001005D01*
X14427200Y-13868400D02*
G75*
G03*
X14173200Y-14122400I0J-254000D01*
G01*
X17221200Y-18745200D02*
X17221200Y-14122400D01*
X16967200Y-19001005D02*
G75*
G03*
X17221200Y-18747005I0J254000D01*
G01*
X14173200Y-14122400D02*
X14173200Y-18745200D01*
X16967200Y-13868400D02*
X14427200Y-13868400D01*
X14173200Y-18745200D02*
G75*
G03*
X14427200Y-18999200I254000J0D01*
G01*
D11*
D12*
X14772458Y-15090057D02*
X14792498Y-15110098D01*
X14792498Y-15090057D02*
X14772458Y-15110098D01*
X14772458Y-15140839D02*
X14792498Y-15160880D01*
X14792498Y-15140839D02*
X14772458Y-15160880D01*
X14772780Y-15191880D02*
X14792820Y-15211920D01*
X14792820Y-15191880D02*
X14772780Y-15211920D01*
X14772780Y-15331580D02*
X14792820Y-15351620D01*
X14792820Y-15331580D02*
X14772780Y-15351620D01*
X14772780Y-15382380D02*
X14792820Y-15402420D01*
X14792820Y-15382380D02*
X14772780Y-15402420D01*
X14772780Y-15433180D02*
X14792820Y-15453220D01*
X14792820Y-15433180D02*
X14772780Y-15453220D01*
X14772780Y-15509380D02*
X14792820Y-15529420D01*
X14792820Y-15509380D02*
X14772780Y-15529420D01*
X14772780Y-15572880D02*
X14792820Y-15592920D01*
X14792820Y-15572880D02*
X14772780Y-15592920D01*
X14772780Y-15636380D02*
X14792820Y-15656420D01*
X14792820Y-15636380D02*
X14772780Y-15656420D01*
X14772780Y-15776080D02*
X14792820Y-15796120D01*
X14792820Y-15776080D02*
X14772780Y-15796120D01*
X14772780Y-15839580D02*
X14792820Y-15859620D01*
X14792820Y-15839580D02*
X14772780Y-15859620D01*
X14772780Y-15903080D02*
X14792820Y-15923120D01*
X14792820Y-15903080D02*
X14772780Y-15923120D01*
X14975980Y-15102980D02*
X14996020Y-15123020D01*
X14996020Y-15102980D02*
X14975980Y-15123020D01*
X14975980Y-15204580D02*
X14996020Y-15224620D01*
X14996020Y-15204580D02*
X14975980Y-15224620D01*
X14975980Y-15280780D02*
X14996020Y-15300820D01*
X14996020Y-15280780D02*
X14975980Y-15300820D01*
X14975980Y-15356980D02*
X14996020Y-15377020D01*
X14996020Y-15356980D02*
X14975980Y-15377020D01*
X14975980Y-15433180D02*
X14996020Y-15453220D01*
X14996020Y-15433180D02*
X14975980Y-15453220D01*
X14975980Y-15517679D02*
X14996020Y-15537720D01*
X14996020Y-15517679D02*
X14975980Y-15537720D01*
X14975980Y-15610980D02*
X14996020Y-15631020D01*
X14996020Y-15610980D02*
X14975980Y-15631020D01*
X15305276Y-15599788D02*
X15325317Y-15619828D01*
X15325317Y-15599788D02*
X15305276Y-15619828D01*
X15397925Y-16393965D02*
X15417966Y-16414006D01*
X15417966Y-16393965D02*
X15397925Y-16414006D01*
X15407780Y-16322180D02*
X15427820Y-16342220D01*
X15427820Y-16322180D02*
X15407780Y-16342220D01*
X15610980Y-15077580D02*
X15631020Y-15097620D01*
X15631020Y-15077580D02*
X15610980Y-15097620D01*
X15610980Y-15153780D02*
X15631020Y-15173820D01*
X15631020Y-15153780D02*
X15610980Y-15173820D01*
X15610980Y-15229980D02*
X15631020Y-15250020D01*
X15631020Y-15229980D02*
X15610980Y-15250020D01*
X15610980Y-15483980D02*
X15631020Y-15504020D01*
X15631020Y-15483980D02*
X15610980Y-15504020D01*
X15610980Y-15991980D02*
X15631020Y-16012020D01*
X15631020Y-15991980D02*
X15610980Y-16012020D01*
X15611405Y-15560605D02*
X15631446Y-15580646D01*
X15631446Y-15560605D02*
X15611405Y-15580646D01*
X15611990Y-15400066D02*
X15632030Y-15420107D01*
X15632030Y-15400066D02*
X15611990Y-15420107D01*
X15612986Y-15318834D02*
X15633026Y-15338875D01*
X15633026Y-15318834D02*
X15612986Y-15338875D01*
X15665263Y-15723909D02*
X15685304Y-15743949D01*
X15685304Y-15723909D02*
X15665263Y-15743949D01*
X15674480Y-15115680D02*
X15694520Y-15135720D01*
X15694520Y-15115680D02*
X15674480Y-15135720D01*
X15674480Y-15191880D02*
X15694520Y-15211920D01*
X15694520Y-15191880D02*
X15674480Y-15211920D01*
X15674480Y-15268080D02*
X15694520Y-15288120D01*
X15694520Y-15268080D02*
X15674480Y-15288120D01*
X15674480Y-15356980D02*
X15694520Y-15377020D01*
X15694520Y-15356980D02*
X15674480Y-15377020D01*
X15674480Y-15433180D02*
X15694520Y-15453220D01*
X15694520Y-15433180D02*
X15674480Y-15453220D01*
X15674480Y-15509380D02*
X15694520Y-15529420D01*
X15694520Y-15509380D02*
X15674480Y-15529420D01*
X15674480Y-15598280D02*
X15694520Y-15618320D01*
X15694520Y-15598280D02*
X15674480Y-15618320D01*
X15839580Y-17769980D02*
X15859620Y-17790020D01*
X15859620Y-17769980D02*
X15839580Y-17790020D01*
X15941180Y-17414380D02*
X15961220Y-17434420D01*
X15961220Y-17414380D02*
X15941180Y-17434420D01*
X15944649Y-17481365D02*
X15964689Y-17501405D01*
X15964689Y-17481365D02*
X15944649Y-17501405D01*
X15966580Y-16372980D02*
X15986620Y-16393020D01*
X15986620Y-16372980D02*
X15966580Y-16393020D01*
X15966580Y-17147680D02*
X15986620Y-17167720D01*
X15986620Y-17147680D02*
X15966580Y-17167720D01*
X15979809Y-16127697D02*
X15999850Y-16147738D01*
X15999850Y-16127697D02*
X15979809Y-16147738D01*
X16017380Y-17236580D02*
X16037420Y-17256620D01*
X16037420Y-17236580D02*
X16017380Y-17256620D01*
X16042780Y-16144380D02*
X16062820Y-16164420D01*
X16062820Y-16144380D02*
X16042780Y-16164420D01*
X16271380Y-15077580D02*
X16291420Y-15097620D01*
X16291420Y-15077580D02*
X16271380Y-15097620D01*
X16271380Y-15153780D02*
X16291420Y-15173820D01*
X16291420Y-15153780D02*
X16271380Y-15173820D01*
X16271380Y-15229980D02*
X16291420Y-15250020D01*
X16291420Y-15229980D02*
X16271380Y-15250020D01*
X16271380Y-15318880D02*
X16291420Y-15338920D01*
X16291420Y-15318880D02*
X16271380Y-15338920D01*
X16271380Y-15395080D02*
X16291420Y-15415120D01*
X16291420Y-15395080D02*
X16271380Y-15415120D01*
X16271380Y-15471280D02*
X16291420Y-15491320D01*
X16291420Y-15471280D02*
X16271380Y-15491320D01*
X16284080Y-15560180D02*
X16304120Y-15580220D01*
X16304120Y-15560180D02*
X16284080Y-15580220D01*
X16575745Y-15140863D02*
X16595785Y-15160903D01*
X16595785Y-15140863D02*
X16575745Y-15160903D01*
X16575745Y-15305532D02*
X16595785Y-15325573D01*
X16595785Y-15305532D02*
X16575745Y-15325573D01*
X16575745Y-15356781D02*
X16595785Y-15376822D01*
X16595785Y-15356781D02*
X16575745Y-15376822D01*
X16576180Y-15090280D02*
X16596220Y-15110320D01*
X16596220Y-15090280D02*
X16576180Y-15110320D01*
X16576180Y-15191880D02*
X16596220Y-15211920D01*
X16596220Y-15191880D02*
X16576180Y-15211920D01*
X16576180Y-15407780D02*
X16596220Y-15427820D01*
X16596220Y-15407780D02*
X16576180Y-15427820D01*
X16576180Y-15534780D02*
X16596220Y-15554820D01*
X16596220Y-15534780D02*
X16576180Y-15554820D01*
X16576180Y-15585580D02*
X16596220Y-15605620D01*
X16596220Y-15585580D02*
X16576180Y-15605620D01*
X16576180Y-15636380D02*
X16596220Y-15656420D01*
X16596220Y-15636380D02*
X16576180Y-15656420D01*
X16576180Y-15763380D02*
X16596220Y-15783420D01*
X16596220Y-15763380D02*
X16576180Y-15783420D01*
X16576180Y-15814180D02*
X16596220Y-15834220D01*
X16596220Y-15814180D02*
X16576180Y-15834220D01*
X16576180Y-15864980D02*
X16596220Y-15885020D01*
X16596220Y-15864980D02*
X16576180Y-15885020D01*
X16671311Y-17776448D02*
X16691352Y-17796489D01*
X16691352Y-17776448D02*
X16671311Y-17796489D01*
X16703180Y-17261980D02*
X16723220Y-17282020D01*
X16723220Y-17261980D02*
X16703180Y-17282020D01*
X16830180Y-16626980D02*
X16850220Y-16647020D01*
X16850220Y-16626980D02*
X16830180Y-16647020D01*
D13*
X15006000Y-16028252D02*
G75*
G03*
X15006000Y-16028252I-20000J0D01*
G01*
X15742600Y-17272000D02*
G75*
G03*
X15742600Y-17272000I-20000J0D01*
G01*
D14*
X14503400Y-18058700D02*
X14503400Y-18158700D01*
X14453400Y-18108700D02*
X14553400Y-18108700D01*
X14503400Y-18312700D02*
X14503400Y-18412700D01*
X14453400Y-18362700D02*
X14553400Y-18362700D01*
X14503400Y-18566700D02*
X14503400Y-18666700D01*
X14453400Y-18616700D02*
X14553400Y-18616700D01*
X16941800Y-17171700D02*
X16941800Y-17271700D01*
X16891800Y-17221700D02*
X16991800Y-17221700D01*
X16941800Y-17425700D02*
X16941800Y-17525700D01*
X16891800Y-17475700D02*
X16991800Y-17475700D01*
X16941800Y-17679700D02*
X16941800Y-17779700D01*
X16891800Y-17729700D02*
X16991800Y-17729700D01*
X16941800Y-17933700D02*
X16941800Y-18033700D01*
X16891800Y-17983700D02*
X16991800Y-17983700D01*
X16941800Y-18187700D02*
X16941800Y-18287700D01*
X16891800Y-18237700D02*
X16991800Y-18237700D01*
D15*
X14984446Y-14144376D02*
X14984446Y-14010024D01*
X14850094Y-14010024D01*
X14850094Y-14144376D01*
X14984446Y-14144376D01*
X14984446Y-14844376D02*
X14984446Y-14710024D01*
X14850094Y-14710024D01*
X14850094Y-14844376D01*
X14984446Y-14844376D01*
X15006376Y-18106776D02*
X15006376Y-17972424D01*
X14872024Y-17972424D01*
X14872024Y-18106776D01*
X15006376Y-18106776D01*
X15006376Y-18806776D02*
X15006376Y-18672424D01*
X14872024Y-18672424D01*
X14872024Y-18806776D01*
X15006376Y-18806776D01*
X15484446Y-14144376D02*
X15484446Y-14010024D01*
X15350094Y-14010024D01*
X15350094Y-14144376D01*
X15484446Y-14144376D01*
X15484446Y-14844376D02*
X15484446Y-14710024D01*
X15350094Y-14710024D01*
X15350094Y-14844376D01*
X15484446Y-14844376D01*
X15506376Y-18106776D02*
X15506376Y-17972424D01*
X15372024Y-17972424D01*
X15372024Y-18106776D01*
X15506376Y-18106776D01*
X15506376Y-18806776D02*
X15506376Y-18672424D01*
X15372024Y-18672424D01*
X15372024Y-18806776D01*
X15506376Y-18806776D01*
X15971576Y-14144376D02*
X15971576Y-14010024D01*
X15837224Y-14010024D01*
X15837224Y-14144376D01*
X15971576Y-14144376D01*
X15971576Y-14844376D02*
X15971576Y-14710024D01*
X15837224Y-14710024D01*
X15837224Y-14844376D01*
X15971576Y-14844376D01*
X15996976Y-18106776D02*
X15996976Y-17972424D01*
X15862624Y-17972424D01*
X15862624Y-18106776D01*
X15996976Y-18106776D01*
X15996976Y-18806776D02*
X15996976Y-18672424D01*
X15862624Y-18672424D01*
X15862624Y-18806776D01*
X15996976Y-18806776D01*
X16471576Y-14144376D02*
X16471576Y-14010024D01*
X16337224Y-14010024D01*
X16337224Y-14144376D01*
X16471576Y-14144376D01*
X16471576Y-14844376D02*
X16471576Y-14710024D01*
X16337224Y-14710024D01*
X16337224Y-14844376D01*
X16471576Y-14844376D01*
X16496976Y-18106776D02*
X16496976Y-17972424D01*
X16362624Y-17972424D01*
X16362624Y-18106776D01*
X16496976Y-18106776D01*
X16496976Y-18806776D02*
X16496976Y-18672424D01*
X16362624Y-18672424D01*
X16362624Y-18806776D01*
X16496976Y-18806776D01*
D11*
X14425819Y-19316481D02*
X14425819Y-19116481D01*
X14473438Y-19116481D01*
X14502009Y-19126005D01*
X14521057Y-19145053D01*
X14530581Y-19164100D01*
X14540105Y-19202196D01*
X14540105Y-19230767D01*
X14530581Y-19268862D01*
X14521057Y-19287910D01*
X14502009Y-19306957D01*
X14473438Y-19316481D01*
X14425819Y-19316481D01*
X14625819Y-19316481D02*
X14625819Y-19183148D01*
X14625819Y-19221243D02*
X14635343Y-19202196D01*
X14644867Y-19192672D01*
X14663914Y-19183148D01*
X14682962Y-19183148D01*
X14749628Y-19316481D02*
X14749628Y-19183148D01*
X14749628Y-19116481D02*
X14740105Y-19126005D01*
X14749628Y-19135529D01*
X14759152Y-19126005D01*
X14749628Y-19116481D01*
X14749628Y-19135529D01*
X14873438Y-19316481D02*
X14854390Y-19306957D01*
X14844867Y-19287910D01*
X14844867Y-19116481D01*
X14978200Y-19316481D02*
X14959152Y-19306957D01*
X14949628Y-19287910D01*
X14949628Y-19116481D01*
X15206771Y-19316481D02*
X15206771Y-19116481D01*
X15273438Y-19259338D01*
X15340105Y-19116481D01*
X15340105Y-19316481D01*
X15521057Y-19316481D02*
X15521057Y-19211719D01*
X15511533Y-19192672D01*
X15492486Y-19183148D01*
X15454390Y-19183148D01*
X15435343Y-19192672D01*
X15521057Y-19306957D02*
X15502009Y-19316481D01*
X15454390Y-19316481D01*
X15435343Y-19306957D01*
X15425819Y-19287910D01*
X15425819Y-19268862D01*
X15435343Y-19249815D01*
X15454390Y-19240291D01*
X15502009Y-19240291D01*
X15521057Y-19230767D01*
X15616295Y-19183148D02*
X15616295Y-19383148D01*
X15616295Y-19192672D02*
X15635343Y-19183148D01*
X15673438Y-19183148D01*
X15692486Y-19192672D01*
X15702009Y-19202196D01*
X15711533Y-19221243D01*
X15711533Y-19278386D01*
X15702009Y-19297434D01*
X15692486Y-19306957D01*
X15673438Y-19316481D01*
X15635343Y-19316481D01*
X15616295Y-19306957D01*
X15797248Y-19297434D02*
X15806771Y-19306957D01*
X15797248Y-19316481D01*
X15787724Y-19306957D01*
X15797248Y-19297434D01*
X15797248Y-19316481D01*
X15797248Y-19192672D02*
X15806771Y-19202196D01*
X15797248Y-19211719D01*
X15787724Y-19202196D01*
X15797248Y-19192672D01*
X15797248Y-19211719D01*
D12*
X14148159Y-19635985D02*
X14168200Y-19656025D01*
X14168200Y-19635985D02*
X14148159Y-19656025D01*
D11*
X14463914Y-19536481D02*
X14482962Y-19536481D01*
X14502009Y-19546005D01*
X14511533Y-19555529D01*
X14521057Y-19574577D01*
X14530581Y-19612672D01*
X14530581Y-19660291D01*
X14521057Y-19698386D01*
X14511533Y-19717434D01*
X14502009Y-19726957D01*
X14482962Y-19736481D01*
X14463914Y-19736481D01*
X14444867Y-19726957D01*
X14435343Y-19717434D01*
X14425819Y-19698386D01*
X14416295Y-19660291D01*
X14416295Y-19612672D01*
X14425819Y-19574577D01*
X14435343Y-19555529D01*
X14444867Y-19546005D01*
X14463914Y-19536481D01*
X14616295Y-19717434D02*
X14625819Y-19726957D01*
X14616295Y-19736481D01*
X14606771Y-19726957D01*
X14616295Y-19717434D01*
X14616295Y-19736481D01*
X14702009Y-19555529D02*
X14711533Y-19546005D01*
X14730581Y-19536481D01*
X14778200Y-19536481D01*
X14797248Y-19546005D01*
X14806771Y-19555529D01*
X14816295Y-19574577D01*
X14816295Y-19593624D01*
X14806771Y-19622196D01*
X14692486Y-19736481D01*
X14816295Y-19736481D01*
X14940105Y-19536481D02*
X14959152Y-19536481D01*
X14978200Y-19546005D01*
X14987724Y-19555529D01*
X14997248Y-19574577D01*
X15006771Y-19612672D01*
X15006771Y-19660291D01*
X14997248Y-19698386D01*
X14987724Y-19717434D01*
X14978200Y-19726957D01*
X14959152Y-19736481D01*
X14940105Y-19736481D01*
X14921057Y-19726957D01*
X14911533Y-19717434D01*
X14902009Y-19698386D01*
X14892486Y-19660291D01*
X14892486Y-19612672D01*
X14902009Y-19574577D01*
X14911533Y-19555529D01*
X14921057Y-19546005D01*
X14940105Y-19536481D01*
X15130581Y-19536481D02*
X15149628Y-19536481D01*
X15168676Y-19546005D01*
X15178200Y-19555529D01*
X15187724Y-19574577D01*
X15197248Y-19612672D01*
X15197248Y-19660291D01*
X15187724Y-19698386D01*
X15178200Y-19717434D01*
X15168676Y-19726957D01*
X15149628Y-19736481D01*
X15130581Y-19736481D01*
X15111533Y-19726957D01*
X15102009Y-19717434D01*
X15092486Y-19698386D01*
X15082962Y-19660291D01*
X15082962Y-19612672D01*
X15092486Y-19574577D01*
X15102009Y-19555529D01*
X15111533Y-19546005D01*
X15130581Y-19536481D01*
X15282962Y-19736481D02*
X15282962Y-19603148D01*
X15282962Y-19622196D02*
X15292486Y-19612672D01*
X15311533Y-19603148D01*
X15340105Y-19603148D01*
X15359152Y-19612672D01*
X15368676Y-19631719D01*
X15368676Y-19736481D01*
X15368676Y-19631719D02*
X15378200Y-19612672D01*
X15397248Y-19603148D01*
X15425819Y-19603148D01*
X15444867Y-19612672D01*
X15454390Y-19631719D01*
X15454390Y-19736481D01*
X15549628Y-19736481D02*
X15549628Y-19603148D01*
X15549628Y-19622196D02*
X15559152Y-19612672D01*
X15578200Y-19603148D01*
X15606771Y-19603148D01*
X15625819Y-19612672D01*
X15635343Y-19631719D01*
X15635343Y-19736481D01*
X15635343Y-19631719D02*
X15644867Y-19612672D01*
X15663914Y-19603148D01*
X15692486Y-19603148D01*
X15711533Y-19612672D01*
X15721057Y-19631719D01*
X15721057Y-19736481D01*
X16111533Y-19526957D02*
X15940105Y-19784100D01*
X16368676Y-19536481D02*
X16387724Y-19536481D01*
X16406771Y-19546005D01*
X16416295Y-19555529D01*
X16425819Y-19574577D01*
X16435343Y-19612672D01*
X16435343Y-19660291D01*
X16425819Y-19698386D01*
X16416295Y-19717434D01*
X16406771Y-19726957D01*
X16387724Y-19736481D01*
X16368676Y-19736481D01*
X16349628Y-19726957D01*
X16340105Y-19717434D01*
X16330581Y-19698386D01*
X16321057Y-19660291D01*
X16321057Y-19612672D01*
X16330581Y-19574577D01*
X16340105Y-19555529D01*
X16349628Y-19546005D01*
X16368676Y-19536481D01*
X16521057Y-19717434D02*
X16530581Y-19726957D01*
X16521057Y-19736481D01*
X16511533Y-19726957D01*
X16521057Y-19717434D01*
X16521057Y-19736481D01*
X16654390Y-19536481D02*
X16673438Y-19536481D01*
X16692486Y-19546005D01*
X16702009Y-19555529D01*
X16711533Y-19574577D01*
X16721057Y-19612672D01*
X16721057Y-19660291D01*
X16711533Y-19698386D01*
X16702009Y-19717434D01*
X16692486Y-19726957D01*
X16673438Y-19736481D01*
X16654390Y-19736481D01*
X16635343Y-19726957D01*
X16625819Y-19717434D01*
X16616295Y-19698386D01*
X16606771Y-19660291D01*
X16606771Y-19612672D01*
X16616295Y-19574577D01*
X16625819Y-19555529D01*
X16635343Y-19546005D01*
X16654390Y-19536481D01*
X16844867Y-19536481D02*
X16863914Y-19536481D01*
X16882962Y-19546005D01*
X16892486Y-19555529D01*
X16902010Y-19574577D01*
X16911533Y-19612672D01*
X16911533Y-19660291D01*
X16902010Y-19698386D01*
X16892486Y-19717434D01*
X16882962Y-19726957D01*
X16863914Y-19736481D01*
X16844867Y-19736481D01*
X16825819Y-19726957D01*
X16816295Y-19717434D01*
X16806771Y-19698386D01*
X16797248Y-19660291D01*
X16797248Y-19612672D01*
X16806771Y-19574577D01*
X16816295Y-19555529D01*
X16825819Y-19546005D01*
X16844867Y-19536481D01*
X16978200Y-19536481D02*
X17111533Y-19536481D01*
X17025819Y-19736481D01*
X17197248Y-19736481D02*
X17235343Y-19736481D01*
X17254390Y-19726957D01*
X17263914Y-19717434D01*
X17282962Y-19688862D01*
X17292486Y-19650767D01*
X17292486Y-19574577D01*
X17282962Y-19555529D01*
X17273438Y-19546005D01*
X17254390Y-19536481D01*
X17216295Y-19536481D01*
X17197248Y-19546005D01*
X17187724Y-19555529D01*
X17178200Y-19574577D01*
X17178200Y-19622196D01*
X17187724Y-19641243D01*
X17197248Y-19650767D01*
X17216295Y-19660291D01*
X17254390Y-19660291D01*
X17273438Y-19650767D01*
X17282962Y-19641243D01*
X17292486Y-19622196D01*
X17368676Y-19536481D02*
X17368676Y-19574577D01*
X17444867Y-19536481D02*
X17444867Y-19574577D01*
X17740105Y-19812672D02*
X17730581Y-19803148D01*
X17711533Y-19774577D01*
X17702010Y-19755529D01*
X17692486Y-19726957D01*
X17682962Y-19679338D01*
X17682962Y-19641243D01*
X17692486Y-19593624D01*
X17702010Y-19565053D01*
X17711533Y-19546005D01*
X17730581Y-19517434D01*
X17740105Y-19507910D01*
X17902010Y-19536481D02*
X17863914Y-19536481D01*
X17844867Y-19546005D01*
X17835343Y-19555529D01*
X17816295Y-19584100D01*
X17806771Y-19622196D01*
X17806771Y-19698386D01*
X17816295Y-19717434D01*
X17825819Y-19726957D01*
X17844867Y-19736481D01*
X17882962Y-19736481D01*
X17902010Y-19726957D01*
X17911533Y-19717434D01*
X17921057Y-19698386D01*
X17921057Y-19650767D01*
X17911533Y-19631719D01*
X17902010Y-19622196D01*
X17882962Y-19612672D01*
X17844867Y-19612672D01*
X17825819Y-19622196D01*
X17816295Y-19631719D01*
X17806771Y-19650767D01*
X18035343Y-19622196D02*
X18016295Y-19612672D01*
X18006771Y-19603148D01*
X17997248Y-19584100D01*
X17997248Y-19574577D01*
X18006771Y-19555529D01*
X18016295Y-19546005D01*
X18035343Y-19536481D01*
X18073438Y-19536481D01*
X18092486Y-19546005D01*
X18102010Y-19555529D01*
X18111533Y-19574577D01*
X18111533Y-19584100D01*
X18102010Y-19603148D01*
X18092486Y-19612672D01*
X18073438Y-19622196D01*
X18035343Y-19622196D01*
X18016295Y-19631719D01*
X18006771Y-19641243D01*
X17997248Y-19660291D01*
X17997248Y-19698386D01*
X18006771Y-19717434D01*
X18016295Y-19726957D01*
X18035343Y-19736481D01*
X18073438Y-19736481D01*
X18092486Y-19726957D01*
X18102010Y-19717434D01*
X18111533Y-19698386D01*
X18111533Y-19660291D01*
X18102010Y-19641243D01*
X18092486Y-19631719D01*
X18073438Y-19622196D01*
X18349629Y-19736481D02*
X18349629Y-19536481D01*
X18435343Y-19736481D02*
X18435343Y-19631719D01*
X18425819Y-19612672D01*
X18406771Y-19603148D01*
X18378200Y-19603148D01*
X18359152Y-19612672D01*
X18349629Y-19622196D01*
X18559152Y-19736481D02*
X18540105Y-19726957D01*
X18530581Y-19717434D01*
X18521057Y-19698386D01*
X18521057Y-19641243D01*
X18530581Y-19622196D01*
X18540105Y-19612672D01*
X18559152Y-19603148D01*
X18587724Y-19603148D01*
X18606771Y-19612672D01*
X18616295Y-19622196D01*
X18625819Y-19641243D01*
X18625819Y-19698386D01*
X18616295Y-19717434D01*
X18606771Y-19726957D01*
X18587724Y-19736481D01*
X18559152Y-19736481D01*
X18740105Y-19736481D02*
X18721057Y-19726957D01*
X18711533Y-19707910D01*
X18711533Y-19536481D01*
X18892486Y-19726957D02*
X18873438Y-19736481D01*
X18835343Y-19736481D01*
X18816295Y-19726957D01*
X18806771Y-19707910D01*
X18806771Y-19631719D01*
X18816295Y-19612672D01*
X18835343Y-19603148D01*
X18873438Y-19603148D01*
X18892486Y-19612672D01*
X18902010Y-19631719D01*
X18902010Y-19650767D01*
X18806771Y-19669815D01*
X18978200Y-19726957D02*
X18997248Y-19736481D01*
X19035343Y-19736481D01*
X19054390Y-19726957D01*
X19063914Y-19707910D01*
X19063914Y-19698386D01*
X19054390Y-19679338D01*
X19035343Y-19669815D01*
X19006771Y-19669815D01*
X18987724Y-19660291D01*
X18978200Y-19641243D01*
X18978200Y-19631719D01*
X18987724Y-19612672D01*
X19006771Y-19603148D01*
X19035343Y-19603148D01*
X19054390Y-19612672D01*
X19130581Y-19812672D02*
X19140105Y-19803148D01*
X19159152Y-19774577D01*
X19168676Y-19755529D01*
X19178200Y-19726957D01*
X19187724Y-19679338D01*
X19187724Y-19641243D01*
X19178200Y-19593624D01*
X19168676Y-19565053D01*
X19159152Y-19546005D01*
X19140105Y-19517434D01*
X19130581Y-19507910D01*
D13*
X14168200Y-19910005D02*
G75*
G03*
X14168200Y-19910005I-20000J0D01*
G01*
D11*
X14463914Y-19800481D02*
X14482962Y-19800481D01*
X14502009Y-19810005D01*
X14511533Y-19819529D01*
X14521057Y-19838577D01*
X14530581Y-19876672D01*
X14530581Y-19924291D01*
X14521057Y-19962386D01*
X14511533Y-19981434D01*
X14502009Y-19990957D01*
X14482962Y-20000481D01*
X14463914Y-20000481D01*
X14444867Y-19990957D01*
X14435343Y-19981434D01*
X14425819Y-19962386D01*
X14416295Y-19924291D01*
X14416295Y-19876672D01*
X14425819Y-19838577D01*
X14435343Y-19819529D01*
X14444867Y-19810005D01*
X14463914Y-19800481D01*
X14616295Y-19981434D02*
X14625819Y-19990957D01*
X14616295Y-20000481D01*
X14606771Y-19990957D01*
X14616295Y-19981434D01*
X14616295Y-20000481D01*
X14797248Y-19867148D02*
X14797248Y-20000481D01*
X14749628Y-19790957D02*
X14702009Y-19933815D01*
X14825819Y-19933815D01*
X14940105Y-19800481D02*
X14959152Y-19800481D01*
X14978200Y-19810005D01*
X14987724Y-19819529D01*
X14997248Y-19838577D01*
X15006771Y-19876672D01*
X15006771Y-19924291D01*
X14997248Y-19962386D01*
X14987724Y-19981434D01*
X14978200Y-19990957D01*
X14959152Y-20000481D01*
X14940105Y-20000481D01*
X14921057Y-19990957D01*
X14911533Y-19981434D01*
X14902009Y-19962386D01*
X14892486Y-19924291D01*
X14892486Y-19876672D01*
X14902009Y-19838577D01*
X14911533Y-19819529D01*
X14921057Y-19810005D01*
X14940105Y-19800481D01*
X15130581Y-19800481D02*
X15149628Y-19800481D01*
X15168676Y-19810005D01*
X15178200Y-19819529D01*
X15187724Y-19838577D01*
X15197248Y-19876672D01*
X15197248Y-19924291D01*
X15187724Y-19962386D01*
X15178200Y-19981434D01*
X15168676Y-19990957D01*
X15149628Y-20000481D01*
X15130581Y-20000481D01*
X15111533Y-19990957D01*
X15102009Y-19981434D01*
X15092486Y-19962386D01*
X15082962Y-19924291D01*
X15082962Y-19876672D01*
X15092486Y-19838577D01*
X15102009Y-19819529D01*
X15111533Y-19810005D01*
X15130581Y-19800481D01*
X15282962Y-20000481D02*
X15282962Y-19867148D01*
X15282962Y-19886196D02*
X15292486Y-19876672D01*
X15311533Y-19867148D01*
X15340105Y-19867148D01*
X15359152Y-19876672D01*
X15368676Y-19895719D01*
X15368676Y-20000481D01*
X15368676Y-19895719D02*
X15378200Y-19876672D01*
X15397248Y-19867148D01*
X15425819Y-19867148D01*
X15444867Y-19876672D01*
X15454390Y-19895719D01*
X15454390Y-20000481D01*
X15549628Y-20000481D02*
X15549628Y-19867148D01*
X15549628Y-19886196D02*
X15559152Y-19876672D01*
X15578200Y-19867148D01*
X15606771Y-19867148D01*
X15625819Y-19876672D01*
X15635343Y-19895719D01*
X15635343Y-20000481D01*
X15635343Y-19895719D02*
X15644867Y-19876672D01*
X15663914Y-19867148D01*
X15692486Y-19867148D01*
X15711533Y-19876672D01*
X15721057Y-19895719D01*
X15721057Y-20000481D01*
X16111533Y-19790957D02*
X15940105Y-20048100D01*
X16368676Y-19800481D02*
X16387724Y-19800481D01*
X16406771Y-19810005D01*
X16416295Y-19819529D01*
X16425819Y-19838577D01*
X16435343Y-19876672D01*
X16435343Y-19924291D01*
X16425819Y-19962386D01*
X16416295Y-19981434D01*
X16406771Y-19990957D01*
X16387724Y-20000481D01*
X16368676Y-20000481D01*
X16349628Y-19990957D01*
X16340105Y-19981434D01*
X16330581Y-19962386D01*
X16321057Y-19924291D01*
X16321057Y-19876672D01*
X16330581Y-19838577D01*
X16340105Y-19819529D01*
X16349628Y-19810005D01*
X16368676Y-19800481D01*
X16521057Y-19981434D02*
X16530581Y-19990957D01*
X16521057Y-20000481D01*
X16511533Y-19990957D01*
X16521057Y-19981434D01*
X16521057Y-20000481D01*
X16654390Y-19800481D02*
X16673438Y-19800481D01*
X16692486Y-19810005D01*
X16702009Y-19819529D01*
X16711533Y-19838577D01*
X16721057Y-19876672D01*
X16721057Y-19924291D01*
X16711533Y-19962386D01*
X16702009Y-19981434D01*
X16692486Y-19990957D01*
X16673438Y-20000481D01*
X16654390Y-20000481D01*
X16635343Y-19990957D01*
X16625819Y-19981434D01*
X16616295Y-19962386D01*
X16606771Y-19924291D01*
X16606771Y-19876672D01*
X16616295Y-19838577D01*
X16625819Y-19819529D01*
X16635343Y-19810005D01*
X16654390Y-19800481D01*
X16911533Y-20000481D02*
X16797248Y-20000481D01*
X16854390Y-20000481D02*
X16854390Y-19800481D01*
X16835343Y-19829053D01*
X16816295Y-19848100D01*
X16797248Y-19857624D01*
X17092486Y-19800481D02*
X16997248Y-19800481D01*
X16987724Y-19895719D01*
X16997248Y-19886196D01*
X17016295Y-19876672D01*
X17063914Y-19876672D01*
X17082962Y-19886196D01*
X17092486Y-19895719D01*
X17102010Y-19914767D01*
X17102010Y-19962386D01*
X17092486Y-19981434D01*
X17082962Y-19990957D01*
X17063914Y-20000481D01*
X17016295Y-20000481D01*
X16997248Y-19990957D01*
X16987724Y-19981434D01*
X17168676Y-19800481D02*
X17302010Y-19800481D01*
X17216295Y-20000481D01*
X17368676Y-19800481D02*
X17368676Y-19838577D01*
X17444867Y-19800481D02*
X17444867Y-19838577D01*
X17740105Y-20076672D02*
X17730581Y-20067148D01*
X17711533Y-20038577D01*
X17702010Y-20019529D01*
X17692486Y-19990957D01*
X17682962Y-19943338D01*
X17682962Y-19905243D01*
X17692486Y-19857624D01*
X17702010Y-19829053D01*
X17711533Y-19810005D01*
X17730581Y-19781434D01*
X17740105Y-19771910D01*
X17806771Y-19819529D02*
X17816295Y-19810005D01*
X17835343Y-19800481D01*
X17882962Y-19800481D01*
X17902010Y-19810005D01*
X17911533Y-19819529D01*
X17921057Y-19838577D01*
X17921057Y-19857624D01*
X17911533Y-19886196D01*
X17797248Y-20000481D01*
X17921057Y-20000481D01*
X18159152Y-20000481D02*
X18159152Y-19800481D01*
X18244867Y-20000481D02*
X18244867Y-19895719D01*
X18235343Y-19876672D01*
X18216295Y-19867148D01*
X18187724Y-19867148D01*
X18168676Y-19876672D01*
X18159152Y-19886196D01*
X18368676Y-20000481D02*
X18349629Y-19990957D01*
X18340105Y-19981434D01*
X18330581Y-19962386D01*
X18330581Y-19905243D01*
X18340105Y-19886196D01*
X18349629Y-19876672D01*
X18368676Y-19867148D01*
X18397248Y-19867148D01*
X18416295Y-19876672D01*
X18425819Y-19886196D01*
X18435343Y-19905243D01*
X18435343Y-19962386D01*
X18425819Y-19981434D01*
X18416295Y-19990957D01*
X18397248Y-20000481D01*
X18368676Y-20000481D01*
X18549629Y-20000481D02*
X18530581Y-19990957D01*
X18521057Y-19971910D01*
X18521057Y-19800481D01*
X18702010Y-19990957D02*
X18682962Y-20000481D01*
X18644867Y-20000481D01*
X18625819Y-19990957D01*
X18616295Y-19971910D01*
X18616295Y-19895719D01*
X18625819Y-19876672D01*
X18644867Y-19867148D01*
X18682962Y-19867148D01*
X18702010Y-19876672D01*
X18711533Y-19895719D01*
X18711533Y-19914767D01*
X18616295Y-19933815D01*
X18787724Y-19990957D02*
X18806771Y-20000481D01*
X18844867Y-20000481D01*
X18863914Y-19990957D01*
X18873438Y-19971910D01*
X18873438Y-19962386D01*
X18863914Y-19943338D01*
X18844867Y-19933815D01*
X18816295Y-19933815D01*
X18797248Y-19924291D01*
X18787724Y-19905243D01*
X18787724Y-19895719D01*
X18797248Y-19876672D01*
X18816295Y-19867148D01*
X18844867Y-19867148D01*
X18863914Y-19876672D01*
X18940105Y-20076672D02*
X18949629Y-20067148D01*
X18968676Y-20038577D01*
X18978200Y-20019529D01*
X18987724Y-19990957D01*
X18997248Y-19943338D01*
X18997248Y-19905243D01*
X18987724Y-19857624D01*
X18978200Y-19829053D01*
X18968676Y-19810005D01*
X18949629Y-19781434D01*
X18940105Y-19771910D01*
D14*
X14118200Y-20124005D02*
X14118200Y-20224005D01*
X14068200Y-20174005D02*
X14168200Y-20174005D01*
D11*
X14530581Y-20264481D02*
X14416295Y-20264481D01*
X14473438Y-20264481D02*
X14473438Y-20064481D01*
X14454390Y-20093053D01*
X14435343Y-20112100D01*
X14416295Y-20121624D01*
X14616295Y-20245434D02*
X14625819Y-20254957D01*
X14616295Y-20264481D01*
X14606771Y-20254957D01*
X14616295Y-20245434D01*
X14616295Y-20264481D01*
X14749628Y-20064481D02*
X14768676Y-20064481D01*
X14787724Y-20074005D01*
X14797248Y-20083529D01*
X14806771Y-20102577D01*
X14816295Y-20140672D01*
X14816295Y-20188291D01*
X14806771Y-20226386D01*
X14797248Y-20245434D01*
X14787724Y-20254957D01*
X14768676Y-20264481D01*
X14749628Y-20264481D01*
X14730581Y-20254957D01*
X14721057Y-20245434D01*
X14711533Y-20226386D01*
X14702009Y-20188291D01*
X14702009Y-20140672D01*
X14711533Y-20102577D01*
X14721057Y-20083529D01*
X14730581Y-20074005D01*
X14749628Y-20064481D01*
X14940105Y-20064481D02*
X14959152Y-20064481D01*
X14978200Y-20074005D01*
X14987724Y-20083529D01*
X14997248Y-20102577D01*
X15006771Y-20140672D01*
X15006771Y-20188291D01*
X14997248Y-20226386D01*
X14987724Y-20245434D01*
X14978200Y-20254957D01*
X14959152Y-20264481D01*
X14940105Y-20264481D01*
X14921057Y-20254957D01*
X14911533Y-20245434D01*
X14902009Y-20226386D01*
X14892486Y-20188291D01*
X14892486Y-20140672D01*
X14902009Y-20102577D01*
X14911533Y-20083529D01*
X14921057Y-20074005D01*
X14940105Y-20064481D01*
X15130581Y-20064481D02*
X15149628Y-20064481D01*
X15168676Y-20074005D01*
X15178200Y-20083529D01*
X15187724Y-20102577D01*
X15197248Y-20140672D01*
X15197248Y-20188291D01*
X15187724Y-20226386D01*
X15178200Y-20245434D01*
X15168676Y-20254957D01*
X15149628Y-20264481D01*
X15130581Y-20264481D01*
X15111533Y-20254957D01*
X15102009Y-20245434D01*
X15092486Y-20226386D01*
X15082962Y-20188291D01*
X15082962Y-20140672D01*
X15092486Y-20102577D01*
X15102009Y-20083529D01*
X15111533Y-20074005D01*
X15130581Y-20064481D01*
X15282962Y-20264481D02*
X15282962Y-20131148D01*
X15282962Y-20150196D02*
X15292486Y-20140672D01*
X15311533Y-20131148D01*
X15340105Y-20131148D01*
X15359152Y-20140672D01*
X15368676Y-20159719D01*
X15368676Y-20264481D01*
X15368676Y-20159719D02*
X15378200Y-20140672D01*
X15397248Y-20131148D01*
X15425819Y-20131148D01*
X15444867Y-20140672D01*
X15454390Y-20159719D01*
X15454390Y-20264481D01*
X15549628Y-20264481D02*
X15549628Y-20131148D01*
X15549628Y-20150196D02*
X15559152Y-20140672D01*
X15578200Y-20131148D01*
X15606771Y-20131148D01*
X15625819Y-20140672D01*
X15635343Y-20159719D01*
X15635343Y-20264481D01*
X15635343Y-20159719D02*
X15644867Y-20140672D01*
X15663914Y-20131148D01*
X15692486Y-20131148D01*
X15711533Y-20140672D01*
X15721057Y-20159719D01*
X15721057Y-20264481D01*
X16111533Y-20054957D02*
X15940105Y-20312100D01*
X16368676Y-20064481D02*
X16387724Y-20064481D01*
X16406771Y-20074005D01*
X16416295Y-20083529D01*
X16425819Y-20102577D01*
X16435343Y-20140672D01*
X16435343Y-20188291D01*
X16425819Y-20226386D01*
X16416295Y-20245434D01*
X16406771Y-20254957D01*
X16387724Y-20264481D01*
X16368676Y-20264481D01*
X16349628Y-20254957D01*
X16340105Y-20245434D01*
X16330581Y-20226386D01*
X16321057Y-20188291D01*
X16321057Y-20140672D01*
X16330581Y-20102577D01*
X16340105Y-20083529D01*
X16349628Y-20074005D01*
X16368676Y-20064481D01*
X16521057Y-20245434D02*
X16530581Y-20254957D01*
X16521057Y-20264481D01*
X16511533Y-20254957D01*
X16521057Y-20245434D01*
X16521057Y-20264481D01*
X16654390Y-20064481D02*
X16673438Y-20064481D01*
X16692486Y-20074005D01*
X16702009Y-20083529D01*
X16711533Y-20102577D01*
X16721057Y-20140672D01*
X16721057Y-20188291D01*
X16711533Y-20226386D01*
X16702009Y-20245434D01*
X16692486Y-20254957D01*
X16673438Y-20264481D01*
X16654390Y-20264481D01*
X16635343Y-20254957D01*
X16625819Y-20245434D01*
X16616295Y-20226386D01*
X16606771Y-20188291D01*
X16606771Y-20140672D01*
X16616295Y-20102577D01*
X16625819Y-20083529D01*
X16635343Y-20074005D01*
X16654390Y-20064481D01*
X16787724Y-20064481D02*
X16911533Y-20064481D01*
X16844867Y-20140672D01*
X16873438Y-20140672D01*
X16892486Y-20150196D01*
X16902010Y-20159719D01*
X16911533Y-20178767D01*
X16911533Y-20226386D01*
X16902010Y-20245434D01*
X16892486Y-20254957D01*
X16873438Y-20264481D01*
X16816295Y-20264481D01*
X16797248Y-20254957D01*
X16787724Y-20245434D01*
X17006771Y-20264481D02*
X17044867Y-20264481D01*
X17063914Y-20254957D01*
X17073438Y-20245434D01*
X17092486Y-20216862D01*
X17102010Y-20178767D01*
X17102010Y-20102577D01*
X17092486Y-20083529D01*
X17082962Y-20074005D01*
X17063914Y-20064481D01*
X17025819Y-20064481D01*
X17006771Y-20074005D01*
X16997248Y-20083529D01*
X16987724Y-20102577D01*
X16987724Y-20150196D01*
X16997248Y-20169243D01*
X17006771Y-20178767D01*
X17025819Y-20188291D01*
X17063914Y-20188291D01*
X17082962Y-20178767D01*
X17092486Y-20169243D01*
X17102010Y-20150196D01*
X17273438Y-20131148D02*
X17273438Y-20264481D01*
X17225819Y-20054957D02*
X17178200Y-20197815D01*
X17302010Y-20197815D01*
X17368676Y-20064481D02*
X17368676Y-20102577D01*
X17444867Y-20064481D02*
X17444867Y-20102577D01*
X17740105Y-20340672D02*
X17730581Y-20331148D01*
X17711533Y-20302577D01*
X17702010Y-20283529D01*
X17692486Y-20254957D01*
X17682962Y-20207338D01*
X17682962Y-20169243D01*
X17692486Y-20121624D01*
X17702010Y-20093053D01*
X17711533Y-20074005D01*
X17730581Y-20045434D01*
X17740105Y-20035910D01*
X17844867Y-20150196D02*
X17825819Y-20140672D01*
X17816295Y-20131148D01*
X17806771Y-20112100D01*
X17806771Y-20102577D01*
X17816295Y-20083529D01*
X17825819Y-20074005D01*
X17844867Y-20064481D01*
X17882962Y-20064481D01*
X17902010Y-20074005D01*
X17911533Y-20083529D01*
X17921057Y-20102577D01*
X17921057Y-20112100D01*
X17911533Y-20131148D01*
X17902010Y-20140672D01*
X17882962Y-20150196D01*
X17844867Y-20150196D01*
X17825819Y-20159719D01*
X17816295Y-20169243D01*
X17806771Y-20188291D01*
X17806771Y-20226386D01*
X17816295Y-20245434D01*
X17825819Y-20254957D01*
X17844867Y-20264481D01*
X17882962Y-20264481D01*
X17902010Y-20254957D01*
X17911533Y-20245434D01*
X17921057Y-20226386D01*
X17921057Y-20188291D01*
X17911533Y-20169243D01*
X17902010Y-20159719D01*
X17882962Y-20150196D01*
X18159152Y-20264481D02*
X18159152Y-20064481D01*
X18244867Y-20264481D02*
X18244867Y-20159719D01*
X18235343Y-20140672D01*
X18216295Y-20131148D01*
X18187724Y-20131148D01*
X18168676Y-20140672D01*
X18159152Y-20150196D01*
X18368676Y-20264481D02*
X18349629Y-20254957D01*
X18340105Y-20245434D01*
X18330581Y-20226386D01*
X18330581Y-20169243D01*
X18340105Y-20150196D01*
X18349629Y-20140672D01*
X18368676Y-20131148D01*
X18397248Y-20131148D01*
X18416295Y-20140672D01*
X18425819Y-20150196D01*
X18435343Y-20169243D01*
X18435343Y-20226386D01*
X18425819Y-20245434D01*
X18416295Y-20254957D01*
X18397248Y-20264481D01*
X18368676Y-20264481D01*
X18549629Y-20264481D02*
X18530581Y-20254957D01*
X18521057Y-20235910D01*
X18521057Y-20064481D01*
X18702010Y-20254957D02*
X18682962Y-20264481D01*
X18644867Y-20264481D01*
X18625819Y-20254957D01*
X18616295Y-20235910D01*
X18616295Y-20159719D01*
X18625819Y-20140672D01*
X18644867Y-20131148D01*
X18682962Y-20131148D01*
X18702010Y-20140672D01*
X18711533Y-20159719D01*
X18711533Y-20178767D01*
X18616295Y-20197815D01*
X18787724Y-20254957D02*
X18806771Y-20264481D01*
X18844867Y-20264481D01*
X18863914Y-20254957D01*
X18873438Y-20235910D01*
X18873438Y-20226386D01*
X18863914Y-20207338D01*
X18844867Y-20197815D01*
X18816295Y-20197815D01*
X18797248Y-20188291D01*
X18787724Y-20169243D01*
X18787724Y-20159719D01*
X18797248Y-20140672D01*
X18816295Y-20131148D01*
X18844867Y-20131148D01*
X18863914Y-20140672D01*
X18940105Y-20340672D02*
X18949629Y-20331148D01*
X18968676Y-20302577D01*
X18978200Y-20283529D01*
X18987724Y-20254957D01*
X18997248Y-20207338D01*
X18997248Y-20169243D01*
X18987724Y-20121624D01*
X18978200Y-20093053D01*
X18968676Y-20074005D01*
X18949629Y-20045434D01*
X18940105Y-20035910D01*
D15*
X14140376Y-20505181D02*
X14140376Y-20370829D01*
X14006024Y-20370829D01*
X14006024Y-20505181D01*
X14140376Y-20505181D01*
D11*
X14530581Y-20528481D02*
X14416295Y-20528481D01*
X14473438Y-20528481D02*
X14473438Y-20328481D01*
X14454390Y-20357053D01*
X14435343Y-20376100D01*
X14416295Y-20385624D01*
X14616295Y-20509434D02*
X14625819Y-20518957D01*
X14616295Y-20528481D01*
X14606771Y-20518957D01*
X14616295Y-20509434D01*
X14616295Y-20528481D01*
X14721057Y-20528481D02*
X14759152Y-20528481D01*
X14778200Y-20518957D01*
X14787724Y-20509434D01*
X14806771Y-20480862D01*
X14816295Y-20442767D01*
X14816295Y-20366577D01*
X14806771Y-20347529D01*
X14797248Y-20338005D01*
X14778200Y-20328481D01*
X14740105Y-20328481D01*
X14721057Y-20338005D01*
X14711533Y-20347529D01*
X14702009Y-20366577D01*
X14702009Y-20414196D01*
X14711533Y-20433243D01*
X14721057Y-20442767D01*
X14740105Y-20452291D01*
X14778200Y-20452291D01*
X14797248Y-20442767D01*
X14806771Y-20433243D01*
X14816295Y-20414196D01*
X14940105Y-20328481D02*
X14959152Y-20328481D01*
X14978200Y-20338005D01*
X14987724Y-20347529D01*
X14997248Y-20366577D01*
X15006771Y-20404672D01*
X15006771Y-20452291D01*
X14997248Y-20490386D01*
X14987724Y-20509434D01*
X14978200Y-20518957D01*
X14959152Y-20528481D01*
X14940105Y-20528481D01*
X14921057Y-20518957D01*
X14911533Y-20509434D01*
X14902009Y-20490386D01*
X14892486Y-20452291D01*
X14892486Y-20404672D01*
X14902009Y-20366577D01*
X14911533Y-20347529D01*
X14921057Y-20338005D01*
X14940105Y-20328481D01*
X15130581Y-20328481D02*
X15149628Y-20328481D01*
X15168676Y-20338005D01*
X15178200Y-20347529D01*
X15187724Y-20366577D01*
X15197248Y-20404672D01*
X15197248Y-20452291D01*
X15187724Y-20490386D01*
X15178200Y-20509434D01*
X15168676Y-20518957D01*
X15149628Y-20528481D01*
X15130581Y-20528481D01*
X15111533Y-20518957D01*
X15102009Y-20509434D01*
X15092486Y-20490386D01*
X15082962Y-20452291D01*
X15082962Y-20404672D01*
X15092486Y-20366577D01*
X15102009Y-20347529D01*
X15111533Y-20338005D01*
X15130581Y-20328481D01*
X15282962Y-20528481D02*
X15282962Y-20395148D01*
X15282962Y-20414196D02*
X15292486Y-20404672D01*
X15311533Y-20395148D01*
X15340105Y-20395148D01*
X15359152Y-20404672D01*
X15368676Y-20423719D01*
X15368676Y-20528481D01*
X15368676Y-20423719D02*
X15378200Y-20404672D01*
X15397248Y-20395148D01*
X15425819Y-20395148D01*
X15444867Y-20404672D01*
X15454390Y-20423719D01*
X15454390Y-20528481D01*
X15549628Y-20528481D02*
X15549628Y-20395148D01*
X15549628Y-20414196D02*
X15559152Y-20404672D01*
X15578200Y-20395148D01*
X15606771Y-20395148D01*
X15625819Y-20404672D01*
X15635343Y-20423719D01*
X15635343Y-20528481D01*
X15635343Y-20423719D02*
X15644867Y-20404672D01*
X15663914Y-20395148D01*
X15692486Y-20395148D01*
X15711533Y-20404672D01*
X15721057Y-20423719D01*
X15721057Y-20528481D01*
X16111533Y-20318957D02*
X15940105Y-20576100D01*
X16368676Y-20328481D02*
X16387724Y-20328481D01*
X16406771Y-20338005D01*
X16416295Y-20347529D01*
X16425819Y-20366577D01*
X16435343Y-20404672D01*
X16435343Y-20452291D01*
X16425819Y-20490386D01*
X16416295Y-20509434D01*
X16406771Y-20518957D01*
X16387724Y-20528481D01*
X16368676Y-20528481D01*
X16349628Y-20518957D01*
X16340105Y-20509434D01*
X16330581Y-20490386D01*
X16321057Y-20452291D01*
X16321057Y-20404672D01*
X16330581Y-20366577D01*
X16340105Y-20347529D01*
X16349628Y-20338005D01*
X16368676Y-20328481D01*
X16521057Y-20509434D02*
X16530581Y-20518957D01*
X16521057Y-20528481D01*
X16511533Y-20518957D01*
X16521057Y-20509434D01*
X16521057Y-20528481D01*
X16654390Y-20328481D02*
X16673438Y-20328481D01*
X16692486Y-20338005D01*
X16702009Y-20347529D01*
X16711533Y-20366577D01*
X16721057Y-20404672D01*
X16721057Y-20452291D01*
X16711533Y-20490386D01*
X16702009Y-20509434D01*
X16692486Y-20518957D01*
X16673438Y-20528481D01*
X16654390Y-20528481D01*
X16635343Y-20518957D01*
X16625819Y-20509434D01*
X16616295Y-20490386D01*
X16606771Y-20452291D01*
X16606771Y-20404672D01*
X16616295Y-20366577D01*
X16625819Y-20347529D01*
X16635343Y-20338005D01*
X16654390Y-20328481D01*
X16787724Y-20328481D02*
X16921057Y-20328481D01*
X16835343Y-20528481D01*
X17082962Y-20395148D02*
X17082962Y-20528481D01*
X17035343Y-20318957D02*
X16987724Y-20461815D01*
X17111533Y-20461815D01*
X17216295Y-20414196D02*
X17197248Y-20404672D01*
X17187724Y-20395148D01*
X17178200Y-20376100D01*
X17178200Y-20366577D01*
X17187724Y-20347529D01*
X17197248Y-20338005D01*
X17216295Y-20328481D01*
X17254390Y-20328481D01*
X17273438Y-20338005D01*
X17282962Y-20347529D01*
X17292486Y-20366577D01*
X17292486Y-20376100D01*
X17282962Y-20395148D01*
X17273438Y-20404672D01*
X17254390Y-20414196D01*
X17216295Y-20414196D01*
X17197248Y-20423719D01*
X17187724Y-20433243D01*
X17178200Y-20452291D01*
X17178200Y-20490386D01*
X17187724Y-20509434D01*
X17197248Y-20518957D01*
X17216295Y-20528481D01*
X17254390Y-20528481D01*
X17273438Y-20518957D01*
X17282962Y-20509434D01*
X17292486Y-20490386D01*
X17292486Y-20452291D01*
X17282962Y-20433243D01*
X17273438Y-20423719D01*
X17254390Y-20414196D01*
X17368676Y-20328481D02*
X17368676Y-20366577D01*
X17444867Y-20328481D02*
X17444867Y-20366577D01*
X17740105Y-20604672D02*
X17730581Y-20595148D01*
X17711533Y-20566577D01*
X17702010Y-20547529D01*
X17692486Y-20518957D01*
X17682962Y-20471338D01*
X17682962Y-20433243D01*
X17692486Y-20385624D01*
X17702010Y-20357053D01*
X17711533Y-20338005D01*
X17730581Y-20309434D01*
X17740105Y-20299910D01*
X17921057Y-20528481D02*
X17806771Y-20528481D01*
X17863914Y-20528481D02*
X17863914Y-20328481D01*
X17844867Y-20357053D01*
X17825819Y-20376100D01*
X17806771Y-20385624D01*
X18092486Y-20328481D02*
X18054390Y-20328481D01*
X18035343Y-20338005D01*
X18025819Y-20347529D01*
X18006771Y-20376100D01*
X17997248Y-20414196D01*
X17997248Y-20490386D01*
X18006771Y-20509434D01*
X18016295Y-20518957D01*
X18035343Y-20528481D01*
X18073438Y-20528481D01*
X18092486Y-20518957D01*
X18102010Y-20509434D01*
X18111533Y-20490386D01*
X18111533Y-20442767D01*
X18102010Y-20423719D01*
X18092486Y-20414196D01*
X18073438Y-20404672D01*
X18035343Y-20404672D01*
X18016295Y-20414196D01*
X18006771Y-20423719D01*
X17997248Y-20442767D01*
X18349629Y-20528481D02*
X18349629Y-20328481D01*
X18435343Y-20528481D02*
X18435343Y-20423719D01*
X18425819Y-20404672D01*
X18406771Y-20395148D01*
X18378200Y-20395148D01*
X18359152Y-20404672D01*
X18349629Y-20414196D01*
X18559152Y-20528481D02*
X18540105Y-20518957D01*
X18530581Y-20509434D01*
X18521057Y-20490386D01*
X18521057Y-20433243D01*
X18530581Y-20414196D01*
X18540105Y-20404672D01*
X18559152Y-20395148D01*
X18587724Y-20395148D01*
X18606771Y-20404672D01*
X18616295Y-20414196D01*
X18625819Y-20433243D01*
X18625819Y-20490386D01*
X18616295Y-20509434D01*
X18606771Y-20518957D01*
X18587724Y-20528481D01*
X18559152Y-20528481D01*
X18740105Y-20528481D02*
X18721057Y-20518957D01*
X18711533Y-20499910D01*
X18711533Y-20328481D01*
X18892486Y-20518957D02*
X18873438Y-20528481D01*
X18835343Y-20528481D01*
X18816295Y-20518957D01*
X18806771Y-20499910D01*
X18806771Y-20423719D01*
X18816295Y-20404672D01*
X18835343Y-20395148D01*
X18873438Y-20395148D01*
X18892486Y-20404672D01*
X18902010Y-20423719D01*
X18902010Y-20442767D01*
X18806771Y-20461815D01*
X18978200Y-20518957D02*
X18997248Y-20528481D01*
X19035343Y-20528481D01*
X19054390Y-20518957D01*
X19063914Y-20499910D01*
X19063914Y-20490386D01*
X19054390Y-20471338D01*
X19035343Y-20461815D01*
X19006771Y-20461815D01*
X18987724Y-20452291D01*
X18978200Y-20433243D01*
X18978200Y-20423719D01*
X18987724Y-20404672D01*
X19006771Y-20395148D01*
X19035343Y-20395148D01*
X19054390Y-20404672D01*
X19130581Y-20604672D02*
X19140105Y-20595148D01*
X19159152Y-20566577D01*
X19168676Y-20547529D01*
X19178200Y-20518957D01*
X19187724Y-20471338D01*
X19187724Y-20433243D01*
X19178200Y-20385624D01*
X19168676Y-20357053D01*
X19159152Y-20338005D01*
X19140105Y-20309434D01*
X19130581Y-20299910D01*
M02*
