%TF.GenerationSoftware,KiCad,Pcbnew,(6.0.0)*%
%TF.CreationDate,2022-02-23T23:52:20-08:00*%
%TF.ProjectId,motor-controller,6d6f746f-722d-4636-9f6e-74726f6c6c65,rev?*%
%TF.SameCoordinates,Original*%
%TF.FileFunction,Copper,L2,Inr*%
%TF.FilePolarity,Positive*%
%FSLAX46Y46*%
G04 Gerber Fmt 4.6, Leading zero omitted, Abs format (unit mm)*
G04 Created by KiCad (PCBNEW (6.0.0)) date 2022-02-23 23:52:20*
%MOMM*%
%LPD*%
G01*
G04 APERTURE LIST*
%TA.AperFunction,ComponentPad*%
%ADD10R,1.700000X1.700000*%
%TD*%
%TA.AperFunction,ComponentPad*%
%ADD11O,1.700000X1.700000*%
%TD*%
%TA.AperFunction,ComponentPad*%
%ADD12R,2.200000X2.200000*%
%TD*%
%TA.AperFunction,ViaPad*%
%ADD13C,0.406400*%
%TD*%
%TA.AperFunction,ViaPad*%
%ADD14C,0.800000*%
%TD*%
G04 APERTURE END LIST*
D10*
%TO.N,+3V3*%
%TO.C,J5*%
X169418000Y-172217000D03*
D11*
%TO.N,GND*%
X169418000Y-174757000D03*
%TO.N,/controller/SWCLK*%
X169418000Y-177297000D03*
%TO.N,/controller/SWDIO*%
X169418000Y-179837000D03*
%TO.N,/controller/NRST*%
X169418000Y-182377000D03*
%TD*%
D10*
%TO.N,GND*%
%TO.C,J6*%
X145034000Y-186167000D03*
D11*
%TO.N,+5V*%
X145034000Y-183627000D03*
%TO.N,/controller/PWM_IN*%
X145034000Y-181087000D03*
%TD*%
D12*
%TO.N,/PHASE B*%
%TO.C,J4*%
X164044000Y-140772000D03*
X164044000Y-147772000D03*
X159044000Y-140772000D03*
X159044000Y-147772000D03*
%TD*%
%TO.N,/PHASE A*%
%TO.C,J3*%
X154172699Y-140772000D03*
X149172699Y-147772000D03*
X149172699Y-140772000D03*
X154172699Y-147772000D03*
%TD*%
%TO.N,GND*%
%TO.C,J2*%
X164298000Y-187396000D03*
X164298000Y-180396000D03*
X159298000Y-180396000D03*
X159298000Y-187396000D03*
%TD*%
%TO.N,VBUS*%
%TO.C,J1*%
X149392000Y-180396000D03*
X149392000Y-187396000D03*
X154392000Y-187396000D03*
X154392000Y-180396000D03*
%TD*%
D13*
%TO.N,VBUS*%
X147828000Y-155829000D03*
X156845000Y-152781000D03*
X149860000Y-152146000D03*
X147828000Y-152019000D03*
X168402000Y-166370000D03*
X156845000Y-152019000D03*
X156845000Y-151257000D03*
X165857650Y-153155524D03*
X147828000Y-156464000D03*
X165862000Y-156464000D03*
X149860000Y-151130000D03*
X165862000Y-154178000D03*
X147828000Y-153924000D03*
X165862000Y-157734000D03*
X165862000Y-158750000D03*
X147828000Y-158496000D03*
X165857650Y-151508832D03*
X149860000Y-155276997D03*
X159766000Y-163830000D03*
X149860000Y-153670000D03*
X156845000Y-154432000D03*
X153152963Y-156098082D03*
X147828000Y-157861000D03*
X147828000Y-159131000D03*
X165862000Y-152019000D03*
X165857650Y-153668015D03*
X165862000Y-155448000D03*
X165862000Y-155956000D03*
X147828000Y-155194000D03*
X147828000Y-153416000D03*
X149860000Y-152908000D03*
X149860000Y-154432000D03*
X156845000Y-156083000D03*
X165862000Y-151003000D03*
X147824781Y-151508598D03*
X147824781Y-151000775D03*
X147828000Y-154432000D03*
X156845000Y-155194000D03*
X165862000Y-158242000D03*
X156845000Y-153670000D03*
%TO.N,GND*%
X156220102Y-154100866D03*
X162941000Y-155702000D03*
X162814000Y-154813000D03*
X156210000Y-151638000D03*
X167132000Y-172720000D03*
X162814000Y-153289000D03*
X156752838Y-157339290D03*
X156210000Y-154940000D03*
X162814000Y-150876000D03*
X156210000Y-152400000D03*
X156210000Y-150876000D03*
X162814000Y-154051000D03*
X162814000Y-152400000D03*
X156230059Y-153288548D03*
X162814000Y-151638000D03*
D14*
%TO.N,/PHASE A*%
X149860000Y-160282516D03*
D13*
X149860000Y-156210000D03*
%TO.N,/PHASE B*%
X156214258Y-155706258D03*
X156210000Y-160020000D03*
%TO.N,/controller/SWCLK*%
X166813317Y-177864683D03*
%TO.N,/controller/PWM_IN*%
X158496000Y-177800000D03*
X159546691Y-174913850D03*
D14*
%TO.N,PWM_A_HIGH*%
X157226000Y-172720000D03*
D13*
X154079453Y-164039858D03*
%TO.N,PWM_A_LOW*%
X154178000Y-163322000D03*
X159766000Y-171577000D03*
%TO.N,PWM_B_HIGH*%
X160274000Y-172466000D03*
X159898294Y-161377175D03*
%TO.N,PWM_B_LOW*%
X159512000Y-174244000D03*
X160528000Y-161544000D03*
%TD*%
%TA.AperFunction,Conductor*%
%TO.N,GND*%
G36*
X147613159Y-139212002D02*
G01*
X147659652Y-139265658D01*
X147669756Y-139335932D01*
X147645865Y-139393564D01*
X147627469Y-139418109D01*
X147627467Y-139418112D01*
X147622084Y-139425295D01*
X147570954Y-139561684D01*
X147564199Y-139623866D01*
X147564199Y-141920134D01*
X147570954Y-141982316D01*
X147622084Y-142118705D01*
X147709438Y-142235261D01*
X147825994Y-142322615D01*
X147962383Y-142373745D01*
X148024565Y-142380500D01*
X150320833Y-142380500D01*
X150383015Y-142373745D01*
X150519404Y-142322615D01*
X150635960Y-142235261D01*
X150723314Y-142118705D01*
X150774444Y-141982316D01*
X150781199Y-141920134D01*
X150781199Y-139623866D01*
X150774444Y-139561684D01*
X150723314Y-139425295D01*
X150717931Y-139418112D01*
X150717929Y-139418109D01*
X150699533Y-139393564D01*
X150674686Y-139327058D01*
X150689739Y-139257675D01*
X150739914Y-139207446D01*
X150800360Y-139192000D01*
X152545038Y-139192000D01*
X152613159Y-139212002D01*
X152659652Y-139265658D01*
X152669756Y-139335932D01*
X152645865Y-139393564D01*
X152627469Y-139418109D01*
X152627467Y-139418112D01*
X152622084Y-139425295D01*
X152570954Y-139561684D01*
X152564199Y-139623866D01*
X152564199Y-141920134D01*
X152570954Y-141982316D01*
X152622084Y-142118705D01*
X152709438Y-142235261D01*
X152825994Y-142322615D01*
X152962383Y-142373745D01*
X153024565Y-142380500D01*
X155320833Y-142380500D01*
X155383015Y-142373745D01*
X155519404Y-142322615D01*
X155635960Y-142235261D01*
X155723314Y-142118705D01*
X155774444Y-141982316D01*
X155781199Y-141920134D01*
X155781199Y-139623866D01*
X155774444Y-139561684D01*
X155723314Y-139425295D01*
X155717931Y-139418112D01*
X155717929Y-139418109D01*
X155699533Y-139393564D01*
X155674686Y-139327058D01*
X155689739Y-139257675D01*
X155739914Y-139207446D01*
X155800360Y-139192000D01*
X157416339Y-139192000D01*
X157484460Y-139212002D01*
X157530953Y-139265658D01*
X157541057Y-139335932D01*
X157517166Y-139393564D01*
X157498770Y-139418109D01*
X157498768Y-139418112D01*
X157493385Y-139425295D01*
X157442255Y-139561684D01*
X157435500Y-139623866D01*
X157435500Y-141920134D01*
X157442255Y-141982316D01*
X157493385Y-142118705D01*
X157580739Y-142235261D01*
X157697295Y-142322615D01*
X157833684Y-142373745D01*
X157895866Y-142380500D01*
X160192134Y-142380500D01*
X160254316Y-142373745D01*
X160390705Y-142322615D01*
X160507261Y-142235261D01*
X160594615Y-142118705D01*
X160645745Y-141982316D01*
X160652500Y-141920134D01*
X160652500Y-139623866D01*
X160645745Y-139561684D01*
X160594615Y-139425295D01*
X160589232Y-139418112D01*
X160589230Y-139418109D01*
X160570834Y-139393564D01*
X160545987Y-139327058D01*
X160561040Y-139257675D01*
X160611215Y-139207446D01*
X160671661Y-139192000D01*
X162416339Y-139192000D01*
X162484460Y-139212002D01*
X162530953Y-139265658D01*
X162541057Y-139335932D01*
X162517166Y-139393564D01*
X162498770Y-139418109D01*
X162498768Y-139418112D01*
X162493385Y-139425295D01*
X162442255Y-139561684D01*
X162435500Y-139623866D01*
X162435500Y-141920134D01*
X162442255Y-141982316D01*
X162493385Y-142118705D01*
X162580739Y-142235261D01*
X162697295Y-142322615D01*
X162833684Y-142373745D01*
X162895866Y-142380500D01*
X165192134Y-142380500D01*
X165254316Y-142373745D01*
X165390705Y-142322615D01*
X165507261Y-142235261D01*
X165594615Y-142118705D01*
X165645745Y-141982316D01*
X165652500Y-141920134D01*
X165652500Y-141278568D01*
X168109382Y-141278568D01*
X168138208Y-141527699D01*
X168139587Y-141532573D01*
X168139588Y-141532577D01*
X168178526Y-141670181D01*
X168206494Y-141769017D01*
X168208628Y-141773592D01*
X168208630Y-141773599D01*
X168305957Y-141982316D01*
X168312484Y-141996313D01*
X168315326Y-142000494D01*
X168315326Y-142000495D01*
X168450605Y-142199552D01*
X168450608Y-142199556D01*
X168453451Y-142203739D01*
X168456928Y-142207416D01*
X168456929Y-142207417D01*
X168557238Y-142313491D01*
X168625767Y-142385959D01*
X168629793Y-142389037D01*
X168629794Y-142389038D01*
X168820981Y-142535212D01*
X168820985Y-142535215D01*
X168825001Y-142538285D01*
X169046026Y-142656797D01*
X169050807Y-142658443D01*
X169050811Y-142658445D01*
X169276538Y-142736169D01*
X169283156Y-142738448D01*
X169386689Y-142756331D01*
X169526380Y-142780460D01*
X169526386Y-142780461D01*
X169530290Y-142781135D01*
X169534251Y-142781315D01*
X169534252Y-142781315D01*
X169558931Y-142782436D01*
X169558950Y-142782436D01*
X169560350Y-142782500D01*
X169735015Y-142782500D01*
X169737523Y-142782298D01*
X169737528Y-142782298D01*
X169916944Y-142767863D01*
X169916949Y-142767862D01*
X169921985Y-142767457D01*
X169926893Y-142766252D01*
X169926896Y-142766251D01*
X170160625Y-142708841D01*
X170165539Y-142707634D01*
X170170191Y-142705659D01*
X170170195Y-142705658D01*
X170391741Y-142611617D01*
X170391742Y-142611617D01*
X170396396Y-142609641D01*
X170608615Y-142476000D01*
X170796738Y-142310147D01*
X170955924Y-142116351D01*
X171082078Y-141899596D01*
X171171955Y-141665461D01*
X171223241Y-141419967D01*
X171234618Y-141169432D01*
X171205792Y-140920301D01*
X171166810Y-140782539D01*
X171138884Y-140683852D01*
X171138883Y-140683850D01*
X171137506Y-140678983D01*
X171135372Y-140674408D01*
X171135370Y-140674401D01*
X171033653Y-140456269D01*
X171033651Y-140456265D01*
X171031516Y-140451687D01*
X171022882Y-140438983D01*
X170893395Y-140248448D01*
X170893392Y-140248444D01*
X170890549Y-140244261D01*
X170789925Y-140137853D01*
X170721713Y-140065721D01*
X170718233Y-140062041D01*
X170714206Y-140058962D01*
X170523019Y-139912788D01*
X170523015Y-139912785D01*
X170518999Y-139909715D01*
X170297974Y-139791203D01*
X170293193Y-139789557D01*
X170293189Y-139789555D01*
X170065633Y-139711201D01*
X170060844Y-139709552D01*
X169957311Y-139691669D01*
X169817620Y-139667540D01*
X169817614Y-139667539D01*
X169813710Y-139666865D01*
X169809749Y-139666685D01*
X169809748Y-139666685D01*
X169785069Y-139665564D01*
X169785050Y-139665564D01*
X169783650Y-139665500D01*
X169608985Y-139665500D01*
X169606477Y-139665702D01*
X169606472Y-139665702D01*
X169427056Y-139680137D01*
X169427051Y-139680138D01*
X169422015Y-139680543D01*
X169417107Y-139681748D01*
X169417104Y-139681749D01*
X169185326Y-139738680D01*
X169178461Y-139740366D01*
X169173809Y-139742341D01*
X169173805Y-139742342D01*
X169053596Y-139793368D01*
X168947604Y-139838359D01*
X168735385Y-139972000D01*
X168547262Y-140137853D01*
X168388076Y-140331649D01*
X168261922Y-140548404D01*
X168172045Y-140782539D01*
X168120759Y-141028033D01*
X168109382Y-141278568D01*
X165652500Y-141278568D01*
X165652500Y-139623866D01*
X165645745Y-139561684D01*
X165594615Y-139425295D01*
X165589232Y-139418112D01*
X165589230Y-139418109D01*
X165570834Y-139393564D01*
X165545987Y-139327058D01*
X165561040Y-139257675D01*
X165611215Y-139207446D01*
X165671661Y-139192000D01*
X169622672Y-139192000D01*
X169642057Y-139193500D01*
X169656858Y-139195805D01*
X169656861Y-139195805D01*
X169665730Y-139197186D01*
X169681999Y-139195059D01*
X169706567Y-139194266D01*
X169928985Y-139208844D01*
X169945326Y-139210995D01*
X170189824Y-139259629D01*
X170205743Y-139263895D01*
X170441790Y-139344022D01*
X170457017Y-139350329D01*
X170680592Y-139460584D01*
X170694865Y-139468825D01*
X170902133Y-139607316D01*
X170915206Y-139617346D01*
X170986806Y-139680137D01*
X171102632Y-139781714D01*
X171114286Y-139793368D01*
X171273876Y-139975345D01*
X171278651Y-139980790D01*
X171288684Y-139993867D01*
X171427175Y-140201135D01*
X171435416Y-140215408D01*
X171545671Y-140438983D01*
X171551978Y-140454210D01*
X171632105Y-140690257D01*
X171636371Y-140706176D01*
X171685005Y-140950673D01*
X171687156Y-140967014D01*
X171701264Y-141182268D01*
X171700239Y-141205304D01*
X171700196Y-141208854D01*
X171698814Y-141217730D01*
X171700454Y-141230270D01*
X171702936Y-141249251D01*
X171704000Y-141265589D01*
X171704000Y-187420723D01*
X171702500Y-187440108D01*
X171701059Y-187449365D01*
X171698814Y-187463781D01*
X171700941Y-187480050D01*
X171701734Y-187504618D01*
X171687156Y-187727036D01*
X171685005Y-187743377D01*
X171636371Y-187987875D01*
X171632105Y-188003794D01*
X171551978Y-188239841D01*
X171545671Y-188255068D01*
X171435416Y-188478643D01*
X171427175Y-188492916D01*
X171288684Y-188700184D01*
X171278654Y-188713257D01*
X171240908Y-188756298D01*
X171114286Y-188900683D01*
X171102632Y-188912337D01*
X171059951Y-188949767D01*
X170924353Y-189068684D01*
X170915210Y-189076702D01*
X170902133Y-189086735D01*
X170694865Y-189225226D01*
X170680592Y-189233467D01*
X170457017Y-189343722D01*
X170441790Y-189350029D01*
X170205743Y-189430156D01*
X170189824Y-189434422D01*
X169945327Y-189483056D01*
X169928986Y-189485207D01*
X169713732Y-189499315D01*
X169690696Y-189498290D01*
X169687144Y-189498247D01*
X169678270Y-189496865D01*
X169669368Y-189498029D01*
X169669364Y-189498029D01*
X169646976Y-189500957D01*
X169630549Y-189502021D01*
X155012864Y-189491633D01*
X144321462Y-189484035D01*
X144302168Y-189482535D01*
X144287142Y-189480195D01*
X144287139Y-189480195D01*
X144278270Y-189478814D01*
X144262001Y-189480941D01*
X144237433Y-189481734D01*
X144015015Y-189467156D01*
X143998674Y-189465005D01*
X143754176Y-189416371D01*
X143738257Y-189412105D01*
X143502210Y-189331978D01*
X143486983Y-189325671D01*
X143263408Y-189215416D01*
X143249135Y-189207175D01*
X143041867Y-189068684D01*
X143028790Y-189058651D01*
X142966472Y-189003999D01*
X142841368Y-188894286D01*
X142829714Y-188882632D01*
X142704849Y-188740251D01*
X142665346Y-188695206D01*
X142655316Y-188682133D01*
X142563109Y-188544134D01*
X147783500Y-188544134D01*
X147790255Y-188606316D01*
X147841385Y-188742705D01*
X147928739Y-188859261D01*
X148045295Y-188946615D01*
X148181684Y-188997745D01*
X148243866Y-189004500D01*
X150540134Y-189004500D01*
X150602316Y-188997745D01*
X150738705Y-188946615D01*
X150855261Y-188859261D01*
X150942615Y-188742705D01*
X150993745Y-188606316D01*
X151000500Y-188544134D01*
X152783500Y-188544134D01*
X152790255Y-188606316D01*
X152841385Y-188742705D01*
X152928739Y-188859261D01*
X153045295Y-188946615D01*
X153181684Y-188997745D01*
X153243866Y-189004500D01*
X155540134Y-189004500D01*
X155602316Y-188997745D01*
X155738705Y-188946615D01*
X155855261Y-188859261D01*
X155942615Y-188742705D01*
X155993745Y-188606316D01*
X156000500Y-188544134D01*
X156000500Y-188540669D01*
X157690001Y-188540669D01*
X157690371Y-188547490D01*
X157695895Y-188598352D01*
X157699521Y-188613604D01*
X157744676Y-188734054D01*
X157753214Y-188749649D01*
X157829715Y-188851724D01*
X157842276Y-188864285D01*
X157944351Y-188940786D01*
X157959946Y-188949324D01*
X158080394Y-188994478D01*
X158095649Y-188998105D01*
X158146514Y-189003631D01*
X158153328Y-189004000D01*
X158898885Y-189004000D01*
X158914124Y-188999525D01*
X158915329Y-188998135D01*
X158917000Y-188990452D01*
X158917000Y-188985884D01*
X159679000Y-188985884D01*
X159683475Y-189001123D01*
X159684865Y-189002328D01*
X159692548Y-189003999D01*
X160442669Y-189003999D01*
X160449490Y-189003629D01*
X160500352Y-188998105D01*
X160515604Y-188994479D01*
X160636054Y-188949324D01*
X160651649Y-188940786D01*
X160753724Y-188864285D01*
X160766285Y-188851724D01*
X160842786Y-188749649D01*
X160851324Y-188734054D01*
X160896478Y-188613606D01*
X160900105Y-188598351D01*
X160905631Y-188547486D01*
X160906000Y-188540672D01*
X160906000Y-188540669D01*
X162690001Y-188540669D01*
X162690371Y-188547490D01*
X162695895Y-188598352D01*
X162699521Y-188613604D01*
X162744676Y-188734054D01*
X162753214Y-188749649D01*
X162829715Y-188851724D01*
X162842276Y-188864285D01*
X162944351Y-188940786D01*
X162959946Y-188949324D01*
X163080394Y-188994478D01*
X163095649Y-188998105D01*
X163146514Y-189003631D01*
X163153328Y-189004000D01*
X163898885Y-189004000D01*
X163914124Y-188999525D01*
X163915329Y-188998135D01*
X163917000Y-188990452D01*
X163917000Y-188985884D01*
X164679000Y-188985884D01*
X164683475Y-189001123D01*
X164684865Y-189002328D01*
X164692548Y-189003999D01*
X165442669Y-189003999D01*
X165449490Y-189003629D01*
X165500352Y-188998105D01*
X165515604Y-188994479D01*
X165636054Y-188949324D01*
X165651649Y-188940786D01*
X165753724Y-188864285D01*
X165766285Y-188851724D01*
X165842786Y-188749649D01*
X165851324Y-188734054D01*
X165896478Y-188613606D01*
X165900105Y-188598351D01*
X165905631Y-188547486D01*
X165906000Y-188540672D01*
X165906000Y-187795115D01*
X165901525Y-187779876D01*
X165900135Y-187778671D01*
X165892452Y-187777000D01*
X164697115Y-187777000D01*
X164681876Y-187781475D01*
X164680671Y-187782865D01*
X164679000Y-187790548D01*
X164679000Y-188985884D01*
X163917000Y-188985884D01*
X163917000Y-187795115D01*
X163912525Y-187779876D01*
X163911135Y-187778671D01*
X163903452Y-187777000D01*
X162708116Y-187777000D01*
X162692877Y-187781475D01*
X162691672Y-187782865D01*
X162690001Y-187790548D01*
X162690001Y-188540669D01*
X160906000Y-188540669D01*
X160906000Y-187795115D01*
X160901525Y-187779876D01*
X160900135Y-187778671D01*
X160892452Y-187777000D01*
X159697115Y-187777000D01*
X159681876Y-187781475D01*
X159680671Y-187782865D01*
X159679000Y-187790548D01*
X159679000Y-188985884D01*
X158917000Y-188985884D01*
X158917000Y-187795115D01*
X158912525Y-187779876D01*
X158911135Y-187778671D01*
X158903452Y-187777000D01*
X157708116Y-187777000D01*
X157692877Y-187781475D01*
X157691672Y-187782865D01*
X157690001Y-187790548D01*
X157690001Y-188540669D01*
X156000500Y-188540669D01*
X156000500Y-187252568D01*
X167855382Y-187252568D01*
X167884208Y-187501699D01*
X167885587Y-187506573D01*
X167885588Y-187506577D01*
X167951116Y-187738148D01*
X167952494Y-187743017D01*
X167954628Y-187747592D01*
X167954630Y-187747599D01*
X168056347Y-187965731D01*
X168058484Y-187970313D01*
X168061326Y-187974494D01*
X168061326Y-187974495D01*
X168196605Y-188173552D01*
X168196608Y-188173556D01*
X168199451Y-188177739D01*
X168202928Y-188181416D01*
X168202929Y-188181417D01*
X168303238Y-188287491D01*
X168371767Y-188359959D01*
X168375793Y-188363037D01*
X168375794Y-188363038D01*
X168566981Y-188509212D01*
X168566985Y-188509215D01*
X168571001Y-188512285D01*
X168792026Y-188630797D01*
X168796807Y-188632443D01*
X168796811Y-188632445D01*
X168993539Y-188700184D01*
X169029156Y-188712448D01*
X169132689Y-188730331D01*
X169272380Y-188754460D01*
X169272386Y-188754461D01*
X169276290Y-188755135D01*
X169280251Y-188755315D01*
X169280252Y-188755315D01*
X169304931Y-188756436D01*
X169304950Y-188756436D01*
X169306350Y-188756500D01*
X169481015Y-188756500D01*
X169483523Y-188756298D01*
X169483528Y-188756298D01*
X169662944Y-188741863D01*
X169662949Y-188741862D01*
X169667985Y-188741457D01*
X169672893Y-188740252D01*
X169672896Y-188740251D01*
X169906625Y-188682841D01*
X169911539Y-188681634D01*
X169916191Y-188679659D01*
X169916195Y-188679658D01*
X170137741Y-188585617D01*
X170137742Y-188585617D01*
X170142396Y-188583641D01*
X170315130Y-188474865D01*
X170350334Y-188452696D01*
X170350335Y-188452695D01*
X170354615Y-188450000D01*
X170542738Y-188284147D01*
X170701924Y-188090351D01*
X170828078Y-187873596D01*
X170859958Y-187790548D01*
X170916143Y-187644181D01*
X170917955Y-187639461D01*
X170941945Y-187524629D01*
X170968206Y-187398921D01*
X170969241Y-187393967D01*
X170969636Y-187385285D01*
X170975662Y-187252568D01*
X170980618Y-187143432D01*
X170951792Y-186894301D01*
X170912810Y-186756539D01*
X170884884Y-186657852D01*
X170884883Y-186657850D01*
X170883506Y-186652983D01*
X170881372Y-186648408D01*
X170881370Y-186648401D01*
X170779653Y-186430269D01*
X170779651Y-186430265D01*
X170777516Y-186425687D01*
X170774674Y-186421505D01*
X170639395Y-186222448D01*
X170639392Y-186222444D01*
X170636549Y-186218261D01*
X170535925Y-186111853D01*
X170467713Y-186039721D01*
X170464233Y-186036041D01*
X170460206Y-186032962D01*
X170269019Y-185886788D01*
X170269015Y-185886785D01*
X170264999Y-185883715D01*
X170203559Y-185850771D01*
X170048435Y-185767595D01*
X170043974Y-185765203D01*
X170039193Y-185763557D01*
X170039189Y-185763555D01*
X169811633Y-185685201D01*
X169806844Y-185683552D01*
X169703311Y-185665669D01*
X169563620Y-185641540D01*
X169563614Y-185641539D01*
X169559710Y-185640865D01*
X169555749Y-185640685D01*
X169555748Y-185640685D01*
X169531069Y-185639564D01*
X169531050Y-185639564D01*
X169529650Y-185639500D01*
X169354985Y-185639500D01*
X169352477Y-185639702D01*
X169352472Y-185639702D01*
X169173056Y-185654137D01*
X169173051Y-185654138D01*
X169168015Y-185654543D01*
X169163107Y-185655748D01*
X169163104Y-185655749D01*
X168931326Y-185712680D01*
X168924461Y-185714366D01*
X168919809Y-185716341D01*
X168919805Y-185716342D01*
X168698259Y-185810383D01*
X168693604Y-185812359D01*
X168632607Y-185850771D01*
X168490475Y-185940276D01*
X168481385Y-185946000D01*
X168293262Y-186111853D01*
X168134076Y-186305649D01*
X168007922Y-186522404D01*
X168006109Y-186527127D01*
X168006108Y-186527129D01*
X167996379Y-186552475D01*
X167918045Y-186756539D01*
X167866759Y-187002033D01*
X167866530Y-187007082D01*
X167866529Y-187007088D01*
X167866246Y-187013329D01*
X167855382Y-187252568D01*
X156000500Y-187252568D01*
X156000500Y-186996885D01*
X157690000Y-186996885D01*
X157694475Y-187012124D01*
X157695865Y-187013329D01*
X157703548Y-187015000D01*
X158898885Y-187015000D01*
X158914124Y-187010525D01*
X158915329Y-187009135D01*
X158917000Y-187001452D01*
X158917000Y-186996885D01*
X159679000Y-186996885D01*
X159683475Y-187012124D01*
X159684865Y-187013329D01*
X159692548Y-187015000D01*
X160887884Y-187015000D01*
X160903123Y-187010525D01*
X160904328Y-187009135D01*
X160905999Y-187001452D01*
X160905999Y-186996885D01*
X162690000Y-186996885D01*
X162694475Y-187012124D01*
X162695865Y-187013329D01*
X162703548Y-187015000D01*
X163898885Y-187015000D01*
X163914124Y-187010525D01*
X163915329Y-187009135D01*
X163917000Y-187001452D01*
X163917000Y-186996885D01*
X164679000Y-186996885D01*
X164683475Y-187012124D01*
X164684865Y-187013329D01*
X164692548Y-187015000D01*
X165887884Y-187015000D01*
X165903123Y-187010525D01*
X165904328Y-187009135D01*
X165905999Y-187001452D01*
X165905999Y-186251331D01*
X165905629Y-186244510D01*
X165900105Y-186193648D01*
X165896479Y-186178396D01*
X165851324Y-186057946D01*
X165842786Y-186042351D01*
X165766285Y-185940276D01*
X165753724Y-185927715D01*
X165651649Y-185851214D01*
X165636054Y-185842676D01*
X165515606Y-185797522D01*
X165500351Y-185793895D01*
X165449486Y-185788369D01*
X165442672Y-185788000D01*
X164697115Y-185788000D01*
X164681876Y-185792475D01*
X164680671Y-185793865D01*
X164679000Y-185801548D01*
X164679000Y-186996885D01*
X163917000Y-186996885D01*
X163917000Y-185806116D01*
X163912525Y-185790877D01*
X163911135Y-185789672D01*
X163903452Y-185788001D01*
X163153331Y-185788001D01*
X163146510Y-185788371D01*
X163095648Y-185793895D01*
X163080396Y-185797521D01*
X162959946Y-185842676D01*
X162944351Y-185851214D01*
X162842276Y-185927715D01*
X162829715Y-185940276D01*
X162753214Y-186042351D01*
X162744676Y-186057946D01*
X162699522Y-186178394D01*
X162695895Y-186193649D01*
X162690369Y-186244514D01*
X162690000Y-186251328D01*
X162690000Y-186996885D01*
X160905999Y-186996885D01*
X160905999Y-186251331D01*
X160905629Y-186244510D01*
X160900105Y-186193648D01*
X160896479Y-186178396D01*
X160851324Y-186057946D01*
X160842786Y-186042351D01*
X160766285Y-185940276D01*
X160753724Y-185927715D01*
X160651649Y-185851214D01*
X160636054Y-185842676D01*
X160515606Y-185797522D01*
X160500351Y-185793895D01*
X160449486Y-185788369D01*
X160442672Y-185788000D01*
X159697115Y-185788000D01*
X159681876Y-185792475D01*
X159680671Y-185793865D01*
X159679000Y-185801548D01*
X159679000Y-186996885D01*
X158917000Y-186996885D01*
X158917000Y-185806116D01*
X158912525Y-185790877D01*
X158911135Y-185789672D01*
X158903452Y-185788001D01*
X158153331Y-185788001D01*
X158146510Y-185788371D01*
X158095648Y-185793895D01*
X158080396Y-185797521D01*
X157959946Y-185842676D01*
X157944351Y-185851214D01*
X157842276Y-185927715D01*
X157829715Y-185940276D01*
X157753214Y-186042351D01*
X157744676Y-186057946D01*
X157699522Y-186178394D01*
X157695895Y-186193649D01*
X157690369Y-186244514D01*
X157690000Y-186251328D01*
X157690000Y-186996885D01*
X156000500Y-186996885D01*
X156000500Y-186247866D01*
X155993745Y-186185684D01*
X155942615Y-186049295D01*
X155855261Y-185932739D01*
X155738705Y-185845385D01*
X155602316Y-185794255D01*
X155540134Y-185787500D01*
X153243866Y-185787500D01*
X153181684Y-185794255D01*
X153045295Y-185845385D01*
X152928739Y-185932739D01*
X152841385Y-186049295D01*
X152790255Y-186185684D01*
X152783500Y-186247866D01*
X152783500Y-188544134D01*
X151000500Y-188544134D01*
X151000500Y-186247866D01*
X150993745Y-186185684D01*
X150942615Y-186049295D01*
X150855261Y-185932739D01*
X150738705Y-185845385D01*
X150602316Y-185794255D01*
X150540134Y-185787500D01*
X148243866Y-185787500D01*
X148181684Y-185794255D01*
X148045295Y-185845385D01*
X147928739Y-185932739D01*
X147841385Y-186049295D01*
X147790255Y-186185684D01*
X147783500Y-186247866D01*
X147783500Y-188544134D01*
X142563109Y-188544134D01*
X142516825Y-188474865D01*
X142508584Y-188460592D01*
X142398329Y-188237017D01*
X142392022Y-188221790D01*
X142311895Y-187985743D01*
X142307629Y-187969824D01*
X142258995Y-187725327D01*
X142256844Y-187708986D01*
X142242736Y-187493732D01*
X142243761Y-187470696D01*
X142243804Y-187467146D01*
X142245186Y-187458270D01*
X142241064Y-187426748D01*
X142240000Y-187410411D01*
X142240000Y-187061669D01*
X143676001Y-187061669D01*
X143676371Y-187068490D01*
X143681895Y-187119352D01*
X143685521Y-187134604D01*
X143730676Y-187255054D01*
X143739214Y-187270649D01*
X143815715Y-187372724D01*
X143828276Y-187385285D01*
X143930351Y-187461786D01*
X143945946Y-187470324D01*
X144066394Y-187515478D01*
X144081649Y-187519105D01*
X144132514Y-187524631D01*
X144139328Y-187525000D01*
X144634885Y-187525000D01*
X144650124Y-187520525D01*
X144651329Y-187519135D01*
X144653000Y-187511452D01*
X144653000Y-187506884D01*
X145415000Y-187506884D01*
X145419475Y-187522123D01*
X145420865Y-187523328D01*
X145428548Y-187524999D01*
X145928669Y-187524999D01*
X145935490Y-187524629D01*
X145986352Y-187519105D01*
X146001604Y-187515479D01*
X146122054Y-187470324D01*
X146137649Y-187461786D01*
X146239724Y-187385285D01*
X146252285Y-187372724D01*
X146328786Y-187270649D01*
X146337324Y-187255054D01*
X146382478Y-187134606D01*
X146386105Y-187119351D01*
X146391631Y-187068486D01*
X146392000Y-187061672D01*
X146392000Y-186566115D01*
X146387525Y-186550876D01*
X146386135Y-186549671D01*
X146378452Y-186548000D01*
X145433115Y-186548000D01*
X145417876Y-186552475D01*
X145416671Y-186553865D01*
X145415000Y-186561548D01*
X145415000Y-187506884D01*
X144653000Y-187506884D01*
X144653000Y-186566115D01*
X144648525Y-186550876D01*
X144647135Y-186549671D01*
X144639452Y-186548000D01*
X143694116Y-186548000D01*
X143678877Y-186552475D01*
X143677672Y-186553865D01*
X143676001Y-186561548D01*
X143676001Y-187061669D01*
X142240000Y-187061669D01*
X142240000Y-183593695D01*
X143671251Y-183593695D01*
X143671548Y-183598848D01*
X143671548Y-183598851D01*
X143677978Y-183710368D01*
X143684110Y-183816715D01*
X143685247Y-183821761D01*
X143685248Y-183821767D01*
X143705119Y-183909939D01*
X143733222Y-184034639D01*
X143817266Y-184241616D01*
X143933987Y-184432088D01*
X144080250Y-184600938D01*
X144084225Y-184604238D01*
X144084231Y-184604244D01*
X144089425Y-184608556D01*
X144129059Y-184667460D01*
X144130555Y-184738441D01*
X144093439Y-184798962D01*
X144053168Y-184823480D01*
X143945946Y-184863676D01*
X143930351Y-184872214D01*
X143828276Y-184948715D01*
X143815715Y-184961276D01*
X143739214Y-185063351D01*
X143730676Y-185078946D01*
X143685522Y-185199394D01*
X143681895Y-185214649D01*
X143676369Y-185265514D01*
X143676000Y-185272328D01*
X143676000Y-185767885D01*
X143680475Y-185783124D01*
X143681865Y-185784329D01*
X143689548Y-185786000D01*
X146373884Y-185786000D01*
X146389123Y-185781525D01*
X146390328Y-185780135D01*
X146391999Y-185772452D01*
X146391999Y-185272331D01*
X146391629Y-185265510D01*
X146386105Y-185214648D01*
X146382479Y-185199396D01*
X146337324Y-185078946D01*
X146328786Y-185063351D01*
X146252285Y-184961276D01*
X146239724Y-184948715D01*
X146137649Y-184872214D01*
X146122054Y-184863676D01*
X146011813Y-184822348D01*
X145955049Y-184779706D01*
X145930349Y-184713145D01*
X145945557Y-184643796D01*
X145967104Y-184615115D01*
X146068430Y-184514144D01*
X146068440Y-184514132D01*
X146072096Y-184510489D01*
X146131594Y-184427689D01*
X146199435Y-184333277D01*
X146202453Y-184329077D01*
X146301430Y-184128811D01*
X146366370Y-183915069D01*
X146395529Y-183693590D01*
X146395611Y-183690240D01*
X146397074Y-183630365D01*
X146397074Y-183630361D01*
X146397156Y-183627000D01*
X146378852Y-183404361D01*
X146324431Y-183187702D01*
X146235354Y-182982840D01*
X146114014Y-182795277D01*
X145963670Y-182630051D01*
X145959619Y-182626852D01*
X145959615Y-182626848D01*
X145792414Y-182494800D01*
X145792410Y-182494798D01*
X145788359Y-182491598D01*
X145747053Y-182468796D01*
X145697084Y-182418364D01*
X145682312Y-182348921D01*
X145684289Y-182343695D01*
X168055251Y-182343695D01*
X168055548Y-182348848D01*
X168055548Y-182348851D01*
X168061011Y-182443590D01*
X168068110Y-182566715D01*
X168069247Y-182571761D01*
X168069248Y-182571767D01*
X168083244Y-182633870D01*
X168117222Y-182784639D01*
X168201266Y-182991616D01*
X168317987Y-183182088D01*
X168464250Y-183350938D01*
X168636126Y-183493632D01*
X168829000Y-183606338D01*
X169037692Y-183686030D01*
X169042760Y-183687061D01*
X169042763Y-183687062D01*
X169150017Y-183708883D01*
X169256597Y-183730567D01*
X169261772Y-183730757D01*
X169261774Y-183730757D01*
X169474673Y-183738564D01*
X169474677Y-183738564D01*
X169479837Y-183738753D01*
X169484957Y-183738097D01*
X169484959Y-183738097D01*
X169696288Y-183711025D01*
X169696289Y-183711025D01*
X169701416Y-183710368D01*
X169706366Y-183708883D01*
X169910429Y-183647661D01*
X169910434Y-183647659D01*
X169915384Y-183646174D01*
X170115994Y-183547896D01*
X170297860Y-183418173D01*
X170306542Y-183409522D01*
X170452435Y-183264137D01*
X170456096Y-183260489D01*
X170508399Y-183187702D01*
X170583435Y-183083277D01*
X170586453Y-183079077D01*
X170631669Y-182987590D01*
X170683136Y-182883453D01*
X170683137Y-182883451D01*
X170685430Y-182878811D01*
X170750370Y-182665069D01*
X170779529Y-182443590D01*
X170779611Y-182440240D01*
X170781074Y-182380365D01*
X170781074Y-182380361D01*
X170781156Y-182377000D01*
X170762852Y-182154361D01*
X170708431Y-181937702D01*
X170619354Y-181732840D01*
X170532349Y-181598351D01*
X170500822Y-181549617D01*
X170500820Y-181549614D01*
X170498014Y-181545277D01*
X170347670Y-181380051D01*
X170343619Y-181376852D01*
X170343615Y-181376848D01*
X170176414Y-181244800D01*
X170176410Y-181244798D01*
X170172359Y-181241598D01*
X170131053Y-181218796D01*
X170081084Y-181168364D01*
X170066312Y-181098921D01*
X170091428Y-181032516D01*
X170118780Y-181005909D01*
X170162603Y-180974650D01*
X170297860Y-180878173D01*
X170306542Y-180869522D01*
X170393502Y-180782865D01*
X170456096Y-180720489D01*
X170508399Y-180647702D01*
X170583435Y-180543277D01*
X170586453Y-180539077D01*
X170631669Y-180447590D01*
X170683136Y-180343453D01*
X170683137Y-180343451D01*
X170685430Y-180338811D01*
X170750370Y-180125069D01*
X170779529Y-179903590D01*
X170781156Y-179837000D01*
X170762852Y-179614361D01*
X170708431Y-179397702D01*
X170619354Y-179192840D01*
X170498014Y-179005277D01*
X170347670Y-178840051D01*
X170343619Y-178836852D01*
X170343615Y-178836848D01*
X170176414Y-178704800D01*
X170176410Y-178704798D01*
X170172359Y-178701598D01*
X170131053Y-178678796D01*
X170081084Y-178628364D01*
X170066312Y-178558921D01*
X170091428Y-178492516D01*
X170118780Y-178465909D01*
X170162603Y-178434650D01*
X170297860Y-178338173D01*
X170456096Y-178180489D01*
X170515594Y-178097689D01*
X170583435Y-178003277D01*
X170586453Y-177999077D01*
X170593137Y-177985554D01*
X170683136Y-177803453D01*
X170683137Y-177803451D01*
X170685430Y-177798811D01*
X170737026Y-177628989D01*
X170748865Y-177590023D01*
X170748865Y-177590021D01*
X170750370Y-177585069D01*
X170779529Y-177363590D01*
X170781156Y-177297000D01*
X170762852Y-177074361D01*
X170708431Y-176857702D01*
X170619354Y-176652840D01*
X170498014Y-176465277D01*
X170347670Y-176300051D01*
X170343619Y-176296852D01*
X170343615Y-176296848D01*
X170176414Y-176164800D01*
X170176410Y-176164798D01*
X170172359Y-176161598D01*
X170130569Y-176138529D01*
X170080598Y-176088097D01*
X170065826Y-176018654D01*
X170090942Y-175952248D01*
X170118294Y-175925641D01*
X170293328Y-175800792D01*
X170301200Y-175794139D01*
X170452052Y-175643812D01*
X170458730Y-175635965D01*
X170583003Y-175463020D01*
X170588313Y-175454183D01*
X170682670Y-175263268D01*
X170686468Y-175253675D01*
X170716347Y-175155331D01*
X170716479Y-175141233D01*
X170709573Y-175138000D01*
X168129846Y-175138000D01*
X168116315Y-175141973D01*
X168114879Y-175151966D01*
X168116565Y-175159448D01*
X168119645Y-175169276D01*
X168199770Y-175366603D01*
X168204413Y-175375794D01*
X168315694Y-175557388D01*
X168321777Y-175565699D01*
X168461213Y-175726667D01*
X168468580Y-175733883D01*
X168632434Y-175869916D01*
X168640881Y-175875831D01*
X168709969Y-175916203D01*
X168758693Y-175967842D01*
X168771764Y-176037625D01*
X168745033Y-176103396D01*
X168704584Y-176136752D01*
X168691607Y-176143507D01*
X168687474Y-176146610D01*
X168687471Y-176146612D01*
X168663247Y-176164800D01*
X168512965Y-176277635D01*
X168358629Y-176439138D01*
X168232743Y-176623680D01*
X168138688Y-176826305D01*
X168078989Y-177041570D01*
X168055251Y-177263695D01*
X168055548Y-177268848D01*
X168055548Y-177268851D01*
X168067022Y-177467851D01*
X168068110Y-177486715D01*
X168069247Y-177491761D01*
X168069248Y-177491767D01*
X168089119Y-177579939D01*
X168117222Y-177704639D01*
X168201266Y-177911616D01*
X168203965Y-177916020D01*
X168290534Y-178057288D01*
X168317987Y-178102088D01*
X168464250Y-178270938D01*
X168636126Y-178413632D01*
X168696771Y-178449070D01*
X168709445Y-178456476D01*
X168758169Y-178508114D01*
X168771240Y-178577897D01*
X168744509Y-178643669D01*
X168704055Y-178677027D01*
X168691607Y-178683507D01*
X168687474Y-178686610D01*
X168687471Y-178686612D01*
X168517100Y-178814530D01*
X168512965Y-178817635D01*
X168480876Y-178851214D01*
X168396108Y-178939919D01*
X168358629Y-178979138D01*
X168232743Y-179163680D01*
X168138688Y-179366305D01*
X168078989Y-179581570D01*
X168055251Y-179803695D01*
X168055548Y-179808848D01*
X168055548Y-179808851D01*
X168067269Y-180012124D01*
X168068110Y-180026715D01*
X168069247Y-180031761D01*
X168069248Y-180031767D01*
X168083244Y-180093870D01*
X168117222Y-180244639D01*
X168201266Y-180451616D01*
X168317987Y-180642088D01*
X168464250Y-180810938D01*
X168636126Y-180953632D01*
X168706595Y-180994811D01*
X168709445Y-180996476D01*
X168758169Y-181048114D01*
X168771240Y-181117897D01*
X168744509Y-181183669D01*
X168704055Y-181217027D01*
X168691607Y-181223507D01*
X168687474Y-181226610D01*
X168687471Y-181226612D01*
X168517100Y-181354530D01*
X168512965Y-181357635D01*
X168358629Y-181519138D01*
X168355715Y-181523410D01*
X168355714Y-181523411D01*
X168304593Y-181598352D01*
X168232743Y-181703680D01*
X168218644Y-181734054D01*
X168164024Y-181851724D01*
X168138688Y-181906305D01*
X168078989Y-182121570D01*
X168055251Y-182343695D01*
X145684289Y-182343695D01*
X145707428Y-182282516D01*
X145734780Y-182255909D01*
X145778603Y-182224650D01*
X145913860Y-182128173D01*
X146072096Y-181970489D01*
X146099068Y-181932954D01*
X146199435Y-181793277D01*
X146202453Y-181789077D01*
X146221940Y-181749649D01*
X146299136Y-181593453D01*
X146299137Y-181593451D01*
X146301430Y-181588811D01*
X146315004Y-181544134D01*
X147783500Y-181544134D01*
X147790255Y-181606316D01*
X147841385Y-181742705D01*
X147928739Y-181859261D01*
X148045295Y-181946615D01*
X148181684Y-181997745D01*
X148243866Y-182004500D01*
X150540134Y-182004500D01*
X150602316Y-181997745D01*
X150738705Y-181946615D01*
X150855261Y-181859261D01*
X150942615Y-181742705D01*
X150993745Y-181606316D01*
X151000500Y-181544134D01*
X152783500Y-181544134D01*
X152790255Y-181606316D01*
X152841385Y-181742705D01*
X152928739Y-181859261D01*
X153045295Y-181946615D01*
X153181684Y-181997745D01*
X153243866Y-182004500D01*
X155540134Y-182004500D01*
X155602316Y-181997745D01*
X155738705Y-181946615D01*
X155855261Y-181859261D01*
X155942615Y-181742705D01*
X155993745Y-181606316D01*
X156000500Y-181544134D01*
X156000500Y-181540669D01*
X157690001Y-181540669D01*
X157690371Y-181547490D01*
X157695895Y-181598352D01*
X157699521Y-181613604D01*
X157744676Y-181734054D01*
X157753214Y-181749649D01*
X157829715Y-181851724D01*
X157842276Y-181864285D01*
X157944351Y-181940786D01*
X157959946Y-181949324D01*
X158080394Y-181994478D01*
X158095649Y-181998105D01*
X158146514Y-182003631D01*
X158153328Y-182004000D01*
X158898885Y-182004000D01*
X158914124Y-181999525D01*
X158915329Y-181998135D01*
X158917000Y-181990452D01*
X158917000Y-181985884D01*
X159679000Y-181985884D01*
X159683475Y-182001123D01*
X159684865Y-182002328D01*
X159692548Y-182003999D01*
X160442669Y-182003999D01*
X160449490Y-182003629D01*
X160500352Y-181998105D01*
X160515604Y-181994479D01*
X160636054Y-181949324D01*
X160651649Y-181940786D01*
X160753724Y-181864285D01*
X160766285Y-181851724D01*
X160842786Y-181749649D01*
X160851324Y-181734054D01*
X160896478Y-181613606D01*
X160900105Y-181598351D01*
X160905631Y-181547486D01*
X160906000Y-181540672D01*
X160906000Y-181540669D01*
X162690001Y-181540669D01*
X162690371Y-181547490D01*
X162695895Y-181598352D01*
X162699521Y-181613604D01*
X162744676Y-181734054D01*
X162753214Y-181749649D01*
X162829715Y-181851724D01*
X162842276Y-181864285D01*
X162944351Y-181940786D01*
X162959946Y-181949324D01*
X163080394Y-181994478D01*
X163095649Y-181998105D01*
X163146514Y-182003631D01*
X163153328Y-182004000D01*
X163898885Y-182004000D01*
X163914124Y-181999525D01*
X163915329Y-181998135D01*
X163917000Y-181990452D01*
X163917000Y-181985884D01*
X164679000Y-181985884D01*
X164683475Y-182001123D01*
X164684865Y-182002328D01*
X164692548Y-182003999D01*
X165442669Y-182003999D01*
X165449490Y-182003629D01*
X165500352Y-181998105D01*
X165515604Y-181994479D01*
X165636054Y-181949324D01*
X165651649Y-181940786D01*
X165753724Y-181864285D01*
X165766285Y-181851724D01*
X165842786Y-181749649D01*
X165851324Y-181734054D01*
X165896478Y-181613606D01*
X165900105Y-181598351D01*
X165905631Y-181547486D01*
X165906000Y-181540672D01*
X165906000Y-180795115D01*
X165901525Y-180779876D01*
X165900135Y-180778671D01*
X165892452Y-180777000D01*
X164697115Y-180777000D01*
X164681876Y-180781475D01*
X164680671Y-180782865D01*
X164679000Y-180790548D01*
X164679000Y-181985884D01*
X163917000Y-181985884D01*
X163917000Y-180795115D01*
X163912525Y-180779876D01*
X163911135Y-180778671D01*
X163903452Y-180777000D01*
X162708116Y-180777000D01*
X162692877Y-180781475D01*
X162691672Y-180782865D01*
X162690001Y-180790548D01*
X162690001Y-181540669D01*
X160906000Y-181540669D01*
X160906000Y-180795115D01*
X160901525Y-180779876D01*
X160900135Y-180778671D01*
X160892452Y-180777000D01*
X159697115Y-180777000D01*
X159681876Y-180781475D01*
X159680671Y-180782865D01*
X159679000Y-180790548D01*
X159679000Y-181985884D01*
X158917000Y-181985884D01*
X158917000Y-180795115D01*
X158912525Y-180779876D01*
X158911135Y-180778671D01*
X158903452Y-180777000D01*
X157708116Y-180777000D01*
X157692877Y-180781475D01*
X157691672Y-180782865D01*
X157690001Y-180790548D01*
X157690001Y-181540669D01*
X156000500Y-181540669D01*
X156000500Y-179996885D01*
X157690000Y-179996885D01*
X157694475Y-180012124D01*
X157695865Y-180013329D01*
X157703548Y-180015000D01*
X158898885Y-180015000D01*
X158914124Y-180010525D01*
X158915329Y-180009135D01*
X158917000Y-180001452D01*
X158917000Y-179996885D01*
X159679000Y-179996885D01*
X159683475Y-180012124D01*
X159684865Y-180013329D01*
X159692548Y-180015000D01*
X160887884Y-180015000D01*
X160903123Y-180010525D01*
X160904328Y-180009135D01*
X160905999Y-180001452D01*
X160905999Y-179996885D01*
X162690000Y-179996885D01*
X162694475Y-180012124D01*
X162695865Y-180013329D01*
X162703548Y-180015000D01*
X163898885Y-180015000D01*
X163914124Y-180010525D01*
X163915329Y-180009135D01*
X163917000Y-180001452D01*
X163917000Y-179996885D01*
X164679000Y-179996885D01*
X164683475Y-180012124D01*
X164684865Y-180013329D01*
X164692548Y-180015000D01*
X165887884Y-180015000D01*
X165903123Y-180010525D01*
X165904328Y-180009135D01*
X165905999Y-180001452D01*
X165905999Y-179251331D01*
X165905629Y-179244510D01*
X165900105Y-179193648D01*
X165896479Y-179178396D01*
X165851324Y-179057946D01*
X165842786Y-179042351D01*
X165766285Y-178940276D01*
X165753724Y-178927715D01*
X165651649Y-178851214D01*
X165636054Y-178842676D01*
X165515606Y-178797522D01*
X165500351Y-178793895D01*
X165449486Y-178788369D01*
X165442672Y-178788000D01*
X164697115Y-178788000D01*
X164681876Y-178792475D01*
X164680671Y-178793865D01*
X164679000Y-178801548D01*
X164679000Y-179996885D01*
X163917000Y-179996885D01*
X163917000Y-178806116D01*
X163912525Y-178790877D01*
X163911135Y-178789672D01*
X163903452Y-178788001D01*
X163153331Y-178788001D01*
X163146510Y-178788371D01*
X163095648Y-178793895D01*
X163080396Y-178797521D01*
X162959946Y-178842676D01*
X162944351Y-178851214D01*
X162842276Y-178927715D01*
X162829715Y-178940276D01*
X162753214Y-179042351D01*
X162744676Y-179057946D01*
X162699522Y-179178394D01*
X162695895Y-179193649D01*
X162690369Y-179244514D01*
X162690000Y-179251328D01*
X162690000Y-179996885D01*
X160905999Y-179996885D01*
X160905999Y-179251331D01*
X160905629Y-179244510D01*
X160900105Y-179193648D01*
X160896479Y-179178396D01*
X160851324Y-179057946D01*
X160842786Y-179042351D01*
X160766285Y-178940276D01*
X160753724Y-178927715D01*
X160651649Y-178851214D01*
X160636054Y-178842676D01*
X160515606Y-178797522D01*
X160500351Y-178793895D01*
X160449486Y-178788369D01*
X160442672Y-178788000D01*
X159697115Y-178788000D01*
X159681876Y-178792475D01*
X159680671Y-178793865D01*
X159679000Y-178801548D01*
X159679000Y-179996885D01*
X158917000Y-179996885D01*
X158917000Y-178806116D01*
X158912525Y-178790877D01*
X158911135Y-178789672D01*
X158903452Y-178788001D01*
X158153331Y-178788001D01*
X158146510Y-178788371D01*
X158095648Y-178793895D01*
X158080396Y-178797521D01*
X157959946Y-178842676D01*
X157944351Y-178851214D01*
X157842276Y-178927715D01*
X157829715Y-178940276D01*
X157753214Y-179042351D01*
X157744676Y-179057946D01*
X157699522Y-179178394D01*
X157695895Y-179193649D01*
X157690369Y-179244514D01*
X157690000Y-179251328D01*
X157690000Y-179996885D01*
X156000500Y-179996885D01*
X156000500Y-179247866D01*
X155993745Y-179185684D01*
X155942615Y-179049295D01*
X155855261Y-178932739D01*
X155738705Y-178845385D01*
X155602316Y-178794255D01*
X155540134Y-178787500D01*
X153243866Y-178787500D01*
X153181684Y-178794255D01*
X153045295Y-178845385D01*
X152928739Y-178932739D01*
X152841385Y-179049295D01*
X152790255Y-179185684D01*
X152783500Y-179247866D01*
X152783500Y-181544134D01*
X151000500Y-181544134D01*
X151000500Y-179247866D01*
X150993745Y-179185684D01*
X150942615Y-179049295D01*
X150855261Y-178932739D01*
X150738705Y-178845385D01*
X150602316Y-178794255D01*
X150540134Y-178787500D01*
X148243866Y-178787500D01*
X148181684Y-178794255D01*
X148045295Y-178845385D01*
X147928739Y-178932739D01*
X147841385Y-179049295D01*
X147790255Y-179185684D01*
X147783500Y-179247866D01*
X147783500Y-181544134D01*
X146315004Y-181544134D01*
X146366370Y-181375069D01*
X146395529Y-181153590D01*
X146395611Y-181150240D01*
X146397074Y-181090365D01*
X146397074Y-181090361D01*
X146397156Y-181087000D01*
X146378852Y-180864361D01*
X146324431Y-180647702D01*
X146235354Y-180442840D01*
X146114014Y-180255277D01*
X145963670Y-180090051D01*
X145959619Y-180086852D01*
X145959615Y-180086848D01*
X145792414Y-179954800D01*
X145792410Y-179954798D01*
X145788359Y-179951598D01*
X145592789Y-179843638D01*
X145587920Y-179841914D01*
X145587916Y-179841912D01*
X145387087Y-179770795D01*
X145387083Y-179770794D01*
X145382212Y-179769069D01*
X145377119Y-179768162D01*
X145377116Y-179768161D01*
X145167373Y-179730800D01*
X145167367Y-179730799D01*
X145162284Y-179729894D01*
X145088452Y-179728992D01*
X144944081Y-179727228D01*
X144944079Y-179727228D01*
X144938911Y-179727165D01*
X144718091Y-179760955D01*
X144505756Y-179830357D01*
X144307607Y-179933507D01*
X144303474Y-179936610D01*
X144303471Y-179936612D01*
X144133100Y-180064530D01*
X144128965Y-180067635D01*
X143974629Y-180229138D01*
X143848743Y-180413680D01*
X143754688Y-180616305D01*
X143694989Y-180831570D01*
X143671251Y-181053695D01*
X143671548Y-181058848D01*
X143671548Y-181058851D01*
X143680904Y-181221118D01*
X143684110Y-181276715D01*
X143685247Y-181281761D01*
X143685248Y-181281767D01*
X143702346Y-181357635D01*
X143733222Y-181494639D01*
X143817266Y-181701616D01*
X143819965Y-181706020D01*
X143913871Y-181859261D01*
X143933987Y-181892088D01*
X144080250Y-182060938D01*
X144252126Y-182203632D01*
X144322595Y-182244811D01*
X144325445Y-182246476D01*
X144374169Y-182298114D01*
X144387240Y-182367897D01*
X144360509Y-182433669D01*
X144320055Y-182467027D01*
X144307607Y-182473507D01*
X144303474Y-182476610D01*
X144303471Y-182476612D01*
X144133100Y-182604530D01*
X144128965Y-182607635D01*
X143974629Y-182769138D01*
X143848743Y-182953680D01*
X143754688Y-183156305D01*
X143694989Y-183371570D01*
X143671251Y-183593695D01*
X142240000Y-183593695D01*
X142240000Y-177792492D01*
X157779112Y-177792492D01*
X157782049Y-177819094D01*
X157792264Y-177911616D01*
X157798015Y-177963711D01*
X157800624Y-177970842D01*
X157800625Y-177970844D01*
X157809259Y-177994438D01*
X157857213Y-178125478D01*
X157953290Y-178268455D01*
X157958908Y-178273567D01*
X158042857Y-178349954D01*
X158080698Y-178384387D01*
X158232082Y-178466582D01*
X158398702Y-178510294D01*
X158489700Y-178511724D01*
X158563342Y-178512881D01*
X158563345Y-178512881D01*
X158570939Y-178513000D01*
X158630628Y-178499329D01*
X158731447Y-178476239D01*
X158731451Y-178476238D01*
X158738850Y-178474543D01*
X158892741Y-178397144D01*
X158958277Y-178341171D01*
X159017954Y-178290203D01*
X159017956Y-178290200D01*
X159023728Y-178285271D01*
X159124248Y-178145382D01*
X159188498Y-177985554D01*
X159206769Y-177857175D01*
X166096429Y-177857175D01*
X166115332Y-178028394D01*
X166117941Y-178035525D01*
X166117942Y-178035527D01*
X166140690Y-178097689D01*
X166174530Y-178190161D01*
X166270607Y-178333138D01*
X166398015Y-178449070D01*
X166549399Y-178531265D01*
X166716019Y-178574977D01*
X166807017Y-178576407D01*
X166880659Y-178577564D01*
X166880662Y-178577564D01*
X166888256Y-178577683D01*
X166970175Y-178558921D01*
X167048764Y-178540922D01*
X167048768Y-178540921D01*
X167056167Y-178539226D01*
X167210058Y-178461827D01*
X167240093Y-178436175D01*
X167335271Y-178354886D01*
X167335273Y-178354883D01*
X167341045Y-178349954D01*
X167441565Y-178210065D01*
X167505815Y-178050237D01*
X167530087Y-177879697D01*
X167530244Y-177864683D01*
X167529749Y-177860591D01*
X167510462Y-177701213D01*
X167510461Y-177701210D01*
X167509549Y-177693672D01*
X167485201Y-177629235D01*
X167451344Y-177539637D01*
X167448660Y-177532534D01*
X167351092Y-177390571D01*
X167339193Y-177379969D01*
X167228149Y-177281032D01*
X167228146Y-177281030D01*
X167222477Y-177275979D01*
X167214447Y-177271727D01*
X167092282Y-177207044D01*
X167070241Y-177195374D01*
X166903172Y-177153409D01*
X166895574Y-177153369D01*
X166895572Y-177153369D01*
X166822664Y-177152987D01*
X166730915Y-177152507D01*
X166723535Y-177154279D01*
X166723533Y-177154279D01*
X166570796Y-177190948D01*
X166570794Y-177190949D01*
X166563416Y-177192720D01*
X166542412Y-177203561D01*
X166425906Y-177263695D01*
X166410344Y-177271727D01*
X166404622Y-177276719D01*
X166404620Y-177276720D01*
X166347556Y-177326500D01*
X166280536Y-177384965D01*
X166181487Y-177525899D01*
X166118914Y-177686391D01*
X166117923Y-177693918D01*
X166101443Y-177819094D01*
X166096429Y-177857175D01*
X159206769Y-177857175D01*
X159212770Y-177815014D01*
X159212927Y-177800000D01*
X159212184Y-177793857D01*
X159193145Y-177636530D01*
X159193144Y-177636527D01*
X159192232Y-177628989D01*
X159131343Y-177467851D01*
X159078230Y-177390571D01*
X159038077Y-177332147D01*
X159038076Y-177332145D01*
X159033775Y-177325888D01*
X159001352Y-177297000D01*
X158910832Y-177216349D01*
X158910829Y-177216347D01*
X158905160Y-177211296D01*
X158897130Y-177207044D01*
X158759638Y-177134246D01*
X158759639Y-177134246D01*
X158752924Y-177130691D01*
X158585855Y-177088726D01*
X158578257Y-177088686D01*
X158578255Y-177088686D01*
X158505347Y-177088304D01*
X158413598Y-177087824D01*
X158406218Y-177089596D01*
X158406216Y-177089596D01*
X158253479Y-177126265D01*
X158253477Y-177126266D01*
X158246099Y-177128037D01*
X158093027Y-177207044D01*
X158087305Y-177212036D01*
X158087303Y-177212037D01*
X157989908Y-177297000D01*
X157963219Y-177320282D01*
X157864170Y-177461216D01*
X157801597Y-177621708D01*
X157800606Y-177629235D01*
X157790679Y-177704639D01*
X157779112Y-177792492D01*
X142240000Y-177792492D01*
X142240000Y-174236492D01*
X158795112Y-174236492D01*
X158798049Y-174263094D01*
X158810144Y-174372644D01*
X158814015Y-174407711D01*
X158816624Y-174414842D01*
X158816625Y-174414844D01*
X158839757Y-174478054D01*
X158873213Y-174569478D01*
X158873408Y-174569768D01*
X158885942Y-174636506D01*
X158877965Y-174669699D01*
X158852288Y-174735558D01*
X158829803Y-174906342D01*
X158848706Y-175077561D01*
X158851315Y-175084692D01*
X158851316Y-175084694D01*
X158872277Y-175141973D01*
X158907904Y-175239328D01*
X158912141Y-175245634D01*
X158912143Y-175245637D01*
X158921279Y-175259232D01*
X159003981Y-175382305D01*
X159131389Y-175498237D01*
X159282773Y-175580432D01*
X159449393Y-175624144D01*
X159540391Y-175625574D01*
X159614033Y-175626731D01*
X159614036Y-175626731D01*
X159621630Y-175626850D01*
X159681319Y-175613179D01*
X159782138Y-175590089D01*
X159782142Y-175590088D01*
X159789541Y-175588393D01*
X159943432Y-175510994D01*
X159999603Y-175463020D01*
X160068645Y-175404053D01*
X160068647Y-175404050D01*
X160074419Y-175399121D01*
X160174939Y-175259232D01*
X160239189Y-175099404D01*
X160263461Y-174928864D01*
X160263618Y-174913850D01*
X160263123Y-174909758D01*
X160243836Y-174750380D01*
X160243835Y-174750377D01*
X160242923Y-174742839D01*
X160237501Y-174728488D01*
X160182034Y-174581701D01*
X160184313Y-174580840D01*
X160172789Y-174522793D01*
X160181376Y-174487073D01*
X160201664Y-174436605D01*
X160201665Y-174436601D01*
X160204498Y-174429554D01*
X160228770Y-174259014D01*
X160228927Y-174244000D01*
X160228432Y-174239908D01*
X160209145Y-174080530D01*
X160209144Y-174080527D01*
X160208232Y-174072989D01*
X160147343Y-173911851D01*
X160049775Y-173769888D01*
X159971145Y-173699831D01*
X159926832Y-173660349D01*
X159926829Y-173660347D01*
X159921160Y-173655296D01*
X159913130Y-173651044D01*
X159775638Y-173578246D01*
X159775639Y-173578246D01*
X159768924Y-173574691D01*
X159601855Y-173532726D01*
X159594257Y-173532686D01*
X159594255Y-173532686D01*
X159521347Y-173532304D01*
X159429598Y-173531824D01*
X159422218Y-173533596D01*
X159422216Y-173533596D01*
X159269479Y-173570265D01*
X159269477Y-173570266D01*
X159262099Y-173572037D01*
X159109027Y-173651044D01*
X158979219Y-173764282D01*
X158880170Y-173905216D01*
X158817597Y-174065708D01*
X158795112Y-174236492D01*
X142240000Y-174236492D01*
X142240000Y-172720000D01*
X156312496Y-172720000D01*
X156313186Y-172726565D01*
X156322749Y-172817548D01*
X156332458Y-172909928D01*
X156391473Y-173091556D01*
X156486960Y-173256944D01*
X156614747Y-173398866D01*
X156769248Y-173511118D01*
X156775276Y-173513802D01*
X156775278Y-173513803D01*
X156937681Y-173586109D01*
X156943712Y-173588794D01*
X157016977Y-173604367D01*
X157124056Y-173627128D01*
X157124061Y-173627128D01*
X157130513Y-173628500D01*
X157321487Y-173628500D01*
X157327939Y-173627128D01*
X157327944Y-173627128D01*
X157435023Y-173604367D01*
X157508288Y-173588794D01*
X157514319Y-173586109D01*
X157676722Y-173513803D01*
X157676724Y-173513802D01*
X157682752Y-173511118D01*
X157837253Y-173398866D01*
X157965040Y-173256944D01*
X158060527Y-173091556D01*
X158119542Y-172909928D01*
X158129252Y-172817548D01*
X158138814Y-172726565D01*
X158139504Y-172720000D01*
X158119542Y-172530072D01*
X158060527Y-172348444D01*
X158034019Y-172302530D01*
X157968341Y-172188774D01*
X157965040Y-172183056D01*
X157837253Y-172041134D01*
X157682752Y-171928882D01*
X157676724Y-171926198D01*
X157676722Y-171926197D01*
X157514319Y-171853891D01*
X157514318Y-171853891D01*
X157508288Y-171851206D01*
X157414887Y-171831353D01*
X157327944Y-171812872D01*
X157327939Y-171812872D01*
X157321487Y-171811500D01*
X157130513Y-171811500D01*
X157124061Y-171812872D01*
X157124056Y-171812872D01*
X157037113Y-171831353D01*
X156943712Y-171851206D01*
X156937682Y-171853891D01*
X156937681Y-171853891D01*
X156775278Y-171926197D01*
X156775276Y-171926198D01*
X156769248Y-171928882D01*
X156614747Y-172041134D01*
X156486960Y-172183056D01*
X156483659Y-172188774D01*
X156417982Y-172302530D01*
X156391473Y-172348444D01*
X156332458Y-172530072D01*
X156312496Y-172720000D01*
X142240000Y-172720000D01*
X142240000Y-171569492D01*
X159049112Y-171569492D01*
X159068015Y-171740711D01*
X159127213Y-171902478D01*
X159131450Y-171908784D01*
X159131452Y-171908787D01*
X159175974Y-171975041D01*
X159223290Y-172045455D01*
X159350698Y-172161387D01*
X159502082Y-172243582D01*
X159500691Y-172246144D01*
X159546013Y-172281510D01*
X159569486Y-172348514D01*
X159568574Y-172371429D01*
X159558103Y-172450960D01*
X159558103Y-172450965D01*
X159557112Y-172458492D01*
X159576015Y-172629711D01*
X159578624Y-172636842D01*
X159578625Y-172636844D01*
X159601757Y-172700054D01*
X159635213Y-172791478D01*
X159731290Y-172934455D01*
X159858698Y-173050387D01*
X160010082Y-173132582D01*
X160176702Y-173176294D01*
X160267700Y-173177724D01*
X160341342Y-173178881D01*
X160341345Y-173178881D01*
X160348939Y-173179000D01*
X160408628Y-173165329D01*
X160509447Y-173142239D01*
X160509451Y-173142238D01*
X160516850Y-173140543D01*
X160567370Y-173115134D01*
X168059500Y-173115134D01*
X168066255Y-173177316D01*
X168117385Y-173313705D01*
X168204739Y-173430261D01*
X168321295Y-173517615D01*
X168329704Y-173520767D01*
X168329705Y-173520768D01*
X168438960Y-173561726D01*
X168495725Y-173604367D01*
X168520425Y-173670929D01*
X168505218Y-173740278D01*
X168485825Y-173766759D01*
X168362590Y-173895717D01*
X168356104Y-173903727D01*
X168236098Y-174079649D01*
X168231000Y-174088623D01*
X168141338Y-174281783D01*
X168137775Y-174291470D01*
X168119174Y-174358541D01*
X168119387Y-174372644D01*
X168127038Y-174376000D01*
X170704443Y-174376000D01*
X170717974Y-174372027D01*
X170719279Y-174362947D01*
X170709214Y-174322874D01*
X170705896Y-174313126D01*
X170620972Y-174117814D01*
X170616105Y-174108739D01*
X170500426Y-173929926D01*
X170494136Y-173921757D01*
X170350293Y-173763677D01*
X170319241Y-173699831D01*
X170327635Y-173629333D01*
X170372812Y-173574564D01*
X170399256Y-173560895D01*
X170506297Y-173520767D01*
X170514705Y-173517615D01*
X170631261Y-173430261D01*
X170718615Y-173313705D01*
X170769745Y-173177316D01*
X170776500Y-173115134D01*
X170776500Y-171318866D01*
X170769745Y-171256684D01*
X170718615Y-171120295D01*
X170631261Y-171003739D01*
X170514705Y-170916385D01*
X170378316Y-170865255D01*
X170316134Y-170858500D01*
X168519866Y-170858500D01*
X168457684Y-170865255D01*
X168321295Y-170916385D01*
X168204739Y-171003739D01*
X168117385Y-171120295D01*
X168066255Y-171256684D01*
X168059500Y-171318866D01*
X168059500Y-173115134D01*
X160567370Y-173115134D01*
X160670741Y-173063144D01*
X160700776Y-173037492D01*
X160795954Y-172956203D01*
X160795956Y-172956200D01*
X160801728Y-172951271D01*
X160902248Y-172811382D01*
X160966498Y-172651554D01*
X160990770Y-172481014D01*
X160990927Y-172466000D01*
X160990432Y-172461908D01*
X160971145Y-172302530D01*
X160971144Y-172302527D01*
X160970232Y-172294989D01*
X160959326Y-172266125D01*
X160912027Y-172140954D01*
X160909343Y-172133851D01*
X160848996Y-172046045D01*
X160816077Y-171998147D01*
X160816076Y-171998145D01*
X160811775Y-171991888D01*
X160741059Y-171928882D01*
X160688832Y-171882349D01*
X160688829Y-171882347D01*
X160683160Y-171877296D01*
X160631294Y-171849834D01*
X160592241Y-171829157D01*
X160537317Y-171800076D01*
X160486474Y-171750524D01*
X160470492Y-171681349D01*
X160471533Y-171670968D01*
X160482189Y-171596094D01*
X160482770Y-171592014D01*
X160482927Y-171577000D01*
X160482432Y-171572908D01*
X160463145Y-171413530D01*
X160463144Y-171413527D01*
X160462232Y-171405989D01*
X160401343Y-171244851D01*
X160321517Y-171128703D01*
X160308077Y-171109147D01*
X160308076Y-171109145D01*
X160303775Y-171102888D01*
X160291876Y-171092286D01*
X160180832Y-170993349D01*
X160180829Y-170993347D01*
X160175160Y-170988296D01*
X160167130Y-170984044D01*
X160029638Y-170911246D01*
X160029639Y-170911246D01*
X160022924Y-170907691D01*
X159855855Y-170865726D01*
X159848257Y-170865686D01*
X159848255Y-170865686D01*
X159775347Y-170865304D01*
X159683598Y-170864824D01*
X159676218Y-170866596D01*
X159676216Y-170866596D01*
X159523479Y-170903265D01*
X159523477Y-170903266D01*
X159516099Y-170905037D01*
X159363027Y-170984044D01*
X159233219Y-171097282D01*
X159134170Y-171238216D01*
X159071597Y-171398708D01*
X159049112Y-171569492D01*
X142240000Y-171569492D01*
X142240000Y-166362492D01*
X167685112Y-166362492D01*
X167704015Y-166533711D01*
X167706624Y-166540842D01*
X167706625Y-166540844D01*
X167729757Y-166604054D01*
X167763213Y-166695478D01*
X167859290Y-166838455D01*
X167986698Y-166954387D01*
X168138082Y-167036582D01*
X168304702Y-167080294D01*
X168395700Y-167081724D01*
X168469342Y-167082881D01*
X168469345Y-167082881D01*
X168476939Y-167083000D01*
X168536628Y-167069329D01*
X168637447Y-167046239D01*
X168637451Y-167046238D01*
X168644850Y-167044543D01*
X168798741Y-166967144D01*
X168828776Y-166941492D01*
X168923954Y-166860203D01*
X168923956Y-166860200D01*
X168929728Y-166855271D01*
X169030248Y-166715382D01*
X169094498Y-166555554D01*
X169118770Y-166385014D01*
X169118927Y-166370000D01*
X169118432Y-166365908D01*
X169099145Y-166206530D01*
X169099144Y-166206527D01*
X169098232Y-166198989D01*
X169037343Y-166037851D01*
X168939775Y-165895888D01*
X168927876Y-165885286D01*
X168816832Y-165786349D01*
X168816829Y-165786347D01*
X168811160Y-165781296D01*
X168803130Y-165777044D01*
X168665638Y-165704246D01*
X168665639Y-165704246D01*
X168658924Y-165700691D01*
X168491855Y-165658726D01*
X168484257Y-165658686D01*
X168484255Y-165658686D01*
X168411347Y-165658304D01*
X168319598Y-165657824D01*
X168312218Y-165659596D01*
X168312216Y-165659596D01*
X168159479Y-165696265D01*
X168159477Y-165696266D01*
X168152099Y-165698037D01*
X167999027Y-165777044D01*
X167869219Y-165890282D01*
X167770170Y-166031216D01*
X167707597Y-166191708D01*
X167685112Y-166362492D01*
X142240000Y-166362492D01*
X142240000Y-164032350D01*
X153362565Y-164032350D01*
X153365502Y-164058952D01*
X153379037Y-164181548D01*
X153381468Y-164203569D01*
X153384077Y-164210700D01*
X153384078Y-164210702D01*
X153407210Y-164273912D01*
X153440666Y-164365336D01*
X153444903Y-164371642D01*
X153444905Y-164371645D01*
X153478883Y-164422209D01*
X153536743Y-164508313D01*
X153542361Y-164513425D01*
X153572021Y-164540413D01*
X153664151Y-164624245D01*
X153815535Y-164706440D01*
X153982155Y-164750152D01*
X154073153Y-164751582D01*
X154146795Y-164752739D01*
X154146798Y-164752739D01*
X154154392Y-164752858D01*
X154214081Y-164739187D01*
X154314900Y-164716097D01*
X154314904Y-164716096D01*
X154322303Y-164714401D01*
X154476194Y-164637002D01*
X154586257Y-164543000D01*
X154601407Y-164530061D01*
X154601409Y-164530058D01*
X154607181Y-164525129D01*
X154707701Y-164385240D01*
X154771951Y-164225412D01*
X154796223Y-164054872D01*
X154796380Y-164039858D01*
X154795472Y-164032350D01*
X154776598Y-163876390D01*
X154776598Y-163876389D01*
X154775685Y-163868847D01*
X154766679Y-163845014D01*
X154760208Y-163827887D01*
X154759799Y-163822492D01*
X159049112Y-163822492D01*
X159068015Y-163993711D01*
X159070624Y-164000842D01*
X159070625Y-164000844D01*
X159079399Y-164024820D01*
X159127213Y-164155478D01*
X159131450Y-164161784D01*
X159131452Y-164161787D01*
X159159529Y-164203569D01*
X159223290Y-164298455D01*
X159350698Y-164414387D01*
X159502082Y-164496582D01*
X159668702Y-164540294D01*
X159759700Y-164541724D01*
X159833342Y-164542881D01*
X159833345Y-164542881D01*
X159840939Y-164543000D01*
X159900628Y-164529329D01*
X160001447Y-164506239D01*
X160001451Y-164506238D01*
X160008850Y-164504543D01*
X160162741Y-164427144D01*
X160204585Y-164391406D01*
X160287954Y-164320203D01*
X160287956Y-164320200D01*
X160293728Y-164315271D01*
X160394248Y-164175382D01*
X160458498Y-164015554D01*
X160482770Y-163845014D01*
X160482927Y-163830000D01*
X160482432Y-163825908D01*
X160463145Y-163666530D01*
X160463144Y-163666527D01*
X160462232Y-163658989D01*
X160459183Y-163650918D01*
X160404027Y-163504954D01*
X160401343Y-163497851D01*
X160303775Y-163355888D01*
X160287171Y-163341094D01*
X160180832Y-163246349D01*
X160180829Y-163246347D01*
X160175160Y-163241296D01*
X160167130Y-163237044D01*
X160029638Y-163164246D01*
X160029639Y-163164246D01*
X160022924Y-163160691D01*
X159855855Y-163118726D01*
X159848257Y-163118686D01*
X159848255Y-163118686D01*
X159775347Y-163118304D01*
X159683598Y-163117824D01*
X159676218Y-163119596D01*
X159676216Y-163119596D01*
X159523479Y-163156265D01*
X159523477Y-163156266D01*
X159516099Y-163158037D01*
X159363027Y-163237044D01*
X159357305Y-163242036D01*
X159357303Y-163242037D01*
X159253155Y-163332891D01*
X159233219Y-163350282D01*
X159134170Y-163491216D01*
X159071597Y-163651708D01*
X159070606Y-163659235D01*
X159065098Y-163701074D01*
X159049112Y-163822492D01*
X154759799Y-163822492D01*
X154754840Y-163757093D01*
X154775751Y-163709825D01*
X154801814Y-163673553D01*
X154801815Y-163673551D01*
X154806248Y-163667382D01*
X154870498Y-163507554D01*
X154894770Y-163337014D01*
X154894927Y-163322000D01*
X154894432Y-163317908D01*
X154875145Y-163158530D01*
X154875144Y-163158527D01*
X154874232Y-163150989D01*
X154862741Y-163120577D01*
X154816027Y-162996954D01*
X154813343Y-162989851D01*
X154715775Y-162847888D01*
X154703876Y-162837286D01*
X154592832Y-162738349D01*
X154592829Y-162738347D01*
X154587160Y-162733296D01*
X154579130Y-162729044D01*
X154441638Y-162656246D01*
X154441639Y-162656246D01*
X154434924Y-162652691D01*
X154267855Y-162610726D01*
X154260257Y-162610686D01*
X154260255Y-162610686D01*
X154187347Y-162610304D01*
X154095598Y-162609824D01*
X154088218Y-162611596D01*
X154088216Y-162611596D01*
X153935479Y-162648265D01*
X153935477Y-162648266D01*
X153928099Y-162650037D01*
X153775027Y-162729044D01*
X153645219Y-162842282D01*
X153546170Y-162983216D01*
X153483597Y-163143708D01*
X153482606Y-163151235D01*
X153470084Y-163246349D01*
X153461112Y-163314492D01*
X153480015Y-163485711D01*
X153482624Y-163492842D01*
X153482625Y-163492844D01*
X153498113Y-163535166D01*
X153502739Y-163606011D01*
X153482876Y-163650914D01*
X153447623Y-163701074D01*
X153385050Y-163861566D01*
X153384059Y-163869093D01*
X153365767Y-164008033D01*
X153362565Y-164032350D01*
X142240000Y-164032350D01*
X142240000Y-161369667D01*
X159181406Y-161369667D01*
X159200309Y-161540886D01*
X159202918Y-161548017D01*
X159202919Y-161548019D01*
X159205434Y-161554891D01*
X159259507Y-161702653D01*
X159263744Y-161708959D01*
X159263746Y-161708962D01*
X159282322Y-161736605D01*
X159355584Y-161845630D01*
X159482992Y-161961562D01*
X159634376Y-162043757D01*
X159800996Y-162087469D01*
X159891994Y-162088899D01*
X159965636Y-162090056D01*
X159965639Y-162090056D01*
X159973233Y-162090175D01*
X159980635Y-162088480D01*
X159980642Y-162088479D01*
X159986893Y-162087047D01*
X160057760Y-162091335D01*
X160099823Y-162116671D01*
X160112698Y-162128387D01*
X160264082Y-162210582D01*
X160430702Y-162254294D01*
X160521700Y-162255724D01*
X160595342Y-162256881D01*
X160595345Y-162256881D01*
X160602939Y-162257000D01*
X160662628Y-162243329D01*
X160763447Y-162220239D01*
X160763451Y-162220238D01*
X160770850Y-162218543D01*
X160924741Y-162141144D01*
X160974465Y-162098676D01*
X161049954Y-162034203D01*
X161049956Y-162034200D01*
X161055728Y-162029271D01*
X161156248Y-161889382D01*
X161220498Y-161729554D01*
X161244770Y-161559014D01*
X161244927Y-161544000D01*
X161244432Y-161539908D01*
X161225145Y-161380530D01*
X161225144Y-161380527D01*
X161224232Y-161372989D01*
X161220132Y-161362137D01*
X161166027Y-161218954D01*
X161163343Y-161211851D01*
X161148081Y-161189644D01*
X161070077Y-161076147D01*
X161070076Y-161076145D01*
X161065775Y-161069888D01*
X160968166Y-160982921D01*
X160942832Y-160960349D01*
X160942829Y-160960347D01*
X160937160Y-160955296D01*
X160784924Y-160874691D01*
X160633151Y-160836568D01*
X168109382Y-160836568D01*
X168138208Y-161085699D01*
X168139587Y-161090573D01*
X168139588Y-161090577D01*
X168178526Y-161228181D01*
X168206494Y-161327017D01*
X168208628Y-161331592D01*
X168208630Y-161331599D01*
X168307675Y-161544000D01*
X168312484Y-161554313D01*
X168315326Y-161558494D01*
X168315326Y-161558495D01*
X168450605Y-161757552D01*
X168450608Y-161757556D01*
X168453451Y-161761739D01*
X168456928Y-161765416D01*
X168456929Y-161765417D01*
X168557238Y-161871491D01*
X168625767Y-161943959D01*
X168629793Y-161947037D01*
X168629794Y-161947038D01*
X168820981Y-162093212D01*
X168820985Y-162093215D01*
X168825001Y-162096285D01*
X169046026Y-162214797D01*
X169050807Y-162216443D01*
X169050811Y-162216445D01*
X169276538Y-162294169D01*
X169283156Y-162296448D01*
X169386689Y-162314331D01*
X169526380Y-162338460D01*
X169526386Y-162338461D01*
X169530290Y-162339135D01*
X169534251Y-162339315D01*
X169534252Y-162339315D01*
X169558931Y-162340436D01*
X169558950Y-162340436D01*
X169560350Y-162340500D01*
X169735015Y-162340500D01*
X169737523Y-162340298D01*
X169737528Y-162340298D01*
X169916944Y-162325863D01*
X169916949Y-162325862D01*
X169921985Y-162325457D01*
X169926893Y-162324252D01*
X169926896Y-162324251D01*
X170160625Y-162266841D01*
X170165539Y-162265634D01*
X170170191Y-162263659D01*
X170170195Y-162263658D01*
X170391741Y-162169617D01*
X170391742Y-162169617D01*
X170396396Y-162167641D01*
X170593121Y-162043757D01*
X170604334Y-162036696D01*
X170604335Y-162036695D01*
X170608615Y-162034000D01*
X170796738Y-161868147D01*
X170955924Y-161674351D01*
X171082078Y-161457596D01*
X171171955Y-161223461D01*
X171174381Y-161211851D01*
X171222206Y-160982921D01*
X171223241Y-160977967D01*
X171223995Y-160961382D01*
X171229827Y-160832937D01*
X171234618Y-160727432D01*
X171232766Y-160711421D01*
X171209483Y-160510203D01*
X171205792Y-160478301D01*
X171202278Y-160465881D01*
X171138884Y-160241852D01*
X171138883Y-160241850D01*
X171137506Y-160236983D01*
X171135372Y-160232408D01*
X171135370Y-160232401D01*
X171033653Y-160014269D01*
X171033651Y-160014265D01*
X171031516Y-160009687D01*
X171028305Y-160004962D01*
X170893395Y-159806448D01*
X170893392Y-159806444D01*
X170890549Y-159802261D01*
X170789925Y-159695853D01*
X170721713Y-159623721D01*
X170718233Y-159620041D01*
X170697994Y-159604567D01*
X170523019Y-159470788D01*
X170523015Y-159470785D01*
X170518999Y-159467715D01*
X170507043Y-159461304D01*
X170302435Y-159351595D01*
X170297974Y-159349203D01*
X170293193Y-159347557D01*
X170293189Y-159347555D01*
X170065633Y-159269201D01*
X170060844Y-159267552D01*
X169957311Y-159249669D01*
X169817620Y-159225540D01*
X169817614Y-159225539D01*
X169813710Y-159224865D01*
X169809749Y-159224685D01*
X169809748Y-159224685D01*
X169785069Y-159223564D01*
X169785050Y-159223564D01*
X169783650Y-159223500D01*
X169608985Y-159223500D01*
X169606477Y-159223702D01*
X169606472Y-159223702D01*
X169427056Y-159238137D01*
X169427051Y-159238138D01*
X169422015Y-159238543D01*
X169417107Y-159239748D01*
X169417104Y-159239749D01*
X169224079Y-159287161D01*
X169178461Y-159298366D01*
X169173809Y-159300341D01*
X169173805Y-159300342D01*
X168952259Y-159394383D01*
X168947604Y-159396359D01*
X168735385Y-159530000D01*
X168547262Y-159695853D01*
X168388076Y-159889649D01*
X168261922Y-160106404D01*
X168260109Y-160111127D01*
X168260108Y-160111129D01*
X168223861Y-160205554D01*
X168172045Y-160340539D01*
X168171012Y-160345485D01*
X168171010Y-160345491D01*
X168127490Y-160553814D01*
X168120759Y-160586033D01*
X168120530Y-160591082D01*
X168120529Y-160591088D01*
X168115986Y-160691130D01*
X168109382Y-160836568D01*
X160633151Y-160836568D01*
X160617855Y-160832726D01*
X160610257Y-160832686D01*
X160610255Y-160832686D01*
X160535565Y-160832295D01*
X160445598Y-160831824D01*
X160438213Y-160833597D01*
X160430665Y-160834470D01*
X160430488Y-160832937D01*
X160368244Y-160829821D01*
X160325925Y-160804928D01*
X160313125Y-160793524D01*
X160307454Y-160788471D01*
X160155218Y-160707866D01*
X159988149Y-160665901D01*
X159980551Y-160665861D01*
X159980549Y-160665861D01*
X159907641Y-160665479D01*
X159815892Y-160664999D01*
X159808512Y-160666771D01*
X159808510Y-160666771D01*
X159655773Y-160703440D01*
X159655771Y-160703441D01*
X159648393Y-160705212D01*
X159495321Y-160784219D01*
X159489599Y-160789211D01*
X159489597Y-160789212D01*
X159393731Y-160872841D01*
X159365513Y-160897457D01*
X159266464Y-161038391D01*
X159203891Y-161198883D01*
X159202900Y-161206410D01*
X159201249Y-161218954D01*
X159181406Y-161369667D01*
X142240000Y-161369667D01*
X142240000Y-160282516D01*
X148946496Y-160282516D01*
X148947186Y-160289081D01*
X148955854Y-160371548D01*
X148966458Y-160472444D01*
X149025473Y-160654072D01*
X149028776Y-160659794D01*
X149028777Y-160659795D01*
X149058584Y-160711421D01*
X149120960Y-160819460D01*
X149125378Y-160824367D01*
X149125379Y-160824368D01*
X149132869Y-160832686D01*
X149248747Y-160961382D01*
X149403248Y-161073634D01*
X149409276Y-161076318D01*
X149409278Y-161076319D01*
X149571681Y-161148625D01*
X149577712Y-161151310D01*
X149671113Y-161171163D01*
X149758056Y-161189644D01*
X149758061Y-161189644D01*
X149764513Y-161191016D01*
X149955487Y-161191016D01*
X149961939Y-161189644D01*
X149961944Y-161189644D01*
X150048887Y-161171163D01*
X150142288Y-161151310D01*
X150148319Y-161148625D01*
X150310722Y-161076319D01*
X150310724Y-161076318D01*
X150316752Y-161073634D01*
X150471253Y-160961382D01*
X150587131Y-160832686D01*
X150594621Y-160824368D01*
X150594622Y-160824367D01*
X150599040Y-160819460D01*
X150661416Y-160711421D01*
X150691223Y-160659795D01*
X150691224Y-160659794D01*
X150694527Y-160654072D01*
X150753542Y-160472444D01*
X150764147Y-160371548D01*
X150772814Y-160289081D01*
X150773504Y-160282516D01*
X150754994Y-160106404D01*
X150754232Y-160099151D01*
X150754232Y-160099149D01*
X150753542Y-160092588D01*
X150727517Y-160012492D01*
X155493112Y-160012492D01*
X155512015Y-160183711D01*
X155514624Y-160190842D01*
X155514625Y-160190844D01*
X155529833Y-160232401D01*
X155571213Y-160345478D01*
X155667290Y-160488455D01*
X155672908Y-160493567D01*
X155780083Y-160591088D01*
X155794698Y-160604387D01*
X155946082Y-160686582D01*
X156112702Y-160730294D01*
X156203700Y-160731724D01*
X156277342Y-160732881D01*
X156277345Y-160732881D01*
X156284939Y-160733000D01*
X156344628Y-160719329D01*
X156445447Y-160696239D01*
X156445451Y-160696238D01*
X156452850Y-160694543D01*
X156606741Y-160617144D01*
X156648968Y-160581079D01*
X156731954Y-160510203D01*
X156731956Y-160510200D01*
X156737728Y-160505271D01*
X156838248Y-160365382D01*
X156902498Y-160205554D01*
X156926770Y-160035014D01*
X156926927Y-160020000D01*
X156926432Y-160015908D01*
X156907145Y-159856530D01*
X156907144Y-159856527D01*
X156906232Y-159848989D01*
X156903370Y-159841413D01*
X156848027Y-159694954D01*
X156845343Y-159687851D01*
X156784805Y-159599767D01*
X156752077Y-159552147D01*
X156752076Y-159552145D01*
X156747775Y-159545888D01*
X156686617Y-159491398D01*
X156624832Y-159436349D01*
X156624829Y-159436347D01*
X156619160Y-159431296D01*
X156611130Y-159427044D01*
X156473638Y-159354246D01*
X156473639Y-159354246D01*
X156466924Y-159350691D01*
X156299855Y-159308726D01*
X156292257Y-159308686D01*
X156292255Y-159308686D01*
X156219347Y-159308304D01*
X156127598Y-159307824D01*
X156120218Y-159309596D01*
X156120216Y-159309596D01*
X155967479Y-159346265D01*
X155967477Y-159346266D01*
X155960099Y-159348037D01*
X155909766Y-159374016D01*
X155827297Y-159416582D01*
X155807027Y-159427044D01*
X155801305Y-159432036D01*
X155801303Y-159432037D01*
X155685171Y-159533345D01*
X155677219Y-159540282D01*
X155578170Y-159681216D01*
X155515597Y-159841708D01*
X155514606Y-159849235D01*
X155508710Y-159894021D01*
X155493112Y-160012492D01*
X150727517Y-160012492D01*
X150694527Y-159910960D01*
X150599040Y-159745572D01*
X150575124Y-159719010D01*
X150475675Y-159608561D01*
X150475674Y-159608560D01*
X150471253Y-159603650D01*
X150316752Y-159491398D01*
X150310724Y-159488714D01*
X150310722Y-159488713D01*
X150148319Y-159416407D01*
X150148318Y-159416407D01*
X150142288Y-159413722D01*
X150048888Y-159393869D01*
X149961944Y-159375388D01*
X149961939Y-159375388D01*
X149955487Y-159374016D01*
X149764513Y-159374016D01*
X149758061Y-159375388D01*
X149758056Y-159375388D01*
X149671112Y-159393869D01*
X149577712Y-159413722D01*
X149571682Y-159416407D01*
X149571681Y-159416407D01*
X149409278Y-159488713D01*
X149409276Y-159488714D01*
X149403248Y-159491398D01*
X149248747Y-159603650D01*
X149244326Y-159608560D01*
X149244325Y-159608561D01*
X149144877Y-159719010D01*
X149120960Y-159745572D01*
X149025473Y-159910960D01*
X148966458Y-160092588D01*
X148965768Y-160099149D01*
X148965768Y-160099151D01*
X148965006Y-160106404D01*
X148946496Y-160282516D01*
X142240000Y-160282516D01*
X142240000Y-151501090D01*
X147107893Y-151501090D01*
X147115789Y-151572607D01*
X147123078Y-151638630D01*
X147126796Y-151672309D01*
X147129406Y-151679442D01*
X147129407Y-151679445D01*
X147145515Y-151723463D01*
X147150141Y-151794308D01*
X147144584Y-151812527D01*
X147133597Y-151840708D01*
X147122354Y-151926100D01*
X147115886Y-151975235D01*
X147111112Y-152011492D01*
X147114049Y-152038094D01*
X147127620Y-152161014D01*
X147130015Y-152182711D01*
X147132624Y-152189842D01*
X147132625Y-152189844D01*
X147155757Y-152253054D01*
X147189213Y-152344478D01*
X147193450Y-152350784D01*
X147193452Y-152350787D01*
X147226188Y-152399503D01*
X147285290Y-152487455D01*
X147290908Y-152492567D01*
X147381808Y-152575279D01*
X147412698Y-152603387D01*
X147419371Y-152607010D01*
X147425565Y-152611412D01*
X147424642Y-152612711D01*
X147468685Y-152656548D01*
X147483939Y-152725887D01*
X147459284Y-152792465D01*
X147430067Y-152820443D01*
X147425027Y-152823044D01*
X147419308Y-152828033D01*
X147419305Y-152828035D01*
X147315155Y-152918891D01*
X147295219Y-152936282D01*
X147196170Y-153077216D01*
X147133597Y-153237708D01*
X147132606Y-153245235D01*
X147116548Y-153367206D01*
X147111112Y-153408492D01*
X147130015Y-153579711D01*
X147132625Y-153586844D01*
X147132626Y-153586847D01*
X147146722Y-153625367D01*
X147151348Y-153696212D01*
X147145791Y-153714432D01*
X147133597Y-153745708D01*
X147132606Y-153753238D01*
X147115369Y-153884160D01*
X147111112Y-153916492D01*
X147114049Y-153943094D01*
X147126032Y-154051630D01*
X147130015Y-154087711D01*
X147132625Y-154094844D01*
X147132626Y-154094847D01*
X147146722Y-154133367D01*
X147151348Y-154204212D01*
X147145791Y-154222432D01*
X147133597Y-154253708D01*
X147132606Y-154261238D01*
X147118207Y-154370605D01*
X147111112Y-154424492D01*
X147130015Y-154595711D01*
X147132624Y-154602842D01*
X147132625Y-154602844D01*
X147152482Y-154657106D01*
X147189213Y-154757478D01*
X147190021Y-154758680D01*
X147202642Y-154825881D01*
X147194664Y-154859077D01*
X147141973Y-154994224D01*
X147133597Y-155015708D01*
X147132606Y-155023235D01*
X147120091Y-155118295D01*
X147111112Y-155186492D01*
X147116220Y-155232758D01*
X147122762Y-155292011D01*
X147130015Y-155357711D01*
X147132624Y-155364842D01*
X147132625Y-155364844D01*
X147170696Y-155468877D01*
X147175322Y-155539723D01*
X147169764Y-155557945D01*
X147133597Y-155650708D01*
X147132606Y-155658235D01*
X147117492Y-155773036D01*
X147111112Y-155821492D01*
X147117334Y-155877851D01*
X147127620Y-155971014D01*
X147130015Y-155992711D01*
X147132624Y-155999842D01*
X147132625Y-155999844D01*
X147170696Y-156103877D01*
X147175322Y-156174723D01*
X147169764Y-156192945D01*
X147133597Y-156285708D01*
X147132606Y-156293235D01*
X147115448Y-156423560D01*
X147111112Y-156456492D01*
X147114049Y-156483094D01*
X147123826Y-156571649D01*
X147130015Y-156627711D01*
X147132624Y-156634842D01*
X147132625Y-156634844D01*
X147149203Y-156680144D01*
X147189213Y-156789478D01*
X147193450Y-156795784D01*
X147193452Y-156795787D01*
X147203650Y-156810963D01*
X147285290Y-156932455D01*
X147412698Y-157048387D01*
X147419371Y-157052010D01*
X147425565Y-157056412D01*
X147424642Y-157057711D01*
X147468685Y-157101548D01*
X147483939Y-157170887D01*
X147459284Y-157237465D01*
X147430067Y-157265443D01*
X147425027Y-157268044D01*
X147419308Y-157273033D01*
X147419305Y-157273035D01*
X147300946Y-157376286D01*
X147295219Y-157381282D01*
X147196170Y-157522216D01*
X147133597Y-157682708D01*
X147132606Y-157690235D01*
X147126302Y-157738120D01*
X147111112Y-157853492D01*
X147119183Y-157926601D01*
X147128856Y-158014212D01*
X147130015Y-158024711D01*
X147132624Y-158031842D01*
X147132625Y-158031844D01*
X147170696Y-158135877D01*
X147175322Y-158206723D01*
X147169764Y-158224945D01*
X147133597Y-158317708D01*
X147132606Y-158325235D01*
X147116000Y-158451367D01*
X147111112Y-158488492D01*
X147130015Y-158659711D01*
X147132624Y-158666842D01*
X147132625Y-158666844D01*
X147170696Y-158770877D01*
X147175322Y-158841723D01*
X147169764Y-158859945D01*
X147133597Y-158952708D01*
X147132606Y-158960235D01*
X147116603Y-159081787D01*
X147111112Y-159123492D01*
X147114049Y-159150094D01*
X147127199Y-159269201D01*
X147130015Y-159294711D01*
X147132624Y-159301842D01*
X147132625Y-159301844D01*
X147142664Y-159329277D01*
X147189213Y-159456478D01*
X147193450Y-159462784D01*
X147193452Y-159462787D01*
X147195157Y-159465324D01*
X147285290Y-159599455D01*
X147412698Y-159715387D01*
X147564082Y-159797582D01*
X147730702Y-159841294D01*
X147821700Y-159842724D01*
X147895342Y-159843881D01*
X147895345Y-159843881D01*
X147902939Y-159844000D01*
X147962628Y-159830329D01*
X148063447Y-159807239D01*
X148063451Y-159807238D01*
X148070850Y-159805543D01*
X148224741Y-159728144D01*
X148271918Y-159687851D01*
X148349954Y-159621203D01*
X148349956Y-159621200D01*
X148355728Y-159616271D01*
X148456248Y-159476382D01*
X148520498Y-159316554D01*
X148544770Y-159146014D01*
X148544927Y-159131000D01*
X148544432Y-159126908D01*
X148525145Y-158967530D01*
X148525144Y-158967527D01*
X148524232Y-158959989D01*
X148485553Y-158857629D01*
X148480185Y-158786837D01*
X148486509Y-158766103D01*
X148520498Y-158681554D01*
X148544770Y-158511014D01*
X148544927Y-158496000D01*
X148544432Y-158491908D01*
X148525145Y-158332530D01*
X148525144Y-158332527D01*
X148524232Y-158324989D01*
X148485553Y-158222629D01*
X148480185Y-158151837D01*
X148486509Y-158131103D01*
X148520498Y-158046554D01*
X148544770Y-157876014D01*
X148544927Y-157861000D01*
X148544432Y-157856908D01*
X148525145Y-157697530D01*
X148525144Y-157697527D01*
X148524232Y-157689989D01*
X148463343Y-157528851D01*
X148454511Y-157516000D01*
X148370077Y-157393147D01*
X148370076Y-157393145D01*
X148365775Y-157386888D01*
X148237160Y-157272296D01*
X148230445Y-157268740D01*
X148226384Y-157265918D01*
X148181863Y-157210616D01*
X148174308Y-157140023D01*
X148206118Y-157076551D01*
X148223604Y-157061716D01*
X148224741Y-157061144D01*
X148271174Y-157021487D01*
X148349954Y-156954203D01*
X148349956Y-156954200D01*
X148355728Y-156949271D01*
X148456248Y-156809382D01*
X148520498Y-156649554D01*
X148544770Y-156479014D01*
X148544927Y-156464000D01*
X148544432Y-156459908D01*
X148525145Y-156300530D01*
X148525144Y-156300527D01*
X148524232Y-156292989D01*
X148490036Y-156202492D01*
X149143112Y-156202492D01*
X149162015Y-156373711D01*
X149164624Y-156380842D01*
X149164625Y-156380844D01*
X149187541Y-156443464D01*
X149221213Y-156535478D01*
X149225450Y-156541784D01*
X149225452Y-156541787D01*
X149237846Y-156560231D01*
X149317290Y-156678455D01*
X149444698Y-156794387D01*
X149596082Y-156876582D01*
X149762702Y-156920294D01*
X149853700Y-156921724D01*
X149927342Y-156922881D01*
X149927345Y-156922881D01*
X149934939Y-156923000D01*
X149994628Y-156909329D01*
X150095447Y-156886239D01*
X150095451Y-156886238D01*
X150102850Y-156884543D01*
X150256741Y-156807144D01*
X150328380Y-156745959D01*
X150381954Y-156700203D01*
X150381956Y-156700200D01*
X150387728Y-156695271D01*
X150488248Y-156555382D01*
X150552498Y-156395554D01*
X150576770Y-156225014D01*
X150576927Y-156210000D01*
X150576432Y-156205908D01*
X150562475Y-156090574D01*
X152436075Y-156090574D01*
X152444332Y-156165367D01*
X152452154Y-156236212D01*
X152454978Y-156261793D01*
X152457587Y-156268924D01*
X152457588Y-156268926D01*
X152466394Y-156292989D01*
X152514176Y-156423560D01*
X152518413Y-156429866D01*
X152518415Y-156429869D01*
X152541379Y-156464042D01*
X152610253Y-156566537D01*
X152615871Y-156571649D01*
X152677483Y-156627711D01*
X152737661Y-156682469D01*
X152889045Y-156764664D01*
X153055665Y-156808376D01*
X153146663Y-156809806D01*
X153220305Y-156810963D01*
X153220308Y-156810963D01*
X153227902Y-156811082D01*
X153301158Y-156794304D01*
X153388410Y-156774321D01*
X153388414Y-156774320D01*
X153395813Y-156772625D01*
X153549704Y-156695226D01*
X153582299Y-156667387D01*
X153674917Y-156588285D01*
X153674919Y-156588282D01*
X153680691Y-156583353D01*
X153781211Y-156443464D01*
X153845461Y-156283636D01*
X153869733Y-156113096D01*
X153869890Y-156098082D01*
X153869383Y-156093891D01*
X153850108Y-155934612D01*
X153850107Y-155934609D01*
X153849195Y-155927071D01*
X153846346Y-155919530D01*
X153790990Y-155773036D01*
X153788306Y-155765933D01*
X153742133Y-155698750D01*
X155497370Y-155698750D01*
X155503906Y-155757954D01*
X155513408Y-155844014D01*
X155516273Y-155869969D01*
X155518882Y-155877100D01*
X155518883Y-155877102D01*
X155537169Y-155927071D01*
X155575471Y-156031736D01*
X155579708Y-156038042D01*
X155579710Y-156038045D01*
X155580510Y-156039235D01*
X155671548Y-156174713D01*
X155677166Y-156179825D01*
X155759162Y-156254435D01*
X155798956Y-156290645D01*
X155950340Y-156372840D01*
X156116960Y-156416552D01*
X156146784Y-156417020D01*
X156214581Y-156438088D01*
X156249387Y-156472727D01*
X156302290Y-156551455D01*
X156307909Y-156556568D01*
X156307910Y-156556569D01*
X156401834Y-156642033D01*
X156429698Y-156667387D01*
X156581082Y-156749582D01*
X156747702Y-156793294D01*
X156838700Y-156794724D01*
X156912342Y-156795881D01*
X156912345Y-156795881D01*
X156919939Y-156796000D01*
X156979628Y-156782329D01*
X157080447Y-156759239D01*
X157080451Y-156759238D01*
X157087850Y-156757543D01*
X157241741Y-156680144D01*
X157277557Y-156649554D01*
X157366954Y-156573203D01*
X157366956Y-156573200D01*
X157372728Y-156568271D01*
X157473248Y-156428382D01*
X157537498Y-156268554D01*
X157561770Y-156098014D01*
X157561927Y-156083000D01*
X157556487Y-156038045D01*
X157542145Y-155919530D01*
X157542144Y-155919527D01*
X157541232Y-155911989D01*
X157531017Y-155884954D01*
X157483027Y-155757954D01*
X157480343Y-155750851D01*
X157452745Y-155710695D01*
X157430646Y-155643225D01*
X157448532Y-155574519D01*
X157454263Y-155565804D01*
X157468814Y-155545553D01*
X157468815Y-155545551D01*
X157473248Y-155539382D01*
X157537498Y-155379554D01*
X157561770Y-155209014D01*
X157561927Y-155194000D01*
X157561432Y-155189908D01*
X157542145Y-155030530D01*
X157542144Y-155030527D01*
X157541232Y-155022989D01*
X157525636Y-154981714D01*
X157480343Y-154861851D01*
X157481856Y-154861279D01*
X157469767Y-154800406D01*
X157478353Y-154764682D01*
X157537498Y-154617554D01*
X157561770Y-154447014D01*
X157561927Y-154432000D01*
X157561432Y-154427908D01*
X157542145Y-154268530D01*
X157542144Y-154268527D01*
X157541232Y-154260989D01*
X157515547Y-154193014D01*
X157480343Y-154099851D01*
X157481856Y-154099279D01*
X157469767Y-154038406D01*
X157478353Y-154002682D01*
X157537498Y-153855554D01*
X157561770Y-153685014D01*
X157561927Y-153670000D01*
X157561192Y-153663923D01*
X157560779Y-153660507D01*
X165140762Y-153660507D01*
X165159665Y-153831726D01*
X165162274Y-153838857D01*
X165162275Y-153838859D01*
X165178853Y-153884160D01*
X165183479Y-153955006D01*
X165177922Y-153973225D01*
X165167597Y-153999708D01*
X165145112Y-154170492D01*
X165164015Y-154341711D01*
X165166624Y-154348842D01*
X165166625Y-154348844D01*
X165189757Y-154412054D01*
X165223213Y-154503478D01*
X165319290Y-154646455D01*
X165324909Y-154651567D01*
X165324909Y-154651568D01*
X165400122Y-154720007D01*
X165437044Y-154780647D01*
X165435321Y-154851623D01*
X165398151Y-154908149D01*
X165376330Y-154927185D01*
X165329219Y-154968282D01*
X165230170Y-155109216D01*
X165167597Y-155269708D01*
X165166606Y-155277235D01*
X165146187Y-155432328D01*
X165145112Y-155440492D01*
X165147718Y-155464095D01*
X165157824Y-155555631D01*
X165164015Y-155611711D01*
X165166625Y-155618844D01*
X165166626Y-155618847D01*
X165180722Y-155657367D01*
X165185348Y-155728212D01*
X165179791Y-155746432D01*
X165167597Y-155777708D01*
X165160302Y-155833120D01*
X165148868Y-155919967D01*
X165145112Y-155948492D01*
X165153184Y-156021602D01*
X165162267Y-156103877D01*
X165164015Y-156119711D01*
X165166625Y-156126844D01*
X165166626Y-156126847D01*
X165180722Y-156165367D01*
X165185348Y-156236212D01*
X165179791Y-156254432D01*
X165167597Y-156285708D01*
X165166606Y-156293238D01*
X165149448Y-156423560D01*
X165145112Y-156456492D01*
X165148049Y-156483094D01*
X165157826Y-156571649D01*
X165164015Y-156627711D01*
X165166624Y-156634842D01*
X165166625Y-156634844D01*
X165183203Y-156680144D01*
X165223213Y-156789478D01*
X165227450Y-156795784D01*
X165227452Y-156795787D01*
X165237650Y-156810963D01*
X165319290Y-156932455D01*
X165324909Y-156937567D01*
X165324909Y-156937568D01*
X165400122Y-157006007D01*
X165437044Y-157066647D01*
X165435321Y-157137623D01*
X165398151Y-157194149D01*
X165348497Y-157237465D01*
X165329219Y-157254282D01*
X165230170Y-157395216D01*
X165167597Y-157555708D01*
X165166606Y-157563235D01*
X165149886Y-157690235D01*
X165145112Y-157726492D01*
X165148049Y-157753094D01*
X165161620Y-157876014D01*
X165164015Y-157897711D01*
X165166625Y-157904844D01*
X165166626Y-157904847D01*
X165180722Y-157943367D01*
X165185348Y-158014212D01*
X165179791Y-158032432D01*
X165167597Y-158063708D01*
X165166606Y-158071238D01*
X165146369Y-158224948D01*
X165145112Y-158234492D01*
X165164015Y-158405711D01*
X165166625Y-158412844D01*
X165166626Y-158412847D01*
X165180722Y-158451367D01*
X165185348Y-158522212D01*
X165179791Y-158540432D01*
X165167597Y-158571708D01*
X165145112Y-158742492D01*
X165147718Y-158766095D01*
X165157824Y-158857631D01*
X165164015Y-158913711D01*
X165166624Y-158920842D01*
X165166625Y-158920844D01*
X165175697Y-158945635D01*
X165223213Y-159075478D01*
X165319290Y-159218455D01*
X165324905Y-159223564D01*
X165324908Y-159223567D01*
X165417550Y-159307864D01*
X165446698Y-159334387D01*
X165598082Y-159416582D01*
X165764702Y-159460294D01*
X165855700Y-159461724D01*
X165929342Y-159462881D01*
X165929345Y-159462881D01*
X165936939Y-159463000D01*
X165996628Y-159449329D01*
X166097447Y-159426239D01*
X166097451Y-159426238D01*
X166104850Y-159424543D01*
X166258741Y-159347144D01*
X166302704Y-159309596D01*
X166383954Y-159240203D01*
X166383956Y-159240200D01*
X166389728Y-159235271D01*
X166490248Y-159095382D01*
X166554498Y-158935554D01*
X166578770Y-158765014D01*
X166578927Y-158750000D01*
X166578432Y-158745908D01*
X166559145Y-158586530D01*
X166559144Y-158586527D01*
X166558232Y-158578989D01*
X166544291Y-158542095D01*
X166538923Y-158471301D01*
X166545249Y-158450562D01*
X166551665Y-158434601D01*
X166554498Y-158427554D01*
X166578770Y-158257014D01*
X166578927Y-158242000D01*
X166578432Y-158237908D01*
X166559145Y-158078530D01*
X166559144Y-158078527D01*
X166558232Y-158070989D01*
X166544291Y-158034095D01*
X166538923Y-157963301D01*
X166545249Y-157942562D01*
X166551665Y-157926601D01*
X166554498Y-157919554D01*
X166578770Y-157749014D01*
X166578927Y-157734000D01*
X166578432Y-157729908D01*
X166559145Y-157570530D01*
X166559144Y-157570527D01*
X166558232Y-157562989D01*
X166548017Y-157535954D01*
X166500027Y-157408954D01*
X166497343Y-157401851D01*
X166408303Y-157272296D01*
X166404077Y-157266147D01*
X166404076Y-157266145D01*
X166399775Y-157259888D01*
X166374608Y-157237465D01*
X166324700Y-157192998D01*
X166287144Y-157132748D01*
X166288125Y-157061758D01*
X166326689Y-157003111D01*
X166383954Y-156954203D01*
X166383956Y-156954200D01*
X166389728Y-156949271D01*
X166490248Y-156809382D01*
X166554498Y-156649554D01*
X166578770Y-156479014D01*
X166578927Y-156464000D01*
X166578432Y-156459908D01*
X166559145Y-156300530D01*
X166559144Y-156300527D01*
X166558232Y-156292989D01*
X166555416Y-156285535D01*
X166544291Y-156256095D01*
X166538923Y-156185301D01*
X166545249Y-156164562D01*
X166551665Y-156148601D01*
X166554498Y-156141554D01*
X166578770Y-155971014D01*
X166578927Y-155956000D01*
X166578432Y-155951908D01*
X166559145Y-155792530D01*
X166559144Y-155792527D01*
X166558232Y-155784989D01*
X166553716Y-155773036D01*
X166544291Y-155748095D01*
X166538923Y-155677301D01*
X166545249Y-155656562D01*
X166551665Y-155640601D01*
X166554498Y-155633554D01*
X166578770Y-155463014D01*
X166578927Y-155448000D01*
X166578045Y-155440708D01*
X166559145Y-155284530D01*
X166559144Y-155284527D01*
X166558232Y-155276989D01*
X166541519Y-155232758D01*
X166500027Y-155122954D01*
X166497343Y-155115851D01*
X166443684Y-155037776D01*
X166404077Y-154980147D01*
X166404076Y-154980145D01*
X166399775Y-154973888D01*
X166387876Y-154963286D01*
X166324700Y-154906998D01*
X166287144Y-154846748D01*
X166288125Y-154775758D01*
X166326689Y-154717111D01*
X166383954Y-154668203D01*
X166383956Y-154668200D01*
X166389728Y-154663271D01*
X166490248Y-154523382D01*
X166554498Y-154363554D01*
X166578770Y-154193014D01*
X166578927Y-154178000D01*
X166578432Y-154173908D01*
X166559145Y-154014530D01*
X166559144Y-154014527D01*
X166558232Y-154006989D01*
X166553883Y-153995478D01*
X166541796Y-153963493D01*
X166536428Y-153892700D01*
X166542751Y-153871969D01*
X166550148Y-153853569D01*
X166574420Y-153683029D01*
X166574577Y-153668015D01*
X166573669Y-153660507D01*
X166554795Y-153504547D01*
X166554795Y-153504546D01*
X166553882Y-153497004D01*
X166539066Y-153457794D01*
X166533698Y-153387003D01*
X166540025Y-153366261D01*
X166547315Y-153348127D01*
X166547316Y-153348122D01*
X166550148Y-153341078D01*
X166574420Y-153170538D01*
X166574577Y-153155524D01*
X166574082Y-153151432D01*
X166554795Y-152992054D01*
X166554794Y-152992051D01*
X166553882Y-152984513D01*
X166549761Y-152973605D01*
X166495677Y-152830478D01*
X166492993Y-152823375D01*
X166395425Y-152681412D01*
X166389749Y-152676355D01*
X166386705Y-152672902D01*
X166356660Y-152608576D01*
X166366161Y-152538218D01*
X166386889Y-152506696D01*
X166389728Y-152504271D01*
X166490248Y-152364382D01*
X166554498Y-152204554D01*
X166578770Y-152034014D01*
X166578927Y-152019000D01*
X166578432Y-152014908D01*
X166559145Y-151855530D01*
X166559144Y-151855527D01*
X166558232Y-151847989D01*
X166552807Y-151833631D01*
X166541761Y-151804400D01*
X166536393Y-151733607D01*
X166542719Y-151712868D01*
X166547314Y-151701437D01*
X166547315Y-151701433D01*
X166550148Y-151694386D01*
X166574420Y-151523846D01*
X166574577Y-151508832D01*
X166574054Y-151504506D01*
X166554794Y-151345359D01*
X166553882Y-151337821D01*
X166551198Y-151330718D01*
X166551197Y-151330714D01*
X166542471Y-151307620D01*
X166537103Y-151236827D01*
X166543426Y-151216095D01*
X166554498Y-151188554D01*
X166578770Y-151018014D01*
X166578927Y-151003000D01*
X166578163Y-150996683D01*
X166559145Y-150839530D01*
X166559144Y-150839527D01*
X166558232Y-150831989D01*
X166548017Y-150804954D01*
X166500027Y-150677954D01*
X166497343Y-150670851D01*
X166442632Y-150591246D01*
X166404077Y-150535147D01*
X166404076Y-150535145D01*
X166399775Y-150528888D01*
X166393483Y-150523282D01*
X166276832Y-150419349D01*
X166276829Y-150419347D01*
X166271160Y-150414296D01*
X166263130Y-150410044D01*
X166125638Y-150337246D01*
X166125639Y-150337246D01*
X166118924Y-150333691D01*
X165951855Y-150291726D01*
X165944257Y-150291686D01*
X165944255Y-150291686D01*
X165871347Y-150291304D01*
X165779598Y-150290824D01*
X165772218Y-150292596D01*
X165772216Y-150292596D01*
X165619479Y-150329265D01*
X165619477Y-150329266D01*
X165612099Y-150331037D01*
X165459027Y-150410044D01*
X165453305Y-150415036D01*
X165453303Y-150415037D01*
X165337497Y-150516061D01*
X165329219Y-150523282D01*
X165230170Y-150664216D01*
X165181462Y-150789147D01*
X165171223Y-150815409D01*
X165167597Y-150824708D01*
X165166606Y-150832235D01*
X165149886Y-150959235D01*
X165145112Y-150995492D01*
X165148049Y-151022094D01*
X165162936Y-151156936D01*
X165164015Y-151166711D01*
X165178207Y-151205493D01*
X165182834Y-151276337D01*
X165177274Y-151294563D01*
X165163247Y-151330540D01*
X165162256Y-151338067D01*
X165143366Y-151481549D01*
X165140762Y-151501324D01*
X165148176Y-151568475D01*
X165158806Y-151664759D01*
X165159665Y-151672543D01*
X165178888Y-151725072D01*
X165183515Y-151795916D01*
X165177957Y-151814136D01*
X165167597Y-151840708D01*
X165166606Y-151848235D01*
X165149886Y-151975235D01*
X165145112Y-152011492D01*
X165148049Y-152038094D01*
X165161620Y-152161014D01*
X165164015Y-152182711D01*
X165166624Y-152189842D01*
X165166625Y-152189844D01*
X165189757Y-152253054D01*
X165223213Y-152344478D01*
X165227450Y-152350784D01*
X165227452Y-152350787D01*
X165260188Y-152399503D01*
X165319290Y-152487455D01*
X165324908Y-152492567D01*
X165329873Y-152498319D01*
X165328515Y-152499491D01*
X165360465Y-152551964D01*
X165358742Y-152622940D01*
X165332381Y-152668826D01*
X165330589Y-152670816D01*
X165324869Y-152675806D01*
X165320504Y-152682017D01*
X165320502Y-152682019D01*
X165295312Y-152717862D01*
X165225820Y-152816740D01*
X165163247Y-152977232D01*
X165162256Y-152984759D01*
X165142798Y-153132553D01*
X165140762Y-153148016D01*
X165143699Y-153174618D01*
X165156522Y-153290764D01*
X165159665Y-153319235D01*
X165162274Y-153326366D01*
X165162275Y-153326368D01*
X165177220Y-153367206D01*
X165181846Y-153438051D01*
X165176287Y-153456277D01*
X165163247Y-153489723D01*
X165162256Y-153497250D01*
X165148524Y-153601554D01*
X165140762Y-153660507D01*
X157560779Y-153660507D01*
X157542145Y-153506530D01*
X157542144Y-153506527D01*
X157541232Y-153498989D01*
X157525667Y-153457796D01*
X157483027Y-153344954D01*
X157480343Y-153337851D01*
X157452745Y-153297695D01*
X157430646Y-153230225D01*
X157448532Y-153161519D01*
X157454263Y-153152804D01*
X157468814Y-153132553D01*
X157468815Y-153132551D01*
X157473248Y-153126382D01*
X157537498Y-152966554D01*
X157561770Y-152796014D01*
X157561927Y-152781000D01*
X157561432Y-152776908D01*
X157542145Y-152617530D01*
X157542144Y-152617527D01*
X157541232Y-152609989D01*
X157536807Y-152598277D01*
X157480343Y-152448851D01*
X157481856Y-152448279D01*
X157469767Y-152387406D01*
X157478353Y-152351682D01*
X157537498Y-152204554D01*
X157561770Y-152034014D01*
X157561927Y-152019000D01*
X157561432Y-152014908D01*
X157542145Y-151855530D01*
X157542144Y-151855527D01*
X157541232Y-151847989D01*
X157535810Y-151833638D01*
X157480343Y-151686851D01*
X157481856Y-151686279D01*
X157469767Y-151625406D01*
X157478353Y-151589682D01*
X157537498Y-151442554D01*
X157561770Y-151272014D01*
X157561927Y-151257000D01*
X157561105Y-151250204D01*
X157542145Y-151093530D01*
X157542144Y-151093527D01*
X157541232Y-151085989D01*
X157516248Y-151019869D01*
X157483027Y-150931954D01*
X157480343Y-150924851D01*
X157411517Y-150824708D01*
X157387077Y-150789147D01*
X157387076Y-150789145D01*
X157382775Y-150782888D01*
X157370876Y-150772286D01*
X157259832Y-150673349D01*
X157259829Y-150673347D01*
X157254160Y-150668296D01*
X157246130Y-150664044D01*
X157108638Y-150591246D01*
X157108639Y-150591246D01*
X157101924Y-150587691D01*
X156934855Y-150545726D01*
X156927257Y-150545686D01*
X156927255Y-150545686D01*
X156854347Y-150545304D01*
X156762598Y-150544824D01*
X156755218Y-150546596D01*
X156755216Y-150546596D01*
X156602479Y-150583265D01*
X156602477Y-150583266D01*
X156595099Y-150585037D01*
X156442027Y-150664044D01*
X156436305Y-150669036D01*
X156436303Y-150669037D01*
X156317946Y-150772286D01*
X156312219Y-150777282D01*
X156213170Y-150918216D01*
X156150597Y-151078708D01*
X156149606Y-151086235D01*
X156133410Y-151209253D01*
X156128112Y-151249492D01*
X156147015Y-151420711D01*
X156149624Y-151427842D01*
X156149625Y-151427844D01*
X156180770Y-151512952D01*
X156206213Y-151582478D01*
X156207021Y-151583680D01*
X156219642Y-151650881D01*
X156211664Y-151684077D01*
X156153356Y-151833631D01*
X156150597Y-151840708D01*
X156149606Y-151848235D01*
X156132886Y-151975235D01*
X156128112Y-152011492D01*
X156131049Y-152038094D01*
X156144620Y-152161014D01*
X156147015Y-152182711D01*
X156149624Y-152189842D01*
X156149625Y-152189844D01*
X156203602Y-152337342D01*
X156206213Y-152344478D01*
X156207021Y-152345680D01*
X156219642Y-152412881D01*
X156211664Y-152446077D01*
X156161291Y-152575279D01*
X156150597Y-152602708D01*
X156149606Y-152610235D01*
X156131641Y-152746691D01*
X156128112Y-152773492D01*
X156134610Y-152832351D01*
X156145533Y-152931286D01*
X156147015Y-152944711D01*
X156149624Y-152951842D01*
X156149625Y-152951844D01*
X156158916Y-152977232D01*
X156206213Y-153106478D01*
X156210450Y-153112784D01*
X156210452Y-153112787D01*
X156238517Y-153154551D01*
X156259910Y-153222248D01*
X156241306Y-153290764D01*
X156237026Y-153297272D01*
X156213170Y-153331216D01*
X156150597Y-153491708D01*
X156149606Y-153499235D01*
X156129365Y-153652977D01*
X156128112Y-153662492D01*
X156147015Y-153833711D01*
X156149624Y-153840842D01*
X156149625Y-153840844D01*
X156181838Y-153928871D01*
X156206213Y-153995478D01*
X156207021Y-153996680D01*
X156219642Y-154063881D01*
X156211664Y-154097077D01*
X156153356Y-154246631D01*
X156150597Y-154253708D01*
X156149606Y-154261235D01*
X156135207Y-154370605D01*
X156128112Y-154424492D01*
X156147015Y-154595711D01*
X156149624Y-154602842D01*
X156149625Y-154602844D01*
X156169482Y-154657106D01*
X156206213Y-154757478D01*
X156207021Y-154758680D01*
X156219642Y-154825881D01*
X156211664Y-154859078D01*
X156185762Y-154925513D01*
X156142381Y-154981714D01*
X156097783Y-155002262D01*
X155971737Y-155032523D01*
X155971735Y-155032524D01*
X155964357Y-155034295D01*
X155957612Y-155037776D01*
X155957613Y-155037776D01*
X155831245Y-155103000D01*
X155811285Y-155113302D01*
X155805563Y-155118294D01*
X155805561Y-155118295D01*
X155687204Y-155221544D01*
X155681477Y-155226540D01*
X155582428Y-155367474D01*
X155519855Y-155527966D01*
X155518864Y-155535493D01*
X155499967Y-155679028D01*
X155497370Y-155698750D01*
X153742133Y-155698750D01*
X153695040Y-155630229D01*
X153695039Y-155630227D01*
X153690738Y-155623970D01*
X153666613Y-155602475D01*
X153567795Y-155514431D01*
X153567792Y-155514429D01*
X153562123Y-155509378D01*
X153554093Y-155505126D01*
X153418169Y-155433158D01*
X153409887Y-155428773D01*
X153242818Y-155386808D01*
X153235220Y-155386768D01*
X153235218Y-155386768D01*
X153162310Y-155386386D01*
X153070561Y-155385906D01*
X153063181Y-155387678D01*
X153063179Y-155387678D01*
X152910442Y-155424347D01*
X152910440Y-155424348D01*
X152903062Y-155426119D01*
X152749990Y-155505126D01*
X152744268Y-155510118D01*
X152744266Y-155510119D01*
X152625909Y-155613368D01*
X152620182Y-155618364D01*
X152521133Y-155759298D01*
X152458560Y-155919790D01*
X152457569Y-155927317D01*
X152441874Y-156046530D01*
X152436075Y-156090574D01*
X150562475Y-156090574D01*
X150557145Y-156046530D01*
X150557144Y-156046527D01*
X150556232Y-156038989D01*
X150553492Y-156031736D01*
X150498027Y-155884954D01*
X150495343Y-155877851D01*
X150469254Y-155839891D01*
X150452288Y-155815205D01*
X150430188Y-155747735D01*
X150448074Y-155679028D01*
X150453805Y-155670312D01*
X150483817Y-155628546D01*
X150483818Y-155628543D01*
X150488248Y-155622379D01*
X150552498Y-155462551D01*
X150576770Y-155292011D01*
X150576927Y-155276997D01*
X150576432Y-155272905D01*
X150557145Y-155113527D01*
X150557144Y-155113524D01*
X150556232Y-155105986D01*
X150508682Y-154980147D01*
X150498029Y-154951956D01*
X150498029Y-154951955D01*
X150495343Y-154944848D01*
X150483202Y-154927183D01*
X150461103Y-154859715D01*
X150478989Y-154791008D01*
X150483424Y-154784264D01*
X150483818Y-154783547D01*
X150488248Y-154777382D01*
X150552498Y-154617554D01*
X150576770Y-154447014D01*
X150576927Y-154432000D01*
X150576432Y-154427908D01*
X150557145Y-154268530D01*
X150557144Y-154268527D01*
X150556232Y-154260989D01*
X150530547Y-154193014D01*
X150495343Y-154099851D01*
X150496856Y-154099279D01*
X150484767Y-154038406D01*
X150493353Y-154002682D01*
X150552498Y-153855554D01*
X150576770Y-153685014D01*
X150576927Y-153670000D01*
X150576192Y-153663923D01*
X150557145Y-153506530D01*
X150557144Y-153506527D01*
X150556232Y-153498989D01*
X150540667Y-153457796D01*
X150495343Y-153337851D01*
X150496856Y-153337279D01*
X150484767Y-153276406D01*
X150493353Y-153240682D01*
X150552498Y-153093554D01*
X150576770Y-152923014D01*
X150576927Y-152908000D01*
X150576432Y-152903908D01*
X150557145Y-152744530D01*
X150557144Y-152744527D01*
X150556232Y-152736989D01*
X150548757Y-152717205D01*
X150495343Y-152575851D01*
X150496856Y-152575279D01*
X150484767Y-152514406D01*
X150493353Y-152478682D01*
X150552498Y-152331554D01*
X150576770Y-152161014D01*
X150576927Y-152146000D01*
X150576432Y-152141908D01*
X150557145Y-151982530D01*
X150557144Y-151982527D01*
X150556232Y-151974989D01*
X150495343Y-151813851D01*
X150423132Y-151708783D01*
X150401032Y-151641314D01*
X150418918Y-151572607D01*
X150424649Y-151563890D01*
X150483817Y-151481549D01*
X150483818Y-151481547D01*
X150488248Y-151475382D01*
X150552498Y-151315554D01*
X150576770Y-151145014D01*
X150576927Y-151130000D01*
X150576432Y-151125908D01*
X150557145Y-150966530D01*
X150557144Y-150966527D01*
X150556232Y-150958989D01*
X150546017Y-150931954D01*
X150498027Y-150804954D01*
X150495343Y-150797851D01*
X150477773Y-150772286D01*
X150402077Y-150662147D01*
X150402076Y-150662145D01*
X150397775Y-150655888D01*
X150321233Y-150587691D01*
X150274832Y-150546349D01*
X150274829Y-150546347D01*
X150269160Y-150541296D01*
X150261130Y-150537044D01*
X150123638Y-150464246D01*
X150123639Y-150464246D01*
X150116924Y-150460691D01*
X149949855Y-150418726D01*
X149942257Y-150418686D01*
X149942255Y-150418686D01*
X149869347Y-150418304D01*
X149777598Y-150417824D01*
X149770218Y-150419596D01*
X149770216Y-150419596D01*
X149617479Y-150456265D01*
X149617477Y-150456266D01*
X149610099Y-150458037D01*
X149457027Y-150537044D01*
X149451305Y-150542036D01*
X149451303Y-150542037D01*
X149332946Y-150645286D01*
X149327219Y-150650282D01*
X149228170Y-150791216D01*
X149165597Y-150951708D01*
X149164606Y-150959235D01*
X149147886Y-151086235D01*
X149143112Y-151122492D01*
X149150938Y-151193381D01*
X149160097Y-151276337D01*
X149162015Y-151293711D01*
X149164624Y-151300842D01*
X149164625Y-151300844D01*
X149172818Y-151323233D01*
X149221213Y-151455478D01*
X149225450Y-151461784D01*
X149225452Y-151461787D01*
X149297144Y-151568475D01*
X149318537Y-151636172D01*
X149299933Y-151704688D01*
X149295654Y-151711195D01*
X149228170Y-151807216D01*
X149165597Y-151967708D01*
X149164606Y-151975235D01*
X149158302Y-152023120D01*
X149143112Y-152138492D01*
X149162015Y-152309711D01*
X149164624Y-152316842D01*
X149164625Y-152316844D01*
X149184278Y-152370548D01*
X149221213Y-152471478D01*
X149222021Y-152472680D01*
X149234642Y-152539881D01*
X149226664Y-152573077D01*
X149168356Y-152722631D01*
X149165597Y-152729708D01*
X149164606Y-152737235D01*
X149152652Y-152828035D01*
X149143112Y-152900492D01*
X149162015Y-153071711D01*
X149164624Y-153078842D01*
X149164625Y-153078844D01*
X149198180Y-153170538D01*
X149221213Y-153233478D01*
X149222021Y-153234680D01*
X149234642Y-153301881D01*
X149226664Y-153335077D01*
X149169129Y-153482649D01*
X149165597Y-153491708D01*
X149164606Y-153499235D01*
X149144365Y-153652977D01*
X149143112Y-153662492D01*
X149162015Y-153833711D01*
X149164624Y-153840842D01*
X149164625Y-153840844D01*
X149196838Y-153928871D01*
X149221213Y-153995478D01*
X149222021Y-153996680D01*
X149234642Y-154063881D01*
X149226664Y-154097077D01*
X149168356Y-154246631D01*
X149165597Y-154253708D01*
X149164606Y-154261235D01*
X149150207Y-154370605D01*
X149143112Y-154424492D01*
X149162015Y-154595711D01*
X149164624Y-154602842D01*
X149164625Y-154602844D01*
X149182456Y-154651568D01*
X149221213Y-154757478D01*
X149238402Y-154783057D01*
X149259794Y-154850752D01*
X149241190Y-154919268D01*
X149236929Y-154925750D01*
X149228170Y-154938213D01*
X149165597Y-155098705D01*
X149164606Y-155106232D01*
X149148767Y-155226540D01*
X149143112Y-155269489D01*
X149146049Y-155296091D01*
X149161160Y-155432962D01*
X149162015Y-155440708D01*
X149164624Y-155447839D01*
X149164625Y-155447841D01*
X149185844Y-155505823D01*
X149221213Y-155602475D01*
X149225450Y-155608781D01*
X149225452Y-155608784D01*
X149268633Y-155673043D01*
X149290026Y-155740740D01*
X149271422Y-155809256D01*
X149267159Y-155815740D01*
X149228170Y-155871216D01*
X149165597Y-156031708D01*
X149164606Y-156039235D01*
X149144369Y-156192948D01*
X149143112Y-156202492D01*
X148490036Y-156202492D01*
X148485553Y-156190629D01*
X148480185Y-156119837D01*
X148486509Y-156099103D01*
X148520498Y-156014554D01*
X148544770Y-155844014D01*
X148544927Y-155829000D01*
X148544432Y-155824908D01*
X148525145Y-155665530D01*
X148525144Y-155665527D01*
X148524232Y-155657989D01*
X148485553Y-155555629D01*
X148480185Y-155484837D01*
X148486509Y-155464103D01*
X148520498Y-155379554D01*
X148544770Y-155209014D01*
X148544927Y-155194000D01*
X148544432Y-155189908D01*
X148525145Y-155030530D01*
X148525144Y-155030527D01*
X148524232Y-155022989D01*
X148508636Y-154981714D01*
X148463343Y-154861851D01*
X148464856Y-154861279D01*
X148452767Y-154800406D01*
X148461353Y-154764682D01*
X148520498Y-154617554D01*
X148544770Y-154447014D01*
X148544927Y-154432000D01*
X148544432Y-154427908D01*
X148525145Y-154268530D01*
X148525144Y-154268527D01*
X148524232Y-154260989D01*
X148510291Y-154224095D01*
X148504923Y-154153301D01*
X148511249Y-154132562D01*
X148517665Y-154116601D01*
X148520498Y-154109554D01*
X148544770Y-153939014D01*
X148544927Y-153924000D01*
X148544145Y-153917540D01*
X148525145Y-153760530D01*
X148525144Y-153760527D01*
X148524232Y-153752989D01*
X148510291Y-153716095D01*
X148504923Y-153645301D01*
X148511249Y-153624562D01*
X148517665Y-153608601D01*
X148520498Y-153601554D01*
X148544770Y-153431014D01*
X148544927Y-153416000D01*
X148544424Y-153411841D01*
X148525145Y-153252530D01*
X148525144Y-153252527D01*
X148524232Y-153244989D01*
X148519883Y-153233478D01*
X148466027Y-153090954D01*
X148463343Y-153083851D01*
X148400253Y-152992054D01*
X148370077Y-152948147D01*
X148370076Y-152948145D01*
X148365775Y-152941888D01*
X148344592Y-152923014D01*
X148310862Y-152892962D01*
X148237160Y-152827296D01*
X148230445Y-152823740D01*
X148226384Y-152820918D01*
X148181863Y-152765616D01*
X148174308Y-152695023D01*
X148206118Y-152631551D01*
X148223604Y-152616716D01*
X148224741Y-152616144D01*
X148279687Y-152569216D01*
X148349954Y-152509203D01*
X148349956Y-152509200D01*
X148355728Y-152504271D01*
X148456248Y-152364382D01*
X148520498Y-152204554D01*
X148544770Y-152034014D01*
X148544927Y-152019000D01*
X148544019Y-152011492D01*
X148525145Y-151855532D01*
X148525145Y-151855530D01*
X148524232Y-151847989D01*
X148508263Y-151805727D01*
X148502895Y-151734937D01*
X148509222Y-151714194D01*
X148514447Y-151701198D01*
X148514448Y-151701195D01*
X148517279Y-151694152D01*
X148541551Y-151523612D01*
X148541635Y-151515562D01*
X148541665Y-151512718D01*
X148541665Y-151512717D01*
X148541708Y-151508598D01*
X148540828Y-151501324D01*
X148521926Y-151345128D01*
X148521925Y-151345125D01*
X148521013Y-151337587D01*
X148515678Y-151323467D01*
X148507107Y-151300784D01*
X148501739Y-151229991D01*
X148508065Y-151209253D01*
X148514445Y-151193381D01*
X148514447Y-151193375D01*
X148517279Y-151186329D01*
X148541551Y-151015789D01*
X148541708Y-151000775D01*
X148541069Y-150995492D01*
X148521926Y-150837305D01*
X148521925Y-150837302D01*
X148521013Y-150829764D01*
X148516430Y-150817634D01*
X148462808Y-150675729D01*
X148460124Y-150668626D01*
X148444083Y-150645286D01*
X148366858Y-150532922D01*
X148366857Y-150532920D01*
X148362556Y-150526663D01*
X148292501Y-150464246D01*
X148239613Y-150417124D01*
X148239610Y-150417122D01*
X148233941Y-150412071D01*
X148225911Y-150407819D01*
X148088419Y-150335021D01*
X148088420Y-150335021D01*
X148081705Y-150331466D01*
X147914636Y-150289501D01*
X147907038Y-150289461D01*
X147907036Y-150289461D01*
X147834128Y-150289079D01*
X147742379Y-150288599D01*
X147734999Y-150290371D01*
X147734997Y-150290371D01*
X147582260Y-150327040D01*
X147582258Y-150327041D01*
X147574880Y-150328812D01*
X147421808Y-150407819D01*
X147416086Y-150412811D01*
X147416084Y-150412812D01*
X147363320Y-150458841D01*
X147292000Y-150521057D01*
X147192951Y-150661991D01*
X147130378Y-150822483D01*
X147129387Y-150830010D01*
X147112374Y-150959235D01*
X147107893Y-150993267D01*
X147110625Y-151018014D01*
X147125097Y-151149094D01*
X147126796Y-151164486D01*
X147143470Y-151210050D01*
X147148097Y-151280894D01*
X147142537Y-151299120D01*
X147130378Y-151330306D01*
X147129387Y-151337833D01*
X147110466Y-151481549D01*
X147107893Y-151501090D01*
X142240000Y-151501090D01*
X142240000Y-148920134D01*
X147564199Y-148920134D01*
X147570954Y-148982316D01*
X147622084Y-149118705D01*
X147709438Y-149235261D01*
X147825994Y-149322615D01*
X147962383Y-149373745D01*
X148024565Y-149380500D01*
X150320833Y-149380500D01*
X150383015Y-149373745D01*
X150519404Y-149322615D01*
X150635960Y-149235261D01*
X150723314Y-149118705D01*
X150774444Y-148982316D01*
X150781199Y-148920134D01*
X152564199Y-148920134D01*
X152570954Y-148982316D01*
X152622084Y-149118705D01*
X152709438Y-149235261D01*
X152825994Y-149322615D01*
X152962383Y-149373745D01*
X153024565Y-149380500D01*
X155320833Y-149380500D01*
X155383015Y-149373745D01*
X155519404Y-149322615D01*
X155635960Y-149235261D01*
X155723314Y-149118705D01*
X155774444Y-148982316D01*
X155781199Y-148920134D01*
X157435500Y-148920134D01*
X157442255Y-148982316D01*
X157493385Y-149118705D01*
X157580739Y-149235261D01*
X157697295Y-149322615D01*
X157833684Y-149373745D01*
X157895866Y-149380500D01*
X160192134Y-149380500D01*
X160254316Y-149373745D01*
X160390705Y-149322615D01*
X160507261Y-149235261D01*
X160594615Y-149118705D01*
X160645745Y-148982316D01*
X160652500Y-148920134D01*
X162435500Y-148920134D01*
X162442255Y-148982316D01*
X162493385Y-149118705D01*
X162580739Y-149235261D01*
X162697295Y-149322615D01*
X162833684Y-149373745D01*
X162895866Y-149380500D01*
X165192134Y-149380500D01*
X165254316Y-149373745D01*
X165390705Y-149322615D01*
X165507261Y-149235261D01*
X165594615Y-149118705D01*
X165645745Y-148982316D01*
X165652500Y-148920134D01*
X165652500Y-146623866D01*
X165645745Y-146561684D01*
X165594615Y-146425295D01*
X165507261Y-146308739D01*
X165390705Y-146221385D01*
X165254316Y-146170255D01*
X165192134Y-146163500D01*
X162895866Y-146163500D01*
X162833684Y-146170255D01*
X162697295Y-146221385D01*
X162580739Y-146308739D01*
X162493385Y-146425295D01*
X162442255Y-146561684D01*
X162435500Y-146623866D01*
X162435500Y-148920134D01*
X160652500Y-148920134D01*
X160652500Y-146623866D01*
X160645745Y-146561684D01*
X160594615Y-146425295D01*
X160507261Y-146308739D01*
X160390705Y-146221385D01*
X160254316Y-146170255D01*
X160192134Y-146163500D01*
X157895866Y-146163500D01*
X157833684Y-146170255D01*
X157697295Y-146221385D01*
X157580739Y-146308739D01*
X157493385Y-146425295D01*
X157442255Y-146561684D01*
X157435500Y-146623866D01*
X157435500Y-148920134D01*
X155781199Y-148920134D01*
X155781199Y-146623866D01*
X155774444Y-146561684D01*
X155723314Y-146425295D01*
X155635960Y-146308739D01*
X155519404Y-146221385D01*
X155383015Y-146170255D01*
X155320833Y-146163500D01*
X153024565Y-146163500D01*
X152962383Y-146170255D01*
X152825994Y-146221385D01*
X152709438Y-146308739D01*
X152622084Y-146425295D01*
X152570954Y-146561684D01*
X152564199Y-146623866D01*
X152564199Y-148920134D01*
X150781199Y-148920134D01*
X150781199Y-146623866D01*
X150774444Y-146561684D01*
X150723314Y-146425295D01*
X150635960Y-146308739D01*
X150519404Y-146221385D01*
X150383015Y-146170255D01*
X150320833Y-146163500D01*
X148024565Y-146163500D01*
X147962383Y-146170255D01*
X147825994Y-146221385D01*
X147709438Y-146308739D01*
X147622084Y-146425295D01*
X147570954Y-146561684D01*
X147564199Y-146623866D01*
X147564199Y-148920134D01*
X142240000Y-148920134D01*
X142240000Y-141278568D01*
X142709382Y-141278568D01*
X142738208Y-141527699D01*
X142739587Y-141532573D01*
X142739588Y-141532577D01*
X142778526Y-141670181D01*
X142806494Y-141769017D01*
X142808628Y-141773592D01*
X142808630Y-141773599D01*
X142905957Y-141982316D01*
X142912484Y-141996313D01*
X142915326Y-142000494D01*
X142915326Y-142000495D01*
X143050605Y-142199552D01*
X143050608Y-142199556D01*
X143053451Y-142203739D01*
X143056928Y-142207416D01*
X143056929Y-142207417D01*
X143157238Y-142313491D01*
X143225767Y-142385959D01*
X143229793Y-142389037D01*
X143229794Y-142389038D01*
X143420981Y-142535212D01*
X143420985Y-142535215D01*
X143425001Y-142538285D01*
X143646026Y-142656797D01*
X143650807Y-142658443D01*
X143650811Y-142658445D01*
X143876538Y-142736169D01*
X143883156Y-142738448D01*
X143986689Y-142756331D01*
X144126380Y-142780460D01*
X144126386Y-142780461D01*
X144130290Y-142781135D01*
X144134251Y-142781315D01*
X144134252Y-142781315D01*
X144158931Y-142782436D01*
X144158950Y-142782436D01*
X144160350Y-142782500D01*
X144335015Y-142782500D01*
X144337523Y-142782298D01*
X144337528Y-142782298D01*
X144516944Y-142767863D01*
X144516949Y-142767862D01*
X144521985Y-142767457D01*
X144526893Y-142766252D01*
X144526896Y-142766251D01*
X144760625Y-142708841D01*
X144765539Y-142707634D01*
X144770191Y-142705659D01*
X144770195Y-142705658D01*
X144991741Y-142611617D01*
X144991742Y-142611617D01*
X144996396Y-142609641D01*
X145208615Y-142476000D01*
X145396738Y-142310147D01*
X145555924Y-142116351D01*
X145682078Y-141899596D01*
X145771955Y-141665461D01*
X145823241Y-141419967D01*
X145834618Y-141169432D01*
X145805792Y-140920301D01*
X145766810Y-140782539D01*
X145738884Y-140683852D01*
X145738883Y-140683850D01*
X145737506Y-140678983D01*
X145735372Y-140674408D01*
X145735370Y-140674401D01*
X145633653Y-140456269D01*
X145633651Y-140456265D01*
X145631516Y-140451687D01*
X145622882Y-140438983D01*
X145493395Y-140248448D01*
X145493392Y-140248444D01*
X145490549Y-140244261D01*
X145389925Y-140137853D01*
X145321713Y-140065721D01*
X145318233Y-140062041D01*
X145314206Y-140058962D01*
X145123019Y-139912788D01*
X145123015Y-139912785D01*
X145118999Y-139909715D01*
X144897974Y-139791203D01*
X144893193Y-139789557D01*
X144893189Y-139789555D01*
X144665633Y-139711201D01*
X144660844Y-139709552D01*
X144557311Y-139691669D01*
X144417620Y-139667540D01*
X144417614Y-139667539D01*
X144413710Y-139666865D01*
X144409749Y-139666685D01*
X144409748Y-139666685D01*
X144385069Y-139665564D01*
X144385050Y-139665564D01*
X144383650Y-139665500D01*
X144208985Y-139665500D01*
X144206477Y-139665702D01*
X144206472Y-139665702D01*
X144027056Y-139680137D01*
X144027051Y-139680138D01*
X144022015Y-139680543D01*
X144017107Y-139681748D01*
X144017104Y-139681749D01*
X143785326Y-139738680D01*
X143778461Y-139740366D01*
X143773809Y-139742341D01*
X143773805Y-139742342D01*
X143653596Y-139793368D01*
X143547604Y-139838359D01*
X143335385Y-139972000D01*
X143147262Y-140137853D01*
X142988076Y-140331649D01*
X142861922Y-140548404D01*
X142772045Y-140782539D01*
X142720759Y-141028033D01*
X142709382Y-141278568D01*
X142240000Y-141278568D01*
X142240000Y-141273328D01*
X142241500Y-141253943D01*
X142243805Y-141239142D01*
X142243805Y-141239139D01*
X142245186Y-141230270D01*
X142243059Y-141214001D01*
X142242266Y-141189433D01*
X142256844Y-140967015D01*
X142258995Y-140950674D01*
X142307629Y-140706176D01*
X142311895Y-140690257D01*
X142392022Y-140454210D01*
X142398329Y-140438983D01*
X142508584Y-140215408D01*
X142516825Y-140201135D01*
X142655316Y-139993867D01*
X142665349Y-139980790D01*
X142670125Y-139975345D01*
X142829714Y-139793368D01*
X142841368Y-139781714D01*
X142957194Y-139680137D01*
X143028794Y-139617346D01*
X143041867Y-139607316D01*
X143249135Y-139468825D01*
X143263408Y-139460584D01*
X143486983Y-139350329D01*
X143502210Y-139344022D01*
X143738257Y-139263895D01*
X143754176Y-139259629D01*
X143998673Y-139210995D01*
X144015014Y-139208844D01*
X144230268Y-139194736D01*
X144253304Y-139195761D01*
X144256854Y-139195804D01*
X144265730Y-139197186D01*
X144297252Y-139193064D01*
X144313589Y-139192000D01*
X147545038Y-139192000D01*
X147613159Y-139212002D01*
G37*
%TD.AperFunction*%
%TD*%
M02*
