%TF.GenerationSoftware,KiCad,Pcbnew,(6.0.0)*%
%TF.CreationDate,2022-02-23T23:52:20-08:00*%
%TF.ProjectId,motor-controller,6d6f746f-722d-4636-9f6e-74726f6c6c65,rev?*%
%TF.SameCoordinates,Original*%
%TF.FileFunction,Legend,Bot*%
%TF.FilePolarity,Positive*%
%FSLAX46Y46*%
G04 Gerber Fmt 4.6, Leading zero omitted, Abs format (unit mm)*
G04 Created by KiCad (PCBNEW (6.0.0)) date 2022-02-23 23:52:20*
%MOMM*%
%LPD*%
G01*
G04 APERTURE LIST*
%ADD10C,0.150000*%
%ADD11R,1.700000X1.700000*%
%ADD12O,1.700000X1.700000*%
%ADD13C,2.100000*%
%ADD14R,2.200000X2.200000*%
G04 APERTURE END LIST*
D10*
X153198285Y-170785608D02*
X153089428Y-170821894D01*
X152908000Y-170821894D01*
X152835428Y-170785608D01*
X152799142Y-170749322D01*
X152762857Y-170676751D01*
X152762857Y-170604180D01*
X152799142Y-170531608D01*
X152835428Y-170495322D01*
X152908000Y-170459037D01*
X153053142Y-170422751D01*
X153125714Y-170386465D01*
X153162000Y-170350180D01*
X153198285Y-170277608D01*
X153198285Y-170205037D01*
X153162000Y-170132465D01*
X153125714Y-170096180D01*
X153053142Y-170059894D01*
X152871714Y-170059894D01*
X152762857Y-170096180D01*
X152109714Y-170821894D02*
X152109714Y-170422751D01*
X152146000Y-170350180D01*
X152218571Y-170313894D01*
X152363714Y-170313894D01*
X152436285Y-170350180D01*
X152109714Y-170785608D02*
X152182285Y-170821894D01*
X152363714Y-170821894D01*
X152436285Y-170785608D01*
X152472571Y-170713037D01*
X152472571Y-170640465D01*
X152436285Y-170567894D01*
X152363714Y-170531608D01*
X152182285Y-170531608D01*
X152109714Y-170495322D01*
X151746857Y-170821894D02*
X151746857Y-170059894D01*
X151420285Y-170821894D02*
X151420285Y-170422751D01*
X151456571Y-170350180D01*
X151529142Y-170313894D01*
X151638000Y-170313894D01*
X151710571Y-170350180D01*
X151746857Y-170386465D01*
X151057428Y-170821894D02*
X151057428Y-170313894D01*
X151057428Y-170059894D02*
X151093714Y-170096180D01*
X151057428Y-170132465D01*
X151021142Y-170096180D01*
X151057428Y-170059894D01*
X151057428Y-170132465D01*
X150585714Y-170821894D02*
X150658285Y-170785608D01*
X150694571Y-170713037D01*
X150694571Y-170059894D01*
X149714857Y-170821894D02*
X149714857Y-170059894D01*
X149279428Y-170821894D02*
X149606000Y-170386465D01*
X149279428Y-170059894D02*
X149714857Y-170495322D01*
X148626285Y-170821894D02*
X148626285Y-170422751D01*
X148662571Y-170350180D01*
X148735142Y-170313894D01*
X148880285Y-170313894D01*
X148952857Y-170350180D01*
X148626285Y-170785608D02*
X148698857Y-170821894D01*
X148880285Y-170821894D01*
X148952857Y-170785608D01*
X148989142Y-170713037D01*
X148989142Y-170640465D01*
X148952857Y-170567894D01*
X148880285Y-170531608D01*
X148698857Y-170531608D01*
X148626285Y-170495322D01*
X148154571Y-170821894D02*
X148227142Y-170785608D01*
X148263428Y-170713037D01*
X148263428Y-170059894D01*
X147574000Y-170785608D02*
X147646571Y-170821894D01*
X147791714Y-170821894D01*
X147864285Y-170785608D01*
X147900571Y-170713037D01*
X147900571Y-170422751D01*
X147864285Y-170350180D01*
X147791714Y-170313894D01*
X147646571Y-170313894D01*
X147574000Y-170350180D01*
X147537714Y-170422751D01*
X147537714Y-170495322D01*
X147900571Y-170567894D01*
X153815142Y-172012428D02*
X153706285Y-172048714D01*
X153524857Y-172048714D01*
X153452285Y-172012428D01*
X153416000Y-171976142D01*
X153379714Y-171903571D01*
X153379714Y-171831000D01*
X153416000Y-171758428D01*
X153452285Y-171722142D01*
X153524857Y-171685857D01*
X153670000Y-171649571D01*
X153742571Y-171613285D01*
X153778857Y-171577000D01*
X153815142Y-171504428D01*
X153815142Y-171431857D01*
X153778857Y-171359285D01*
X153742571Y-171323000D01*
X153670000Y-171286714D01*
X153488571Y-171286714D01*
X153379714Y-171323000D01*
X152726571Y-172048714D02*
X152726571Y-171649571D01*
X152762857Y-171577000D01*
X152835428Y-171540714D01*
X152980571Y-171540714D01*
X153053142Y-171577000D01*
X152726571Y-172012428D02*
X152799142Y-172048714D01*
X152980571Y-172048714D01*
X153053142Y-172012428D01*
X153089428Y-171939857D01*
X153089428Y-171867285D01*
X153053142Y-171794714D01*
X152980571Y-171758428D01*
X152799142Y-171758428D01*
X152726571Y-171722142D01*
X152363714Y-172048714D02*
X152363714Y-171540714D01*
X152363714Y-171613285D02*
X152327428Y-171577000D01*
X152254857Y-171540714D01*
X152146000Y-171540714D01*
X152073428Y-171577000D01*
X152037142Y-171649571D01*
X152037142Y-172048714D01*
X152037142Y-171649571D02*
X152000857Y-171577000D01*
X151928285Y-171540714D01*
X151819428Y-171540714D01*
X151746857Y-171577000D01*
X151710571Y-171649571D01*
X151710571Y-172048714D01*
X151384000Y-172012428D02*
X151311428Y-172048714D01*
X151166285Y-172048714D01*
X151093714Y-172012428D01*
X151057428Y-171939857D01*
X151057428Y-171903571D01*
X151093714Y-171831000D01*
X151166285Y-171794714D01*
X151275142Y-171794714D01*
X151347714Y-171758428D01*
X151384000Y-171685857D01*
X151384000Y-171649571D01*
X151347714Y-171577000D01*
X151275142Y-171540714D01*
X151166285Y-171540714D01*
X151093714Y-171577000D01*
X150622000Y-172048714D02*
X150694571Y-172012428D01*
X150730857Y-171976142D01*
X150767142Y-171903571D01*
X150767142Y-171685857D01*
X150730857Y-171613285D01*
X150694571Y-171577000D01*
X150622000Y-171540714D01*
X150513142Y-171540714D01*
X150440571Y-171577000D01*
X150404285Y-171613285D01*
X150368000Y-171685857D01*
X150368000Y-171903571D01*
X150404285Y-171976142D01*
X150440571Y-172012428D01*
X150513142Y-172048714D01*
X150622000Y-172048714D01*
X150041428Y-171540714D02*
X150041428Y-172048714D01*
X150041428Y-171613285D02*
X150005142Y-171577000D01*
X149932571Y-171540714D01*
X149823714Y-171540714D01*
X149751142Y-171577000D01*
X149714857Y-171649571D01*
X149714857Y-172048714D01*
X148771428Y-172048714D02*
X148771428Y-171286714D01*
X148771428Y-171649571D02*
X148336000Y-171649571D01*
X148336000Y-172048714D02*
X148336000Y-171286714D01*
X147646571Y-171540714D02*
X147646571Y-172048714D01*
X147973142Y-171540714D02*
X147973142Y-171939857D01*
X147936857Y-172012428D01*
X147864285Y-172048714D01*
X147755428Y-172048714D01*
X147682857Y-172012428D01*
X147646571Y-171976142D01*
X146957142Y-172048714D02*
X146957142Y-171649571D01*
X146993428Y-171577000D01*
X147066000Y-171540714D01*
X147211142Y-171540714D01*
X147283714Y-171577000D01*
X146957142Y-172012428D02*
X147029714Y-172048714D01*
X147211142Y-172048714D01*
X147283714Y-172012428D01*
X147320000Y-171939857D01*
X147320000Y-171867285D01*
X147283714Y-171794714D01*
X147211142Y-171758428D01*
X147029714Y-171758428D01*
X146957142Y-171722142D01*
X155139571Y-173275534D02*
X155393571Y-172912677D01*
X155575000Y-173275534D02*
X155575000Y-172513534D01*
X155284714Y-172513534D01*
X155212142Y-172549820D01*
X155175857Y-172586105D01*
X155139571Y-172658677D01*
X155139571Y-172767534D01*
X155175857Y-172840105D01*
X155212142Y-172876391D01*
X155284714Y-172912677D01*
X155575000Y-172912677D01*
X154522714Y-173239248D02*
X154595285Y-173275534D01*
X154740428Y-173275534D01*
X154813000Y-173239248D01*
X154849285Y-173166677D01*
X154849285Y-172876391D01*
X154813000Y-172803820D01*
X154740428Y-172767534D01*
X154595285Y-172767534D01*
X154522714Y-172803820D01*
X154486428Y-172876391D01*
X154486428Y-172948962D01*
X154849285Y-173021534D01*
X154232428Y-172767534D02*
X154051000Y-173275534D01*
X153869571Y-172767534D01*
X152599571Y-173275534D02*
X153035000Y-173275534D01*
X152817285Y-173275534D02*
X152817285Y-172513534D01*
X152889857Y-172622391D01*
X152962428Y-172694962D01*
X153035000Y-172731248D01*
X152273000Y-173202962D02*
X152236714Y-173239248D01*
X152273000Y-173275534D01*
X152309285Y-173239248D01*
X152273000Y-173202962D01*
X152273000Y-173275534D01*
X151765000Y-172513534D02*
X151692428Y-172513534D01*
X151619857Y-172549820D01*
X151583571Y-172586105D01*
X151547285Y-172658677D01*
X151511000Y-172803820D01*
X151511000Y-172985248D01*
X151547285Y-173130391D01*
X151583571Y-173202962D01*
X151619857Y-173239248D01*
X151692428Y-173275534D01*
X151765000Y-173275534D01*
X151837571Y-173239248D01*
X151873857Y-173202962D01*
X151910142Y-173130391D01*
X151946428Y-172985248D01*
X151946428Y-172803820D01*
X151910142Y-172658677D01*
X151873857Y-172586105D01*
X151837571Y-172549820D01*
X151765000Y-172513534D01*
X150422428Y-173529534D02*
X150422428Y-172440962D01*
X149333857Y-172586105D02*
X149297571Y-172549820D01*
X149225000Y-172513534D01*
X149043571Y-172513534D01*
X148971000Y-172549820D01*
X148934714Y-172586105D01*
X148898428Y-172658677D01*
X148898428Y-172731248D01*
X148934714Y-172840105D01*
X149370142Y-173275534D01*
X148898428Y-173275534D01*
X148027571Y-172477248D02*
X148680714Y-173456962D01*
X147737285Y-173275534D02*
X147592142Y-173275534D01*
X147519571Y-173239248D01*
X147483285Y-173202962D01*
X147410714Y-173094105D01*
X147374428Y-172948962D01*
X147374428Y-172658677D01*
X147410714Y-172586105D01*
X147447000Y-172549820D01*
X147519571Y-172513534D01*
X147664714Y-172513534D01*
X147737285Y-172549820D01*
X147773571Y-172586105D01*
X147809857Y-172658677D01*
X147809857Y-172840105D01*
X147773571Y-172912677D01*
X147737285Y-172948962D01*
X147664714Y-172985248D01*
X147519571Y-172985248D01*
X147447000Y-172948962D01*
X147410714Y-172912677D01*
X147374428Y-172840105D01*
X146503571Y-172477248D02*
X147156714Y-173456962D01*
X146285857Y-172586105D02*
X146249571Y-172549820D01*
X146177000Y-172513534D01*
X145995571Y-172513534D01*
X145923000Y-172549820D01*
X145886714Y-172586105D01*
X145850428Y-172658677D01*
X145850428Y-172731248D01*
X145886714Y-172840105D01*
X146322142Y-173275534D01*
X145850428Y-173275534D01*
X145560142Y-172586105D02*
X145523857Y-172549820D01*
X145451285Y-172513534D01*
X145269857Y-172513534D01*
X145197285Y-172549820D01*
X145161000Y-172586105D01*
X145124714Y-172658677D01*
X145124714Y-172731248D01*
X145161000Y-172840105D01*
X145596428Y-173275534D01*
X145124714Y-173275534D01*
%TO.C,H5*%
G36*
X150190910Y-167370909D02*
G01*
X150028897Y-167370909D01*
X150028897Y-167883949D01*
X149884885Y-167883949D01*
X149884885Y-167370909D01*
X149722873Y-167370909D01*
X149722873Y-167253899D01*
X150190910Y-167253899D01*
X150190910Y-167370909D01*
G37*
G36*
X157943637Y-167250216D02*
G01*
X158009959Y-167257519D01*
X158064087Y-167276478D01*
X158105238Y-167306542D01*
X158132633Y-167347161D01*
X158145490Y-167397784D01*
X158147009Y-167427304D01*
X158141831Y-167473765D01*
X158125187Y-167514086D01*
X158095503Y-167550536D01*
X158051206Y-167585382D01*
X157990723Y-167620895D01*
X157946204Y-167645979D01*
X157910799Y-167670546D01*
X157889636Y-167692753D01*
X157881179Y-167714267D01*
X157883893Y-167736755D01*
X157890999Y-167750519D01*
X157915085Y-167769278D01*
X157951388Y-167778556D01*
X157997825Y-167778249D01*
X158052316Y-167768248D01*
X158112777Y-167748448D01*
X158156537Y-167731200D01*
X158156537Y-167793542D01*
X158156536Y-167794603D01*
X158155391Y-167826223D01*
X158152508Y-167849999D01*
X158148494Y-167860855D01*
X158141404Y-167863869D01*
X158120389Y-167870747D01*
X158092239Y-167878796D01*
X158049571Y-167887234D01*
X157990352Y-167891765D01*
X157932263Y-167889440D01*
X157883040Y-167880207D01*
X157869549Y-167875779D01*
X157817581Y-167849380D01*
X157780264Y-167812607D01*
X157757757Y-167765667D01*
X157750219Y-167708766D01*
X157752258Y-167677284D01*
X157762286Y-167640362D01*
X157782352Y-167607367D01*
X157814300Y-167576166D01*
X157859968Y-167544626D01*
X157921198Y-167510614D01*
X157950263Y-167495081D01*
X157982250Y-167475489D01*
X158002026Y-167458909D01*
X158012370Y-167443289D01*
X158016233Y-167431674D01*
X158016083Y-167403653D01*
X158001655Y-167382288D01*
X157975031Y-167368368D01*
X157938292Y-167362679D01*
X157893520Y-167366009D01*
X157842799Y-167379146D01*
X157794583Y-167395796D01*
X157772571Y-167346023D01*
X157763392Y-167322771D01*
X157757312Y-167300723D01*
X157757782Y-167289682D01*
X157774268Y-167279820D01*
X157806655Y-167268524D01*
X157847795Y-167259062D01*
X157892608Y-167252561D01*
X157936019Y-167250148D01*
X157943637Y-167250216D01*
G37*
G36*
X160367758Y-167883949D02*
G01*
X160298963Y-167883172D01*
X160243248Y-167880425D01*
X160199521Y-167875183D01*
X160164770Y-167866924D01*
X160135980Y-167855125D01*
X160110139Y-167839264D01*
X160107241Y-167837138D01*
X160074771Y-167801830D01*
X160054003Y-167755528D01*
X160046700Y-167702043D01*
X160047336Y-167684935D01*
X160185666Y-167684935D01*
X160189714Y-167717678D01*
X160207273Y-167745875D01*
X160236035Y-167764181D01*
X160243154Y-167766301D01*
X160270518Y-167771373D01*
X160302969Y-167774512D01*
X160334795Y-167775479D01*
X160360280Y-167774035D01*
X160373711Y-167769940D01*
X160374658Y-167768053D01*
X160377237Y-167752003D01*
X160379036Y-167724086D01*
X160379712Y-167688934D01*
X160379712Y-167613928D01*
X160314457Y-167614060D01*
X160269369Y-167616221D01*
X160233194Y-167624155D01*
X160208461Y-167639102D01*
X160192049Y-167662294D01*
X160185666Y-167684935D01*
X160047336Y-167684935D01*
X160047438Y-167682189D01*
X160057809Y-167634342D01*
X160081141Y-167597895D01*
X160118348Y-167571174D01*
X160132976Y-167563385D01*
X160146917Y-167554416D01*
X160147914Y-167550923D01*
X160143570Y-167549773D01*
X160127046Y-167540019D01*
X160106156Y-167523561D01*
X160097505Y-167515126D01*
X160073385Y-167477270D01*
X160065059Y-167444454D01*
X160200725Y-167444454D01*
X160212953Y-167473366D01*
X160240232Y-167493011D01*
X160256575Y-167498038D01*
X160289862Y-167503711D01*
X160325418Y-167505919D01*
X160379712Y-167505919D01*
X160379712Y-167370909D01*
X160317130Y-167370909D01*
X160281026Y-167372201D01*
X160240762Y-167379143D01*
X160215229Y-167392553D01*
X160203006Y-167412955D01*
X160200725Y-167444454D01*
X160065059Y-167444454D01*
X160062137Y-167432939D01*
X160063771Y-167386887D01*
X160078297Y-167343870D01*
X160105724Y-167308642D01*
X160114125Y-167301618D01*
X160136715Y-167286557D01*
X160162959Y-167275421D01*
X160195718Y-167267653D01*
X160237854Y-167262700D01*
X160292231Y-167260005D01*
X160361710Y-167259015D01*
X160510222Y-167258400D01*
X160512095Y-167505919D01*
X160512589Y-167571174D01*
X160512913Y-167613928D01*
X160514956Y-167883949D01*
X160367758Y-167883949D01*
G37*
G36*
X163493812Y-164813966D02*
G01*
X163489507Y-164840747D01*
X163489136Y-164857930D01*
X163492750Y-164870161D01*
X163500403Y-164882083D01*
X163513859Y-164897662D01*
X163523981Y-164904431D01*
X163524887Y-164902293D01*
X163526442Y-164885588D01*
X163527613Y-164854105D01*
X163528368Y-164809997D01*
X163528680Y-164755416D01*
X163528517Y-164692513D01*
X163527851Y-164623442D01*
X163526821Y-164548695D01*
X163525706Y-164484083D01*
X163524424Y-164433131D01*
X163522819Y-164393596D01*
X163520734Y-164363234D01*
X163518011Y-164339802D01*
X163514495Y-164321055D01*
X163510028Y-164304752D01*
X163504454Y-164288647D01*
X163494550Y-164263380D01*
X163481632Y-164234116D01*
X163471332Y-164214708D01*
X163462367Y-164199777D01*
X163457954Y-164189475D01*
X163466000Y-164188038D01*
X163490158Y-164186800D01*
X163528492Y-164185811D01*
X163579053Y-164185062D01*
X163639894Y-164184544D01*
X163709066Y-164184247D01*
X163784621Y-164184161D01*
X163864611Y-164184278D01*
X163947086Y-164184587D01*
X164030099Y-164185079D01*
X164111702Y-164185744D01*
X164189946Y-164186574D01*
X164262883Y-164187558D01*
X164328565Y-164188687D01*
X164385042Y-164189952D01*
X164430368Y-164191343D01*
X164462593Y-164192850D01*
X164479770Y-164194464D01*
X164519641Y-164204216D01*
X164586309Y-164233519D01*
X164641787Y-164276420D01*
X164685241Y-164331984D01*
X164715836Y-164399277D01*
X164732737Y-164477367D01*
X164735226Y-164494245D01*
X164741837Y-164518131D01*
X164749863Y-164526685D01*
X164767013Y-164530076D01*
X164797329Y-164541006D01*
X164835118Y-164557564D01*
X164876168Y-164577775D01*
X164916271Y-164599660D01*
X164951215Y-164621244D01*
X165030887Y-164683826D01*
X165105628Y-164763716D01*
X165167272Y-164854435D01*
X165214521Y-164954049D01*
X165246078Y-165060624D01*
X165252768Y-165100666D01*
X165258013Y-165180961D01*
X165254787Y-165265532D01*
X165243504Y-165347458D01*
X165224579Y-165419819D01*
X165203638Y-165474157D01*
X165163343Y-165553734D01*
X165111885Y-165628937D01*
X165046242Y-165704594D01*
X164970073Y-165784634D01*
X164970249Y-165945471D01*
X164970426Y-166106309D01*
X165003702Y-166065806D01*
X165030965Y-166033315D01*
X165121930Y-165935263D01*
X165212688Y-165853874D01*
X165304529Y-165788190D01*
X165398741Y-165737255D01*
X165496615Y-165700112D01*
X165503479Y-165698030D01*
X165534615Y-165689191D01*
X165562464Y-165682967D01*
X165591283Y-165678887D01*
X165625329Y-165676484D01*
X165668860Y-165675288D01*
X165726133Y-165674830D01*
X165779804Y-165674863D01*
X165825109Y-165675733D01*
X165860318Y-165677852D01*
X165889559Y-165681609D01*
X165916960Y-165687392D01*
X165946650Y-165695590D01*
X166018797Y-165720286D01*
X166125339Y-165771228D01*
X166222535Y-165837145D01*
X166311959Y-165919001D01*
X166384962Y-166006108D01*
X166448220Y-166106644D01*
X166454213Y-166120069D01*
X166495598Y-166212776D01*
X166527003Y-166322940D01*
X166542343Y-166435573D01*
X166541524Y-166549110D01*
X166524456Y-166661989D01*
X166491045Y-166772645D01*
X166441198Y-166879514D01*
X166374823Y-166981033D01*
X166349636Y-167012599D01*
X166272177Y-167092250D01*
X166184143Y-167158554D01*
X166083233Y-167213344D01*
X166081528Y-167214126D01*
X166047748Y-167229212D01*
X166016181Y-167242197D01*
X165983547Y-167254147D01*
X165946562Y-167266129D01*
X165901944Y-167279208D01*
X165846410Y-167294452D01*
X165776677Y-167312926D01*
X165740935Y-167322642D01*
X165685008Y-167339063D01*
X165632806Y-167355741D01*
X165588922Y-167371187D01*
X165557947Y-167383910D01*
X165554882Y-167385375D01*
X165504151Y-167414150D01*
X165457856Y-167448331D01*
X165420261Y-167484376D01*
X165395630Y-167518743D01*
X165385245Y-167548836D01*
X165382072Y-167595484D01*
X165390101Y-167644116D01*
X165408199Y-167688861D01*
X165435232Y-167723843D01*
X165445393Y-167732105D01*
X165488964Y-167754369D01*
X165540063Y-167765039D01*
X165593302Y-167763465D01*
X165643293Y-167748994D01*
X165662356Y-167739386D01*
X165694825Y-167721397D01*
X165733575Y-167698796D01*
X165773803Y-167674332D01*
X165803501Y-167656129D01*
X165875956Y-167614796D01*
X165940325Y-167583787D01*
X166000469Y-167561850D01*
X166060250Y-167547731D01*
X166123529Y-167540177D01*
X166194170Y-167537936D01*
X166258565Y-167540431D01*
X166351657Y-167555052D01*
X166435475Y-167583515D01*
X166512323Y-167626691D01*
X166584506Y-167685451D01*
X166591028Y-167691709D01*
X166664437Y-167775336D01*
X166728130Y-167873934D01*
X166781989Y-167987257D01*
X166825898Y-168115061D01*
X166859738Y-168257100D01*
X166864805Y-168284858D01*
X166872982Y-168336008D01*
X166879526Y-168384799D01*
X166883357Y-168423613D01*
X166883435Y-168424760D01*
X166886244Y-168462746D01*
X166889209Y-168497584D01*
X166891700Y-168521864D01*
X166893057Y-168535659D01*
X166892091Y-168546232D01*
X166886844Y-168539957D01*
X166877202Y-168516651D01*
X166863051Y-168476131D01*
X166833357Y-168397300D01*
X166791386Y-168306237D01*
X166743157Y-168218239D01*
X166690882Y-168136995D01*
X166636773Y-168066191D01*
X166583043Y-168009514D01*
X166543622Y-167976199D01*
X166471324Y-167929495D01*
X166398177Y-167900710D01*
X166324047Y-167889799D01*
X166248797Y-167896716D01*
X166236752Y-167899345D01*
X166201988Y-167908767D01*
X166168868Y-167921385D01*
X166134313Y-167938883D01*
X166095243Y-167962944D01*
X166048578Y-167995253D01*
X165991238Y-168037491D01*
X165958529Y-168061787D01*
X165887699Y-168112199D01*
X165826247Y-168151946D01*
X165771560Y-168182236D01*
X165721023Y-168204275D01*
X165672024Y-168219273D01*
X165621949Y-168228435D01*
X165568183Y-168232971D01*
X165534329Y-168234109D01*
X165488963Y-168233186D01*
X165448173Y-168228215D01*
X165403803Y-168218478D01*
X165375629Y-168210772D01*
X165273516Y-168171910D01*
X165182186Y-168118870D01*
X165102234Y-168052129D01*
X165034258Y-167972163D01*
X164978855Y-167879449D01*
X164975655Y-167872896D01*
X164936070Y-167771408D01*
X164914375Y-167668533D01*
X164910592Y-167564826D01*
X164924745Y-167460838D01*
X164956857Y-167357124D01*
X164998196Y-167272055D01*
X165059750Y-167183231D01*
X165136197Y-167102884D01*
X165226628Y-167031825D01*
X165330134Y-166970865D01*
X165445807Y-166920815D01*
X165465900Y-166913875D01*
X165508306Y-166900405D01*
X165560299Y-166884847D01*
X165617105Y-166868617D01*
X165673952Y-166853130D01*
X165712915Y-166842488D01*
X165767283Y-166826643D01*
X165816933Y-166811087D01*
X165857614Y-166797168D01*
X165885073Y-166786233D01*
X165905505Y-166775882D01*
X165965494Y-166732840D01*
X166013463Y-166677253D01*
X166048253Y-166610706D01*
X166068704Y-166534786D01*
X166069084Y-166532372D01*
X166072139Y-166457835D01*
X166059158Y-166387190D01*
X166031927Y-166322171D01*
X165992233Y-166264510D01*
X165941859Y-166215939D01*
X165882593Y-166178192D01*
X165816220Y-166153001D01*
X165744526Y-166142099D01*
X165669296Y-166147219D01*
X165661110Y-166148747D01*
X165623736Y-166157577D01*
X165588433Y-166169741D01*
X165554143Y-166186321D01*
X165519807Y-166208402D01*
X165484369Y-166237067D01*
X165446770Y-166273397D01*
X165405951Y-166318477D01*
X165360854Y-166373389D01*
X165310422Y-166439217D01*
X165253596Y-166517044D01*
X165189318Y-166607952D01*
X165116530Y-166713025D01*
X164970465Y-166925373D01*
X164970269Y-167017920D01*
X164969031Y-167068112D01*
X164964219Y-167111905D01*
X164954700Y-167144870D01*
X164939342Y-167170733D01*
X164917013Y-167193219D01*
X164895556Y-167208406D01*
X164843383Y-167228947D01*
X164779478Y-167235848D01*
X164737395Y-167235898D01*
X164734475Y-167521670D01*
X164731554Y-167807443D01*
X164706315Y-167861447D01*
X164669941Y-167922677D01*
X164623336Y-167970356D01*
X164565463Y-168004692D01*
X164494843Y-168026841D01*
X164492872Y-168027194D01*
X164472835Y-168028987D01*
X164438167Y-168030622D01*
X164390787Y-168032093D01*
X164332615Y-168033393D01*
X164265570Y-168034517D01*
X164191572Y-168035458D01*
X164112540Y-168036210D01*
X164030393Y-168036767D01*
X163947051Y-168037122D01*
X163864434Y-168037269D01*
X163784461Y-168037201D01*
X163709051Y-168036914D01*
X163640123Y-168036400D01*
X163579598Y-168035653D01*
X163529395Y-168034666D01*
X163491432Y-168033435D01*
X163467630Y-168031952D01*
X163459909Y-168030210D01*
X163468433Y-168013339D01*
X163485185Y-167977906D01*
X163498591Y-167944493D01*
X163509020Y-167910596D01*
X163516843Y-167873715D01*
X163522428Y-167831347D01*
X163526145Y-167780989D01*
X163528363Y-167720141D01*
X163529452Y-167646299D01*
X163529782Y-167556963D01*
X163529960Y-167315483D01*
X163485924Y-167264440D01*
X163462001Y-167235101D01*
X163431176Y-167194009D01*
X163404917Y-167155746D01*
X163367947Y-167098096D01*
X163367947Y-167467090D01*
X163367946Y-167480705D01*
X163367826Y-167576996D01*
X163367385Y-167657274D01*
X163366450Y-167723301D01*
X163364846Y-167776837D01*
X163362399Y-167819645D01*
X163358936Y-167853486D01*
X163354282Y-167880122D01*
X163348264Y-167901313D01*
X163340708Y-167918822D01*
X163331439Y-167934411D01*
X163320284Y-167949840D01*
X163298458Y-167972022D01*
X163260290Y-167998479D01*
X163216639Y-168019702D01*
X163174432Y-168031797D01*
X163169637Y-168032176D01*
X163153835Y-168031445D01*
X163129063Y-168028563D01*
X163094360Y-168023356D01*
X163048767Y-168015648D01*
X162991324Y-168005262D01*
X162921070Y-167992024D01*
X162837046Y-167975757D01*
X162738292Y-167956286D01*
X162623847Y-167933435D01*
X162492751Y-167907028D01*
X162397908Y-167887773D01*
X162296272Y-167866940D01*
X162200662Y-167847137D01*
X162112531Y-167828674D01*
X162033332Y-167811863D01*
X161964519Y-167797015D01*
X161907545Y-167784441D01*
X161863865Y-167774453D01*
X161834931Y-167767360D01*
X161822198Y-167763476D01*
X161799410Y-167748143D01*
X161766770Y-167717743D01*
X161736258Y-167681235D01*
X161713266Y-167644508D01*
X161713104Y-167644184D01*
X161704567Y-167625412D01*
X161697408Y-167605138D01*
X161691522Y-167581712D01*
X161686805Y-167553484D01*
X161683153Y-167518806D01*
X161680461Y-167476027D01*
X161678624Y-167423498D01*
X161677540Y-167359569D01*
X161677103Y-167282590D01*
X161677210Y-167190912D01*
X161677755Y-167082886D01*
X161680314Y-166673354D01*
X161762248Y-166670783D01*
X161844182Y-166668213D01*
X161864675Y-166724787D01*
X161896569Y-166803038D01*
X161941055Y-166889595D01*
X161990959Y-166966455D01*
X162044739Y-167031545D01*
X162100850Y-167082794D01*
X162157748Y-167118130D01*
X162191293Y-167131921D01*
X162260658Y-167147578D01*
X162328644Y-167145314D01*
X162395142Y-167125153D01*
X162460043Y-167087122D01*
X162523240Y-167031246D01*
X162548745Y-167003095D01*
X162610022Y-166919541D01*
X162663401Y-166821446D01*
X162709098Y-166708301D01*
X162747331Y-166579600D01*
X162778318Y-166434835D01*
X162780732Y-166420053D01*
X162787170Y-166365638D01*
X162792406Y-166298944D01*
X162796330Y-166224234D01*
X162798836Y-166145768D01*
X162799812Y-166067808D01*
X162799152Y-165994614D01*
X162796746Y-165930447D01*
X162792485Y-165879570D01*
X162791943Y-165876178D01*
X163367947Y-165876178D01*
X163367951Y-165903719D01*
X163368019Y-165991218D01*
X163368164Y-166072511D01*
X163368378Y-166145912D01*
X163368653Y-166209737D01*
X163368981Y-166262300D01*
X163369353Y-166301917D01*
X163369761Y-166326903D01*
X163370197Y-166335572D01*
X163375510Y-166328531D01*
X163387473Y-166310031D01*
X163403454Y-166284121D01*
X163403835Y-166283494D01*
X163426021Y-166250047D01*
X163454186Y-166211652D01*
X163482330Y-166176497D01*
X163530200Y-166120069D01*
X163527830Y-165816375D01*
X163525459Y-165512680D01*
X163475183Y-165485469D01*
X163452044Y-165472464D01*
X163420328Y-165453318D01*
X163396426Y-165437393D01*
X163367947Y-165416529D01*
X163367947Y-165876178D01*
X162791943Y-165876178D01*
X162769764Y-165737442D01*
X162736146Y-165599266D01*
X162692875Y-165472390D01*
X162640501Y-165358422D01*
X162579579Y-165258973D01*
X162537427Y-165206179D01*
X162471211Y-165145097D01*
X162397535Y-165100350D01*
X162392477Y-165097972D01*
X162362131Y-165084946D01*
X162336987Y-165078139D01*
X162309350Y-165076163D01*
X162271525Y-165077632D01*
X162222802Y-165083525D01*
X162168768Y-165099838D01*
X162117525Y-165128190D01*
X162064095Y-165170820D01*
X162047642Y-165186496D01*
X161996150Y-165246821D01*
X161947155Y-165320836D01*
X161902662Y-165405265D01*
X161864675Y-165496831D01*
X161844182Y-165553406D01*
X161762248Y-165550835D01*
X161680314Y-165548265D01*
X161680392Y-165102730D01*
X161680393Y-165096705D01*
X161680428Y-164996623D01*
X161680540Y-164912806D01*
X161680795Y-164843607D01*
X161681263Y-164787379D01*
X161682009Y-164742476D01*
X161683102Y-164707253D01*
X161683259Y-164704412D01*
X162577260Y-164704412D01*
X162583389Y-164731739D01*
X162597601Y-164764403D01*
X162601347Y-164771748D01*
X162625544Y-164808323D01*
X162651637Y-164832243D01*
X162681737Y-164846361D01*
X162715978Y-164848710D01*
X162754116Y-164835654D01*
X162782613Y-164813700D01*
X162801927Y-164779976D01*
X162809717Y-164738790D01*
X162806243Y-164693219D01*
X162791767Y-164646337D01*
X162766548Y-164601221D01*
X162730847Y-164560946D01*
X162728385Y-164558752D01*
X162702323Y-164537767D01*
X162674909Y-164518768D01*
X162651153Y-164504994D01*
X162636065Y-164499682D01*
X162633684Y-164500870D01*
X162624900Y-164514246D01*
X162613827Y-164538956D01*
X162602044Y-164570561D01*
X162591130Y-164604619D01*
X162582663Y-164636690D01*
X162578223Y-164662335D01*
X162577374Y-164672738D01*
X162577260Y-164704412D01*
X161683259Y-164704412D01*
X161684609Y-164680062D01*
X161686597Y-164659258D01*
X161689134Y-164643193D01*
X161692288Y-164630223D01*
X161696126Y-164618699D01*
X161700715Y-164606977D01*
X161707257Y-164592033D01*
X161736875Y-164541422D01*
X161773720Y-164497208D01*
X161813230Y-164465144D01*
X161814126Y-164464619D01*
X161835164Y-164456372D01*
X161872912Y-164445659D01*
X161926363Y-164432727D01*
X161994510Y-164417820D01*
X162076345Y-164401182D01*
X162135040Y-164389467D01*
X162194073Y-164377382D01*
X162245719Y-164366494D01*
X162287407Y-164357357D01*
X162316563Y-164350523D01*
X162330615Y-164346545D01*
X162343242Y-164337448D01*
X162348411Y-164325756D01*
X162809903Y-164325756D01*
X162810603Y-164328128D01*
X162817020Y-164342588D01*
X162827966Y-164364791D01*
X162831784Y-164371902D01*
X162863754Y-164416249D01*
X162904747Y-164455160D01*
X162948504Y-164482523D01*
X162954041Y-164484867D01*
X162992600Y-164495052D01*
X163035843Y-164498768D01*
X163076673Y-164495856D01*
X163107993Y-164486154D01*
X163118390Y-164478584D01*
X163138805Y-164454117D01*
X163154595Y-164424073D01*
X163160931Y-164396617D01*
X163160833Y-164393901D01*
X163152456Y-164366087D01*
X163133214Y-164335227D01*
X163106841Y-164307476D01*
X163094023Y-164297769D01*
X163045919Y-164275601D01*
X162989969Y-164268368D01*
X162927955Y-164276133D01*
X162861657Y-164298957D01*
X162837059Y-164310408D01*
X162817429Y-164320508D01*
X162809903Y-164325756D01*
X162348411Y-164325756D01*
X162350867Y-164320199D01*
X162352761Y-164307448D01*
X162359774Y-164281371D01*
X162370182Y-164250717D01*
X162389498Y-164199092D01*
X162334365Y-164147270D01*
X162314988Y-164129695D01*
X162249134Y-164077086D01*
X162168537Y-164021933D01*
X162071845Y-163963289D01*
X161995339Y-163919137D01*
X162224323Y-163914103D01*
X162226840Y-163799935D01*
X162229357Y-163685768D01*
X162259947Y-163743216D01*
X162282056Y-163782598D01*
X162317224Y-163839686D01*
X162355922Y-163897638D01*
X162395202Y-163952239D01*
X162432116Y-163999275D01*
X162463718Y-164034531D01*
X162514418Y-164085231D01*
X162548565Y-164067811D01*
X162597840Y-164049089D01*
X162667569Y-164037404D01*
X162746862Y-164037157D01*
X162833687Y-164047963D01*
X162926010Y-164069439D01*
X163021798Y-164101198D01*
X163119019Y-164142857D01*
X163215639Y-164194031D01*
X163238157Y-164207766D01*
X163319630Y-164269193D01*
X163387642Y-164340316D01*
X163425864Y-164396617D01*
X163441438Y-164419558D01*
X163480260Y-164505339D01*
X163503352Y-164596079D01*
X163509958Y-164690199D01*
X163504569Y-164738790D01*
X163499320Y-164786121D01*
X163493812Y-164813966D01*
G37*
G36*
X158906656Y-167255772D02*
G01*
X158971101Y-167258400D01*
X158971101Y-167487918D01*
X158971054Y-167533920D01*
X158970620Y-167599845D01*
X158969453Y-167651682D01*
X158967219Y-167691900D01*
X158963587Y-167722970D01*
X158958226Y-167747361D01*
X158950801Y-167767543D01*
X158940983Y-167785985D01*
X158928438Y-167805158D01*
X158907029Y-167827421D01*
X158874252Y-167851098D01*
X158836948Y-167871591D01*
X158801600Y-167884829D01*
X158798916Y-167885441D01*
X158773873Y-167888442D01*
X158738695Y-167889977D01*
X158700105Y-167889722D01*
X158653129Y-167885275D01*
X158591414Y-167869182D01*
X158540171Y-167842747D01*
X158502231Y-167807150D01*
X158500444Y-167804788D01*
X158486607Y-167784375D01*
X158475746Y-167762735D01*
X158467514Y-167737471D01*
X158461560Y-167706190D01*
X158457537Y-167666497D01*
X158455095Y-167615995D01*
X158453886Y-167552290D01*
X158453560Y-167472986D01*
X158453560Y-167253899D01*
X158587430Y-167253899D01*
X158590326Y-167476667D01*
X158591011Y-167524306D01*
X158592423Y-167590312D01*
X158594523Y-167641728D01*
X158597710Y-167680684D01*
X158602381Y-167709310D01*
X158608936Y-167729736D01*
X158617772Y-167744092D01*
X158629287Y-167754509D01*
X158643880Y-167763114D01*
X158643945Y-167763148D01*
X158673799Y-167772104D01*
X158712407Y-167775513D01*
X158751382Y-167773249D01*
X158782338Y-167765187D01*
X158791441Y-167760703D01*
X158804887Y-167751565D01*
X158815370Y-167739062D01*
X158823301Y-167721104D01*
X158829090Y-167695598D01*
X158833148Y-167660454D01*
X158835885Y-167613582D01*
X158837711Y-167552891D01*
X158839037Y-167476289D01*
X158842211Y-167253143D01*
X158906656Y-167255772D01*
G37*
G36*
X155915594Y-167883949D02*
G01*
X155795468Y-167883949D01*
X155777330Y-167883885D01*
X155706378Y-167881887D01*
X155649139Y-167876644D01*
X155602254Y-167867549D01*
X155562362Y-167853998D01*
X155526106Y-167835384D01*
X155477020Y-167798884D01*
X155437394Y-167751188D01*
X155410930Y-167693512D01*
X155397037Y-167624536D01*
X155396097Y-167584461D01*
X155531226Y-167584461D01*
X155538526Y-167638459D01*
X155555285Y-167685841D01*
X155574990Y-167715681D01*
X155613202Y-167747161D01*
X155664240Y-167766371D01*
X155664467Y-167766423D01*
X155699633Y-167772618D01*
X155733220Y-167775384D01*
X155759902Y-167774549D01*
X155774349Y-167769940D01*
X155775089Y-167767701D01*
X155776771Y-167750703D01*
X155778217Y-167719491D01*
X155779349Y-167676751D01*
X155780086Y-167625167D01*
X155780350Y-167567424D01*
X155780350Y-167370909D01*
X155717056Y-167370909D01*
X155683952Y-167372030D01*
X155637020Y-167379960D01*
X155600764Y-167396684D01*
X155571320Y-167423599D01*
X155562891Y-167435080D01*
X155543729Y-167477542D01*
X155533067Y-167529079D01*
X155531226Y-167584461D01*
X155396097Y-167584461D01*
X155395124Y-167542939D01*
X155401451Y-167479603D01*
X155416710Y-167422824D01*
X155441952Y-167376180D01*
X155478498Y-167336401D01*
X155501952Y-167317512D01*
X155544798Y-167291534D01*
X155593402Y-167273091D01*
X155650674Y-167261458D01*
X155719520Y-167255913D01*
X155802851Y-167255733D01*
X155910860Y-167258400D01*
X155913199Y-167567424D01*
X155913227Y-167571174D01*
X155915594Y-167883949D01*
G37*
G36*
X154664495Y-167883949D02*
G01*
X154544370Y-167883949D01*
X154526232Y-167883885D01*
X154455280Y-167881887D01*
X154398041Y-167876644D01*
X154351155Y-167867549D01*
X154311264Y-167853998D01*
X154275007Y-167835384D01*
X154225921Y-167798884D01*
X154186295Y-167751188D01*
X154159831Y-167693512D01*
X154145939Y-167624536D01*
X154144999Y-167584461D01*
X154280128Y-167584461D01*
X154287427Y-167638459D01*
X154304187Y-167685841D01*
X154323892Y-167715681D01*
X154362104Y-167747161D01*
X154413142Y-167766371D01*
X154413369Y-167766423D01*
X154448534Y-167772618D01*
X154482122Y-167775384D01*
X154508804Y-167774549D01*
X154523251Y-167769940D01*
X154523991Y-167767701D01*
X154525672Y-167750703D01*
X154527119Y-167719491D01*
X154528250Y-167676751D01*
X154528988Y-167625167D01*
X154529251Y-167567424D01*
X154529251Y-167370909D01*
X154465957Y-167370909D01*
X154432853Y-167372030D01*
X154385921Y-167379960D01*
X154349666Y-167396684D01*
X154320221Y-167423599D01*
X154311792Y-167435080D01*
X154292630Y-167477542D01*
X154281969Y-167529079D01*
X154280128Y-167584461D01*
X154144999Y-167584461D01*
X154144025Y-167542939D01*
X154150352Y-167479603D01*
X154165611Y-167422824D01*
X154190854Y-167376180D01*
X154227400Y-167336401D01*
X154250853Y-167317512D01*
X154293699Y-167291534D01*
X154342304Y-167273091D01*
X154399575Y-167261458D01*
X154468422Y-167255913D01*
X154551753Y-167255733D01*
X154659761Y-167258400D01*
X154662100Y-167567424D01*
X154662128Y-167571174D01*
X154664495Y-167883949D01*
G37*
G36*
X159596650Y-167883949D02*
G01*
X159596650Y-167639843D01*
X159563775Y-167642637D01*
X159556996Y-167643331D01*
X159545184Y-167646094D01*
X159534210Y-167652602D01*
X159522019Y-167665173D01*
X159506559Y-167686125D01*
X159485775Y-167717774D01*
X159457613Y-167762439D01*
X159384327Y-167879449D01*
X159309598Y-167882077D01*
X159296537Y-167882427D01*
X159265621Y-167882227D01*
X159244793Y-167880528D01*
X159237996Y-167877577D01*
X159241135Y-167872327D01*
X159253010Y-167853954D01*
X159272007Y-167825167D01*
X159296379Y-167788610D01*
X159324379Y-167746926D01*
X159344264Y-167717191D01*
X159369468Y-167678740D01*
X159389552Y-167647181D01*
X159402834Y-167625170D01*
X159407635Y-167615361D01*
X159405975Y-167611817D01*
X159393468Y-167599528D01*
X159372723Y-167584215D01*
X159365504Y-167579125D01*
X159331001Y-167542994D01*
X159309219Y-167498378D01*
X159302788Y-167462406D01*
X159437536Y-167462406D01*
X159451370Y-167493935D01*
X159479840Y-167517156D01*
X159487877Y-167520657D01*
X159520137Y-167529400D01*
X159553897Y-167532907D01*
X159596650Y-167532921D01*
X159596650Y-167370909D01*
X159547570Y-167370909D01*
X159527194Y-167371461D01*
X159486885Y-167378046D01*
X159459682Y-167392973D01*
X159443030Y-167417379D01*
X159439797Y-167426523D01*
X159437536Y-167462406D01*
X159302788Y-167462406D01*
X159300420Y-167449159D01*
X159304863Y-167399215D01*
X159322809Y-167352427D01*
X159354517Y-167312674D01*
X159362549Y-167305670D01*
X159384588Y-167289670D01*
X159409139Y-167277753D01*
X159439299Y-167269190D01*
X159478165Y-167263257D01*
X159528833Y-167259225D01*
X159594400Y-167256367D01*
X159731661Y-167251710D01*
X159731661Y-167883949D01*
X159596650Y-167883949D01*
G37*
G36*
X157445481Y-167883949D02*
G01*
X157310470Y-167883949D01*
X157310470Y-167613928D01*
X157067451Y-167613928D01*
X157067451Y-167883949D01*
X156932440Y-167883949D01*
X156932440Y-167253899D01*
X157067451Y-167253899D01*
X157067451Y-167505919D01*
X157309962Y-167505919D01*
X157312466Y-167382159D01*
X157314970Y-167258400D01*
X157380226Y-167255755D01*
X157445481Y-167253111D01*
X157445481Y-167883949D01*
G37*
G36*
X150409360Y-164436693D02*
G01*
X150475325Y-164436821D01*
X150526904Y-164437185D01*
X150565999Y-164437907D01*
X150594511Y-164439112D01*
X150614345Y-164440922D01*
X150627401Y-164443461D01*
X150635583Y-164446852D01*
X150640794Y-164451217D01*
X150644935Y-164456682D01*
X150646182Y-164458941D01*
X150648085Y-164464949D01*
X150649793Y-164474557D01*
X150651314Y-164488666D01*
X150652660Y-164508176D01*
X150653841Y-164533986D01*
X150654867Y-164566997D01*
X150655749Y-164608108D01*
X150656498Y-164658221D01*
X150657123Y-164718234D01*
X150657636Y-164789048D01*
X150658046Y-164871563D01*
X150658365Y-164966679D01*
X150658602Y-165075296D01*
X150658768Y-165198314D01*
X150658874Y-165336634D01*
X150658930Y-165491154D01*
X150658946Y-165662777D01*
X150658945Y-165780242D01*
X150658932Y-165938676D01*
X150658892Y-166080652D01*
X150658813Y-166207089D01*
X150658681Y-166318907D01*
X150658481Y-166417024D01*
X150658201Y-166502361D01*
X150657826Y-166575835D01*
X150657343Y-166638366D01*
X150656737Y-166690874D01*
X150655996Y-166734277D01*
X150655105Y-166769495D01*
X150654051Y-166797447D01*
X150652820Y-166819051D01*
X150651398Y-166835228D01*
X150649771Y-166846897D01*
X150647927Y-166854976D01*
X150645850Y-166860385D01*
X150643527Y-166864043D01*
X150640945Y-166866869D01*
X150626864Y-166877070D01*
X150604603Y-166883158D01*
X150570189Y-166884870D01*
X150517435Y-166884870D01*
X150512508Y-166939211D01*
X150509310Y-166963931D01*
X150503321Y-166991010D01*
X150496655Y-167006716D01*
X150490088Y-167009613D01*
X150467059Y-167013294D01*
X150430448Y-167016297D01*
X150382876Y-167018625D01*
X150326965Y-167020284D01*
X150265336Y-167021276D01*
X150200610Y-167021606D01*
X150135410Y-167021279D01*
X150072355Y-167020298D01*
X150014069Y-167018668D01*
X149963171Y-167016392D01*
X149922284Y-167013476D01*
X149894029Y-167009923D01*
X149881028Y-167005737D01*
X149879402Y-167003329D01*
X149877525Y-166997740D01*
X149875842Y-166988481D01*
X149874344Y-166974657D01*
X149873020Y-166955371D01*
X149871860Y-166929729D01*
X149870854Y-166896835D01*
X149869990Y-166855792D01*
X149869258Y-166805706D01*
X149868647Y-166745680D01*
X149868148Y-166674818D01*
X149867750Y-166592225D01*
X149867441Y-166497006D01*
X149867213Y-166388263D01*
X149867053Y-166265103D01*
X149866952Y-166126628D01*
X149866899Y-165971943D01*
X149866884Y-165800152D01*
X149866884Y-164608712D01*
X149886888Y-164594700D01*
X149891826Y-164591812D01*
X149918577Y-164583738D01*
X149953345Y-164580689D01*
X149999798Y-164580689D01*
X150003592Y-164521096D01*
X150003685Y-164519655D01*
X150007507Y-164483870D01*
X150013999Y-164461735D01*
X150024362Y-164449090D01*
X150028771Y-164446783D01*
X150040886Y-164443694D01*
X150060752Y-164441267D01*
X150090077Y-164439433D01*
X150130569Y-164438126D01*
X150183937Y-164437276D01*
X150251888Y-164436816D01*
X150336131Y-164436677D01*
X150409360Y-164436693D01*
G37*
G36*
X147103666Y-167883949D02*
G01*
X146716636Y-167883949D01*
X146716636Y-167775940D01*
X146968380Y-167775940D01*
X146973156Y-167258400D01*
X147038411Y-167255755D01*
X147103666Y-167253111D01*
X147103666Y-167883949D01*
G37*
G36*
X151940227Y-167652393D02*
G01*
X151937353Y-167677042D01*
X151931911Y-167697584D01*
X151923082Y-167718569D01*
X151910045Y-167744550D01*
X151898644Y-167765336D01*
X151862577Y-167814622D01*
X151818978Y-167850546D01*
X151764189Y-167876413D01*
X151740741Y-167883295D01*
X151681196Y-167891685D01*
X151617053Y-167890829D01*
X151555192Y-167881085D01*
X151502491Y-167862809D01*
X151449791Y-167829217D01*
X151406599Y-167782556D01*
X151376085Y-167723951D01*
X151357977Y-167652869D01*
X151352001Y-167568778D01*
X151352761Y-167558023D01*
X151492907Y-167558023D01*
X151493309Y-167587358D01*
X151501320Y-167653427D01*
X151519135Y-167705936D01*
X151546457Y-167744191D01*
X151582987Y-167767498D01*
X151592974Y-167770280D01*
X151620806Y-167774343D01*
X151652780Y-167775940D01*
X151668185Y-167775349D01*
X151715029Y-167763925D01*
X151752673Y-167737356D01*
X151782369Y-167694861D01*
X151790623Y-167677525D01*
X151797033Y-167658042D01*
X151800349Y-167635192D01*
X151801218Y-167604107D01*
X151800287Y-167559923D01*
X151797216Y-167507833D01*
X151790011Y-167463688D01*
X151777434Y-167430451D01*
X151758060Y-167404495D01*
X151730463Y-167382190D01*
X151695455Y-167366855D01*
X151650662Y-167360970D01*
X151605481Y-167366076D01*
X151567099Y-167382172D01*
X151548106Y-167397448D01*
X151518330Y-167438354D01*
X151499780Y-167492237D01*
X151492907Y-167558023D01*
X151352761Y-167558023D01*
X151357821Y-167486424D01*
X151376102Y-167413894D01*
X151406838Y-167354336D01*
X151450014Y-167307770D01*
X151505618Y-167274214D01*
X151573636Y-167253688D01*
X151623934Y-167247147D01*
X151702515Y-167249840D01*
X151775146Y-167269104D01*
X151840892Y-167304761D01*
X151861844Y-167321825D01*
X151887290Y-167352183D01*
X151911292Y-167394578D01*
X151923373Y-167419771D01*
X151932036Y-167441352D01*
X151937390Y-167462528D01*
X151940230Y-167487901D01*
X151941351Y-167522072D01*
X151941547Y-167569642D01*
X151941547Y-167572571D01*
X151941414Y-167604107D01*
X151941351Y-167619086D01*
X151940227Y-167652393D01*
G37*
G36*
X145666281Y-164436425D02*
G01*
X145733892Y-164437135D01*
X145795542Y-164438225D01*
X145848912Y-164439697D01*
X145891682Y-164441554D01*
X145921532Y-164443799D01*
X145936144Y-164446436D01*
X145941490Y-164450708D01*
X145958524Y-164467634D01*
X145985409Y-164496083D01*
X146021007Y-164534794D01*
X146064180Y-164582506D01*
X146113789Y-164637958D01*
X146168695Y-164699889D01*
X146227760Y-164767039D01*
X146289846Y-164838145D01*
X146622129Y-165220095D01*
X146631129Y-164615079D01*
X146652378Y-164597884D01*
X146657075Y-164594434D01*
X146683486Y-164583932D01*
X146722133Y-164580689D01*
X146770640Y-164580689D01*
X146770640Y-164528687D01*
X146770806Y-164518813D01*
X146775142Y-164481436D01*
X146784652Y-164456682D01*
X146788751Y-164451265D01*
X146793904Y-164446925D01*
X146801995Y-164443545D01*
X146814905Y-164441004D01*
X146834518Y-164439183D01*
X146862717Y-164437961D01*
X146901385Y-164437220D01*
X146952405Y-164436839D01*
X147017660Y-164436698D01*
X147099034Y-164436677D01*
X147147611Y-164436704D01*
X147221088Y-164436914D01*
X147279416Y-164437405D01*
X147324422Y-164438257D01*
X147357932Y-164439553D01*
X147381773Y-164441375D01*
X147397772Y-164443806D01*
X147407755Y-164446928D01*
X147413548Y-164450821D01*
X147415239Y-164453367D01*
X147417106Y-164459062D01*
X147418780Y-164468454D01*
X147420270Y-164482437D01*
X147421587Y-164501905D01*
X147422741Y-164527752D01*
X147423742Y-164560872D01*
X147424602Y-164602159D01*
X147425330Y-164652508D01*
X147425937Y-164712811D01*
X147426434Y-164783963D01*
X147426830Y-164866859D01*
X147427137Y-164962392D01*
X147427365Y-165071456D01*
X147427524Y-165194946D01*
X147427624Y-165333755D01*
X147427677Y-165488777D01*
X147427692Y-165660906D01*
X147427692Y-166856847D01*
X147407688Y-166870859D01*
X147403365Y-166873455D01*
X147375274Y-166881858D01*
X147335682Y-166884870D01*
X147283681Y-166884870D01*
X147283681Y-166932371D01*
X147283455Y-166942264D01*
X147278916Y-166976355D01*
X147269669Y-166999877D01*
X147265602Y-167005257D01*
X147260460Y-167009608D01*
X147252394Y-167012996D01*
X147239519Y-167015543D01*
X147219951Y-167017369D01*
X147191805Y-167018594D01*
X147153196Y-167019337D01*
X147102240Y-167019719D01*
X147037051Y-167019860D01*
X146955746Y-167019881D01*
X146885334Y-167019829D01*
X146816880Y-167019583D01*
X146763031Y-167019053D01*
X146721945Y-167018152D01*
X146691781Y-167016791D01*
X146670694Y-167014885D01*
X146656844Y-167012343D01*
X146648387Y-167009079D01*
X146643482Y-167005005D01*
X146640771Y-166999014D01*
X146638310Y-166986617D01*
X146636173Y-166966649D01*
X146634318Y-166937807D01*
X146632700Y-166898787D01*
X146631276Y-166848285D01*
X146630000Y-166784996D01*
X146628830Y-166707618D01*
X146627721Y-166614846D01*
X146626629Y-166505377D01*
X146622129Y-166020624D01*
X146483357Y-166216478D01*
X146468255Y-166237793D01*
X146390457Y-166347576D01*
X146322252Y-166443757D01*
X146262949Y-166527261D01*
X146211861Y-166599009D01*
X146168299Y-166659923D01*
X146131573Y-166710927D01*
X146100996Y-166752943D01*
X146075877Y-166786893D01*
X146055529Y-166813700D01*
X146039262Y-166834286D01*
X146026388Y-166849574D01*
X146016218Y-166860487D01*
X146008063Y-166867946D01*
X146001234Y-166872875D01*
X145995042Y-166876196D01*
X145988799Y-166878831D01*
X145975933Y-166885242D01*
X145947570Y-166908690D01*
X145916892Y-166947034D01*
X145915262Y-166949345D01*
X145894118Y-166977240D01*
X145874903Y-166999278D01*
X145861596Y-167010866D01*
X145849521Y-167013024D01*
X145820089Y-167015034D01*
X145774486Y-167016724D01*
X145713656Y-167018074D01*
X145638541Y-167019064D01*
X145550084Y-167019673D01*
X145449230Y-167019881D01*
X145369443Y-167019863D01*
X145284314Y-167019706D01*
X145214560Y-167019260D01*
X145158716Y-167018372D01*
X145115322Y-167016892D01*
X145082913Y-167014668D01*
X145060028Y-167011547D01*
X145045204Y-167007380D01*
X145036978Y-167002013D01*
X145033888Y-166995297D01*
X145034471Y-166987078D01*
X145037265Y-166977206D01*
X145040337Y-166971984D01*
X145053205Y-166952867D01*
X145075337Y-166921044D01*
X145105952Y-166877609D01*
X145144270Y-166823656D01*
X145189508Y-166760278D01*
X145240886Y-166688568D01*
X145297624Y-166609620D01*
X145358940Y-166524527D01*
X145424052Y-166434383D01*
X145492181Y-166340282D01*
X145530344Y-166287614D01*
X145606165Y-166182849D01*
X145672241Y-166091324D01*
X145729182Y-166012156D01*
X145777597Y-165944463D01*
X145818096Y-165887364D01*
X145851286Y-165839976D01*
X145877778Y-165801418D01*
X145898181Y-165770806D01*
X145913104Y-165747260D01*
X145923156Y-165729897D01*
X145928946Y-165717835D01*
X145931083Y-165710191D01*
X145930177Y-165706085D01*
X145929870Y-165705723D01*
X145920955Y-165695256D01*
X145901390Y-165672312D01*
X145872102Y-165637979D01*
X145834020Y-165593342D01*
X145788069Y-165539489D01*
X145735178Y-165477506D01*
X145676274Y-165408480D01*
X145612283Y-165333497D01*
X145544134Y-165253645D01*
X145472753Y-165170009D01*
X145464200Y-165159986D01*
X145393236Y-165076652D01*
X145325750Y-164997102D01*
X145262656Y-164922435D01*
X145204871Y-164853748D01*
X145153311Y-164792138D01*
X145108892Y-164738703D01*
X145072530Y-164694541D01*
X145045141Y-164660749D01*
X145027641Y-164638424D01*
X145020946Y-164628665D01*
X145020124Y-164625904D01*
X145018944Y-164607645D01*
X145028345Y-164594737D01*
X145050143Y-164586437D01*
X145086152Y-164582002D01*
X145138190Y-164580689D01*
X145232591Y-164580689D01*
X145196052Y-164537356D01*
X145184048Y-164522377D01*
X145164839Y-164490958D01*
X145160416Y-164466531D01*
X145170314Y-164447478D01*
X145172220Y-164446558D01*
X145189111Y-164444000D01*
X145220915Y-164441793D01*
X145265312Y-164439940D01*
X145319984Y-164438444D01*
X145382611Y-164437307D01*
X145450873Y-164436534D01*
X145522452Y-164436127D01*
X145595028Y-164436090D01*
X145666281Y-164436425D01*
G37*
G36*
X161849428Y-165705898D02*
G01*
X161917979Y-165706340D01*
X161984138Y-165707098D01*
X162045556Y-165708164D01*
X162099886Y-165709534D01*
X162144778Y-165711202D01*
X162177885Y-165713160D01*
X162196857Y-165715405D01*
X162229050Y-165725884D01*
X162275271Y-165755135D01*
X162315272Y-165797999D01*
X162348541Y-165852293D01*
X162374568Y-165915833D01*
X162392839Y-165986435D01*
X162402845Y-166061916D01*
X162404073Y-166140093D01*
X162396011Y-166218781D01*
X162378148Y-166295798D01*
X162349973Y-166368958D01*
X162323643Y-166413293D01*
X162287899Y-166454960D01*
X162248267Y-166486852D01*
X162208762Y-166505097D01*
X162193223Y-166507098D01*
X162162824Y-166508942D01*
X162120112Y-166510561D01*
X162067417Y-166511944D01*
X162007072Y-166513079D01*
X161941408Y-166513957D01*
X161872756Y-166514565D01*
X161803449Y-166514894D01*
X161735818Y-166514932D01*
X161672194Y-166514668D01*
X161614910Y-166514091D01*
X161566297Y-166513191D01*
X161528686Y-166511956D01*
X161504410Y-166510376D01*
X161495800Y-166508439D01*
X161498690Y-166499691D01*
X161508199Y-166479075D01*
X161522042Y-166452184D01*
X161537746Y-166419230D01*
X161554930Y-166377016D01*
X161569296Y-166335827D01*
X161572139Y-166326532D01*
X161579094Y-166301009D01*
X161584019Y-166275932D01*
X161587249Y-166247612D01*
X161589120Y-166212361D01*
X161589965Y-166166489D01*
X161590119Y-166106309D01*
X161589950Y-166053447D01*
X161589285Y-166007695D01*
X161587735Y-165973042D01*
X161584905Y-165945832D01*
X161580398Y-165922407D01*
X161573818Y-165899112D01*
X161564769Y-165872291D01*
X161562658Y-165866326D01*
X161547411Y-165826439D01*
X161531379Y-165788817D01*
X161517703Y-165760898D01*
X161510234Y-165746994D01*
X161499868Y-165725512D01*
X161495800Y-165713644D01*
X161499864Y-165712121D01*
X161519403Y-165710192D01*
X161552989Y-165708620D01*
X161598273Y-165707398D01*
X161652908Y-165706521D01*
X161714544Y-165705983D01*
X161780834Y-165705777D01*
X161849428Y-165705898D01*
G37*
G36*
X161262827Y-165724500D02*
G01*
X161309026Y-165752316D01*
X161350491Y-165794816D01*
X161385249Y-165851469D01*
X161404564Y-165894981D01*
X161420434Y-165942655D01*
X161430378Y-165992571D01*
X161435380Y-166049899D01*
X161436429Y-166119810D01*
X161435733Y-166163501D01*
X161433616Y-166204763D01*
X161429394Y-166238250D01*
X161422316Y-166269569D01*
X161411626Y-166304325D01*
X161407550Y-166316223D01*
X161377743Y-166384774D01*
X161341749Y-166437757D01*
X161298255Y-166476750D01*
X161245948Y-166503328D01*
X161212166Y-166510888D01*
X161163839Y-166506233D01*
X161112428Y-166484114D01*
X161095556Y-166472972D01*
X161053515Y-166431901D01*
X161017891Y-166377180D01*
X160989675Y-166311459D01*
X160969857Y-166237390D01*
X160959430Y-166157622D01*
X160959383Y-166074806D01*
X160960992Y-166053672D01*
X160974120Y-165963022D01*
X160996807Y-165886158D01*
X161029628Y-165821527D01*
X161073160Y-165767575D01*
X161115541Y-165734452D01*
X161164113Y-165715038D01*
X161213865Y-165711897D01*
X161262827Y-165724500D01*
G37*
G36*
X152480243Y-167258172D02*
G01*
X152542380Y-167282129D01*
X152595625Y-167319148D01*
X152637606Y-167368576D01*
X152664148Y-167421480D01*
X152683820Y-167491797D01*
X152691517Y-167568164D01*
X152686855Y-167646303D01*
X152669446Y-167721936D01*
X152666740Y-167729573D01*
X152641435Y-167777009D01*
X152604891Y-167820854D01*
X152561724Y-167856367D01*
X152516556Y-167878810D01*
X152493281Y-167884229D01*
X152449008Y-167888932D01*
X152398246Y-167889878D01*
X152347049Y-167887237D01*
X152301476Y-167881177D01*
X152267582Y-167871867D01*
X152261993Y-167869520D01*
X152245874Y-167861389D01*
X152237582Y-167851203D01*
X152234515Y-167833645D01*
X152234070Y-167803402D01*
X152234323Y-167778409D01*
X152235138Y-167757170D01*
X152236321Y-167749045D01*
X152241976Y-167750352D01*
X152260887Y-167755222D01*
X152288075Y-167762439D01*
X152297958Y-167764945D01*
X152351698Y-167773952D01*
X152403522Y-167775685D01*
X152448529Y-167770261D01*
X152481819Y-167757797D01*
X152497308Y-167746695D01*
X152519159Y-167721753D01*
X152534040Y-167688024D01*
X152543051Y-167642564D01*
X152547291Y-167582425D01*
X152548278Y-167540180D01*
X152547397Y-167510424D01*
X152543782Y-167487961D01*
X152536571Y-167467443D01*
X152524902Y-167443522D01*
X152504699Y-167411944D01*
X152468671Y-167379714D01*
X152424709Y-167363635D01*
X152372799Y-167363700D01*
X152312923Y-167379905D01*
X152292974Y-167387282D01*
X152270623Y-167394936D01*
X152259469Y-167397906D01*
X152253397Y-167391601D01*
X152244328Y-167373015D01*
X152234741Y-167347773D01*
X152226591Y-167321602D01*
X152221833Y-167300230D01*
X152222421Y-167289381D01*
X152227697Y-167286105D01*
X152246871Y-167277677D01*
X152273365Y-167268034D01*
X152338773Y-167252063D01*
X152411583Y-167247932D01*
X152480243Y-167258172D01*
G37*
G36*
X156590413Y-167883949D02*
G01*
X156221384Y-167883949D01*
X156221384Y-167775940D01*
X156455403Y-167775940D01*
X156455403Y-167613928D01*
X156239386Y-167613928D01*
X156239386Y-167505919D01*
X156455403Y-167505919D01*
X156455403Y-167371446D01*
X156225885Y-167366408D01*
X156225885Y-167258400D01*
X156408149Y-167255963D01*
X156590413Y-167253527D01*
X156590413Y-167883949D01*
G37*
G36*
X153233901Y-164436677D02*
G01*
X153274980Y-164436697D01*
X153349060Y-164436892D01*
X153407859Y-164437367D01*
X153453222Y-164438206D01*
X153486992Y-164439495D01*
X153511014Y-164441316D01*
X153527132Y-164443754D01*
X153537189Y-164446895D01*
X153543031Y-164450821D01*
X153544721Y-164453367D01*
X153546589Y-164459062D01*
X153548263Y-164468454D01*
X153549753Y-164482437D01*
X153551070Y-164501905D01*
X153552223Y-164527752D01*
X153553225Y-164560872D01*
X153554085Y-164602159D01*
X153554813Y-164652508D01*
X153555420Y-164712811D01*
X153555917Y-164783963D01*
X153556313Y-164866859D01*
X153556620Y-164962392D01*
X153556847Y-165071456D01*
X153557006Y-165194946D01*
X153557107Y-165333755D01*
X153557159Y-165488777D01*
X153557175Y-165660906D01*
X153557175Y-166856847D01*
X153537170Y-166870859D01*
X153532847Y-166873455D01*
X153504757Y-166881858D01*
X153465165Y-166884870D01*
X153413163Y-166884870D01*
X153413163Y-166935916D01*
X153413065Y-166944334D01*
X153408893Y-166981238D01*
X153398267Y-167003421D01*
X153397421Y-167004326D01*
X153391990Y-167008665D01*
X153383752Y-167012116D01*
X153370808Y-167014781D01*
X153351258Y-167016759D01*
X153323203Y-167018151D01*
X153284744Y-167019059D01*
X153233982Y-167019583D01*
X153169017Y-167019823D01*
X153087950Y-167019881D01*
X152792529Y-167019881D01*
X152778722Y-166998808D01*
X152777709Y-166996926D01*
X152775815Y-166990969D01*
X152774124Y-166981391D01*
X152772627Y-166967293D01*
X152771316Y-166947775D01*
X152770181Y-166921940D01*
X152769215Y-166888888D01*
X152768409Y-166847720D01*
X152767754Y-166797539D01*
X152767242Y-166737445D01*
X152766864Y-166666540D01*
X152766612Y-166583924D01*
X152766478Y-166488699D01*
X152766452Y-166379967D01*
X152766526Y-166256828D01*
X152766691Y-166118385D01*
X152766940Y-165963737D01*
X152767264Y-165791987D01*
X152767429Y-165708980D01*
X152767762Y-165547066D01*
X152768087Y-165401803D01*
X152768420Y-165272278D01*
X152768775Y-165157574D01*
X152769167Y-165056777D01*
X152769613Y-164968972D01*
X152770126Y-164893244D01*
X152770722Y-164828679D01*
X152771416Y-164774360D01*
X152772224Y-164729373D01*
X152773160Y-164692803D01*
X152774239Y-164663735D01*
X152775477Y-164641255D01*
X152776889Y-164624447D01*
X152778490Y-164612395D01*
X152780294Y-164604187D01*
X152782318Y-164598905D01*
X152784576Y-164595636D01*
X152787084Y-164593464D01*
X152794820Y-164589433D01*
X152821487Y-164583066D01*
X152856840Y-164580689D01*
X152909124Y-164580689D01*
X152909124Y-164525143D01*
X152908956Y-164502487D01*
X152909559Y-164483647D01*
X152912654Y-164468783D01*
X152919964Y-164457426D01*
X152933213Y-164449105D01*
X152954123Y-164443352D01*
X152984417Y-164439698D01*
X153025819Y-164437672D01*
X153080052Y-164436807D01*
X153148838Y-164436632D01*
X153233901Y-164436677D01*
G37*
G36*
X152152912Y-164436822D02*
G01*
X152223423Y-164437007D01*
X152279058Y-164437485D01*
X152321712Y-164438346D01*
X152353281Y-164439680D01*
X152375662Y-164441580D01*
X152390749Y-164444135D01*
X152400438Y-164447436D01*
X152406625Y-164451574D01*
X152406847Y-164451778D01*
X152409184Y-164454559D01*
X152411286Y-164458911D01*
X152413165Y-164465746D01*
X152414833Y-164475976D01*
X152416304Y-164490515D01*
X152417589Y-164510276D01*
X152418701Y-164536171D01*
X152419653Y-164569113D01*
X152420456Y-164610015D01*
X152421124Y-164659791D01*
X152421668Y-164719352D01*
X152422102Y-164789611D01*
X152422438Y-164871482D01*
X152422688Y-164965877D01*
X152422864Y-165073710D01*
X152422979Y-165195892D01*
X152423047Y-165333338D01*
X152423078Y-165486959D01*
X152423085Y-165657668D01*
X152423084Y-165782612D01*
X152423070Y-165940698D01*
X152423029Y-166082364D01*
X152422949Y-166208524D01*
X152422814Y-166320097D01*
X152422613Y-166418000D01*
X152422331Y-166503150D01*
X152421954Y-166576464D01*
X152421469Y-166638859D01*
X152420862Y-166691253D01*
X152420119Y-166734562D01*
X152419227Y-166769703D01*
X152418173Y-166797595D01*
X152416942Y-166819153D01*
X152415520Y-166835295D01*
X152413895Y-166846939D01*
X152412053Y-166855001D01*
X152409979Y-166860399D01*
X152407661Y-166864049D01*
X152405084Y-166866869D01*
X152389997Y-166877547D01*
X152367660Y-166883271D01*
X152333078Y-166884870D01*
X152279074Y-166884870D01*
X152279074Y-166932371D01*
X152278848Y-166942264D01*
X152274309Y-166976355D01*
X152265063Y-166999877D01*
X152251051Y-167019881D01*
X151554649Y-167019881D01*
X151491776Y-167019875D01*
X151370269Y-167019814D01*
X151265031Y-167019668D01*
X151174885Y-167019413D01*
X151098651Y-167019027D01*
X151035151Y-167018485D01*
X150983206Y-167017764D01*
X150941637Y-167016841D01*
X150909265Y-167015691D01*
X150884911Y-167014293D01*
X150867397Y-167012622D01*
X150855544Y-167010654D01*
X150848172Y-167008367D01*
X150844104Y-167005737D01*
X150841538Y-167002540D01*
X150837787Y-166993806D01*
X150834923Y-166979366D01*
X150832834Y-166957171D01*
X150831407Y-166925172D01*
X150830527Y-166881319D01*
X150830083Y-166823565D01*
X150829960Y-166749860D01*
X150829949Y-166684184D01*
X150830226Y-166621097D01*
X150831354Y-166572524D01*
X150833899Y-166536572D01*
X150838425Y-166511346D01*
X150845497Y-166494953D01*
X150855682Y-166485500D01*
X150869544Y-166481092D01*
X150887648Y-166479836D01*
X150910561Y-166479838D01*
X150962873Y-166479838D01*
X150966675Y-166420131D01*
X150967139Y-166412384D01*
X150968515Y-166390126D01*
X150970989Y-166372099D01*
X150976249Y-166357856D01*
X150985986Y-166346953D01*
X151001890Y-166338946D01*
X151025652Y-166333391D01*
X151058963Y-166329842D01*
X151103512Y-166327856D01*
X151160991Y-166326988D01*
X151233088Y-166326793D01*
X151321496Y-166326826D01*
X151631023Y-166326826D01*
X151631023Y-165473479D01*
X151631055Y-165327752D01*
X151631163Y-165198813D01*
X151631361Y-165085827D01*
X151631663Y-164987769D01*
X151632086Y-164903612D01*
X151632644Y-164832334D01*
X151633352Y-164772908D01*
X151634225Y-164724309D01*
X151635279Y-164685513D01*
X151636527Y-164655495D01*
X151637986Y-164633229D01*
X151639670Y-164617690D01*
X151641594Y-164607854D01*
X151643773Y-164602695D01*
X151655231Y-164592727D01*
X151677491Y-164585269D01*
X151713529Y-164580724D01*
X151770534Y-164576188D01*
X151775034Y-164515096D01*
X151776963Y-164494698D01*
X151783500Y-164461289D01*
X151793036Y-164445478D01*
X151795636Y-164444630D01*
X151814189Y-164442502D01*
X151848084Y-164440631D01*
X151895385Y-164439072D01*
X151954153Y-164437880D01*
X152022454Y-164437109D01*
X152098351Y-164436815D01*
X152152912Y-164436822D01*
G37*
G36*
X158119808Y-166280629D02*
G01*
X158167277Y-166382524D01*
X158211120Y-166477029D01*
X158250813Y-166563041D01*
X158285833Y-166639456D01*
X158315659Y-166705171D01*
X158339766Y-166759081D01*
X158357633Y-166800083D01*
X158368736Y-166827073D01*
X158372554Y-166838947D01*
X158370891Y-166854396D01*
X158362046Y-166869411D01*
X158343221Y-166878748D01*
X158311793Y-166883527D01*
X158265137Y-166884870D01*
X158254447Y-166884923D01*
X158222882Y-166885784D01*
X158200832Y-166887481D01*
X158192540Y-166889729D01*
X158193206Y-166892343D01*
X158199588Y-166907395D01*
X158210541Y-166929874D01*
X158224328Y-166962585D01*
X158227467Y-166989788D01*
X158217742Y-167009080D01*
X158217345Y-167009424D01*
X158208097Y-167012438D01*
X158188211Y-167014879D01*
X158156461Y-167016786D01*
X158111621Y-167018200D01*
X158052462Y-167019161D01*
X157977759Y-167019707D01*
X157886284Y-167019881D01*
X157565628Y-167019881D01*
X157547212Y-166999629D01*
X157547146Y-166999556D01*
X157536870Y-166983277D01*
X157522562Y-166954143D01*
X157506106Y-166916257D01*
X157489389Y-166873726D01*
X157449981Y-166768074D01*
X157060951Y-166767967D01*
X156671920Y-166767861D01*
X156652396Y-166813245D01*
X156643281Y-166832599D01*
X156621980Y-166863372D01*
X156596361Y-166879929D01*
X156563187Y-166884870D01*
X156548004Y-166885449D01*
X156534637Y-166890239D01*
X156525125Y-166903571D01*
X156514824Y-166929755D01*
X156508823Y-166945067D01*
X156494505Y-166975236D01*
X156480891Y-166997260D01*
X156463097Y-167019881D01*
X156141525Y-167019881D01*
X156098500Y-167019873D01*
X156018765Y-167019732D01*
X155954565Y-167019267D01*
X155904216Y-167018287D01*
X155866038Y-167016601D01*
X155838348Y-167014018D01*
X155819464Y-167010349D01*
X155807704Y-167005401D01*
X155801387Y-166998985D01*
X155798830Y-166990911D01*
X155798351Y-166980986D01*
X155799517Y-166976996D01*
X155807399Y-166957764D01*
X155822269Y-166924009D01*
X155843608Y-166876830D01*
X155870894Y-166817324D01*
X155903605Y-166746589D01*
X155941219Y-166665722D01*
X155983216Y-166575823D01*
X156029073Y-166477988D01*
X156078270Y-166373316D01*
X156130284Y-166262904D01*
X156184594Y-166147850D01*
X156193335Y-166129366D01*
X156923440Y-166129366D01*
X156924564Y-166130538D01*
X156938917Y-166133476D01*
X156967747Y-166135776D01*
X157008456Y-166137276D01*
X157058450Y-166137811D01*
X157083476Y-166137736D01*
X157133662Y-166136855D01*
X157167802Y-166134903D01*
X157187276Y-166131772D01*
X157193461Y-166127355D01*
X157191673Y-166119688D01*
X157184317Y-166097682D01*
X157172390Y-166065020D01*
X157157108Y-166024759D01*
X157139684Y-165979954D01*
X157121332Y-165933660D01*
X157103265Y-165888932D01*
X157086699Y-165848825D01*
X157072846Y-165816394D01*
X157062922Y-165794696D01*
X157058138Y-165786784D01*
X157054916Y-165791882D01*
X157046126Y-165811052D01*
X157033169Y-165841596D01*
X157017246Y-165880463D01*
X156999554Y-165924603D01*
X156981294Y-165970966D01*
X156963664Y-166016501D01*
X156947865Y-166058159D01*
X156935095Y-166092889D01*
X156926553Y-166117642D01*
X156923440Y-166129366D01*
X156193335Y-166129366D01*
X156240679Y-166029253D01*
X156298018Y-165908210D01*
X156356088Y-165785819D01*
X156414368Y-165663177D01*
X156472337Y-165541383D01*
X156529473Y-165421535D01*
X156585255Y-165304730D01*
X156639161Y-165192067D01*
X156690670Y-165084643D01*
X156739260Y-164983556D01*
X156784410Y-164889903D01*
X156825598Y-164804784D01*
X156862303Y-164729296D01*
X156894003Y-164664536D01*
X156920176Y-164611602D01*
X156940302Y-164571593D01*
X156953859Y-164545607D01*
X156960325Y-164534740D01*
X156983693Y-164516184D01*
X157007928Y-164508683D01*
X157015458Y-164508092D01*
X157028575Y-164501886D01*
X157041428Y-164486016D01*
X157057419Y-164456929D01*
X157058279Y-164455240D01*
X157088138Y-164406444D01*
X157118659Y-164375203D01*
X157149595Y-164361629D01*
X157180698Y-164365833D01*
X157211722Y-164387924D01*
X157213825Y-164390763D01*
X157224053Y-164408655D01*
X157241109Y-164441233D01*
X157264471Y-164487392D01*
X157293615Y-164546030D01*
X157328019Y-164616043D01*
X157367161Y-164696327D01*
X157410517Y-164785777D01*
X157457565Y-164883291D01*
X157507781Y-164987765D01*
X157560644Y-165098094D01*
X157615631Y-165213176D01*
X157672218Y-165331906D01*
X157729882Y-165453180D01*
X157788103Y-165575895D01*
X157846355Y-165698947D01*
X157904117Y-165821232D01*
X157960867Y-165941646D01*
X158016080Y-166059086D01*
X158048091Y-166127355D01*
X158069235Y-166172449D01*
X158119808Y-166280629D01*
G37*
G36*
X146419613Y-167883949D02*
G01*
X146059584Y-167883949D01*
X146059584Y-167775940D01*
X146284602Y-167775940D01*
X146284602Y-167613928D01*
X146077586Y-167613928D01*
X146077586Y-167505919D01*
X146284602Y-167505919D01*
X146284602Y-167370909D01*
X146059584Y-167370909D01*
X146059584Y-167253899D01*
X146419613Y-167253899D01*
X146419613Y-167883949D01*
G37*
G36*
X150593983Y-167487180D02*
G01*
X150593473Y-167545212D01*
X150593243Y-167601591D01*
X150593332Y-167649226D01*
X150593724Y-167685802D01*
X150594407Y-167709005D01*
X150595367Y-167716523D01*
X150595938Y-167715730D01*
X150603440Y-167703496D01*
X150618490Y-167678170D01*
X150639926Y-167641729D01*
X150666590Y-167596151D01*
X150697319Y-167543413D01*
X150730954Y-167485492D01*
X150862616Y-167258400D01*
X151032476Y-167258400D01*
X151034843Y-167571174D01*
X151037209Y-167883949D01*
X150908832Y-167883949D01*
X150912405Y-167650899D01*
X150915979Y-167417850D01*
X150888315Y-167464135D01*
X150882839Y-167473389D01*
X150866407Y-167501544D01*
X150843605Y-167540909D01*
X150816112Y-167588577D01*
X150785607Y-167641638D01*
X150753770Y-167697184D01*
X150646889Y-167883949D01*
X150478932Y-167883949D01*
X150478932Y-167253899D01*
X150596525Y-167253899D01*
X150593983Y-167487180D01*
G37*
G36*
X147787720Y-167883949D02*
G01*
X147400690Y-167883949D01*
X147400690Y-167775940D01*
X147652710Y-167775940D01*
X147652710Y-167253899D01*
X147787720Y-167253899D01*
X147787720Y-167883949D01*
G37*
G36*
X160479973Y-166867664D02*
G01*
X160469269Y-166874673D01*
X160443597Y-166882525D01*
X160405717Y-166884870D01*
X160352710Y-166884870D01*
X160352710Y-166938232D01*
X160352484Y-166951650D01*
X160348303Y-166986189D01*
X160338566Y-167005737D01*
X160337875Y-167006370D01*
X160332883Y-167009153D01*
X160324170Y-167011531D01*
X160310438Y-167013535D01*
X160290388Y-167015196D01*
X160262722Y-167016544D01*
X160226142Y-167017611D01*
X160179350Y-167018427D01*
X160121047Y-167019023D01*
X160049936Y-167019430D01*
X159964718Y-167019679D01*
X159864095Y-167019802D01*
X159746769Y-167019828D01*
X159715848Y-167019823D01*
X159592541Y-167019723D01*
X159485326Y-167019418D01*
X159392651Y-167018801D01*
X159312963Y-167017766D01*
X159244712Y-167016206D01*
X159186346Y-167014015D01*
X159136312Y-167011086D01*
X159093060Y-167007314D01*
X159055038Y-167002591D01*
X159020694Y-166996811D01*
X158988477Y-166989868D01*
X158956834Y-166981655D01*
X158924215Y-166972066D01*
X158889066Y-166960995D01*
X158854041Y-166949239D01*
X158780897Y-166919879D01*
X158718578Y-166886344D01*
X158662024Y-166845663D01*
X158606176Y-166794863D01*
X158591240Y-166779579D01*
X158532383Y-166707718D01*
X158487963Y-166630552D01*
X158457115Y-166545841D01*
X158438978Y-166451346D01*
X158432686Y-166344828D01*
X158432669Y-166341170D01*
X158434442Y-166267783D01*
X158441246Y-166203737D01*
X158454428Y-166146168D01*
X158471326Y-166102561D01*
X159227740Y-166102561D01*
X159230379Y-166141645D01*
X159236025Y-166177858D01*
X159244407Y-166205394D01*
X159246577Y-166209970D01*
X159277566Y-166253928D01*
X159321211Y-166289468D01*
X159373139Y-166312939D01*
X159373947Y-166313176D01*
X159403299Y-166319437D01*
X159442723Y-166323671D01*
X159494843Y-166326069D01*
X159562281Y-166326826D01*
X159704659Y-166326826D01*
X159704659Y-166009641D01*
X159474615Y-166013291D01*
X159474207Y-166013298D01*
X159401867Y-166014606D01*
X159345565Y-166016049D01*
X159303347Y-166017766D01*
X159273258Y-166019893D01*
X159253346Y-166022570D01*
X159241656Y-166025934D01*
X159236234Y-166030122D01*
X159232565Y-166038996D01*
X159228379Y-166066409D01*
X159227740Y-166102561D01*
X158471326Y-166102561D01*
X158475337Y-166092211D01*
X158505323Y-166039003D01*
X158545733Y-165983680D01*
X158597916Y-165923377D01*
X158663221Y-165855230D01*
X158796609Y-165720535D01*
X158766846Y-165698132D01*
X158733431Y-165669935D01*
X158689471Y-165625627D01*
X158648713Y-165577497D01*
X158617186Y-165532228D01*
X158603129Y-165507726D01*
X158574298Y-165446813D01*
X158554576Y-165384243D01*
X158542557Y-165314792D01*
X158536841Y-165233240D01*
X158535988Y-165177495D01*
X158536024Y-165176744D01*
X159247365Y-165176744D01*
X159249675Y-165226398D01*
X159267761Y-165278471D01*
X159301004Y-165322956D01*
X159348013Y-165357355D01*
X159354809Y-165360847D01*
X159369979Y-165367204D01*
X159387610Y-165371828D01*
X159410808Y-165375077D01*
X159442683Y-165377314D01*
X159486343Y-165378898D01*
X159544896Y-165380191D01*
X159704659Y-165383210D01*
X159704659Y-165129732D01*
X159499893Y-165130629D01*
X159470931Y-165130817D01*
X159412727Y-165131567D01*
X159360884Y-165132726D01*
X159318313Y-165134200D01*
X159287923Y-165135901D01*
X159272625Y-165137735D01*
X159263482Y-165141095D01*
X159252073Y-165153037D01*
X159247365Y-165176744D01*
X158536024Y-165176744D01*
X158539606Y-165102297D01*
X158549987Y-165036444D01*
X158567991Y-164975172D01*
X158594476Y-164913715D01*
X158598170Y-164906380D01*
X158613653Y-164879149D01*
X158633089Y-164850576D01*
X158658034Y-164818859D01*
X158690041Y-164782197D01*
X158730666Y-164738788D01*
X158781463Y-164686830D01*
X158843986Y-164624522D01*
X158883434Y-164590172D01*
X158958966Y-164541734D01*
X159049242Y-164501334D01*
X159153217Y-164469410D01*
X159269848Y-164446397D01*
X159292353Y-164444314D01*
X159333047Y-164442355D01*
X159390337Y-164440667D01*
X159463500Y-164439260D01*
X159551814Y-164438147D01*
X159654555Y-164437338D01*
X159771000Y-164436844D01*
X159900428Y-164436677D01*
X159932549Y-164436681D01*
X160045738Y-164436764D01*
X160142517Y-164436980D01*
X160224152Y-164437356D01*
X160291906Y-164437919D01*
X160347044Y-164438699D01*
X160390831Y-164439721D01*
X160424531Y-164441015D01*
X160449408Y-164442607D01*
X160466727Y-164444526D01*
X160477753Y-164446799D01*
X160483750Y-164449453D01*
X160485204Y-164450601D01*
X160487558Y-164453252D01*
X160489670Y-164457493D01*
X160491552Y-164464236D01*
X160493218Y-164474392D01*
X160494681Y-164488874D01*
X160495953Y-164508592D01*
X160497049Y-164534460D01*
X160497982Y-164567387D01*
X160498764Y-164608287D01*
X160499409Y-164658071D01*
X160499930Y-164717651D01*
X160500341Y-164787938D01*
X160500654Y-164869844D01*
X160500882Y-164964282D01*
X160501039Y-165072162D01*
X160501086Y-165129732D01*
X160501139Y-165194396D01*
X160501193Y-165331897D01*
X160501217Y-165485575D01*
X160501221Y-165656343D01*
X160501221Y-166850458D01*
X160479973Y-166867664D01*
G37*
G36*
X149444084Y-167883949D02*
G01*
X149309363Y-167883949D01*
X149306851Y-167764690D01*
X149304340Y-167645430D01*
X149271730Y-167642705D01*
X149239121Y-167639979D01*
X149163722Y-167761875D01*
X149088323Y-167883770D01*
X149013536Y-167883859D01*
X148984398Y-167883568D01*
X148958414Y-167881900D01*
X148946251Y-167878408D01*
X148945514Y-167872698D01*
X148949787Y-167866105D01*
X148963148Y-167846117D01*
X148983498Y-167815962D01*
X149009002Y-167778359D01*
X149037823Y-167736028D01*
X149065473Y-167694931D01*
X149090538Y-167655811D01*
X149105920Y-167628828D01*
X149112297Y-167612768D01*
X149110345Y-167606422D01*
X149101539Y-167601313D01*
X149082490Y-167586088D01*
X149059982Y-167565174D01*
X149033753Y-167532751D01*
X149012032Y-167485183D01*
X149005309Y-167439268D01*
X149144959Y-167439268D01*
X149147863Y-167474724D01*
X149161625Y-167502424D01*
X149187909Y-167520242D01*
X149197752Y-167523654D01*
X149229683Y-167530287D01*
X149263547Y-167532921D01*
X149308840Y-167532921D01*
X149308840Y-167368877D01*
X149245788Y-167372440D01*
X149201938Y-167377889D01*
X149169765Y-167390175D01*
X149151352Y-167410250D01*
X149144959Y-167439268D01*
X149005309Y-167439268D01*
X149004709Y-167435173D01*
X149011678Y-167386171D01*
X149032831Y-167341625D01*
X149068062Y-167304982D01*
X149091124Y-167289547D01*
X149117956Y-167276784D01*
X149149345Y-167267970D01*
X149188639Y-167262448D01*
X149239187Y-167259561D01*
X149304340Y-167258653D01*
X149439350Y-167258400D01*
X149440186Y-167368877D01*
X149441717Y-167571174D01*
X149444084Y-167883949D01*
G37*
G36*
X148684779Y-167692115D02*
G01*
X148667060Y-167742506D01*
X148640307Y-167785958D01*
X148632573Y-167795788D01*
X148599430Y-167830882D01*
X148562806Y-167855972D01*
X148515445Y-167876310D01*
X148500016Y-167881384D01*
X148468971Y-167888219D01*
X148433236Y-167890849D01*
X148386267Y-167889967D01*
X148324591Y-167883816D01*
X148262512Y-167867094D01*
X148212106Y-167839033D01*
X148171246Y-167798381D01*
X148137806Y-167743888D01*
X148136954Y-167742152D01*
X148122576Y-167709900D01*
X148113491Y-167680296D01*
X148108104Y-167646459D01*
X148104821Y-167601509D01*
X148104223Y-167568924D01*
X148251257Y-167568924D01*
X148251399Y-167589694D01*
X148253935Y-167642063D01*
X148260625Y-167681306D01*
X148272740Y-167710961D01*
X148291552Y-167734566D01*
X148318330Y-167755658D01*
X148329955Y-167762655D01*
X148359765Y-167772945D01*
X148398990Y-167775940D01*
X148423126Y-167774808D01*
X148471983Y-167762954D01*
X148509421Y-167737860D01*
X148535777Y-167699108D01*
X148551388Y-167646276D01*
X148556588Y-167578946D01*
X148554378Y-167526569D01*
X148543277Y-167465692D01*
X148522434Y-167419387D01*
X148491409Y-167387055D01*
X148449759Y-167368095D01*
X148397046Y-167361908D01*
X148392959Y-167361948D01*
X148342660Y-167370556D01*
X148301803Y-167394433D01*
X148269745Y-167433944D01*
X148263083Y-167446726D01*
X148257057Y-167464816D01*
X148253456Y-167488447D01*
X148251712Y-167521766D01*
X148251257Y-167568924D01*
X148104223Y-167568924D01*
X148103935Y-167553211D01*
X148111820Y-167471456D01*
X148132319Y-167402463D01*
X148165538Y-167346078D01*
X148211579Y-167302149D01*
X148270547Y-167270522D01*
X148342546Y-167251044D01*
X148395961Y-167246552D01*
X148459809Y-167251225D01*
X148520123Y-167265419D01*
X148570471Y-167288090D01*
X148610344Y-167317735D01*
X148649171Y-167363209D01*
X148676074Y-167419238D01*
X148691724Y-167487313D01*
X148696792Y-167568924D01*
X148696402Y-167578946D01*
X148694366Y-167631324D01*
X148684779Y-167692115D01*
G37*
G36*
X153641334Y-167258172D02*
G01*
X153703471Y-167282129D01*
X153756716Y-167319148D01*
X153798697Y-167368576D01*
X153825239Y-167421480D01*
X153844911Y-167491797D01*
X153852609Y-167568164D01*
X153847946Y-167646303D01*
X153830538Y-167721936D01*
X153827831Y-167729573D01*
X153802527Y-167777009D01*
X153765982Y-167820854D01*
X153722816Y-167856367D01*
X153677647Y-167878810D01*
X153654372Y-167884229D01*
X153610100Y-167888932D01*
X153559337Y-167889878D01*
X153508141Y-167887237D01*
X153462567Y-167881177D01*
X153428673Y-167871867D01*
X153423084Y-167869520D01*
X153406966Y-167861389D01*
X153398674Y-167851203D01*
X153395606Y-167833645D01*
X153395162Y-167803402D01*
X153395415Y-167778409D01*
X153396230Y-167757170D01*
X153397412Y-167749045D01*
X153403067Y-167750352D01*
X153421979Y-167755222D01*
X153449166Y-167762439D01*
X153459049Y-167764945D01*
X153512789Y-167773952D01*
X153564613Y-167775685D01*
X153609621Y-167770261D01*
X153642911Y-167757797D01*
X153658400Y-167746695D01*
X153680251Y-167721753D01*
X153695132Y-167688024D01*
X153704142Y-167642564D01*
X153708383Y-167582425D01*
X153709369Y-167540180D01*
X153708488Y-167510424D01*
X153704873Y-167487961D01*
X153697662Y-167467443D01*
X153685993Y-167443522D01*
X153665791Y-167411944D01*
X153629762Y-167379714D01*
X153585801Y-167363635D01*
X153533890Y-167363700D01*
X153474015Y-167379905D01*
X153454066Y-167387282D01*
X153431715Y-167394936D01*
X153420560Y-167397906D01*
X153414488Y-167391601D01*
X153405419Y-167373015D01*
X153395832Y-167347773D01*
X153387682Y-167321602D01*
X153382924Y-167300230D01*
X153383513Y-167289381D01*
X153388788Y-167286105D01*
X153407963Y-167277677D01*
X153434457Y-167268034D01*
X153499865Y-167252063D01*
X153572675Y-167247932D01*
X153641334Y-167258172D01*
G37*
G36*
X148854261Y-164376594D02*
G01*
X148987483Y-164397590D01*
X149109742Y-164432159D01*
X149220779Y-164480260D01*
X149320331Y-164541853D01*
X149408137Y-164616898D01*
X149428994Y-164638557D01*
X149492684Y-164718933D01*
X149541043Y-164806586D01*
X149575937Y-164904714D01*
X149580990Y-164926489D01*
X149588835Y-164983072D01*
X149592821Y-165049363D01*
X149593010Y-165120025D01*
X149589461Y-165189717D01*
X149582234Y-165253102D01*
X149571392Y-165304840D01*
X149543919Y-165382764D01*
X149499721Y-165470070D01*
X149445738Y-165545868D01*
X149416051Y-165578866D01*
X149373691Y-165622366D01*
X149324627Y-165670142D01*
X149272028Y-165719293D01*
X149219065Y-165766919D01*
X149168907Y-165810119D01*
X149124726Y-165845992D01*
X149089691Y-165871638D01*
X149072451Y-165882630D01*
X149027838Y-165908569D01*
X148968594Y-165940473D01*
X148894327Y-165978542D01*
X148804641Y-166022977D01*
X148699143Y-166073977D01*
X148577440Y-166131742D01*
X148559911Y-166140150D01*
X148519164Y-166162002D01*
X148492608Y-166181727D01*
X148478079Y-166201954D01*
X148473414Y-166225310D01*
X148476450Y-166254423D01*
X148482453Y-166276449D01*
X148506837Y-166317512D01*
X148546701Y-166349786D01*
X148601851Y-166373201D01*
X148672093Y-166387689D01*
X148757230Y-166393180D01*
X148857069Y-166389604D01*
X148924288Y-166382946D01*
X149045525Y-166364416D01*
X149171042Y-166337831D01*
X149294180Y-166304487D01*
X149306028Y-166300903D01*
X149352426Y-166287213D01*
X149385436Y-166278589D01*
X149408161Y-166274690D01*
X149423706Y-166275180D01*
X149435174Y-166279718D01*
X149445667Y-166287967D01*
X149445797Y-166288090D01*
X149452955Y-166300819D01*
X149464373Y-166327909D01*
X149479120Y-166366571D01*
X149496266Y-166414014D01*
X149514880Y-166467450D01*
X149534032Y-166524087D01*
X149552790Y-166581137D01*
X149570225Y-166635810D01*
X149585405Y-166685316D01*
X149597401Y-166726865D01*
X149605280Y-166757668D01*
X149608114Y-166774934D01*
X149605437Y-166790881D01*
X149592439Y-166808110D01*
X149566402Y-166822669D01*
X149524857Y-166836379D01*
X149503952Y-166842216D01*
X149478514Y-166849447D01*
X149463960Y-166853756D01*
X149461728Y-166854820D01*
X149456391Y-166867126D01*
X149458352Y-166893594D01*
X149459969Y-166906099D01*
X149458640Y-166929575D01*
X149447790Y-166946637D01*
X149424668Y-166960360D01*
X149386518Y-166973819D01*
X149340335Y-166987279D01*
X149234797Y-167013646D01*
X149119949Y-167037362D01*
X149001616Y-167057391D01*
X148885624Y-167072695D01*
X148777798Y-167082236D01*
X148692810Y-167086699D01*
X148608367Y-167088740D01*
X148532941Y-167087303D01*
X148461883Y-167082165D01*
X148390540Y-167073103D01*
X148314262Y-167059891D01*
X148217516Y-167036661D01*
X148108255Y-166998075D01*
X148008180Y-166948858D01*
X147919229Y-166890144D01*
X147843340Y-166823065D01*
X147782450Y-166748757D01*
X147751548Y-166699288D01*
X147713885Y-166620573D01*
X147688196Y-166536857D01*
X147673502Y-166444616D01*
X147668821Y-166340327D01*
X147669090Y-166315342D01*
X147677754Y-166205302D01*
X147699145Y-166105667D01*
X147733978Y-166013852D01*
X147782968Y-165927268D01*
X147802697Y-165901221D01*
X147833327Y-165865528D01*
X147872109Y-165823062D01*
X147916526Y-165776349D01*
X147964064Y-165727917D01*
X148012203Y-165680290D01*
X148058429Y-165635996D01*
X148100224Y-165597559D01*
X148135073Y-165567506D01*
X148160457Y-165548364D01*
X148165841Y-165544899D01*
X148232026Y-165505449D01*
X148313674Y-165461868D01*
X148411391Y-165413847D01*
X148525778Y-165361076D01*
X148530581Y-165358917D01*
X148602983Y-165326163D01*
X148660614Y-165299564D01*
X148705143Y-165278220D01*
X148738237Y-165261233D01*
X148761565Y-165247703D01*
X148776795Y-165236731D01*
X148785596Y-165227417D01*
X148789636Y-165218862D01*
X148792541Y-165195061D01*
X148783840Y-165157185D01*
X148760042Y-165122460D01*
X148722945Y-165093180D01*
X148674344Y-165071639D01*
X148663281Y-165068325D01*
X148640177Y-165062905D01*
X148614854Y-165059645D01*
X148583377Y-165058314D01*
X148541810Y-165058678D01*
X148486220Y-165060504D01*
X148457294Y-165061840D01*
X148334259Y-165073152D01*
X148218901Y-165093961D01*
X148104324Y-165125439D01*
X148069581Y-165135951D01*
X148031139Y-165144892D01*
X148004164Y-165146430D01*
X147985754Y-165140612D01*
X147973005Y-165127482D01*
X147972643Y-165126900D01*
X147965205Y-165109932D01*
X147954123Y-165078903D01*
X147940314Y-165036930D01*
X147924696Y-164987130D01*
X147908185Y-164932620D01*
X147891698Y-164876518D01*
X147876153Y-164821939D01*
X147862466Y-164772003D01*
X147851554Y-164729825D01*
X147844335Y-164698523D01*
X147841725Y-164681214D01*
X147842034Y-164674160D01*
X147847935Y-164655198D01*
X147863438Y-164640004D01*
X147891293Y-164626545D01*
X147934248Y-164612787D01*
X147986269Y-164598032D01*
X147980460Y-164554248D01*
X147978888Y-164541453D01*
X147978220Y-164519683D01*
X147983506Y-164506689D01*
X147996489Y-164496155D01*
X148009904Y-164488573D01*
X148038418Y-164476687D01*
X148078525Y-164463823D01*
X148132284Y-164449343D01*
X148201753Y-164432609D01*
X148216974Y-164429124D01*
X148391434Y-164395434D01*
X148555975Y-164375476D01*
X148710338Y-164369209D01*
X148854261Y-164376594D01*
G37*
G36*
X154936383Y-164372770D02*
G01*
X155028790Y-164381810D01*
X155081507Y-164391257D01*
X155153371Y-164408090D01*
X155224713Y-164428653D01*
X155289724Y-164451236D01*
X155342596Y-164474133D01*
X155373914Y-164490699D01*
X155468011Y-164552698D01*
X155549008Y-164626069D01*
X155616087Y-164709842D01*
X155668432Y-164803047D01*
X155705225Y-164904714D01*
X155712784Y-164943058D01*
X155718602Y-164998219D01*
X155721640Y-165061419D01*
X155721890Y-165127516D01*
X155719344Y-165191365D01*
X155713993Y-165247822D01*
X155705831Y-165291745D01*
X155700933Y-165308700D01*
X155678123Y-165370297D01*
X155648027Y-165434208D01*
X155614023Y-165493735D01*
X155579489Y-165542184D01*
X155550266Y-165575039D01*
X155508415Y-165618032D01*
X155459146Y-165665836D01*
X155405745Y-165715459D01*
X155351501Y-165763911D01*
X155299701Y-165808200D01*
X155253634Y-165845335D01*
X155216587Y-165872326D01*
X155205833Y-165879228D01*
X155168574Y-165901241D01*
X155120057Y-165928066D01*
X155063937Y-165957755D01*
X155003871Y-165988358D01*
X154943516Y-166017925D01*
X154925401Y-166026602D01*
X154847122Y-166064125D01*
X154783242Y-166094897D01*
X154732247Y-166119788D01*
X154692625Y-166139666D01*
X154662864Y-166155402D01*
X154641449Y-166167865D01*
X154626868Y-166177923D01*
X154617609Y-166186447D01*
X154612159Y-166194305D01*
X154609004Y-166202366D01*
X154606633Y-166211501D01*
X154606472Y-166212150D01*
X154603190Y-166235558D01*
X154607280Y-166258124D01*
X154620134Y-166287702D01*
X154640638Y-166318264D01*
X154681193Y-166351197D01*
X154736814Y-166374798D01*
X154807744Y-166389198D01*
X154861637Y-166392967D01*
X154939235Y-166391657D01*
X155027666Y-166384369D01*
X155123737Y-166371540D01*
X155224257Y-166353610D01*
X155326032Y-166331018D01*
X155425871Y-166304204D01*
X155427285Y-166303788D01*
X155469270Y-166291748D01*
X155505516Y-166281904D01*
X155532191Y-166275260D01*
X155545467Y-166272822D01*
X155556270Y-166274882D01*
X155566993Y-166282361D01*
X155578154Y-166296950D01*
X155590540Y-166320338D01*
X155604940Y-166354214D01*
X155622140Y-166400267D01*
X155642930Y-166460186D01*
X155668098Y-166535660D01*
X155669210Y-166539036D01*
X155693755Y-166613613D01*
X155712751Y-166673055D01*
X155726109Y-166719303D01*
X155733739Y-166754296D01*
X155735553Y-166779976D01*
X155731460Y-166798283D01*
X155721373Y-166811157D01*
X155705200Y-166820540D01*
X155682853Y-166828372D01*
X155654243Y-166836594D01*
X155586834Y-166855823D01*
X155589762Y-166896697D01*
X155590310Y-166907962D01*
X155588615Y-166926850D01*
X155581191Y-166941703D01*
X155565668Y-166954106D01*
X155539679Y-166965649D01*
X155500854Y-166977918D01*
X155446824Y-166992502D01*
X155409955Y-167001952D01*
X155275738Y-167033196D01*
X155151656Y-167056535D01*
X155033306Y-167072717D01*
X154916282Y-167082487D01*
X154886387Y-167084139D01*
X154791498Y-167088020D01*
X154709154Y-167088745D01*
X154635289Y-167086093D01*
X154565836Y-167079841D01*
X154496729Y-167069768D01*
X154423901Y-167055652D01*
X154404138Y-167051243D01*
X154292981Y-167018825D01*
X154189516Y-166975694D01*
X154095683Y-166923074D01*
X154013427Y-166862187D01*
X153944690Y-166794255D01*
X153891414Y-166720501D01*
X153852012Y-166639614D01*
X153821077Y-166542127D01*
X153802719Y-166438080D01*
X153797102Y-166330920D01*
X153804390Y-166224097D01*
X153824748Y-166121058D01*
X153858339Y-166025252D01*
X153864339Y-166012132D01*
X153884287Y-165974145D01*
X153908873Y-165935719D01*
X153939886Y-165894582D01*
X153979120Y-165848461D01*
X154028366Y-165795085D01*
X154089415Y-165732182D01*
X154123473Y-165698005D01*
X154174088Y-165649034D01*
X154221063Y-165606747D01*
X154266946Y-165569482D01*
X154314284Y-165535574D01*
X154365623Y-165503359D01*
X154423511Y-165471172D01*
X154490494Y-165437350D01*
X154569120Y-165400229D01*
X154661937Y-165358145D01*
X154721306Y-165331488D01*
X154783690Y-165302996D01*
X154832322Y-165279689D01*
X154868727Y-165260397D01*
X154894430Y-165243952D01*
X154910954Y-165229185D01*
X154919825Y-165214927D01*
X154922567Y-165200009D01*
X154920705Y-165183261D01*
X154915763Y-165163515D01*
X154913289Y-165155619D01*
X154892287Y-165119742D01*
X154857184Y-165092252D01*
X154807406Y-165072912D01*
X154742380Y-165061483D01*
X154661533Y-165057726D01*
X154566079Y-165061429D01*
X154418066Y-165080872D01*
X154266347Y-165116773D01*
X154257416Y-165119336D01*
X154205804Y-165133598D01*
X154168164Y-165142460D01*
X154141765Y-165146101D01*
X154123873Y-165144699D01*
X154111758Y-165138433D01*
X154102686Y-165127482D01*
X154102134Y-165126561D01*
X154094639Y-165109066D01*
X154083521Y-165077635D01*
X154069695Y-165035376D01*
X154054073Y-164985397D01*
X154037570Y-164930803D01*
X154021099Y-164874703D01*
X154005575Y-164820204D01*
X153991909Y-164770412D01*
X153981017Y-164728435D01*
X153973812Y-164697380D01*
X153971207Y-164680353D01*
X153971472Y-164674053D01*
X153977334Y-164655232D01*
X153992935Y-164640039D01*
X154020981Y-164626504D01*
X154064178Y-164612657D01*
X154116646Y-164597772D01*
X154110754Y-164562902D01*
X154108340Y-164540978D01*
X154111911Y-164517392D01*
X154125816Y-164499427D01*
X154152541Y-164484302D01*
X154194575Y-164469239D01*
X154247635Y-164453509D01*
X154359699Y-164425945D01*
X154477845Y-164403500D01*
X154598330Y-164386568D01*
X154717409Y-164375541D01*
X154831341Y-164370811D01*
X154936383Y-164372770D01*
G37*
G36*
X145609549Y-167883949D02*
G01*
X145609549Y-167639843D01*
X145575963Y-167642637D01*
X145567526Y-167643516D01*
X145555878Y-167646447D01*
X145544909Y-167653238D01*
X145532580Y-167666174D01*
X145516854Y-167687538D01*
X145495691Y-167719615D01*
X145467054Y-167764690D01*
X145391732Y-167883949D01*
X145320626Y-167883949D01*
X145311229Y-167883909D01*
X145279804Y-167883119D01*
X145257806Y-167881523D01*
X145249520Y-167879397D01*
X145252877Y-167873109D01*
X145264784Y-167853920D01*
X145283761Y-167824390D01*
X145308196Y-167787026D01*
X145336474Y-167744334D01*
X145360501Y-167707949D01*
X145385058Y-167669976D01*
X145404137Y-167639570D01*
X145416206Y-167619182D01*
X145419731Y-167611260D01*
X145396929Y-167594763D01*
X145356755Y-167559470D01*
X145330740Y-167524246D01*
X145316718Y-167485637D01*
X145312525Y-167440188D01*
X145313138Y-167431543D01*
X145448242Y-167431543D01*
X145451246Y-167469429D01*
X145468825Y-167502663D01*
X145478450Y-167512717D01*
X145493886Y-167522566D01*
X145515751Y-167528052D01*
X145549832Y-167531216D01*
X145609549Y-167535018D01*
X145609549Y-167370909D01*
X145559598Y-167370909D01*
X145539439Y-167371742D01*
X145499355Y-167379136D01*
X145469317Y-167392981D01*
X145453127Y-167411815D01*
X145448242Y-167431543D01*
X145313138Y-167431543D01*
X145315011Y-167405141D01*
X145330348Y-167356254D01*
X145360516Y-167316973D01*
X145406475Y-167285716D01*
X145418721Y-167279542D01*
X145437479Y-167271139D01*
X145456081Y-167265240D01*
X145478158Y-167261279D01*
X145507341Y-167258694D01*
X145547260Y-167256918D01*
X145601548Y-167255388D01*
X145744559Y-167251749D01*
X145744559Y-167883949D01*
X145609549Y-167883949D01*
G37*
%TD*%
%LPC*%
D11*
%TO.C,J5*%
X169418000Y-172217000D03*
D12*
X169418000Y-174757000D03*
X169418000Y-177297000D03*
X169418000Y-179837000D03*
X169418000Y-182377000D03*
%TD*%
D11*
%TO.C,J6*%
X145034000Y-186167000D03*
D12*
X145034000Y-183627000D03*
X145034000Y-181087000D03*
%TD*%
D13*
%TO.C,H3*%
X144272000Y-141224000D03*
%TD*%
D14*
%TO.C,J4*%
X164044000Y-140772000D03*
X164044000Y-147772000D03*
X159044000Y-140772000D03*
X159044000Y-147772000D03*
%TD*%
D13*
%TO.C,H2*%
X169418000Y-187198000D03*
%TD*%
D14*
%TO.C,J3*%
X154172699Y-140772000D03*
X149172699Y-147772000D03*
X149172699Y-140772000D03*
X154172699Y-147772000D03*
%TD*%
%TO.C,J2*%
X164298000Y-187396000D03*
X164298000Y-180396000D03*
X159298000Y-180396000D03*
X159298000Y-187396000D03*
%TD*%
D13*
%TO.C,H4*%
X169672000Y-160782000D03*
%TD*%
D14*
%TO.C,J1*%
X149392000Y-180396000D03*
X149392000Y-187396000D03*
X154392000Y-187396000D03*
X154392000Y-180396000D03*
%TD*%
D13*
%TO.C,H1*%
X169672000Y-141224000D03*
%TD*%
M02*
