%TF.GenerationSoftware,KiCad,Pcbnew,(6.0.0)*%
%TF.CreationDate,2022-02-23T23:52:20-08:00*%
%TF.ProjectId,motor-controller,6d6f746f-722d-4636-9f6e-74726f6c6c65,rev?*%
%TF.SameCoordinates,Original*%
%TF.FileFunction,Soldermask,Top*%
%TF.FilePolarity,Negative*%
%FSLAX46Y46*%
G04 Gerber Fmt 4.6, Leading zero omitted, Abs format (unit mm)*
G04 Created by KiCad (PCBNEW (6.0.0)) date 2022-02-23 23:52:20*
%MOMM*%
%LPD*%
G01*
G04 APERTURE LIST*
G04 Aperture macros list*
%AMRoundRect*
0 Rectangle with rounded corners*
0 $1 Rounding radius*
0 $2 $3 $4 $5 $6 $7 $8 $9 X,Y pos of 4 corners*
0 Add a 4 corners polygon primitive as box body*
4,1,4,$2,$3,$4,$5,$6,$7,$8,$9,$2,$3,0*
0 Add four circle primitives for the rounded corners*
1,1,$1+$1,$2,$3*
1,1,$1+$1,$4,$5*
1,1,$1+$1,$6,$7*
1,1,$1+$1,$8,$9*
0 Add four rect primitives between the rounded corners*
20,1,$1+$1,$2,$3,$4,$5,0*
20,1,$1+$1,$4,$5,$6,$7,0*
20,1,$1+$1,$6,$7,$8,$9,0*
20,1,$1+$1,$8,$9,$2,$3,0*%
G04 Aperture macros list end*
%ADD10RoundRect,0.237500X-0.237500X0.250000X-0.237500X-0.250000X0.237500X-0.250000X0.237500X0.250000X0*%
%ADD11RoundRect,0.237500X0.237500X-0.300000X0.237500X0.300000X-0.237500X0.300000X-0.237500X-0.300000X0*%
%ADD12R,1.700000X1.700000*%
%ADD13O,1.700000X1.700000*%
%ADD14RoundRect,0.250000X0.325000X0.650000X-0.325000X0.650000X-0.325000X-0.650000X0.325000X-0.650000X0*%
%ADD15C,2.100000*%
%ADD16R,2.200000X2.200000*%
%ADD17R,1.000000X0.400000*%
%ADD18C,0.249936*%
%ADD19C,0.250000*%
%ADD20R,2.200000X1.200000*%
%ADD21R,6.400000X5.800000*%
%ADD22RoundRect,0.237500X-0.250000X-0.237500X0.250000X-0.237500X0.250000X0.237500X-0.250000X0.237500X0*%
%ADD23RoundRect,0.237500X0.237500X-0.250000X0.237500X0.250000X-0.237500X0.250000X-0.237500X-0.250000X0*%
%ADD24RoundRect,0.100000X0.260000X0.000000X0.260000X0.000000X-0.260000X0.000000X-0.260000X0.000000X0*%
%ADD25R,1.500000X2.000000*%
%ADD26R,3.800000X2.000000*%
%ADD27RoundRect,0.250000X0.475000X-0.337500X0.475000X0.337500X-0.475000X0.337500X-0.475000X-0.337500X0*%
%ADD28R,0.800000X1.000000*%
%ADD29RoundRect,0.237500X0.250000X0.237500X-0.250000X0.237500X-0.250000X-0.237500X0.250000X-0.237500X0*%
G04 APERTURE END LIST*
D10*
%TO.C,R9*%
X155181035Y-171452651D03*
X155181035Y-173277651D03*
%TD*%
D11*
%TO.C,C12*%
X166116000Y-174598500D03*
X166116000Y-172873500D03*
%TD*%
D12*
%TO.C,J5*%
X169418000Y-172217000D03*
D13*
X169418000Y-174757000D03*
X169418000Y-177297000D03*
X169418000Y-179837000D03*
X169418000Y-182377000D03*
%TD*%
D14*
%TO.C,C19*%
X148795000Y-155964516D03*
X145845000Y-155964516D03*
%TD*%
D12*
%TO.C,J6*%
X145034000Y-186167000D03*
D13*
X145034000Y-183627000D03*
X145034000Y-181087000D03*
%TD*%
D15*
%TO.C,H3*%
X144272000Y-141224000D03*
%TD*%
D16*
%TO.C,J4*%
X164044000Y-140772000D03*
X164044000Y-147772000D03*
X159044000Y-140772000D03*
X159044000Y-147772000D03*
%TD*%
D17*
%TO.C,U4*%
X164444000Y-176661000D03*
X164444000Y-176011000D03*
X164444000Y-175361000D03*
X164444000Y-174711000D03*
X164444000Y-174061000D03*
X164444000Y-173411000D03*
X164444000Y-172761000D03*
X164444000Y-172111000D03*
X164444000Y-171461000D03*
X164444000Y-170811000D03*
X158644000Y-170811000D03*
X158644000Y-171461000D03*
X158644000Y-172111000D03*
X158644000Y-172761000D03*
X158644000Y-173411000D03*
X158644000Y-174061000D03*
X158644000Y-174711000D03*
X158644000Y-175361000D03*
X158644000Y-176011000D03*
X158644000Y-176661000D03*
%TD*%
D15*
%TO.C,H2*%
X169418000Y-187198000D03*
%TD*%
D18*
%TO.C,U2*%
X160445763Y-157704516D03*
D19*
X160445763Y-158104515D03*
X160445763Y-158504516D03*
D18*
X160445763Y-158904516D03*
X160045763Y-157704516D03*
X160045763Y-158904516D03*
X159645763Y-157704516D03*
X159645763Y-158904516D03*
X159245763Y-157704516D03*
X159245763Y-158104515D03*
X159245763Y-158504516D03*
X159245763Y-158904516D03*
%TD*%
D14*
%TO.C,C5*%
X166829000Y-151384000D03*
X163879000Y-151384000D03*
%TD*%
%TO.C,C15*%
X166829000Y-155956000D03*
X163879000Y-155956000D03*
%TD*%
D16*
%TO.C,J3*%
X154172699Y-140772000D03*
X149172699Y-147772000D03*
X149172699Y-140772000D03*
X154172699Y-147772000D03*
%TD*%
%TO.C,J2*%
X164298000Y-187396000D03*
X164298000Y-180396000D03*
X159298000Y-180396000D03*
X159298000Y-187396000D03*
%TD*%
D20*
%TO.C,U6*%
X158106000Y-163836000D03*
D21*
X164406000Y-166116000D03*
D20*
X158106000Y-168396000D03*
%TD*%
D14*
%TO.C,C7*%
X148795000Y-153678516D03*
X145845000Y-153678516D03*
%TD*%
D22*
%TO.C,R10*%
X151636775Y-177223938D03*
X153461775Y-177223938D03*
%TD*%
D11*
%TO.C,C18*%
X161940279Y-159866500D03*
X161940279Y-158141500D03*
%TD*%
D23*
%TO.C,R13*%
X171241409Y-168298500D03*
X171241409Y-166473500D03*
%TD*%
D24*
%TO.C,Q4*%
X160722000Y-153641119D03*
X160722000Y-152841119D03*
X162052000Y-153241119D03*
X162052000Y-154041119D03*
X162052000Y-156041119D03*
X162052000Y-152441119D03*
X162052000Y-150841119D03*
X160722000Y-156441119D03*
X160722000Y-153241119D03*
X160722000Y-154441119D03*
X160722000Y-154841119D03*
X160722000Y-156041119D03*
X162052000Y-155641119D03*
X162052000Y-153641119D03*
X162052000Y-151641119D03*
X160722000Y-155241119D03*
X160722000Y-152041119D03*
X160722000Y-152441119D03*
X160722000Y-155641119D03*
X162052000Y-152841119D03*
X162052000Y-154441119D03*
X160722000Y-151641119D03*
X160722000Y-151241119D03*
X162052000Y-156441119D03*
X162052000Y-155241119D03*
X162052000Y-154841119D03*
X160722000Y-150841119D03*
X162052000Y-151241119D03*
X162052000Y-152041119D03*
X160722000Y-154041119D03*
%TD*%
D22*
%TO.C,R11*%
X153158602Y-175709463D03*
X154983602Y-175709463D03*
%TD*%
D15*
%TO.C,H4*%
X169672000Y-160782000D03*
%TD*%
D11*
%TO.C,C17*%
X157876279Y-159866500D03*
X157876279Y-158141500D03*
%TD*%
D24*
%TO.C,Q2*%
X155351000Y-155678516D03*
X154021000Y-151678516D03*
X154021000Y-153278516D03*
X154021000Y-154078516D03*
X155351000Y-156478516D03*
X155351000Y-152478516D03*
X154021000Y-152478516D03*
X154021000Y-151278516D03*
X154021000Y-154878516D03*
X155351000Y-156078516D03*
X154021000Y-154478516D03*
X155351000Y-152878516D03*
X155351000Y-153278516D03*
X155351000Y-153678516D03*
X155351000Y-150878516D03*
X154021000Y-155678516D03*
X155351000Y-154078516D03*
X154021000Y-150878516D03*
X154021000Y-155278516D03*
X155351000Y-151278516D03*
X155351000Y-151678516D03*
X154021000Y-156078516D03*
X155351000Y-154878516D03*
X155351000Y-152078516D03*
X154021000Y-153678516D03*
X155351000Y-155278516D03*
X154021000Y-156478516D03*
X154021000Y-152878516D03*
X155351000Y-154478516D03*
X154021000Y-152078516D03*
%TD*%
D16*
%TO.C,J1*%
X149392000Y-180396000D03*
X149392000Y-187396000D03*
X154392000Y-187396000D03*
X154392000Y-180396000D03*
%TD*%
D25*
%TO.C,U5*%
X148604000Y-170586000D03*
X146304000Y-170586000D03*
X144004000Y-170586000D03*
D26*
X146304000Y-176886000D03*
%TD*%
D11*
%TO.C,C1*%
X154946605Y-159868524D03*
X154946605Y-158143524D03*
%TD*%
D14*
%TO.C,C6*%
X148795000Y-151392516D03*
X145845000Y-151392516D03*
%TD*%
D10*
%TO.C,R12*%
X169418000Y-166473500D03*
X169418000Y-168298500D03*
%TD*%
D27*
%TO.C,C13*%
X146304000Y-168169500D03*
X146304000Y-166094500D03*
%TD*%
%TO.C,C10*%
X155448000Y-168423500D03*
X155448000Y-166348500D03*
%TD*%
D11*
%TO.C,C2*%
X151130000Y-160129016D03*
X151130000Y-158404016D03*
%TD*%
D18*
%TO.C,U1*%
X153699484Y-157713032D03*
D19*
X153699484Y-158113031D03*
X153699484Y-158513032D03*
D18*
X153699484Y-158913032D03*
X153299484Y-157713032D03*
X153299484Y-158913032D03*
X152899484Y-157713032D03*
X152899484Y-158913032D03*
X152499484Y-157713032D03*
X152499484Y-158113031D03*
X152499484Y-158513032D03*
X152499484Y-158913032D03*
%TD*%
D24*
%TO.C,Q1*%
X150973000Y-155678516D03*
X150973000Y-153678516D03*
X152303000Y-151678516D03*
X152303000Y-152078516D03*
X150973000Y-156078516D03*
X150973000Y-152878516D03*
X152303000Y-153278516D03*
X150973000Y-154878516D03*
X152303000Y-156078516D03*
X150973000Y-154478516D03*
X152303000Y-154878516D03*
X152303000Y-155278516D03*
X150973000Y-154078516D03*
X152303000Y-152878516D03*
X152303000Y-156478516D03*
X152303000Y-150878516D03*
X152303000Y-155678516D03*
X152303000Y-154078516D03*
X150973000Y-151278516D03*
X150973000Y-156478516D03*
X150973000Y-151678516D03*
X150973000Y-152078516D03*
X152303000Y-154478516D03*
X152303000Y-153678516D03*
X150973000Y-155278516D03*
X150973000Y-152478516D03*
X150973000Y-153278516D03*
X150973000Y-150878516D03*
X152303000Y-152478516D03*
X152303000Y-151278516D03*
%TD*%
D28*
%TO.C,D3*%
X153100000Y-171470000D03*
X151700000Y-171470000D03*
X151700000Y-173970000D03*
X153100000Y-173970000D03*
%TD*%
D29*
%TO.C,R14*%
X153312500Y-169672000D03*
X151487500Y-169672000D03*
%TD*%
D27*
%TO.C,C11*%
X143764000Y-168169500D03*
X143764000Y-166094500D03*
%TD*%
D14*
%TO.C,C3*%
X166829000Y-158242000D03*
X163879000Y-158242000D03*
%TD*%
%TO.C,C8*%
X166829000Y-153670000D03*
X163879000Y-153670000D03*
%TD*%
%TO.C,C9*%
X148795000Y-158250516D03*
X145845000Y-158250516D03*
%TD*%
D15*
%TO.C,H1*%
X169672000Y-141224000D03*
%TD*%
D24*
%TO.C,Q3*%
X157674000Y-154841119D03*
X157674000Y-156041119D03*
X157674000Y-154041119D03*
X159004000Y-152841119D03*
X157674000Y-152041119D03*
X157674000Y-150841119D03*
X159004000Y-153241119D03*
X159004000Y-156441119D03*
X157674000Y-152441119D03*
X157674000Y-153641119D03*
X159004000Y-152041119D03*
X159004000Y-150841119D03*
X159004000Y-153641119D03*
X157674000Y-154441119D03*
X157674000Y-152841119D03*
X157674000Y-155241119D03*
X159004000Y-152441119D03*
X159004000Y-156041119D03*
X157674000Y-155641119D03*
X159004000Y-154841119D03*
X157674000Y-151641119D03*
X159004000Y-151241119D03*
X159004000Y-154441119D03*
X159004000Y-155241119D03*
X159004000Y-154041119D03*
X157674000Y-153241119D03*
X157674000Y-156441119D03*
X157674000Y-151241119D03*
X159004000Y-151641119D03*
X159004000Y-155641119D03*
%TD*%
M02*
